<!DOCTYPE svg PUBLIC "-//W3C//DTD SVG 1.1//EN" "http://www.w3.org/Graphics/SVG/1.1/DTD/svg11.dtd" [
	<!ENTITY ns_flows "http://ns.adobe.com/Flows/1.0/">
]><svg xmlns="http://www.w3.org/2000/svg" width="2052" height="1400" viewBox="-31.001 0 2052 1400" overflow="visible" enable-background="new -31.001 0 2052 1400"><path fill="#262D33" d="M1994.996 1189.649c2.75 0 5-2.25 5-5v-1179.649c0-2.75-2.25-5-5-5h-1989.996c-2.75 0-5 2.25-5 5v1179.649c0 2.75 2.25 5 5 5h1989.996z"/><rect x="73.194" fill="#BECCDC" width="1853.607" height="944.844"/><path fill="#262D33" d="M144.748 1365.695c0 2.75 2.25 5 5 5h655.482c2.75 0 5-2.25 5-5v-1290.271c0-2.75-2.25-5-5-5h-655.482c-2.75 0-5 2.25-5 5v1290.271z"/><rect x="177.768" y="150.753" fill="#BECCDC" width="599.448" height="1074.108"/><circle fill="#3E434A" cx="999.998" cy="1051.189" r="57.052"/><circle fill="#262D33" cx="999.998" cy="1051.189" r="45.642"/><path fill="#3E434A" d="M355.992 1279.564c0 2.75-2.25 5-5 5h-98.175c-2.75 0-5-2.25-5-5v-13.908c0-2.75 2.25-5 5-5h98.175c2.75 0 5 2.25 5 5v13.908z"/><path fill="#3E434A" d="M520.251 1279.564c0 2.75-2.25 5-5 5h-98.176c-2.75 0-5-2.25-5-5v-13.908c0-2.75 2.25-5 5-5h98.176c2.75 0 5 2.25 5 5v13.908z"/><path fill="#3E434A" d="M684.51 1279.564c0 2.75-2.25 5-5 5h-98.175c-2.75 0-5-2.25-5-5v-13.908c0-2.75 2.25-5 5-5h98.175c2.75 0 5 2.25 5 5v13.908z"/></svg>