<!DOCTYPE svg PUBLIC "-//W3C//DTD SVG 1.1//EN" "http://www.w3.org/Graphics/SVG/1.1/DTD/svg11.dtd" [
	<!ENTITY ns_flows "http://ns.adobe.com/Flows/1.0/">
]><svg xmlns="http://www.w3.org/2000/svg" width="800" height="705" viewBox="-11.438 -10.453 800 705" overflow="visible" enable-background="new -11.438 -10.453 800 705"><path fill="#E3E3E3" d="M769.171 422.816c.521-1.565-.335-3.272-1.9-3.793l-262.594-87.249c-1.565-.52-3.272.335-3.793 1.901l-27.584 83.028c-.521 1.565.335 3.272 1.9 3.793l262.594 87.247c1.565.521 3.272-.335 3.793-1.9l27.584-83.027z"/><path fill="#fff" d="M622.639 420.228c55.621-167.417-35-348.224-202.414-403.847-167.413-55.625-348.219 34.999-403.845 202.412-55.624 167.416 35 348.221 202.411 403.842 167.416 55.626 348.222-34.999 403.848-202.407z"/><circle fill="#E3E3E3" cx="319.509" cy="319.509" r="255.759"/><circle fill="#AD7000" cx="319.508" cy="319.509" r="238.304"/><path fill="#7D5100" d="M539.361 392.557c40.341-121.421-25.385-252.557-146.807-292.901-121.416-40.341-252.554 25.386-292.897 146.806-40.344 121.421 25.386 252.556 146.805 292.899 121.418 40.344 252.556-25.386 292.899-146.804z"/><path fill="#AD7000" d="M428.729 489.659c2.25-6.776-1.415-14.095-8.197-16.347-6.775-2.253-14.098 1.416-16.347 8.191-2.252 6.778 1.418 14.101 8.194 16.352 6.778 2.252 14.096-1.419 16.35-8.196z"/><circle fill="#AD7000" cx="439.587" cy="496.896" r="7.722"/><path fill="#AD7000" d="M440.465 512.625c.708-2.129-.443-4.432-2.573-5.138-2.131-.71-4.434.447-5.143 2.576-.706 2.132.445 4.432 2.581 5.142 2.128.708 4.428-.446 5.135-2.58z"/><circle fill="#AD7000" cx="419.833" cy="514.898" r="7.721"/></svg>