<!DOCTYPE svg PUBLIC "-//W3C//DTD SVG 1.1//EN" "http://www.w3.org/Graphics/SVG/1.1/DTD/svg11.dtd" [
	<!ENTITY ns_flows "http://ns.adobe.com/Flows/1.0/">
]><svg xmlns="http://www.w3.org/2000/svg" width="1775" height="800" viewBox="-21.594 -17.118 1775 800" overflow="visible" enable-background="new -21.594 -17.118 1775 800"><rect fill="#D9DEE3" width="1730.917" height="764.413"/><path fill="#fff" d="M1541.18 212.106c0 1.65 1.35 3 3 3h144.355c1.65 0 3-1.35 3-3v-90.578c0-1.65-1.35-3-3-3h-144.355c-1.65 0-3 1.35-3 3v90.578z"/><path fill="#fff" d="M1416.32 212.106c0 1.65 1.35 3 3 3h90.578c1.65 0 3-1.35 3-3v-90.578c0-1.65-1.35-3-3-3h-90.578c-1.65 0-3 1.35-3 3v90.578z"/><path fill="#fff" d="M1291.207 212.106c0 1.65 1.35 3 3 3h90.579c1.65 0 3-1.35 3-3v-90.578c0-1.65-1.35-3-3-3h-90.579c-1.65 0-3 1.35-3 3v90.578z"/><path fill="#fff" d="M1166.093 212.106c0 1.65 1.35 3 3 3h90.579c1.65 0 3-1.35 3-3v-90.578c0-1.65-1.35-3-3-3h-90.579c-1.65 0-3 1.35-3 3v90.578z"/><path fill="#fff" d="M1040.98 212.106c0 1.65 1.35 3 3 3h90.579c1.65 0 3-1.35 3-3v-90.578c0-1.65-1.35-3-3-3h-90.579c-1.65 0-3 1.35-3 3v90.578z"/><path fill="#fff" d="M915.868 212.106c0 1.65 1.35 3 3 3h90.578c1.65 0 3-1.35 3-3v-90.578c0-1.65-1.35-3-3-3h-90.578c-1.65 0-3 1.35-3 3v90.578z"/><path fill="#fff" d="M790.755 212.106c0 1.65 1.35 3 3 3h90.578c1.65 0 3-1.35 3-3v-90.578c0-1.65-1.35-3-3-3h-90.578c-1.65 0-3 1.35-3 3v90.578z"/><path fill="#fff" d="M665.643 212.106c0 1.65 1.35 3 3 3h90.579c1.65 0 3-1.35 3-3v-90.578c0-1.65-1.35-3-3-3h-90.579c-1.65 0-3 1.35-3 3v90.578z"/><path fill="#fff" d="M540.529 212.106c0 1.65 1.35 3 3 3h90.579c1.65 0 3-1.35 3-3v-90.578c0-1.65-1.35-3-3-3h-90.579c-1.65 0-3 1.35-3 3v90.578z"/><path fill="#fff" d="M415.417 212.106c0 1.65 1.35 3 3 3h90.579c1.65 0 3-1.35 3-3v-90.578c0-1.65-1.35-3-3-3h-90.579c-1.65 0-3 1.35-3 3v90.578z"/><path fill="#fff" d="M290.303 212.106c0 1.65 1.35 3 3 3h90.579c1.65 0 3-1.35 3-3v-90.578c0-1.65-1.35-3-3-3h-90.579c-1.65 0-3 1.35-3 3v90.578z"/><path fill="#fff" d="M165.19 212.106c0 1.65 1.35 3 3 3h90.579c1.65 0 3-1.35 3-3v-90.578c0-1.65-1.35-3-3-3h-90.579c-1.65 0-3 1.35-3 3v90.578z"/><path fill="#fff" d="M39.346 212.106c0 1.65 1.35 3 3 3h90.579c1.65 0 3-1.35 3-3v-90.578c0-1.65-1.35-3-3-3h-90.579c-1.65 0-3 1.35-3 3v90.578z"/><path fill="#fff" d="M1501.724 462.32c0 1.65 1.35 3 3 3h183.863c1.65 0 3-1.35 3-3v-90.579c0-1.65-1.35-3-3-3h-183.863c-1.65 0-3 1.35-3 3v90.579z"/><path fill="#fff" d="M1379.057 462.32c0 1.65 1.35 3 3 3h90.579c1.65 0 3-1.35 3-3v-90.579c0-1.65-1.35-3-3-3h-90.579c-1.65 0-3 1.35-3 3v90.579z"/><path fill="#fff" d="M1253.945 462.32c0 1.65 1.35 3 3 3h90.578c1.65 0 3-1.35 3-3v-90.579c0-1.65-1.35-3-3-3h-90.578c-1.65 0-3 1.35-3 3v90.579z"/><path fill="#fff" d="M1128.832 462.32c0 1.65 1.35 3 3 3h90.578c1.65 0 3-1.35 3-3v-90.579c0-1.65-1.35-3-3-3h-90.578c-1.65 0-3 1.35-3 3v90.579z"/><path fill="#fff" d="M1003.718 462.32c0 1.65 1.35 3 3 3h90.578c1.65 0 3-1.35 3-3v-90.579c0-1.65-1.35-3-3-3h-90.578c-1.65 0-3 1.35-3 3v90.579z"/><path fill="#fff" d="M878.605 462.32c0 1.65 1.35 3 3 3h90.579c1.65 0 3-1.35 3-3v-90.579c0-1.65-1.35-3-3-3h-90.579c-1.65 0-3 1.35-3 3v90.579z"/><path fill="#fff" d="M753.493 462.32c0 1.65 1.35 3 3 3h90.577c1.65 0 3-1.35 3-3v-90.579c0-1.65-1.35-3-3-3h-90.577c-1.65 0-3 1.35-3 3v90.579z"/><path fill="#fff" d="M628.38 462.32c0 1.65 1.35 3 3 3h90.577c1.65 0 3-1.35 3-3v-90.579c0-1.65-1.35-3-3-3h-90.577c-1.65 0-3 1.35-3 3v90.579z"/><path fill="#fff" d="M503.267 462.32c0 1.65 1.35 3 3 3h90.578c1.65 0 3-1.35 3-3v-90.579c0-1.65-1.35-3-3-3h-90.578c-1.65 0-3 1.35-3 3v90.579z"/><path fill="#fff" d="M378.154 462.32c0 1.65 1.35 3 3 3h90.579c1.65 0 3-1.35 3-3v-90.579c0-1.65-1.35-3-3-3h-90.579c-1.65 0-3 1.35-3 3v90.579z"/><path fill="#fff" d="M253.041 462.32c0 1.65 1.35 3 3 3h90.578c1.65 0 3-1.35 3-3v-90.579c0-1.65-1.35-3-3-3h-90.578c-1.65 0-3 1.35-3 3v90.579z"/><path fill="#fff" d="M39.346 462.32c0 1.65 1.35 3 3 3h178.07c1.65 0 3-1.35 3-3v-90.579c0-1.65-1.35-3-3-3h-178.07c-1.65 0-3 1.35-3 3v90.579z"/><path fill="#fff" d="M1439.17 593.152c0 1.65 1.35 3 3 3h246.417c1.65 0 3-1.35 3-3v-90.58c0-1.65-1.35-3-3-3h-246.417c-1.65 0-3 1.35-3 3v90.58z"/><path fill="#fff" d="M1313.212 593.152c0 1.65 1.35 3 3 3h90.579c1.65 0 3-1.35 3-3v-90.58c0-1.65-1.35-3-3-3h-90.579c-1.65 0-3 1.35-3 3v90.58z"/><path fill="#fff" d="M1188.099 593.152c0 1.65 1.35 3 3 3h90.579c1.65 0 3-1.35 3-3v-90.58c0-1.65-1.35-3-3-3h-90.579c-1.65 0-3 1.35-3 3v90.58z"/><path fill="#fff" d="M1062.987 593.152c0 1.65 1.35 3 3 3h90.578c1.65 0 3-1.35 3-3v-90.58c0-1.65-1.35-3-3-3h-90.578c-1.65 0-3 1.35-3 3v90.58z"/><path fill="#fff" d="M937.874 593.152c0 1.65 1.35 3 3 3h90.579c1.65 0 3-1.35 3-3v-90.58c0-1.65-1.35-3-3-3h-90.579c-1.65 0-3 1.35-3 3v90.58z"/><path fill="#fff" d="M812.76 593.152c0 1.65 1.35 3 3 3h90.579c1.65 0 3-1.35 3-3v-90.58c0-1.65-1.35-3-3-3h-90.579c-1.65 0-3 1.35-3 3v90.58z"/><path fill="#fff" d="M687.647 593.152c0 1.65 1.35 3 3 3h90.579c1.65 0 3-1.35 3-3v-90.58c0-1.65-1.35-3-3-3h-90.579c-1.65 0-3 1.35-3 3v90.58z"/><path fill="#fff" d="M562.534 593.152c0 1.65 1.35 3 3 3h90.579c1.65 0 3-1.35 3-3v-90.58c0-1.65-1.35-3-3-3h-90.579c-1.65 0-3 1.35-3 3v90.58z"/><path fill="#fff" d="M437.421 593.152c0 1.65 1.35 3 3 3h90.579c1.65 0 3-1.35 3-3v-90.58c0-1.65-1.35-3-3-3h-90.579c-1.65 0-3 1.35-3 3v90.58z"/><path fill="#fff" d="M312.308 593.152c0 1.65 1.35 3 3 3h90.579c1.65 0 3-1.35 3-3v-90.58c0-1.65-1.35-3-3-3h-90.579c-1.65 0-3 1.35-3 3v90.58z"/><path fill="#fff" d="M39.346 593.152c0 1.65 1.35 3 3 3h238.428c1.65 0 3-1.35 3-3v-90.58c0-1.65-1.35-3-3-3h-238.428c-1.65 0-3 1.35-3 3v90.58z"/><path fill="#fff" d="M1224.32 718.26c0 1.65 1.35 3 3 3h90.579c1.65 0 3-1.35 3-3v-90.58c0-1.65-1.35-3-3-3h-90.579c-1.65 0-3 1.35-3 3v90.58z"/><path fill="#fff" d="M1062.987 718.26c0 1.65 1.35 3 3 3h126.799c1.65 0 3-1.35 3-3v-90.58c0-1.65-1.35-3-3-3h-126.799c-1.65 0-3 1.35-3 3v90.58z"/><path fill="#fff" d="M1595.008 718.26c0 1.65 1.35 3 3 3h90.579c1.65 0 3-1.35 3-3v-37.564c0-1.65-1.35-3-3-3h-90.579c-1.65 0-3 1.35-3 3v37.564z"/><path fill="#fff" d="M1469.895 718.26c0 1.65 1.35 3 3 3h90.579c1.65 0 3-1.35 3-3v-37.564c0-1.65-1.35-3-3-3h-90.579c-1.65 0-3 1.35-3 3v37.564z"/><path fill="#fff" d="M1469.895 666.465c0 1.65 1.35 3 3 3h90.579c1.65 0 3-1.35 3-3v-38.785c0-1.65-1.35-3-3-3h-90.579c-1.65 0-3 1.35-3 3v38.785z"/><path fill="#fff" d="M1344.783 718.26c0 1.65 1.35 3 3 3h90.578c1.65 0 3-1.35 3-3v-37.564c0-1.65-1.35-3-3-3h-90.578c-1.65 0-3 1.35-3 3v37.564z"/><path fill="#fff" d="M437.421 718.26c0 1.65 1.35 3 3 3h591.032c1.65 0 3-1.35 3-3v-90.58c0-1.65-1.35-3-3-3h-591.032c-1.65 0-3 1.35-3 3v90.58z"/><path fill="#fff" d="M290.303 718.26c0 1.65 1.35 3 3 3h112.583c1.65 0 3-1.35 3-3v-90.58c0-1.65-1.35-3-3-3h-112.583c-1.65 0-3 1.35-3 3v90.58z"/><path fill="#fff" d="M164.459 718.26c0 1.65 1.35 3 3 3h90.579c1.65 0 3-1.35 3-3v-90.58c0-1.65-1.35-3-3-3h-90.579c-1.65 0-3 1.35-3 3v90.58z"/><path fill="#fff" d="M39.346 718.26c0 1.65 1.35 3 3 3h90.579c1.65 0 3-1.35 3-3v-90.58c0-1.65-1.35-3-3-3h-90.579c-1.65 0-3 1.35-3 3v90.58z"/><path fill="#fff" d="M1595.008 335.025c0 1.65 1.35 3 3 3h90.579c1.65 0 3-1.35 3-3v-90.579c0-1.65-1.35-3-3-3h-90.579c-1.65 0-3 1.35-3 3v90.579z"/><path fill="#fff" d="M1469.895 335.025c0 1.65 1.35 3 3 3h90.579c1.65 0 3-1.35 3-3v-90.579c0-1.65-1.35-3-3-3h-90.579c-1.65 0-3 1.35-3 3v90.579z"/><path fill="#fff" d="M1344.783 335.025c0 1.65 1.35 3 3 3h90.578c1.65 0 3-1.35 3-3v-90.579c0-1.65-1.35-3-3-3h-90.578c-1.65 0-3 1.35-3 3v90.579z"/><path fill="#fff" d="M1219.669 335.025c0 1.65 1.35 3 3 3h90.578c1.65 0 3-1.35 3-3v-90.579c0-1.65-1.35-3-3-3h-90.578c-1.65 0-3 1.35-3 3v90.579z"/><path fill="#fff" d="M1094.556 335.025c0 1.65 1.35 3 3 3h90.579c1.65 0 3-1.35 3-3v-90.579c0-1.65-1.35-3-3-3h-90.579c-1.65 0-3 1.35-3 3v90.579z"/><path fill="#fff" d="M969.443 335.025c0 1.65 1.35 3 3 3h90.579c1.65 0 3-1.35 3-3v-90.579c0-1.65-1.35-3-3-3h-90.579c-1.65 0-3 1.35-3 3v90.579z"/><path fill="#fff" d="M844.33 335.025c0 1.65 1.35 3 3 3h90.579c1.65 0 3-1.35 3-3v-90.579c0-1.65-1.35-3-3-3h-90.579c-1.65 0-3 1.35-3 3v90.579z"/><path fill="#fff" d="M719.217 335.025c0 1.65 1.35 3 3 3h90.579c1.65 0 3-1.35 3-3v-90.579c0-1.65-1.35-3-3-3h-90.579c-1.65 0-3 1.35-3 3v90.579z"/><path fill="#fff" d="M594.104 335.025c0 1.65 1.35 3 3 3h90.579c1.65 0 3-1.35 3-3v-90.579c0-1.65-1.35-3-3-3h-90.579c-1.65 0-3 1.35-3 3v90.579z"/><path fill="#fff" d="M468.991 335.025c0 1.65 1.35 3 3 3h90.579c1.65 0 3-1.35 3-3v-90.579c0-1.65-1.35-3-3-3h-90.579c-1.65 0-3 1.35-3 3v90.579z"/><path fill="#fff" d="M343.877 335.025c0 1.65 1.35 3 3 3h90.579c1.65 0 3-1.35 3-3v-90.579c0-1.65-1.35-3-3-3h-90.579c-1.65 0-3 1.35-3 3v90.579z"/><path fill="#fff" d="M218.765 335.025c0 1.65 1.35 3 3 3h90.579c1.65 0 3-1.35 3-3v-90.579c0-1.65-1.35-3-3-3h-90.579c-1.65 0-3 1.35-3 3v90.579z"/><path fill="#fff" d="M39.346 335.025c0 1.65 1.35 3 3 3h144.834c1.65 0 3-1.35 3-3v-90.579c0-1.65-1.35-3-3-3h-144.834c-1.65 0-3 1.35-3 3v90.579z"/><path fill="#fff" d="M1591.677 84.799c0 1.65 1.35 3 3 3h93.858c1.65 0 3-1.35 3-3v-37.9c0-1.65-1.35-3-3-3h-93.858c-1.65 0-3 1.35-3 3v37.9z"/><path fill="#fff" d="M1462.318 84.799c0 1.65 1.35 3 3 3h93.857c1.65 0 3-1.35 3-3v-37.9c0-1.65-1.35-3-3-3h-93.857c-1.65 0-3 1.35-3 3v37.9z"/><path fill="#fff" d="M1332.957 84.799c0 1.65 1.35 3 3 3h93.858c1.65 0 3-1.35 3-3v-37.9c0-1.65-1.35-3-3-3h-93.858c-1.65 0-3 1.35-3 3v37.9z"/><path fill="#fff" d="M1203.597 84.799c0 1.65 1.35 3 3 3h93.855c1.65 0 3-1.35 3-3v-37.9c0-1.65-1.35-3-3-3h-93.855c-1.65 0-3 1.35-3 3v37.9z"/><path fill="#fff" d="M1074.236 84.799c0 1.65 1.35 3 3 3h93.857c1.65 0 3-1.35 3-3v-37.9c0-1.65-1.35-3-3-3h-93.857c-1.65 0-3 1.35-3 3v37.9z"/><path fill="#fff" d="M944.875 84.799c0 1.65 1.35 3 3 3h93.858c1.65 0 3-1.35 3-3v-37.9c0-1.65-1.35-3-3-3h-93.858c-1.65 0-3 1.35-3 3v37.9z"/><path fill="#fff" d="M815.512 84.799c0 1.65 1.35 3 3 3h93.858c1.65 0 3-1.35 3-3v-37.9c0-1.65-1.35-3-3-3h-93.858c-1.65 0-3 1.35-3 3v37.9z"/><path fill="#fff" d="M686.152 84.799c0 1.65 1.35 3 3 3h93.856c1.65 0 3-1.35 3-3v-37.9c0-1.65-1.35-3-3-3h-93.856c-1.65 0-3 1.35-3 3v37.9z"/><path fill="#fff" d="M556.791 84.799c0 1.65 1.35 3 3 3h93.858c1.65 0 3-1.35 3-3v-37.9c0-1.65-1.35-3-3-3h-93.858c-1.65 0-3 1.35-3 3v37.9z"/><path fill="#fff" d="M427.43 84.799c0 1.65 1.35 3 3 3h93.856c1.65 0 3-1.35 3-3v-37.9c0-1.65-1.35-3-3-3h-93.856c-1.65 0-3 1.35-3 3v37.9z"/><path fill="#fff" d="M298.069 84.799c0 1.65 1.35 3 3 3h93.856c1.65 0 3-1.35 3-3v-37.9c0-1.65-1.35-3-3-3h-93.856c-1.65 0-3 1.35-3 3v37.9z"/><path fill="#fff" d="M168.707 84.799c0 1.65 1.35 3 3 3h93.858c1.65 0 3-1.35 3-3v-37.9c0-1.65-1.35-3-3-3h-93.858c-1.65 0-3 1.35-3 3v37.9z"/><path fill="#fff" d="M39.346 84.799c0 1.65 1.35 3 3 3h93.858c1.65 0 3-1.35 3-3v-37.9c0-1.65-1.35-3-3-3h-93.858c-1.65 0-3 1.35-3 3v37.9z"/></svg>