<?xml version="1.0" encoding="utf-8"?>
<!-- Generator: Adobe Illustrator 15.1.0, SVG Export Plug-In . SVG Version: 6.00 Build 0)  -->
<!DOCTYPE svg PUBLIC "-//W3C//DTD SVG 1.1//EN" "http://www.w3.org/Graphics/SVG/1.1/DTD/svg11.dtd">
<svg version="1.1" id="Layer_1" xmlns="http://www.w3.org/2000/svg" xmlns:xlink="http://www.w3.org/1999/xlink" x="0px" y="0px"
	 width="324px" height="216.667px" viewBox="0 0 324 216.667" enable-background="new 0 0 324 216.667" xml:space="preserve">
<polygon fill="none" stroke="#FFFFFF" points="129.394,173.5 215.997,23.5 302.597,173.5 "/>
<line fill="none" stroke="#FFFFFF" x1="216.184" y1="18.205" x2="216.184" y2="189.727"/>
<text transform="matrix(1 0 0 1 247.9727 184.7612)" fill="#FFFFFF" font-family="'MyriadPro-Regular'" font-size="12">0.5</text>
<text transform="matrix(1 0 0 1 263.5352 99.9932)" fill="#FFFFFF" font-family="'MyriadPro-Regular'" font-size="12">1.0</text>
<text transform="matrix(1 0 0 1 170.1582 185.4233)" fill="#FFFFFF" font-family="'MyriadPro-Regular'" font-size="12">0.5</text>
<text transform="matrix(1 0 0 1 153.6011 100.6572)" fill="#FFFFFF" font-family="'MyriadPro-Regular'" font-size="12">1.0</text>
<text transform="matrix(1 0 0 1 220.4883 135.0933)" fill="#FFFFFF" font-family="'MyriadPro-Regular'" font-size="12">0.866</text>
<line fill="none" stroke="#FFFFFF" x1="27.518" y1="23.464" x2="211.684" y2="23.464"/>
<line fill="none" stroke="#FFFFFF" x1="123.684" y1="172.963" x2="29.017" y2="172.963"/>
<line fill="none" stroke="#FFFFFF" x1="244.184" y1="41.964" x2="67.684" y2="41.964"/>
<line fill="none" stroke="#FFFFFF" x1="88.684" y1="61.798" x2="244.184" y2="61.798"/>
<g>
	<line fill="none" stroke="#FFFFFF" x1="73.684" y1="113.964" x2="73.684" y2="163.438"/>
	<path fill="#FFFFFF" d="M73.684,169.292c-1.054-2.754-2.852-6.172-4.755-8.289l4.755,1.668l4.755-1.668
		C76.536,163.122,74.737,166.538,73.684,169.292z"/>
</g>
<g>
	<line fill="none" stroke="#FFFFFF" x1="73.184" y1="94.631" x2="73.184" y2="51.117"/>
	<path fill="#FFFFFF" d="M73.184,45.964c1.054,2.425,2.852,5.43,4.755,7.292l-4.755-1.468l-4.755,1.468
		C70.333,51.396,72.132,48.388,73.184,45.964z"/>
</g>
<text transform="matrix(1 0 0 1 66.6841 109.4663)" fill="#FFFFFF" font-family="'MyriadPro-Regular'" font-size="12">75%</text>
<g>
	<line fill="none" stroke="#FFFFFF" x1="107.517" y1="106.464" x2="107.517" y2="68.442"/>
	<path fill="#FFFFFF" d="M107.517,63.944c1.054,2.116,2.852,4.743,4.755,6.371l-4.755-1.281l-4.755,1.281
		C104.667,68.686,106.465,66.059,107.517,63.944z"/>
</g>
<g>
	<line fill="none" stroke="#FFFFFF" x1="107.184" y1="122.964" x2="107.184" y2="164.39"/>
	<path fill="#FFFFFF" d="M107.184,169.292c-1.054-2.305-2.852-5.168-4.755-6.938l4.755,1.396l4.755-1.396
		C110.036,164.124,108.237,166.987,107.184,169.292z"/>
</g>
<text transform="matrix(1 0 0 1 99.1841 117.9663)" fill="#FFFFFF" font-family="'MyriadPro-Regular'" font-size="12">65%</text>
<line fill="none" stroke="#FFFFFF" x1="216.184" y1="155.84" x2="233.684" y2="155.84"/>
<line fill="none" stroke="#FFFFFF" x1="233.142" y1="173.405" x2="233.142" y2="155.905"/>
<g>
	<line fill="none" stroke="#FFFFFF" x1="39.184" y1="86.964" x2="39.184" y2="32.721"/>
	<path fill="#FFFFFF" d="M39.184,26.297c1.054,3.023,2.852,6.769,4.755,9.09l-4.755-1.829l-4.755,1.829
		C36.333,33.068,38.132,29.319,39.184,26.297z"/>
</g>
<g>
	<line fill="none" stroke="#FFFFFF" x1="40.018" y1="105.965" x2="40.018" y2="161.997"/>
	<path fill="#FFFFFF" d="M40.018,168.625c-1.054-3.119-2.852-6.99-4.755-9.389l4.755,1.891l4.755-1.891
		C42.869,161.635,41.07,165.506,40.018,168.625z"/>
</g>
<text transform="matrix(1 0 0 1 28.8506 99.2988)" fill="#FFFFFF" font-family="'MyriadPro-Regular'" font-size="12">86.6%</text>
</svg>
