<?xml version="1.0" encoding="utf-8"?>
<!-- Generator: Adobe Illustrator 15.1.0, SVG Export Plug-In . SVG Version: 6.00 Build 0)  -->
<!DOCTYPE svg PUBLIC "-//W3C//DTD SVG 1.1//EN" "http://www.w3.org/Graphics/SVG/1.1/DTD/svg11.dtd">
<svg version="1.1"
	 id="svg4345" xmlns:inkscape="http://www.inkscape.org/namespaces/inkscape" xmlns:svg="http://www.w3.org/2000/svg" xmlns:rdf="http://www.w3.org/1999/02/22-rdf-syntax-ns#" xmlns:cc="http://creativecommons.org/ns#" xmlns:dc="http://purl.org/dc/elements/1.1/" sodipodi:docname="Base_(PSF).svg" inkscape:version="0.47pre4 r22446" xmlns:sodipodi="http://sodipodi.sourceforge.net/DTD/sodipodi-0.dtd"
	 xmlns="http://www.w3.org/2000/svg" xmlns:xlink="http://www.w3.org/1999/xlink" x="0px" y="0px" width="695.954px"
	 height="232.281px" viewBox="0 0 695.954 232.281" enable-background="new 0 0 695.954 232.281" xml:space="preserve">
<defs>
	
	
		<inkscape:perspective  sodipodi:type="inkscape:persp3d" inkscape:persp3d-origin="372.04724 : 350.78739 : 1" inkscape:vp_y="0 : 1000 : 0" id="perspective4353" inkscape:vp_z="744.09448 : 526.18109 : 1" inkscape:vp_x="0 : 526.18109 : 1">
		</inkscape:perspective>
	
		<inkscape:perspective  sodipodi:type="inkscape:persp3d" inkscape:persp3d-origin="0.5 : 0.33333333 : 1" inkscape:vp_y="0 : 1000 : 0" id="perspective4363" inkscape:vp_z="1 : 0.5 : 1" inkscape:vp_x="0 : 0.5 : 1">
		</inkscape:perspective>
	
		<inkscape:perspective  sodipodi:type="inkscape:persp3d" inkscape:persp3d-origin="0.5 : 0.33333333 : 1" inkscape:vp_y="0 : 1000 : 0" id="perspective4940" inkscape:vp_z="1 : 0.5 : 1" inkscape:vp_x="0 : 0.5 : 1">
		</inkscape:perspective>
	
		<inkscape:perspective  sodipodi:type="inkscape:persp3d" inkscape:persp3d-origin="0.5 : 0.33333333 : 1" inkscape:vp_y="0 : 1000 : 0" id="perspective4962" inkscape:vp_z="1 : 0.5 : 1" inkscape:vp_x="0 : 0.5 : 1">
		</inkscape:perspective>
</defs>
<sodipodi:namedview  inkscape:window-maximized="1" inkscape:window-y="0" inkscape:window-x="0" inkscape:window-height="970" inkscape:window-width="1280" showgrid="false" inkscape:current-layer="layer1" inkscape:document-units="px" inkscape:cy="141.70454" inkscape:cx="334.47167" inkscape:zoom="0.98994949" inkscape:pageshadow="2" inkscape:pageopacity="0.0" borderopacity="1.0" bordercolor="#666666" pagecolor="#ffffff" id="base">
	</sodipodi:namedview>
<g id="layer1" transform="translate(-25.779195,-293.26571)" inkscape:groupmode="layer" inkscape:label="Layer 1">
	<text transform="matrix(1 0 0 1 35.7841 317.1293)" fill="#FFFFFF" font-family="'ArialMT'" font-size="31.0862">A</text>
	<text transform="matrix(1 0 0 1 258.5531 318.0765)" fill="#FFFFFF" font-family="'ArialMT'" font-size="31.0862">B</text>
	<text transform="matrix(1 0 0 1 448.5052 316.3383)" fill="#FFFFFF" font-family="'ArialMT'" font-size="31.0862">C</text>
	<text transform="matrix(1 0 0 1 625.5922 320.1498)" fill="#FFFFFF" font-family="'ArialMT'" font-size="31.0862">D</text>
	<path id="path4385" fill="none" stroke="#FFFFFF" stroke-width="2" d="M28.284,515.971l10.607-187.889l131.825,188.899"/>
	<path id="path4387" fill="none" stroke="#FFFFFF" stroke-width="2" d="M192.345,488.195l73.522-166.681l71.021,157.084"/>
	<path id="path4389" fill="none" stroke="#FFFFFF" stroke-width="2" d="M274.762,520.517L264.66,322.022"/>
	<path id="path4391" sodipodi:nodetypes="ccc" fill="none" stroke="#FFFFFF" stroke-width="2" d="M557.604,477.08l80.812-145.967
		l81.908,149.084"/>
	<path id="path4393" fill="none" stroke="#FFFFFF" stroke-width="2" d="M624.274,524.052c0-2.525,14.143-193.444,14.143-193.444"/>
	<path id="path4395" fill="none" stroke="#FFFFFF" stroke-width="4" d="M27.779,516.224l142.432,1.01"/>
	<path id="path4907" sodipodi:nodetypes="cc" fill="none" stroke="#FFFFFF" stroke-width="4" stroke-dasharray="8,4" d="
		M192.182,487.73l144.478-8.882"/>
	
		<path id="path4930" sodipodi:type="arc" sodipodi:rx="40.406101" sodipodi:cy="337.42673" sodipodi:cx="460.37701" sodipodi:ry="11.364216" fill="none" stroke="#FFFFFF" stroke-width="2.1637" d="
		M501.055,337.3c0,5.799-18.1,10.5-40.426,10.5s-40.426-4.701-40.426-10.5s18.1-10.499,40.426-10.499S501.055,331.501,501.055,337.3
		z"/>
	
		<path id="path4930-0" sodipodi:type="arc" sodipodi:rx="40.406101" sodipodi:cy="337.42673" sodipodi:cx="460.37701" sodipodi:open="true" sodipodi:ry="11.364216" sodipodi:start="0" sodipodi:end="3.1848632" fill="none" stroke="#FFFFFF" stroke-width="4.1604" d="
		M500.803,511.548c0,5.799-18.1,10.5-40.426,10.5s-40.426-4.701-40.426-10.5c0-0.151,0.014-0.303,0.037-0.454"/>
	
		<path id="path4930-0-4" sodipodi:type="arc" sodipodi:rx="40.406101" sodipodi:cy="337.42673" sodipodi:cx="460.37701" sodipodi:open="true" sodipodi:ry="11.364216" sodipodi:start="0" sodipodi:end="3.1415927" fill="none" stroke="#FFFFFF" stroke-width="4.1604" stroke-dasharray="8.3209,4.1604" d="
		M500.549,510.308c0-5.799-18.098-10.499-40.424-10.499c-22.328,0-40.426,4.7-40.426,10.499l0,0"/>
	<path id="path4997" sodipodi:nodetypes="cc" fill="none" stroke="#FFFFFF" stroke-width="2" d="M420.729,336.921l-2.23,173.999"/>
	<path id="path4999" fill="none" stroke="#FFFFFF" stroke-width="2" d="M501.036,336.416l1.01,174.252"/>
	<path id="path5022" fill="none" stroke="#FFFFFF" stroke-width="2" stroke-dasharray="4,2" d="M638.416,331.87l9.344,111.37"/>
	<path id="path5024" sodipodi:nodetypes="ccc" fill="none" stroke="#FFFFFF" stroke-width="4" stroke-dasharray="8,4" d="
		M559.346,477.603l88.162-34.868l72.225,38.386"/>
	<path id="path5026" fill="none" stroke="#FFFFFF" stroke-width="4" d="M719.733,481.626l-94.953,41.921l-67.176-46.972"/>
	<path id="path5028" fill="none" stroke="#FFFFFF" stroke-width="4" d="M192.857,488.077l82.5,32.143l61.071-40.714"/>
</g>
</svg>
