<?xml version="1.0" encoding="utf-8"?>
<!-- Generator: Adobe Illustrator 15.1.0, SVG Export Plug-In . SVG Version: 6.00 Build 0)  -->
<!DOCTYPE svg PUBLIC "-//W3C//DTD SVG 1.1//EN" "http://www.w3.org/Graphics/SVG/1.1/DTD/svg11.dtd">
<svg version="1.1"
	 id="svg2403" xmlns:inkscape="http://www.inkscape.org/namespaces/inkscape" xmlns:svg="http://www.w3.org/2000/svg" xmlns:rdf="http://www.w3.org/1999/02/22-rdf-syntax-ns#" xmlns:cc="http://creativecommons.org/ns#" xmlns:dc="http://purl.org/dc/elements/1.1/" sodipodi:docname="Crossbones_(PSF).svg" inkscape:version="0.46" xmlns:sodipodi="http://sodipodi.sourceforge.net/DTD/sodipodi-0.dtd" sodipodi:version="0.32" inkscape:output_extension="org.inkscape.output.svg.inkscape"
	 xmlns="http://www.w3.org/2000/svg" xmlns:xlink="http://www.w3.org/1999/xlink" x="0px" y="0px" width="765px" height="990px"
	 viewBox="0 0 765 990" enable-background="new 0 0 765 990" xml:space="preserve">
<defs>
	
	
		<inkscape:perspective  sodipodi:type="inkscape:persp3d" inkscape:persp3d-origin="372.04724 : 350.78739 : 1" inkscape:vp_y="0 : 1000 : 0" id="perspective2410" inkscape:vp_z="744.09448 : 526.18109 : 1" inkscape:vp_x="0 : 526.18109 : 1">
		</inkscape:perspective>
</defs>
<sodipodi:namedview  inkscape:window-y="26" inkscape:window-x="0" inkscape:window-height="1028" inkscape:window-width="1920" showgrid="false" inkscape:current-layer="g2412" inkscape:cy="495" inkscape:cx="382.5" inkscape:zoom="0.47070707" inkscape:pageshadow="2" inkscape:pageopacity="0.0" borderopacity="1.0" bordercolor="#666666" pagecolor="#ffffff" id="base" guidetolerance="10.0" gridtolerance="10.0" objecttolerance="10.0">
	</sodipodi:namedview>
<path id="path2416" fill="#FFFFFF" d="M76.473,747.373c-15.985-12.757,22.916-34.885,21.656-8.189
	C92.853,743.515,83.167,744.854,76.473,747.373"/>
<path id="path2418" fill="#FFFFFF" d="M63.874,733.75c-9.765-5.984-21.655-20.868-0.708-14.884
	c-4.962-28.27,29.529-5.275,10.158,2.993c-14.884,0-4.331,0.787-5.119,11.024C67.575,733.435,67.575,733.435,63.874,733.75"/>
<path id="path2436" fill="#FFFFFF" d="M427.684,543.184c-1.103-7.639-8.819-12.363-0.63-17.167
	c11.024-13.466,10.71-2.757,10.079,8.74C427.368,535.466,436.109,540.427,427.684,543.184"/>
<path id="path2438" fill="#FFFFFF" d="M436.582,539.482c0.236-2.127,0.236-2.521,2.126-3.15
	C438.708,538.852,439.023,538.537,436.582,539.482"/>
<path id="path2442" fill="#FFFFFF" d="M31.273,531.607c-4.725-6.143,0.473-20.475,7.402-20.946
	C38.675,519.086,37.021,525.465,31.273,531.607"/>
<path id="path2444" fill="#FFFFFF" d="M417.132,527.985c-5.827-4.332,2.992-7.009,2.283-0.945
	C418.706,527.354,417.919,527.67,417.132,527.985"/>
<path id="path2446" fill="#FFFFFF" d="M500.603,525.308c-3.465-1.732,9.135-25.751,9.135-13.072
	C506.981,518.457,506.431,522.394,500.603,525.308"/>
<path id="path2448" fill="#FFFFFF" d="M195.618,521.134c-10.316-3.387-48.271-18.506-47.484-26.459
	c8.977-4.016,48.586,18.663,51.657,26.459C198.452,521.134,197.035,521.134,195.618,521.134"/>
<path id="path2454" fill="#FFFFFF" d="M125.769,502.787c-12.915-9.215-7.402-19.216,7.56-12.837
	C133.328,494.124,130.179,501.998,125.769,502.787"/>
<path fill="#FFFFFF" d="M678.491,509.794c-10.552,0-23.938-5.196-30.159-13.938c0-5.512,15.749-15.198,0.865-14.096
	c-2.282,9.607-11.103,9.213-17.402,17.481c-14.568,12.521-23.938-6.221-26.459,19.687c-3.229,5.197-6.221,7.245-11.34,10.789
	c-2.047,0-24.254-4.647-14.253,2.047c0.866,2.283-10.709,8.662-12.993,10.553c-32.05,16.772-65.044,33.781-99.771,44.098
	c-24.648,3.307-8.979-16.616,1.653-22.049c35.752-12.6,71.738-28.9,105.521-46.146c2.678-0.788,6.535-1.261,8.504-3.229
	c1.261-30.555,35.83-1.418,42.366-32.208c-5.512-0.788-11.576,2.283-16.852,3.938c-24.647-1.023-26.931,2.914-40.712,22.837
	c-8.111,5.906-57.17,39.215-50.791,18.348c22.048-25.672,18.27-22.049,18.27-57.643c3.7-11.734,8.346-22.836,13.149-34.176
	c5.119-16.537,1.496-27.326,4.725-44.572c7.796-72.21-20.316-135.208-85.755-169.383c-45.594-12.993-107.961-15.277-153.398-4.725
	c-10.079,5.04-9.922,17.639-21.97,11.024c-29.373,0-79.85,51.815-81.188,79.455c-15.435,48.035,0.314,99.143,17.324,144.501
	c0,18.111-18.742,23.387-8.426,40.869c10.237,11.103,15.041,22.6,16.301,37.798c-5.355,5.355-35.593-14.567-24.018-0.866
	c3.858,2.363,40.633,28.821,28.979,33.152c-32.208-4.331-58.115-20.868-86.542-36.774c-13.466-12.363-19.923-6.3-36.145-8.347
	c-8.11-4.017-17.167-13.309-17.167,1.26c-3.938,7.166-28.9,19.293-35.2,7.874c0-29.372,31.419-9.292,32.05-20.474
	c-8.504-15.356,7.245-18.19,11.024-31.42c2.52-4.252,4.173-4.804,8.741-6.851c-3.701-22.286-25.435,13.15-27.089,21.497
	c-11.497,24.727-28.821,5.119-46.697,14.018c-0.394,4.173,10.316,0.866,11.497,10.079c-2.127,10.71-0.788,19.529,3.701,29.53
	c3.78,5.748,15.04,15.355,2.834,13.859C42.534,568.146,42.77,538.223,30.8,535.859c-9.371,31.263,28.506,58.272,56.304,42.681
	c16.222-13.071-3.386-24.333,6.615-33.467c19.135-9.923,30.16-1.575,47.248,7.796c6.615,0,11.654-3.15,18.348-3.15
	c38.665,16.143,77.093,34.097,115.521,50.871c5.276,3.622,16.379,16.615,10.474,22.521c-20.474,10.001-41.342,19.608-61.58,29.53
	c-7.008,6.457-16.536,6.379-26.065,9.371c-20.395,9.449-49.374,10.158-66.461,22.363c5.354,5.355,46.46-8.74,52.838-13.858
	c14.647-0.709,27.483,3.149,38.35-5.827c17.324-8.662,41.263-21.025,60.793-21.025c19.607,14.489-45.437,32.128-54.572,35.199
	c-21.262,3.622-39.688,17.954-61.973,19.924c-7.403,2.047-76.778,35.75-76.778,8.661c6.851-10.631-11.655-1.732-11.655-11.969
	c6.222-8.741,48.272,1.653,50.713-10.553c-21.183,0.157-39.137,3.544-59.769-1.339c-13.938,0,4.96,14.647-10.08,14.647
	c-3.623,2.126-7.481,7.874-10.946,7.874c-11.654-10.945,8.19-23.624,0.945-23.624c-34.491,14.727,7.323,58.431,18.112,77.487
	c33.467,36.302,56.146-6.615,82.211-26.459c65.674-36.145,139.302-60.32,207.969-90.401c1.575-0.394,3.15-0.709,4.725-1.023
	c41.421,0,74.652,24.018,111.663,41.972c51.186,23.072,111.742,43.705,154.107,82.212c5.434,5.984,9.449,12.836,16.615,16.852
	c2.992-0.157,5.985-0.236,8.978-0.315c7.953-2.834,28.349-29.215,12.442-22.049c-8.348,1.103-16.459-12.599-8.82-16.852
	c26.695-3.938-16.063-13.702,7.875-22.049c14.41,0,18.978,6.93,14.332,18.111c-11.97,14.254-0.866,22.364,3.229,2.756
	c9.843-18.662-1.339-15.513-10.079-27.167c3.543-12.442,18.978,21.419,18.978,2.914c-3.071-7.087-22.05-13.466-29.058-14.411
	c-22.521-0.551-42.287-0.709-62.997-11.024c-7.56-2.836-21.341-10.71-30.476-10.71c2.835,12.363,70.321,29.609,82.843,29.609
	c11.103,3.937-4.726,14.096-9.608,17.401c-0.708,23.152-9.37,13.86-28.034,7.797c-54.649-28.27-110.56-49.138-166.47-76.699
	c-1.496-1.891-2.992-3.701-4.409-5.512c-14.884-8.898-30.476-15.041-1.733-15.514c7.402-7.402,35.437,6.693,46.854,5.591
	c-5.67-9.449-52.288-19.45-34.964-33.31c46.146-25.593,100.323-41.421,149.698-59.926c35.436-11.97,64.966-24.018,75.754,21.892
	c8.032,19.923,27.876,20.316,44.02,9.607C745.663,554.681,720.543,490.974,678.491,509.794z M529.188,428.764
	c-0.865,11.183-4.566,19.766-7.874,30.476c-0.079,1.496,1.496,21.497-3.858,22.521c-10.946-13.072-6.379-41.972,1.732-54.65
	c0-15.276,3.858-22.679,17.402-33.782C548.953,393.328,530.842,425.062,529.188,428.764z M259.324,380.492
	c-8.583-26.459-12.679-31.42-5.12-58.036c8.348,0-2.992,24.018,22.758,22.442c0.788-4.41,0.788-4.41,1.89-6.692
	c12.915-9.687,5.591-29.925,10.395-44.492c0-3.544-9.292-30.711,0.472-29.531c4.646,4.646,3.859-12.599,3.859-15.198
	c14.332-7.875,9.056,16.615,21.734-1.339c8.347-6.851,9.134-9.764,20.395-9.764c7.088-2.914,19.608-15.671,26.774-8.504
	c2.835,0,4.252-1.969,7.56-1.969c7.875,8.583,15.119-11.261,27.167-1.103c3.465,0,4.096-4.567,8.032-4.095
	c2.441,2.441,2.441,2.441,6.143,4.646c30.16,4.883,58.667,8.505,83.078,27.877c3.149,5.04,3.858,8.19,9.37,9.371
	c34.02,28.192,31.656,56.776,31.656,96.308c6.852,18.427,11.261,6.615-4.488,25.041c-5.276,13.859-15.592,4.646-9.607-7.875
	c7.796-7.167-3.464-21.891,3.623-31.892c0-4.646-2.126-8.741-2.126-13.072c6.93-15.119-10.553-25.12-6.3-33.625
	c0-5.67-14.49-37.248-18.979-22.286c3.623,8.819,6.457,20.475,11.655,28.585c0,7.166,4.174,44.334-3.071,44.334
	c-1.891-5.985-2.521-27.561-7.718-29.293c-0.078,8.819,2.205,24.49-1.89,32.995c-13.859,6.457-12.284,10.001-16.772,24.963
	c1.731,11.26,10.552,8.819,10.552,21.577c-3.701,13.702,10.71,33.152-6.063,23.309c-7.639-2.205-26.145-3.938-30.476-11.576
	c-16.379-6.457-30.711,1.024-42.759,11.419c-3.071,7.56-2.678,22.601-11.261,23.545c-12.284-10.079-13.623-31.498,2.992-37.956
	c0.394-4.173-21.577,0.315-29.53-2.283c-4.331,2.599,14.725,41.027-7.953,24.963c-6.93-15.041-24.097-35.278-42.602-29.137
	c-10.71,0,5.67,7.875-6.931,7.875c-14.489-3.701-20.553-4.804-34.019,2.126c-10.158,0,14.411-10.709,15.356-11.261
	c0-6.222-31.656-1.103-19.372-15.828c-0.551-12.836,1.496-15.985-11.733-15.985C260.347,372.067,267.67,385.689,259.324,380.492z
	 M416.896,451.05c6.614-1.891,1.496,21.498,7.56,28.741c7.874,4.568,12.914,2.6,13.938,12.364
	c4.646,6.693,28.821-6.143,19.844,9.213c-5.669,2.521-13.309,2.678-19.529,3.465c-5.118-2.126-6.457-3.622-9.529-8.11
	c-7.716-4.962-18.662-3.15-18.032-14.646c3.858-3.859,8.819,6.378,8.819,0.235C412.879,472.074,409.336,462.783,416.896,451.05z
	 M382.011,489.636c-14.018-8.19-8.662-19.372-7.166-35.279C382.325,427.661,391.854,487.667,382.011,489.636z M266.725,485.462
	c-2.126-5.671-5.984-17.64,3.623-12.837c4.252,5.906,8.504,13.31,10.788,16.145c10.08,7.322,49.06,8.661,49.06,19.923
	c-5.749,2.756-11.812,4.96-18.033,6.142C297.042,508.771,264.915,506.015,266.725,485.462z M315.863,623.505
	c-11.104-4.962,8.819-15.119,9.607-1.418C322.32,622.56,319.092,623.032,315.863,623.505z M331.612,629.253
	c-5.354-4.252-2.677-5.591,1.969-8.662C338.857,620.827,335.55,628.15,331.612,629.253z M346.811,630.828
	c-7.48-5.354-1.181-8.347,4.41-3.701C351.221,630.513,349.646,630.198,346.811,630.828z M366.261,627.363
	c-1.023,0.551-1.023,0.551-4.725,0.866C353.583,617.283,375.632,614.448,366.261,627.363z M380.436,633.979
	c-14.333-10.316,9.607-18.979,9.607-4.647C387.994,633.979,385.003,633.663,380.436,633.979z M425.558,627.678
	c-8.505-3.779-0.237-10.788,6.221-10.788C447.134,605.55,431.7,624.371,425.558,627.678z M437.29,595.707
	c-2.756,9.607-21.576,15.197-30.396,13.78c-7.402,3.308-7.481,14.806,1.26,13.623c10.474-12.441,11.104,9.607,2.678,5.671
	c-1.418-5.907-7.639,2.047-12.049,3.149c-14.096-7.638,12.049-13.781-8.189-19.844c-14.253,6.378-8.819-0.631-18.82-4.646
	c-15.435,12.048-23.703,2.677-26.302-13.309c-8.661-15.749,12.285-15.04,21.184-19.766c8.504,0,20.474,20.08,20.868,0.079
	c5.669-4.41,6.851,2.756,10,0.551c8.426-11.654,16.301,11.498,15.671-0.314c-5.276-15.041-0.945-14.962,6.771-27.404
	c0-18.898-24.489,28.821-25.671,16.301c0.395-0.551,0.787-1.181,1.26-1.812c18.663-11.182-21.892-56.934,4.095-63.391
	c0.787-11.024-15.67-35.436-5.669-43.152c17.088,0,3.543,24.411,11.024,35.593c6.378,5.592,26.301,19.529,34.648,19.529
	c19.923-4.961,44.885-1.969,48.587-27.089c2.047-5.67,4.016-27.562,13.15-22.601c2.913,7.718,1.575,38.822,14.41,33.939
	c28.113-21.024-12.678,67.093-37.562,53.863c0-7.402,18.506-16.615,1.969-16.615c-12.678,10.315,1.732,15.119-12.126,22.049
	C442.881,559.247,438.472,570.744,437.29,595.707z M669.672,533.733c-13.78-6.536-23.23-13.466-39.452-12.363
	c-9.134-5.67,4.41-12.127,7.718-16.222C650.773,499.479,688.414,527.513,669.672,533.733z M718.101,576.414
	c-1.259,0.236-2.52,0.551-3.779,0.866c-4.882-6.536-6.693-4.646-6.143-14.174c-5.984-8.584-40.554-66.698-4.882-50.714
	C719.755,527.513,734.796,555.939,718.101,576.414z"/>
<path id="path2462" fill="#FFFFFF" d="M509.58,422.937c-0.788-8.032,2.52-4.016,2.205-0.315
	C511.076,422.7,510.367,422.779,509.58,422.937"/>
<path id="path2464" fill="#FFFFFF" d="M472.805,411.912c-6.062-3.465,6.143-6.772,5.906-0.866
	C477.53,411.597,477.53,411.597,472.805,411.912"/>
<path id="path2466" fill="#FFFFFF" d="M251.764,312.691c-5.276-15.986,4.961-9.371,2.283-0.866
	C253.417,312.376,253.417,312.376,251.764,312.691"/>
<path id="path2468" fill="#FFFFFF" d="M305.311,238.67c-0.079-1.418-0.157-2.835-0.314-4.253
	C308.854,225.362,315.784,235.205,305.311,238.67"/>
</svg>
