<?xml version="1.0" encoding="utf-8"?>
<!-- Generator: Adobe Illustrator 15.1.0, SVG Export Plug-In . SVG Version: 6.00 Build 0)  -->
<!DOCTYPE svg PUBLIC "-//W3C//DTD SVG 1.1//EN" "http://www.w3.org/Graphics/SVG/1.1/DTD/svg11.dtd">
<svg version="1.1" id="Layer_1" xmlns="http://www.w3.org/2000/svg" xmlns:xlink="http://www.w3.org/1999/xlink" x="0px" y="0px"
	 width="308.925px" height="175.576px" viewBox="40.174 22.424 308.925 175.576"
	 enable-background="new 40.174 22.424 308.925 175.576" xml:space="preserve">
<path fill="#FFFFFF" d="M288.443,23.543c-4.247,2.124-10.853,8.887-14.627,14.942c-3.618,5.819-14.628,16.279-28.39,26.974
	c-4.482,3.46-10.616,8.729-13.605,11.639c-5.032,4.954-5.74,5.348-7.941,4.875c-7.629-1.651-14.471-2.359-22.492-2.359
	c-6.684,0.079-9.279-0.236-9.83-1.022c-0.708-0.865-1.73-0.944-5.898-0.157c-21.469,3.854-30.355,4.797-40.5,4.247
	c-4.797-0.314-8.729-0.157-9.987,0.393c-1.652,0.629-2.988,0.551-5.426-0.314c-6.449-2.281-18.953-1.18-22.413,1.966
	c-4.011,3.618-4.64,4.404-5.741,6.527c-0.629,1.18-1.651,2.124-2.28,2.124c-0.708,0-0.944,0.472-0.629,1.258
	c0.472,1.102,0.315,1.18-0.708,0.314c-0.865-0.708-1.022-1.179-0.393-1.572c0.708-0.394,0.629-1.022-0.079-2.281
	c-1.258-1.966-2.438-2.202-1.73-0.314c0.314,0.865,0.236,1.101-0.472,0.708c-0.55-0.393-0.787-1.18-0.55-1.809
	c0.393-0.944-3.225-6.449-5.82-8.887c-0.943-0.865-9.437-10.931-12.976-15.335c-2.124-2.595-4.011-4.875-4.325-5.111
	c-0.236-0.236-3.067-5.583-6.292-12.032c-3.381-6.763-6.212-11.56-6.92-11.56c-0.629,0-0.943,0.472-0.708,1.101
	c0.236,0.629,0.865,2.516,1.337,4.168c1.73,5.977,11.639,22.727,16.121,27.288c5.741,5.898,17.694,19.896,17.694,20.84
	c0,0.472,0.236,0.865,0.629,0.865c0.314,0,1.258,1.258,2.044,2.752c0.865,1.494,1.809,2.752,2.202,2.752
	c0.314,0,0.629,0.708,0.629,1.573c0,1.965-0.393,1.965-3.224-0.079c-1.258-0.865-2.91-1.415-3.539-1.18
	c-0.629,0.235-0.943,0.079-0.708-0.314c0.55-0.865-0.944-2.359-5.977-6.213c-5.898-4.64-5.819-4.482-5.111-3.303
	c0.472,0.708,0.393,0.944-0.394,0.708c-0.629-0.236-1.022-0.944-0.943-1.573c0.157-0.55-1.18-1.966-2.988-3.067
	c-1.809-1.022-4.404-2.91-5.898-4.089c-1.416-1.258-2.988-2.044-3.46-1.73c-1.258,0.787-2.752-0.472-1.494-1.258
	c0.865-0.629,0.786-0.944-0.472-1.73c-0.865-0.472-2.044-0.944-2.516-0.944c-0.551,0-1.022-0.393-1.101-0.786
	c-0.079-1.18-2.438-3.539-3.382-3.46c-1.887,0.236-2.831-0.079-2.831-0.944c0-0.629,0.394-0.629,1.18,0.079
	c0.629,0.551,1.18,0.629,1.18,0.236c0-0.394-1.73-2.281-3.775-4.247c-2.123-1.888-5.269-5.663-7.078-8.415
	c-3.303-4.797-5.662-6.291-5.662-3.539c0,1.416,2.91,6.134,5.898,9.594c4.483,5.19,16.436,15.964,21.941,19.739
	c0.865,0.629,2.988,2.202,4.562,3.539c3.696,3.067,12.189,9.594,18.716,14.391l5.112,3.696l0.472,4.719
	c0.55,5.033,3.146,12.346,5.033,14.312c0.629,0.629,1.18,1.336,1.18,1.651c0,0.314,1.022,1.651,2.28,2.909
	c3.46,3.696,4.168,5.506,2.831,6.685c-0.708,0.551-3.46,5.584-6.291,11.167c-4.719,9.358-7.786,14.549-9.28,15.65
	c-0.55,0.393-3.381,0.314-4.482-0.079c-1.022-0.472-6.37-0.865-11.324-1.022c-4.483-0.078-5.505,0.157-6.449,1.416
	c-1.416,1.966-1.416,4.324,0.079,4.324c0.708,0,1.18,0.709,1.18,1.967c0,1.101,0.393,1.966,0.786,1.966
	c0.472,0,0.787-0.629,0.787-1.415c0-0.865,0.629-2.045,1.416-2.753c1.573-1.494,5.662-1.809,5.662-0.55
	c0,1.1,3.618,2.438,5.033,1.887c0.629-0.236,1.337-1.416,1.651-2.596c0.393-1.887,0.708-2.044,3.224-1.809
	c3.067,0.394,3.225,1.967,0.236,2.359c-1.022,0.158-2.202,0.629-2.674,1.022c-1.022,1.022,5.977,0,7-0.943
	c0.472-0.394,1.336-0.708,1.966-0.708c1.416-0.078,5.426-5.819,7.549-11.01c1.809-4.246,4.719-9.752,6.92-13.055l1.573-2.438
	l2.044,1.809c1.101,0.943,2.91,2.438,4.011,3.303l1.887,1.573l-2.123,2.753c-1.18,1.572-2.124,2.988-2.124,3.145
	c0,0.236-0.629,1.73-1.337,3.382c-0.708,1.73-1.337,3.225-1.416,3.46c-0.393,1.888-4.797,15.336-5.977,18.402
	c-0.787,2.123-1.494,4.247-1.494,4.719c0,2.988-8.179,5.977-16.593,5.977c-4.089,0-6.134,0.472-9.987,2.359
	c-4.089,1.966-4.876,2.674-4.876,4.325c0,2.123,1.18,2.674,1.887,0.786c0.394-1.18,2.124-1.729,1.966-0.629
	c-0.314,2.202,0.236,3.382,1.651,3.382c0.865,0,1.809,0.55,2.045,1.18c0.786,1.966,2.516,1.415,2.123-0.787
	c-0.393-1.966,0.629-3.46,3.46-4.954c2.28-1.258,5.033-1.18,4.561,0c-0.236,0.551-0.079,1.573,0.393,2.202
	c0.551,0.943,1.101,0.943,3.382,0.157c1.416-0.551,3.303-0.943,4.089-0.943c1.573,0,7.628-3.775,8.178-5.112
	c0.158-0.472,1.258-1.651,2.438-2.752c3.46-3.225,4.482-5.505,5.898-13.369c2.438-13.212,4.562-18.874,6.92-18.874
	c0.551,0,2.517-0.707,4.326-1.572c3.46-1.73,4.404-1.888,3.774-0.944c-0.157,0.315,0.315,1.494,1.18,2.517l1.494,1.967v-3.383
	c0-3.538,0.394-3.854,2.674-2.123c2.124,1.652,3.067,1.494,2.595-0.393c-0.393-1.652,0.079-1.888,5.348-2.832
	c1.73-0.314,4.011-1.021,5.112-1.572c2.516-1.337,9.043-7.471,9.594-8.965c0.315-0.943,0.787-0.708,2.281,0.865
	c2.674,2.909,10.381,5.426,16.672,5.426c4.876,0,9.201-1.102,9.201-2.438c0-0.314,1.494-0.236,3.303,0.236
	c1.809,0.393,4.011,0.55,4.955,0.314c2.517-0.63,14.47-0.63,19.817,0c4.562,0.471,4.876,0.629,5.977,3.381
	c1.81,4.246,2.989,10.224,3.146,16.043c0.079,2.91,0.394,5.27,0.629,5.27c0.394,0,0.63,2.909,0.865,10.773
	c0,1.022,0.314,1.809,0.708,1.809s0.708,0.865,0.708,1.888c0,1.337,0.707,2.123,2.359,2.831c1.336,0.55,2.674,1.415,2.988,1.966
	c0.943,1.651,13.525,8.414,14.705,7.942c1.573-0.551,1.494-2.595-0.156-3.539c-0.787-0.472-1.023-0.864-0.473-0.864
	c0.473,0,1.18,0.393,1.416,0.786c0.314,0.472,1.887,1.415,3.617,2.123c3.303,1.259,3.696,2.202,1.888,4.64
	c-1.729,2.202-1.415,2.831,0.708,1.494c1.651-1.101,1.887-1.101,2.28,0c0.314,0.63,1.18,1.18,1.966,1.18
	c2.045,0,4.404-2.752,3.775-4.482c-0.473-1.18-0.394-1.18,1.101,0.157c1.337,1.18,1.573,1.259,1.573,0.157
	c0-1.572-2.124-3.696-3.618-3.696c-0.708,0-2.438-0.943-3.932-2.044c-1.494-1.18-5.033-2.753-7.786-3.539
	c-2.752-0.786-6.213-2.202-7.628-3.225s-3.303-2.202-4.168-2.752c-0.864-0.472-1.494-1.259-1.415-1.73
	c0.157-0.472-0.236-2.359-0.865-4.168c-1.102-3.382-2.674-10.695-4.404-20.289c-1.336-7.628-2.516-12.032-3.46-13.29
	c-0.708-0.944-0.157-1.023,3.854-0.551c2.595,0.314,14.077,0.707,25.479,0.865c11.324,0.156,20.762,0.393,20.918,0.551
	c0.158,0.156-0.078,2.201-0.393,4.561c-1.416,9.358-1.651,14.155-0.786,14.155c0.394,0,0.786-0.472,0.786-1.022
	c0-0.472,0.314-1.416,0.708-2.045c0.55-0.865,1.022-0.786,2.438,0.551c1.81,1.651,8.729,2.91,13.763,2.438
	c4.954-0.393,5.111-0.235,5.111,4.326c0,2.28-0.393,5.269-0.865,6.605c-0.472,1.337-0.707,3.067-0.551,3.854
	c0.236,1.18,0.551,0.943,1.652-0.943l1.336-2.359l-0.471,2.909c-0.551,3.382,0.078,6.921,1.258,6.921
	c0.472,0,0.786-1.573,0.786-3.461c0-3.853,1.18-5.426,1.888-2.595c0.393,1.651,0.865,1.809,6.134,1.73
	c3.146,0,6.134-0.314,6.685-0.63c0.551-0.314,1.651-0.157,2.517,0.394c1.18,0.708,1.966,0.708,3.617,0
	c1.494-0.708,2.517-0.708,3.617-0.078c0.865,0.393,2.281,0.55,3.067,0.314c1.73-0.551,2.202-3.539,0.629-3.618
	c-0.55,0-0.157-0.393,0.944-0.786c1.101-0.472,3.617-0.551,5.662-0.314c2.988,0.394,3.774,0.865,3.774,1.966
	c0,0.865-0.314,1.73-0.786,1.966c-1.573,1.022-0.787,2.124,1.18,1.651c1.101-0.314,1.966-0.157,1.966,0.315
	c0,1.494,3.774,0.864,4.325-0.708c1.888-6.134-6.921-11.403-14.784-8.808c-1.494,0.55-7.55,1.022-13.526,1.022
	c-8.493,0.157-10.853-0.079-11.403-0.944c-0.393-0.629-0.393-1.494,0-1.966c0.394-0.472,0.394-1.337,0-1.966
	c-1.102-1.73-0.943-3.146,0.394-3.146c0.629,0,1.18-0.394,1.18-0.787c0-0.472-0.394-0.786-0.865-0.786s-0.708-0.786-0.551-1.809
	c0.157-1.259,0.786-1.729,2.202-1.729c1.415,0,2.045,0.471,2.202,1.729c0.235,1.809,1.258,2.359,2.044,1.101
	c0.236-0.314,1.338-0.472,2.438-0.236c1.809,0.315,1.966,0.079,1.966-2.438c0-3.146-1.101-3.774-6.999-4.089
	c-1.966-0.079-3.696-0.551-3.854-1.022c-0.157-0.551,0.236-0.943,0.944-0.943c1.336,0,1.729-1.18,0.55-1.888
	c-2.202-1.337,1.966-6.763,5.112-6.763c2.438,0,10.223-3.697,13.762-6.527c1.573-1.18,3.854-3.933,4.954-6.056
	c1.18-2.124,2.438-4.089,2.831-4.325c1.494-0.943,0.787-4.011-1.022-5.033c-0.943-0.551-2.123-1.73-2.516-2.674
	c-0.473-0.943-1.573-1.809-2.517-1.966c-1.888-0.314-2.438-1.415-0.865-1.888c1.651-0.551-0.079-2.988-2.517-3.46
	c-1.651-0.394-2.359-0.944-2.359-2.044c0-1.338-0.472-1.495-3.696-1.259c-3.774,0.235-3.774,0.235-4.011-2.359
	c-0.157-1.415,0.079-2.517,0.63-2.517c0.472,0,0.629-0.786,0.314-1.887c-0.236-1.102,0-2.281,0.707-2.988
	c0.708-0.63,0.944-1.574,0.63-2.045c-0.315-0.472-0.236-3.146,0.157-5.819c0.314-2.752,0.865-11.01,1.101-18.323
	c0.314-11.718,0.236-13.684-1.022-15.964c-0.708-1.337-1.651-2.517-2.045-2.517c-0.314,0-0.629-0.708-0.629-1.651
	c0-0.865-1.101-3.224-2.438-5.111c-2.359-3.46-2.517-3.539-5.662-3.067c-1.809,0.314-4.246,1.101-5.426,1.651
	c-2.91,1.494-2.832,1.494-2.438-2.28c0.314-2.595-0.157-4.325-2.045-8.257c-1.415-2.674-2.831-4.876-3.303-4.876
	c-0.394,0-1.101-0.865-1.415-1.887C294.026,22.128,291.825,21.735,288.443,23.543z M294.185,26.453c0,0.708,0.786,1.651,1.809,2.045
	c0.943,0.472,1.73,1.337,1.73,1.966c0,0.629,0.314,1.651,0.629,2.124c0.393,0.55,0.314,1.022-0.079,1.022s-0.629,0.944-0.472,2.124
	c0.236,2.595-4.011,6.842-10.695,10.695c-5.348,2.988-10.932,8.572-12.896,12.661c-4.641,9.751-5.112,10.145-24.772,20.132
	c-8.808,4.483-10.853,5.269-12.425,4.64c-1.102-0.394-2.281-0.551-2.596-0.314c-0.393,0.236-1.809,0-3.146-0.551l-2.517-1.022
	l5.426-5.19c2.988-2.831,9.516-8.257,14.471-12.032c11.01-8.415,25.008-22.02,28.232-27.524c2.988-5.112,3.617-5.819,7.628-8.965
	c4.876-3.775,7.392-4.955,8.65-3.932C293.712,24.802,294.185,25.746,294.185,26.453z M300.712,40.294
	c-0.473,3.225-1.494,5.112-2.674,5.112c-1.022,0-0.708-4.011,0.707-7.313C300.239,34.396,301.419,35.733,300.712,40.294z
	 M312.586,42.103c0.157,0.314-0.157,1.416-0.786,2.516c-0.551,1.101-1.022,1.494-1.101,0.944c0-1.101-2.596-1.258-4.562-0.236
	c-0.707,0.393-2.596,1.18-4.09,1.73c-3.459,1.337-10.223,7.864-10.145,9.83c0,1.416,0.079,1.416,0.944-0.079
	c1.888-3.224,8.021-8.257,11.481-9.437c4.719-1.573,5.584-1.494,5.584,0.551c0,0.943,0.786,2.517,1.65,3.46
	c1.573,1.73,1.652,1.966,0.473,3.696c-1.259,1.966-7.393,5.269-9.674,5.269c-4.639,0-22.098,15.571-32.557,29.019
	c-4.955,6.448-6.842,8.729-15.649,18.795c-2.359,2.674-7.786,7.55-12.189,10.853c-4.325,3.225-8.571,6.449-9.358,7.078
	c-2.438,1.966-9.201,4.954-9.594,4.168c-0.865-1.338-5.584-1.967-10.617-1.494c-4.954,0.471-5.111,0.393-7.313-1.888
	c-2.988-3.225-2.595-6.292,1.809-14.313c3.775-6.841,10.853-14.391,16.043-16.986c1.809-0.864,4.168-2.28,5.348-3.145
	c2.753-1.887,11.324-6.527,23.042-12.504c16.829-8.493,25.244-12.897,26.974-14.155c0.865-0.629,5.819-5.269,10.931-10.224
	c5.898-5.741,10.695-9.673,13.212-10.853C308.575,41.788,311.879,40.923,312.586,42.103z M296.544,44.147
	c0,3.067-15.1,17.773-23.042,22.334l-2.91,1.651l1.259-2.516c4.797-9.358,9.987-15.256,15.649-17.852
	c1.729-0.865,4.011-2.359,5.111-3.46C294.971,41.788,296.544,41.709,296.544,44.147z M316.204,48.787
	c0,0.787,0.943,2.595,2.044,3.932l2.045,2.359l-0.394,13.841c-0.235,7.628-0.786,15.964-1.258,18.559
	c-0.786,4.719-1.888,11.324-2.831,17.301c-1.494,9.752-2.674,16.437-4.325,25.166c-0.472,2.123-0.943,4.954-1.18,6.212
	c-0.157,1.259-0.865,5.269-1.494,9.044c-0.629,3.696-1.258,9.752-1.337,13.447c-0.157,6.056-0.394,6.921-2.359,9.28l-2.28,2.517
	l-0.473-1.967c-1.021-4.168,1.023-21.861,4.09-34.838c0.629-2.752,1.337-6.291,1.416-7.863c0.156-1.573,1.021-6.292,1.966-10.381
	c1.494-6.449,2.359-11.089,3.617-19.66c0.157-1.102,0.865-5.505,1.573-9.831c0.707-4.325,1.337-12.504,1.415-18.087
	c0.157-10.774-0.472-13.998-3.617-17.458c-1.494-1.652-1.494-1.809-0.157-3.854c1.337-2.045,1.415-2.124,2.438-0.708
	C315.731,46.585,316.204,47.922,316.204,48.787z M63.766,47.057c0,0.472-0.314,0.551-0.786,0.314
	c-0.394-0.236-0.787-0.865-0.787-1.258c0-0.472,0.393-0.55,0.787-0.314C63.452,46.035,63.766,46.664,63.766,47.057z M44.735,56.809
	c-0.236,0.236-0.708-0.157-0.943-0.943c-0.472-1.101-0.394-1.18,0.393-0.472C44.735,55.944,44.971,56.573,44.735,56.809z
	 M314.945,56.966c1.337,3.46,0.472,17.223-1.966,32.872c-0.472,2.988-1.101,7.471-1.337,9.83l-0.551,4.325l-2.752-0.235
	c-6.921-0.473-11.64-0.944-14.863-1.494c-3.067-0.551-3.382-0.787-2.359-1.809c0.63-0.63,1.18-2.045,1.259-3.146
	c0.393-4.797,1.258-9.122,1.966-9.987c0.394-0.55,0.55-1.258,0.314-1.73c-0.235-0.393,0.079-2.438,0.629-4.482
	c0.63-2.124,1.81-6.685,2.517-10.145c1.73-7.942,2.281-9.043,4.64-9.043c2.674,0,8.965-3.067,10.066-4.876
	C313.688,55.314,314.316,55.236,314.945,56.966z M47.566,60.033c0.394,1.101,0.315,1.179-0.708,0.314
	c-1.337-1.101-1.494-1.573-0.472-1.573C46.78,58.775,47.33,59.325,47.566,60.033z M296.937,68.762
	c-0.314,2.517-1.337,6.999-2.359,10.066c-1.021,2.988-2.201,7.628-2.674,10.223c-1.809,9.28-2.516,11.404-4.168,11.404
	c-1.101,0-1.415-0.395-1.101-1.416c0.157-0.708,0.55-2.438,0.786-3.696c0.787-3.932,1.18-5.269,2.91-11.403
	c0.943-3.225,2.123-8.336,2.674-11.246c0.865-4.483,2.752-8.415,4.09-8.415C297.33,64.28,297.173,66.324,296.937,68.762z
	 M76.427,67.976c1.022,1.258,0.944,1.337-0.236,0.314c-0.786-0.55-1.416-1.179-1.416-1.337
	C74.776,66.324,75.405,66.717,76.427,67.976z M291.117,73.716c-0.55,3.539-5.505,23.986-6.134,25.086
	c-0.236,0.314-8.258-1.651-9.279-2.359c-0.394-0.235-2.123-0.943-3.697-1.415c-1.65-0.551-2.988-1.18-2.988-1.416
	c0-1.258,10.854-14.313,14.942-17.852c1.022-0.865,3.146-2.831,4.64-4.247c1.494-1.337,2.752-2.438,2.91-2.281
	C291.668,69.312,291.432,71.357,291.117,73.716z M70.058,80.479c0,0.157-0.708,0-1.573-0.472c-0.865-0.472-1.573-1.022-1.573-1.258
	c0-0.157,0.708,0,1.573,0.472C69.35,79.693,70.058,80.244,70.058,80.479z M190.378,80.794c0,1.101-3.618,6.606-7.707,11.639
	c-3.46,4.404-5.583,8.572-7.156,13.919c-3.696,13.448-4.011,14.155-6.763,15.886c-1.494,1.021-3.382,1.809-4.168,1.809
	c-0.787,0-1.73,0.314-2.124,0.707c-0.472,0.314-2.438,1.259-4.482,2.045c-3.539,1.259-3.932,1.259-7.864,0
	c-9.122-2.988-8.886-2.752-10.695-9.594c-2.202-8.258-3.225-13.841-3.696-19.503c-0.157-2.595-0.708-6.37-1.101-8.493
	c-0.472-2.595-0.393-3.932,0.236-4.326c0.472-0.314,6.999-0.629,14.549-0.708c8.886-0.079,15.964-0.55,20.053-1.337
	c3.539-0.708,7.943-1.573,9.909-1.966C184.323,79.929,190.378,79.851,190.378,80.794z M207.286,81.581
	c3.933,0.55,3.933,0.55-1.966,0.708c-11.088,0.314-9.437,1.573,1.966,1.416c6.213,0,11.246-0.394,11.561-0.865
	s1.572-0.393,3.617,0.157c1.73,0.551,4.325,0.944,5.74,0.944c1.494,0,4.012,0.393,5.741,0.865l2.988,0.865l-2.202,1.18
	c-2.359,1.18-6.291,1.101-16.829-0.472c-8.965-1.416-20.446-1.888-20.446-0.944c0,0.865,1.887,1.022,11.403,1.258
	c2.595,0,6.526,0.314,8.649,0.708c2.203,0.315,4.482,0.708,5.112,0.787c0.629,0.157,2.517,0.472,4.247,0.865l3.066,0.629
	l-2.596,1.022c-1.415,0.629-2.83,0.865-3.224,0.708c-2.045-1.337-24.615-4.404-23.435-3.224c0.236,0.236,3.067,0.786,6.292,1.18
	c6.763,0.865,9.437,1.416,13.447,2.595c2.596,0.786,2.752,1.022,1.651,1.809c-1.022,0.708-2.044,0.708-4.876-0.157
	c-3.617-1.101-9.358-2.281-15.413-2.988l-3.146-0.394l2.752,0.865c1.495,0.472,4.719,1.18,7.078,1.573
	c2.358,0.393,5.584,1.258,7.156,1.887c1.572,0.629,3.066,0.866,3.381,0.629c0.236-0.314,0.473-0.157,0.473,0.314
	c0,1.572-2.359,1.809-5.584,0.551c-1.729-0.708-3.303-1.102-3.538-0.865c-0.236,0.236,0.865,0.786,2.358,1.337
	c1.573,0.472,2.832,1.18,2.832,1.573c0,1.415-1.494,1.572-4.09,0.471c-3.775-1.572-7.943-2.83-8.257-2.516
	c-0.157,0.157,0.865,0.707,2.28,1.18c7.157,2.674,7.786,3.146,6.92,4.797c-0.472,0.865-1.179,1.572-1.573,1.572
	c-0.471,0-0.785,0.551-0.785,1.18c0,2.674-5.505,0.787-8.887-3.066c-4.404-5.111-8.179-8.415-11.246-9.909
	c-3.224-1.494-3.381-1.73-2.28-2.831c0.708-0.708,1.887-2.595,2.752-4.247c1.416-2.831,1.887-3.067,5.269-3.381
	C201.86,80.873,203.197,80.873,207.286,81.581z M129.589,84.883c3.146,1.495,4.404,4.719,5.033,13.212
	c0.629,8.492,1.966,17.064,3.067,20.053c1.652,4.404,0.944,9.279-2.359,15.807c-1.651,3.382-3.067,5.741-3.146,5.191
	c0-0.473-0.551-0.944-1.18-0.944c-0.708,0-1.416-0.551-1.73-1.18c-0.472-1.415-4.561-3.696-5.269-2.988
	c-0.236,0.314-0.472-0.63-0.472-2.045c0-1.888-0.472-2.674-1.966-3.382c-2.359-1.101-2.988-5.111-0.551-4.168
	c2.752,1.18,14.942,3.225,14.156,2.359c-0.551-0.551-2.124-0.943-11.403-2.909c-4.01-0.865-4.089-0.944-5.662-5.348l-1.651-4.403
	l4.325-4.483l4.325-4.482v-5.269c0-6.842-1.101-10.617-3.932-13.92c-1.258-1.416-2.124-2.752-1.966-2.988
	C119.837,82.367,127.229,83.704,129.589,84.883z M119.837,87.007c3.224,3.539,4.718,9.122,3.932,14.706
	c-0.393,2.91-1.179,4.325-3.932,7.078c-3.382,3.303-3.618,3.381-5.348,2.201c-2.438-1.572-6.606-8.179-7.628-11.953
	c-1.573-5.977-1.573-6.999,0.079-10.224c1.966-3.854,3.46-4.797,7.235-4.875C116.534,83.94,117.557,84.49,119.837,87.007z
	 M84.213,91.175c0,0.472-0.472,0.393-1.18-0.157c-0.629-0.551-1.18-1.101-1.18-1.258s0.551-0.079,1.18,0.157
	C83.662,90.231,84.213,90.782,84.213,91.175z M107.805,105.566c1.258,2.123,3.46,4.875,4.875,5.977
	c1.888,1.416,3.067,3.381,4.011,6.527c0.787,2.438,1.18,4.797,0.944,5.189c-0.314,0.473-1.887,1.494-3.618,2.359
	c-1.651,0.865-3.067,1.809-3.067,2.045c0,0.708,3.382-0.629,4.561-1.73c2.045-2.044,3.382-1.336,2.91,1.494
	c-0.472,2.438-0.315,2.674,1.337,2.596c2.438-0.078,2.91,2.91,0.708,4.797c-2.044,1.73-2.123,2.91-0.157,1.809
	c2.674-1.415,5.19-0.865,7.471,1.494l2.202,2.281l-3.539,0.551c-2.202,0.314-4.168,0.156-5.347-0.394
	c-2.045-1.022-10.145-9.358-10.145-10.302c0-0.314-1.337-2.202-2.988-4.09c-4.011-4.64-6.292-8.336-8.1-13.369
	c-1.809-4.875-1.887-6.842-0.314-6.842c0.787,0,1.18,0.787,1.18,2.123c0.079,2.518,1.651,4.955,3.224,4.877
	c0.787,0,0.865-0.158,0.079-0.473c-0.55-0.157-1.337-1.021-1.73-1.809c-0.629-1.18-0.472-1.337,0.787-1.022
	c0.865,0.236,2.044,0,2.673-0.472c0.865-0.708,1.18-0.708,1.495,0.078c0.157,0.551,0.629,0.787,0.943,0.394
	c1.258-1.18-1.416-4.403-4.797-5.662c-3.146-1.18-3.46-1.573-3.46-4.011c0-2.596,1.494-6.448,3.46-8.886
	c0.629-0.865,1.022,0.157,1.494,4.718C105.367,99.982,106.232,102.734,107.805,105.566z M190.771,94.32
	c1.73,1.102,4.561,3.539,6.291,5.426c1.652,1.888,4.483,4.641,6.134,5.978c2.595,2.202,2.831,2.673,1.573,2.988
	c-0.787,0.314-2.359,0.943-3.46,1.494c-1.651,0.864-2.359,0.864-3.932,0c-2.831-1.573-3.539-1.337-1.495,0.472
	c1.573,1.337,1.73,1.809,0.944,3.617c-1.101,2.359-1.258,10.224-0.157,10.932c0.393,0.236,0.55,0.943,0.236,1.572
	c-0.236,0.629,0,1.18,0.472,1.18c0.472,0,0.865-0.551,0.865-1.18s0.394-1.18,0.787-1.18c0.472,0,0.786-0.551,0.786-1.18
	c0-1.415-1.258-1.572-1.809-0.235c-0.236,0.55-0.472-1.18-0.472-3.854c-0.079-4.168,0.236-5.19,1.809-6.763
	c1.809-1.809,6.685-4.09,7.313-3.382c0.629,0.629-1.73,3.617-2.752,3.617c-0.55,0-0.786,0.394-0.55,0.786
	c0.314,0.473-0.079,1.888-0.708,3.303c-1.651,3.304-1.573,5.506,0.394,8.809c1.416,2.438,1.494,2.831,0.393,2.831
	c-0.708,0-1.258-0.394-1.258-0.786c0-0.473-0.55-0.787-1.258-0.787c-0.629,0-1.022,0.314-0.786,0.708
	c0.55,0.786-3.225,1.651-4.719,1.101c-0.55-0.156-0.786-0.865-0.629-1.415c0.236-0.63-0.315-1.573-1.258-2.124
	c-1.809-1.101-7.471-8.257-9.516-12.031c-0.708-1.337-2.045-3.617-2.988-5.111c-0.865-1.494-1.809-3.146-2.124-3.697
	c-0.629-1.258,2.831-8.886,4.011-8.886c0.551,0,1.18-1.022,1.416-2.359C184.952,91.332,186.21,91.332,190.771,94.32z M88.145,93.77
	c1.101,1.258,0.786,1.416-1.101,0.708c-0.708-0.236-1.258-0.786-1.258-1.18C85.786,92.197,87.044,92.433,88.145,93.77z
	 M271.614,97.072l3.696,1.338l-0.314,12.11c-0.236,6.685-0.708,12.504-1.18,12.976c-0.472,0.473-2.831,0.551-5.819,0.236
	l-5.111-0.551l0.629-2.359c0.393-1.337,0.786-6.842,0.865-12.268c0.078-7.785,0.393-10.145,1.336-11.324
	C267.289,95.422,266.975,95.422,271.614,97.072z M283.489,100.848c5.348,1.18,5.27,0.865,4.797,13.526
	c-0.236,6.37-0.707,11.718-1.18,12.032c-0.393,0.236-3.066,0.078-5.977-0.314l-5.19-0.787l0.472-11.481
	c0.236-6.291,0.473-12.032,0.551-12.897C276.962,99.432,277.276,99.432,283.489,100.848z M261.862,120.979
	c-1.021,2.595-1.809,2.91-5.662,2.438c-2.83-0.314-2.988-0.473-2.516-2.438c0.314-1.101,0.786-4.168,1.101-6.841
	c0.472-4.09,0.944-5.27,4.011-8.809l3.539-4.09l0.236,8.809C262.728,115.317,262.413,119.722,261.862,120.979z M295.128,104.072
	c2.674,0.472,2.91,0.707,2.831,2.988c-0.079,3.932,0.944,12.504,1.888,14.863c1.101,2.909,0.393,3.381-5.426,3.932l-4.955,0.393
	v-11.324C289.466,102.342,289.073,103.129,295.128,104.072z M303.386,107.926c0.471,5.348,1.494,9.357,2.516,9.672
	c0.787,0.236,0.865,0,0.236-1.101c-0.393-0.864-0.943-3.696-1.18-6.448c-0.393-4.404-0.314-4.955,0.865-4.719
	c0.943,0.157,1.416,1.18,1.572,3.775c0.158,1.887,0.629,3.932,1.023,4.403c0.471,0.551,0.471,1.651-0.079,2.988
	c-0.394,1.18-0.786,2.988-0.786,4.089c0,1.889-2.438,5.033-3.933,5.033c-1.809,0-3.382-5.348-3.774-12.818l-0.394-7.785l1.888,0.314
	C302.757,105.487,303.228,106.117,303.386,107.926z M309.913,108.947c0,1.652-0.158,1.888-0.787,0.944
	c-1.022-1.573-1.022-4.168,0-3.539C309.599,106.588,309.913,107.768,309.913,108.947z M322.102,108.24
	c-1.101,2.201-3.932,4.797-5.269,4.797c-0.394,0-0.629-0.551-0.629-1.18s0.393-1.18,0.865-1.18c0.472,0,0.629-0.707,0.314-1.651
	c-0.63-1.966,0.157-2.674,3.538-2.909l2.438-0.158L322.102,108.24z M105.446,107.532c0,0.394-0.55,0.786-1.18,0.786
	c-0.629,0-1.179-0.393-1.179-0.786c0-0.472,0.55-0.786,1.179-0.786C104.896,106.746,105.446,107.061,105.446,107.532z
	 M179.998,110.049c0.865,1.416,2.281,3.932,3.224,5.584l1.652,2.988l-1.888,1.887c-1.101,1.102-2.359,1.967-2.831,1.967
	c-0.393,0-0.786,0.55-0.786,1.179c0,1.888-1.416,1.337-2.91-1.179c-0.708-1.338-1.651-2.359-1.966-2.359s-0.629-0.394-0.629-0.944
	c0-1.809,3.381-11.639,4.01-11.639C178.189,107.532,179.132,108.712,179.998,110.049z M329.101,109.734
	c0.394,0.629-2.201,3.303-3.303,3.303c-0.314,0.078-2.831,1.651-5.662,3.46c-2.831,1.888-5.269,3.304-5.426,3.146
	c-0.63-0.551,1.729-5.033,2.674-5.033c0.629,0,2.201-1.258,3.617-2.752c1.966-2.045,3.303-2.752,5.19-2.752
	C327.528,109.105,328.865,109.42,329.101,109.734z M252.977,116.969c-0.235,2.123-0.551,4.247-0.865,4.719
	c-0.235,0.393-2.359,0.708-4.562,0.708c-2.28-0.079-3.46-0.236-2.674-0.472c0.708-0.158,1.338-0.708,1.338-1.18
	c0-0.394-0.551-0.551-1.259-0.314c-0.708,0.235-1.101,0.156-0.944-0.236c0.314-0.943,7.865-7.156,8.65-7.156
	C252.977,113.037,253.134,114.768,252.977,116.969z M333.269,117.52c2.753,3.225,3.067,3.775,1.809,4.561
	c-0.393,0.236-0.786,1.259-0.786,2.124c0,1.415-3.854,5.741-8.179,9.122c-1.809,1.494-9.043,4.562-12.032,5.27
	c-2.517,0.472-3.617-0.473-1.809-1.573c0.394-0.235,0.551-1.494,0.236-2.753c-0.236-1.336,0-2.83,0.472-3.459
	c0.551-0.63,0.865-1.574,0.786-2.203c-0.393-2.988,0.157-5.348,1.259-5.348c0.629,0,1.18-0.471,1.18-1.101
	c0-1.494,6.134-5.977,8.179-5.977c0.943,0,2.201-0.394,2.831-0.786C329.258,114.06,330.517,114.531,333.269,117.52z
	 M187.075,121.924c0.157,0.629-1.022,2.516-2.595,4.089c-5.033,5.19-6.37,9.516-3.774,12.347c1.179,1.337,1.179,1.416-0.787,1.416
	c-1.18,0-2.124-0.473-2.124-1.023c0-0.629-0.157-0.707-0.629-0.078c-0.314,0.551-1.258,0.865-2.124,0.708
	c-7.785-0.786-11.481-2.909-13.054-7.393c-0.787-2.28-0.708-2.674,1.258-4.325c1.258-1.101,3.775-2.517,5.662-3.303
	c1.809-0.787,3.381-1.887,3.381-2.438c0-1.809,1.337-1.102,3.539,1.809l2.124,2.752l-2.045,1.73
	c-2.202,1.887-2.752,6.055-1.258,8.414c0.551,0.865,0.629,0.236,0.314-2.045c-0.393-2.909-0.236-3.381,2.045-5.269
	c1.337-1.179,2.831-2.123,3.303-2.123c0.472,0,0.629-0.55,0.315-1.18c-0.236-0.629,0.157-1.651,0.786-2.123
	c0.708-0.551,1.809-1.573,2.517-2.359C185.502,120.036,186.761,120.115,187.075,121.924z M192.187,127.742
	c0.236,1.259-0.157,1.73-1.73,2.045c-2.359,0.551-4.168,4.012-3.46,6.686c0.393,1.729,0.236,1.809-2.595,1.572
	s-3.067-0.472-3.303-2.752c-0.314-3.067,0.314-4.326,4.325-8.494c2.831-2.988,3.067-3.066,4.718-1.966
	C191.086,125.463,191.951,126.799,192.187,127.742z M146.182,126.563c1.809,0.394,3.303,0.943,3.303,1.179
	c0,0.865-8.336-0.785-9.437-1.887c-1.022-1.102-0.943-1.18,0.787-0.708C141.936,125.463,144.294,126.092,146.182,126.563z
	 M241.337,127.35c0.551,2.123-0.156,8.021-1.101,9.123c-0.079,0.156-2.123,0.078-4.562-0.236l-4.403-0.551v-3.303
	c0-2.988,0.314-3.539,2.988-5.348C238.428,124.125,240.473,124.204,241.337,127.35z M251.718,127.979
	c0.236,1.494,0.314,4.011,0.158,5.505l-0.314,2.753L247.078,136l-4.482-0.314v-5.426l0.079-5.506l4.324,0.236
	C251.325,125.227,251.325,125.227,251.718,127.979z M263.593,126.484c0.787,1.258,0.943,6.999,0.236,8.887
	c-0.394,0.943-1.652,1.258-5.505,1.258h-5.033v-4.64c0-2.595-0.235-5.19-0.472-5.819c-0.314-1.022,0.472-1.18,4.797-1.022
	C261.155,125.227,263.042,125.698,263.593,126.484z M271.378,125.777c4.247,0.156,5.427,1.729,5.506,7.077v3.774h-5.898h-5.898
	l0.473-3.46c0.393-2.358,0.156-4.247-0.709-5.977l-1.258-2.438l2.123,0.394C266.896,125.384,269.413,125.619,271.378,125.777z
	 M305.98,128.922c0,2.674-1.022,2.281-1.966-0.785c-0.394-1.259-0.158-1.73,0.707-1.73S305.98,127.192,305.98,128.922z
	 M289.623,128.451c0.865,0.55,2.202,5.818,2.202,8.65v2.359l-6.056-1.023c-3.382-0.55-6.448-1.101-6.842-1.258
	s-0.786-2.438-0.786-5.19l-0.157-4.954l5.505,0.551C286.556,127.9,289.309,128.293,289.623,128.451z M303.386,130.023
	c1.415,2.202,1.65,3.303,1.18,5.662c-0.551,2.752-0.787,2.91-4.09,3.146c-4.955,0.394-7.078-0.314-7.078-2.438
	c-0.078-0.944-0.55-3.146-1.18-4.876c-1.415-3.854-0.786-4.325,5.112-4.246C301.419,127.271,301.733,127.428,303.386,130.023z
	 M157.821,131.439c0.236,1.101,0.236,2.674-0.079,3.539c-0.472,1.572-0.629,1.494-3.067-1.102c-1.73-1.809-3.382-2.752-4.719-2.752
	c-1.101,0-2.044,0.314-2.044,0.707c0,0.394-0.708,0.865-1.573,1.102c-1.73,0.471-2.045-0.394-0.551-1.652
	c1.18-0.943,3.775-1.494,8.179-1.65C156.877,129.552,157.349,129.787,157.821,131.439z M219.947,131.596
	c-0.944,0.865-1.101,2.045-0.708,4.404l0.473,3.225l-2.281-0.708c-1.258-0.394-6.842-0.708-12.504-0.708
	c-11.403,0-13.212-0.551-12.818-3.854l0.236-2.201l8.1-0.236c4.482-0.157,8.336-0.472,8.571-0.707
	c0.314-0.236,3.146-0.473,6.292-0.473C220.655,130.338,221.048,130.416,219.947,131.596z M190.536,133.09
	c-0.157,1.102,0.079,2.518,0.629,3.146c1.416,1.651,0.472,2.28-1.494,1.021c-1.809-1.101-2.202-3.695-0.708-5.189
	C190.457,130.574,191.007,130.967,190.536,133.09z M229.698,133.483c0,2.753-1.809,3.225-3.145,0.786
	c-1.023-1.965-0.395-3.145,1.65-3.145C229.306,131.125,229.698,131.675,229.698,133.483z M139.262,132.697
	c0,0.393-0.394,0.786-0.865,0.786c-0.393,0-0.55-0.394-0.314-0.786c0.236-0.472,0.629-0.787,0.865-0.787
	C139.104,131.91,139.262,132.226,139.262,132.697z M143.508,135.922c-1.022,1.729-2.674,0.629-2.674-1.888l0.079-2.517l1.494,1.887
	C143.272,134.349,143.744,135.528,143.508,135.922z M226.317,137.258c1.415,2.518,2.674,5.741,2.831,7.235
	c1.101,8.415,3.617,21.076,5.347,26.581c0.709,2.28,0.63,2.909-0.785,4.403c-1.023,1.102-1.494,2.281-1.18,3.067
	c0.235,0.786,0.078,1.337-0.394,1.337c-1.888,0-3.304-4.011-4.011-11.481c-1.572-15.729-2.988-25.401-4.09-27.604
	c-0.629-1.18-1.887-3.381-2.674-4.797c-1.258-2.123-1.336-2.674-0.393-3.225C222.778,131.675,223.722,132.461,226.317,137.258z
	 M153.731,134.428c1.573,2.28,1.573,4.089,0,5.426c-1.101,0.865-1.416,0.787-2.359-0.472c-1.73-2.517-2.516-3.382-3.617-3.696
	c-0.865-0.314-0.787-0.629,0.079-1.651C149.328,132.146,152.316,132.383,153.731,134.428z M111.187,135.214
	c0.157,0.55-0.472,2.044-1.494,3.382c-1.73,2.28-7.549,13.762-6.999,13.762c0.394,0-1.18,2.831-3.774,6.842
	c-1.18,1.887-2.438,3.382-2.91,3.382c-1.494,0-1.416-1.416,0.236-4.011c3.146-5.111,4.482-7.393,6.055-10.932
	c3.146-6.684,3.539-7.471,5.426-10.459C109.692,134.113,110.558,133.641,111.187,135.214z M137.688,136.551
	c0,0.472-0.314,1.022-0.786,1.258c-0.393,0.236-0.787-0.078-0.787-0.707c0-0.708,0.394-1.259,0.787-1.259
	C137.374,135.843,137.688,136.157,137.688,136.551z M140.048,136.629c0,0.394-0.314,0.787-0.786,0.787
	c-0.394,0-0.787-0.394-0.787-0.787c0-0.472,0.393-0.786,0.787-0.786C139.733,135.843,140.048,136.157,140.048,136.629z
	 M149.406,138.91c1.573,2.831-1.494,4.797-10.538,6.763c-2.595,0.551-6.999,1.888-9.673,2.988c-3.146,1.259-4.875,1.651-4.797,1.101
	c0.314-2.674-0.157-3.695-1.809-3.695h-1.73l1.652-1.494c1.73-1.652,6.999-3.382,15.02-4.876c2.674-0.472,5.112-1.259,5.348-1.573
	C143.666,136.787,148.62,137.337,149.406,138.91z M283.332,145.279c-0.236,4.719-1.337,7.078-3.382,7.078
	c-1.18,0-1.494-4.325-0.629-8.414c0.865-3.618,1.18-4.247,2.596-4.012C283.411,140.168,283.567,140.641,283.332,145.279z
	 M303.149,141.19c0.314,0.551-0.078,3.146-1.494,9.987c-0.314,1.572-0.787,1.651-8.021,1.337c-5.27-0.157-8.1-0.629-8.887-1.415
	c-0.707-0.708-0.786-1.102-0.157-1.102c0.708,0,0.708-0.472,0-2.045c-0.708-1.572-0.708-2.123,0.079-2.674
	c0.629-0.314,0.786-1.021,0.472-1.494c-0.314-0.55-0.314-1.415-0.079-2.044c0.314-0.944,2.202-1.18,9.044-1.18
	C298.824,140.562,302.913,140.876,303.149,141.19z M121.253,151.886c-2.752,4.718-4.797,10.774-4.797,13.998
	c0,1.18-0.314,2.909-0.708,3.932c-0.394,1.022-1.101,3.775-1.652,6.135c-0.55,2.358-1.416,4.954-1.966,5.74
	c-0.944,1.337-1.022,1.337-2.674,0c-1.73-1.415-1.73-1.572-0.55-4.954c0.708-1.966,2.202-6.37,3.303-9.83
	c5.348-16.515,6.763-19.188,9.987-19.268C123.455,147.639,123.376,148.189,121.253,151.886z M314.631,152.436
	c0,0.394-0.865,0.709-1.966,0.709c-2.202,0-2.674-1.259-0.551-1.81C313.688,151.021,314.631,151.414,314.631,152.436z
	 M291.511,153.93c2.516,0,3.46,0.315,3.46,1.18c0,0.865-0.944,1.18-3.696,1.18c-5.269,0-7.313-0.707-7.313-2.438
	c0-1.258,0.314-1.337,2.045-0.707C287.106,153.615,289.544,153.93,291.511,153.93z M319.113,154.953
	c-0.55,1.65-2.517,1.021-2.752-0.865c-0.236-1.652-0.079-1.73,1.415-0.943C318.721,153.615,319.271,154.48,319.113,154.953z
	 M299.296,154.717c0.314,0.472,0.865,0.629,1.258,0.393c0.394-0.314,0.709-0.078,0.709,0.314c0,0.473-1.023,0.865-2.359,0.865
	c-1.573,0-2.359-0.393-2.359-1.18C296.544,153.773,298.51,153.537,299.296,154.717z M82.326,161.086
	c0.236,0.395-1.416,0.709-3.539,0.709c-2.202,0-4.011-0.314-4.011-0.709C74.776,159.592,81.382,159.592,82.326,161.086z
	 M73.99,162.66c0,0.393-0.787,0.707-1.652,0.707c-1.416,0-1.494-0.157-0.708-1.18C72.574,161.008,73.99,161.244,73.99,162.66z
	 M85.786,162.03c0,1.101-1.573,2.909-2.517,2.909c-0.943,0-0.786-1.887,0.314-2.988C84.842,160.693,85.786,160.771,85.786,162.03z
	 M342.941,168.164c0,0.394-2.359,0.708-5.269,0.708c-3.225,0-4.954-0.314-4.482-0.708
	C334.685,166.67,342.941,166.749,342.941,168.164z M309.599,168.951c0.314,0.629,2.044,0.786,4.954,0.472
	c5.347-0.551,7.942,0,7.942,1.729c0,1.022-1.101,1.337-5.898,1.494c-7.393,0.314-9.043-0.157-9.043-2.674
	C307.554,168.007,308.654,167.457,309.599,168.951z M328.394,169.973c0.943,1.022,2.201,1.967,2.831,2.202
	c2.123,0.786,0,1.573-2.753,1.102c-3.225-0.63-5.348-3.382-3.539-4.483C326.427,167.85,326.427,167.85,328.394,169.973z
	 M347.188,170.917c0.235,0.708,0.472,2.123,0.472,3.224c0,3.067-1.966,1.73-2.202-1.572
	C345.223,169.658,346.323,168.636,347.188,170.917z M240.63,182.005c-0.473,0.472-0.629,1.651-0.314,2.596
	c0.629,1.887,0.157,1.966-2.596,0.235c-3.146-1.966-3.854-3.066-3.46-5.662l0.314-2.28l3.382,2.045
	C240.552,180.433,241.181,181.219,240.63,182.005z M108.434,182.87c0.551,0.394,0.787,1.259,0.472,1.966
	c-0.472,1.337-6.92,6.056-8.179,6.056c-0.393,0-0.708-1.18-0.629-2.595c0.079-2.281,0.551-2.91,3.303-4.247
	C107.255,182.084,107.176,182.084,108.434,182.87z M243.854,184.521c0,0.865,1.101,2.438,2.438,3.539
	c1.73,1.494,2.045,2.045,1.102,2.045c-1.494,0-6.686-4.876-6.686-6.213c0-0.472,0.708-0.865,1.573-0.865
	C243.304,183.027,243.854,183.578,243.854,184.521z M247.55,185.072c-0.235,0.235-0.943,0.314-1.494,0.078
	c-0.629-0.235-0.393-0.472,0.473-0.472C247.394,184.601,247.864,184.836,247.55,185.072z M255.886,187.51
	c3.461,1.494,4.247,3.854,0.787,2.517c-2.517-0.943-7.314-3.774-7.314-4.325S252.19,185.938,255.886,187.51z M92.627,187.117
	l2.202,0.864l-3.146,0.63c-8.179,1.729-8.257,1.729-8.257,0.472C83.426,186.409,88.381,185.387,92.627,187.117z M98.683,186.803
	c0.708,1.179-0.393,3.774-2.044,4.797c-1.887,1.18-2.831,0.55-1.494-1.022c0.55-0.629,0.786-1.888,0.472-2.831
	c-0.393-1.259-0.157-1.573,1.101-1.573C97.582,186.173,98.447,186.487,98.683,186.803z M82.247,193.172
	c-0.236,0.944-0.865,1.651-1.258,1.651c-1.258,0-1.73-2.28-0.708-3.617C81.618,189.634,82.955,190.971,82.247,193.172z
	 M261.941,193.408c0,1.809-1.259,3.066-2.595,2.517c-1.338-0.472-1.73-1.966-0.787-2.91
	C259.425,192.071,261.941,192.386,261.941,193.408z"/>
<path fill="#FFFFFF" d="M288.994,29.914c-4.562,2.595-10.931,9.909-10.381,11.717c0.235,0.629,0.865,0.079,1.651-1.337
	c1.258-2.438,5.82-7.078,9.201-9.358c2.123-1.415,4.325-1.73,3.539-0.472c-0.708,1.101,1.021,3.932,2.359,3.932
	c0.629,0,1.18-0.393,1.18-0.787c0-0.472-0.551-0.786-1.259-0.786c-0.943,0-1.18-0.472-0.786-1.809
	c0.314-1.494,0.078-1.809-1.73-1.966C291.589,29.048,289.938,29.363,288.994,29.914z"/>
<path fill="#FFFFFF" d="M269.491,52.876c-1.494,1.18-1.494,1.18,0.314,1.18h1.809l-2.201,2.045c-1.18,1.101-1.967,2.202-1.652,2.438
	c0.787,0.787,3.461-2.044,4.325-4.561C272.951,51.382,272.007,50.989,269.491,52.876z"/>
<path fill="#FFFFFF" d="M265.795,56.416c-1.022,0.786-1.494,1.494-1.022,1.573c0.473,0,1.494-0.708,2.281-1.573
	C268.862,54.371,268.154,54.371,265.795,56.416z"/>
<path fill="#FFFFFF" d="M265.874,60.426c0,0.393,0.393,0.55,0.786,0.314c0.472-0.236,0.786-0.629,0.786-0.865
	c0-0.157-0.314-0.314-0.786-0.314C266.267,59.561,265.874,59.954,265.874,60.426z"/>
<path fill="#FFFFFF" d="M263.907,62.707c-0.236,0.394-0.157,0.787,0.314,0.787c0.394,0,1.023-0.393,1.259-0.787
	c0.235-0.472,0.157-0.786-0.314-0.786C264.772,61.92,264.144,62.235,263.907,62.707z"/>
<path fill="#FFFFFF" d="M287.5,61.212c-0.865,1.337,0.079,1.652,1.18,0.315c0.629-0.708,0.629-1.18,0.157-1.18
	C288.364,60.348,287.735,60.741,287.5,61.212z"/>
<path fill="#FFFFFF" d="M284.512,63.886c-0.708,0.629-1.416,1.18-1.73,1.18c-0.235,0-2.831,1.573-5.741,3.539
	c-2.909,1.966-4.797,3.539-4.246,3.539c0.629,0,2.596-1.101,4.482-2.359c1.888-1.337,3.617-2.359,3.932-2.359
	c0.236,0,0.865-0.393,1.416-0.787c0.551-0.472,1.651-1.337,2.517-1.966c0.865-0.551,1.337-1.258,1.101-1.573
	C285.927,62.864,285.141,63.179,284.512,63.886z"/>
<path fill="#FFFFFF" d="M287.5,65.066c0.314,0.472,0.864,0.629,1.259,0.393c1.1-0.708,0.864-1.179-0.551-1.179
	C287.579,64.28,287.264,64.673,287.5,65.066z"/>
<path fill="#FFFFFF" d="M279.793,70.964c-2.359,2.281-2.595,2.752-1.101,2.674c1.021,0,4.954-4.64,3.932-4.64
	C282.31,68.998,280.973,69.863,279.793,70.964z"/>
<path fill="#FFFFFF" d="M273.816,76.547c-0.865,1.101-1.888,1.809-2.28,1.652c-0.314-0.236-0.708,0.236-0.708,1.101
	c-0.079,0.787,0.079,1.494,0.394,1.494c0.864,0,5.818-6.291,4.953-6.291C275.782,74.503,274.681,75.447,273.816,76.547z"/>
<path fill="#FFFFFF" d="M263.593,76.547c-1.494,0.629-2.516,1.258-2.28,1.495c0.472,0.55,5.348-1.416,5.348-2.124
	C266.66,75.132,266.817,75.132,263.593,76.547z"/>
<path fill="#FFFFFF" d="M267.446,76.784c0,0.472,0.393,1.022,0.787,1.258c0.471,0.236,0.785-0.079,0.785-0.708
	c0-0.708-0.314-1.258-0.785-1.258C267.839,76.076,267.446,76.39,267.446,76.784z"/>
<path fill="#FFFFFF" d="M257.616,80.086c-0.865,1.337,0,1.573,1.651,0.314c1.337-1.022,1.337-1.101,0.157-1.18
	C258.718,79.221,257.853,79.615,257.616,80.086z"/>
<path fill="#FFFFFF" d="M262.571,81.188c-0.473,2.202,0.235,2.517,1.65,0.865c0.629-0.786,0.629-1.258-0.235-1.966
	C263.121,79.378,262.807,79.615,262.571,81.188z"/>
<path fill="#FFFFFF" d="M250.696,83.861c-2.123,1.258-3.539,2.438-3.146,2.674c0.394,0.236,1.18,0.157,1.809-0.315
	c1.888-1.101,2.518-0.865,2.359,1.022c-0.314,3.146,0,3.775,1.416,3.696c0.707,0,0.943-0.236,0.472-0.393
	c-0.472-0.158-0.629-1.416-0.472-2.674c0.236-1.416,0-2.359-0.551-2.359c-0.472,0-0.865-0.393-0.865-0.787
	c0-0.472,0.473-0.786,1.102-0.786c0.551,0,1.494-0.551,2.045-1.18C256.279,81.03,254.942,81.423,250.696,83.861z"/>
<path fill="#FFFFFF" d="M256.437,84.333c0,0.629,0.394,1.18,0.787,1.18c0.471,0,0.785-0.551,0.785-1.18s-0.314-1.18-0.785-1.18
	C256.83,83.153,256.437,83.704,256.437,84.333z"/>
<path fill="#FFFFFF" d="M267.054,83.94c-0.236,0.393-0.158,0.786,0.314,0.786c0.393,0,1.021-0.393,1.258-0.786
	c0.236-0.472,0.157-0.787-0.314-0.787C267.918,83.153,267.289,83.468,267.054,83.94z"/>
<path fill="#FFFFFF" d="M261.784,85.277c0.551,0.236,1.258,0.157,1.494-0.079c0.314-0.236-0.157-0.472-1.022-0.394
	C261.392,84.805,261.155,85.041,261.784,85.277z"/>
<path fill="#FFFFFF" d="M262.256,89.917c-1.258,1.494-3.067,3.775-4.011,5.033c-1.021,1.18-1.809,2.438-1.809,2.674
	c0,1.416,1.651-0.157,5.348-5.033C265.952,87.007,266.345,84.726,262.256,89.917z"/>
<path fill="#FFFFFF" d="M241.967,89.051c-0.865,0.629-1.18,1.18-0.708,1.18c1.494,0,3.382-0.943,3.382-1.651
	C244.641,87.557,243.696,87.715,241.967,89.051z"/>
<path fill="#FFFFFF" d="M254.864,88.658c0,0.393,0.393,0.787,0.786,0.787c0.472,0,0.786-0.394,0.786-0.787
	c0-0.472-0.314-0.786-0.786-0.786C255.257,87.872,254.864,88.187,254.864,88.658z"/>
<path fill="#FFFFFF" d="M256.279,90.782c0.472,0.157,1.415,0.157,1.966,0c0.473-0.236,0.079-0.394-1.021-0.394
	C256.122,90.388,255.729,90.546,256.279,90.782z"/>
<path fill="#FFFFFF" d="M233.474,93.849c-2.517,1.573-4.562,3.067-4.562,3.46c0,0.551,5.269-2.28,10.224-5.426
	c1.021-0.708,1.021-0.787,0-0.787C238.507,91.096,235.911,92.354,233.474,93.849z"/>
<path fill="#FFFFFF" d="M243.854,93.456c0,1.337,0.314,2.202,0.786,1.887c0.472-0.235,0.786-1.337,0.786-2.438
	c0-1.022-0.314-1.887-0.786-1.887C244.247,91.018,243.854,92.119,243.854,93.456z"/>
<path fill="#FFFFFF" d="M237.091,97.23c-0.078,1.809,0.157,3.225,0.551,3.225c1.258,0,1.494-1.573,0.551-4.012l-1.023-2.438
	L237.091,97.23z"/>
<path fill="#FFFFFF" d="M249.438,95.264c0.786,0.708,6.213,1.102,6.213,0.394c0-0.394-1.494-0.708-3.304-0.708
	C250.538,94.949,249.28,95.107,249.438,95.264z"/>
<path fill="#FFFFFF" d="M242.91,98.646c0.551,0.236,1.259,0.157,1.495-0.079c0.314-0.235-0.158-0.471-1.023-0.393
	C242.517,98.174,242.281,98.41,242.91,98.646z"/>
<path fill="#FFFFFF" d="M224.194,100.455c0,0.393,0.393,0.785,0.786,0.785c0.472,0,0.786-0.393,0.786-0.785
	c0-0.473-0.314-0.787-0.786-0.787C224.587,99.668,224.194,99.982,224.194,100.455z"/>
<path fill="#FFFFFF" d="M231.036,102.578c0.471,2.83,1.809,4.954,3.066,4.954c0.236,0,0.157-0.472-0.236-1.022
	c-0.471-0.472-1.021-2.281-1.336-3.932c-0.314-1.573-0.865-2.91-1.259-2.91S230.8,101.005,231.036,102.578z"/>
<path fill="#FFFFFF" d="M243.146,99.982c0.157,0.157,2.28,0.473,4.64,0.708c2.91,0.314,3.932,0.235,3.146-0.235
	C249.831,99.746,242.36,99.275,243.146,99.982z"/>
<path fill="#FFFFFF" d="M248.573,105.33c-5.663,5.27-5.191,5.898,0.785,1.022c3.383-2.831,5.191-4.954,4.562-5.505
	C253.763,100.69,251.403,102.734,248.573,105.33z"/>
<path fill="#FFFFFF" d="M237.563,102.027c0,0.393,0.393,0.786,0.785,0.786c0.473,0,0.787-0.394,0.787-0.786
	c0-0.472-0.314-0.787-0.787-0.787C237.956,101.24,237.563,101.556,237.563,102.027z"/>
<path fill="#FFFFFF" d="M218.925,104.779c-2.831,2.518-1.337,2.518,1.73,0c1.336-1.101,1.966-1.966,1.415-1.966
	C221.521,102.813,220.104,103.679,218.925,104.779z"/>
<path fill="#FFFFFF" d="M224.823,107.139c0.157,1.967,0.629,3.539,1.021,3.539c0.787,0,0.944-3.932,0.236-5.819
	C225.138,102.499,224.587,103.6,224.823,107.139z"/>
<path fill="#FFFFFF" d="M241.337,105.724c0.944,0.157,2.359,0.157,3.146,0c0.707-0.236-0.078-0.394-1.809-0.315
	C240.944,105.408,240.315,105.566,241.337,105.724z"/>
<path fill="#FFFFFF" d="M214.757,109.892c0,0.394,0.314,0.786,0.708,0.786c0.472,0,1.022-0.393,1.259-0.786
	c0.235-0.472-0.079-0.786-0.709-0.786C215.308,109.105,214.757,109.42,214.757,109.892z"/>
<path fill="#FFFFFF" d="M218.847,112.094c0.471,3.381,2.516,6.291,3.381,4.875c0.236-0.393,0.158-0.786-0.236-0.786
	c-0.393,0-0.943-1.415-1.258-3.067C220.026,108.712,218.296,107.847,218.847,112.094z"/>
<path fill="#FFFFFF" d="M231.9,111.229c1.337,0.157,3.696,0.157,5.112,0c1.336-0.158,0.235-0.314-2.596-0.314
	S230.485,111.07,231.9,111.229z"/>
<path fill="#FFFFFF" d="M237.327,115.868c-1.652,1.573-2.91,2.988-2.753,3.146s1.888-1.102,3.774-2.831
	c1.888-1.729,3.146-3.146,2.753-3.146C240.63,113.037,238.979,114.374,237.327,115.868z"/>
<path fill="#FFFFFF" d="M209.409,115.554c-1.573,3.067-2.517,6.134-1.887,6.134c0.472-0.078,4.089-6.527,4.089-7.471
	C211.611,113.115,210.195,114.06,209.409,115.554z"/>
<path fill="#FFFFFF" d="M213.813,118.936c0.157,1.494,0.629,2.752,1.101,2.752c1.022,0,0.472-4.955-0.629-5.27
	C213.813,116.262,213.655,117.205,213.813,118.936z"/>
<path fill="#FFFFFF" d="M228.912,117.283c0,0.158,0.708,0.473,1.573,0.708c0.865,0.236,1.415,0.079,1.101-0.314
	C231.192,116.969,228.912,116.654,228.912,117.283z"/>
<path fill="#FFFFFF" d="M209.724,122.945c0.551,2.281,2.045,4.247,3.146,4.247c0.393,0,0.235-0.394-0.314-0.944
	c-0.552-0.55-0.944-1.572-0.944-2.279c0-0.709-0.551-1.73-1.258-2.359C209.33,120.744,209.252,120.9,209.724,122.945z"/>
<path fill="#FFFFFF" d="M228.912,122.475c-1.101,0.785-1.729,1.65-1.494,1.965c0.314,0.236,1.573-0.393,2.753-1.494
	C232.845,120.586,231.821,120.193,228.912,122.475z"/>
<path fill="#FFFFFF" d="M222.07,122.238c0.708,0.157,1.966,0.157,2.753,0c0.707-0.236,0.078-0.394-1.416-0.394
	S221.284,122.002,222.07,122.238z"/>
<path fill="#FFFFFF" d="M206.106,124.047c0,0.393,0.393,0.786,0.786,0.786c0.472,0,0.787-0.394,0.787-0.786
	c0-0.473-0.314-0.787-0.787-0.787C206.5,123.26,206.106,123.574,206.106,124.047z"/>
<path fill="#FFFFFF" d="M160.652,87.479c0,1.258,0.157,1.73,0.393,0.944c0.157-0.708,0.157-1.809,0-2.359
	C160.809,85.591,160.652,86.142,160.652,87.479z"/>
<path fill="#FFFFFF" d="M148.698,92.197c0,1.101,0.394,1.966,0.787,1.966c0.472,0,0.787-0.865,0.787-1.966
	c0-1.101-0.315-1.966-0.787-1.966C149.092,90.231,148.698,91.096,148.698,92.197z"/>
<path fill="#FFFFFF" d="M147.755,97.466c-0.157,3.146,0.314,6.527,1.022,7.393c0.393,0.472,0.472,1.101,0.236,1.337
	c-0.629,0.629,0.314,4.482,1.101,4.482c0.315,0,0.236-3.381-0.157-7.471c-0.472-4.09-1.022-7.471-1.416-7.471
	C148.227,95.736,147.833,96.522,147.755,97.466z"/>
<path fill="#FFFFFF" d="M139.262,102.185c0,4.325,0.236,5.348,1.179,5.348c1.022,0,1.18-0.708,0.708-4.168
	C140.362,96.837,139.34,96.208,139.262,102.185z"/>
<path fill="#FFFFFF" d="M159,103.364c-0.079,1.337,0.314,2.753,0.708,2.988c0.865,0.55,0.865-0.708,0-3.539
	C159.079,100.926,159.079,100.926,159,103.364z"/>
<path fill="#FFFFFF" d="M141.149,113.509c0.236,0.708,0.708,2.595,0.944,4.325c0.55,3.225,1.494,4.562,2.044,2.831
	c0.551-1.415-1.651-8.415-2.674-8.415C141.07,112.25,140.913,112.801,141.149,113.509z"/>
<path fill="#FFFFFF" d="M159.865,115.789c0,1.259,0.158,1.73,0.394,0.943c0.157-0.707,0.157-1.809,0-2.358
	C160.023,113.902,159.865,114.453,159.865,115.789z"/>
<path fill="#FFFFFF" d="M197.456,87.4c0,0.157,0.55,0.472,1.18,0.787c0.629,0.236,1.179,0.079,1.179-0.314
	c0-0.472-0.55-0.787-1.179-0.787C198.006,87.085,197.456,87.243,197.456,87.4z"/>
<path fill="#FFFFFF" d="M205.556,94.714c0.708,0.157,1.966,0.157,2.752,0c0.708-0.236,0.079-0.394-1.416-0.394
	C205.398,94.32,204.77,94.478,205.556,94.714z"/>
<path fill="#FFFFFF" d="M203.275,99.275c0.865,0.629,2.123,1.18,2.752,1.18c0.786-0.079,0.55-0.473-0.708-1.18
	C202.725,97.781,201.388,97.859,203.275,99.275z"/>
<path fill="#FFFFFF" d="M208.859,101.24c0.235,0.394,0.864,0.787,1.258,0.787c0.472,0,0.551-0.394,0.314-0.787
	c-0.236-0.471-0.865-0.785-1.258-0.785C208.701,100.455,208.623,100.77,208.859,101.24z"/>
<path fill="#FFFFFF" d="M205.163,102.578c0.551,0.235,1.258,0.156,1.494-0.079c0.315-0.235-0.157-0.472-1.022-0.394
	C204.77,102.105,204.534,102.342,205.163,102.578z"/>
<path fill="#FFFFFF" d="M199.658,117.441c-0.393,0.314-0.629,1.258-0.629,2.201c0,1.102,0.236,1.337,0.865,0.708
	c0.472-0.472,0.708-1.494,0.551-2.202C200.366,117.441,199.972,117.127,199.658,117.441z"/>
<path fill="#FFFFFF" d="M264.694,120.9c-0.236,0.395,0.235,0.787,1.101,0.787c0.944,0,1.651-0.393,1.651-0.787
	c0-0.471-0.472-0.785-1.102-0.785C265.716,120.115,264.93,120.43,264.694,120.9z"/>
<path fill="#FFFFFF" d="M276.884,122.867c0,0.629,0.707,1.18,1.572,1.18s1.572-0.551,1.572-1.18s-0.707-1.18-1.572-1.18
	S276.884,122.238,276.884,122.867z"/>
<path fill="#FFFFFF" d="M254.864,120.979c0,0.394,0.393,0.551,0.786,0.315c0.472-0.236,0.786-0.63,0.786-0.865
	c0-0.158-0.314-0.314-0.786-0.314C255.257,120.115,254.864,120.508,254.864,120.979z"/>
<path fill="#FFFFFF" d="M291.825,123.732c0,0.707,0.393,1.101,0.943,0.943c1.416-0.472,1.652-2.201,0.314-2.201
	C292.376,122.475,291.825,123.024,291.825,123.732z"/>
</svg>
