<?xml version="1.0" encoding="utf-8"?>
<!-- Generator: Adobe Illustrator 15.1.0, SVG Export Plug-In . SVG Version: 6.00 Build 0)  -->
<!DOCTYPE svg PUBLIC "-//W3C//DTD SVG 1.1//EN" "http://www.w3.org/Graphics/SVG/1.1/DTD/svg11.dtd">
<svg version="1.1"
	 id="svg1340" xmlns:inkscape="http://www.inkscape.org/namespaces/inkscape" xmlns:svg="http://www.w3.org/2000/svg" xmlns:rdf="http://www.w3.org/1999/02/22-rdf-syntax-ns#" xmlns:cc="http://web.resource.org/cc/" xmlns:dc="http://purl.org/dc/elements/1.1/" sodipodi:docname="Line-drawing of a human man.svg" inkscape:version="0.43" xmlns:sodipodi="http://inkscape.sourceforge.net/DTD/sodipodi-0.dtd" sodipodi:docbase="/home/adam" sodipodi:version="0.32"
	 xmlns="http://www.w3.org/2000/svg" xmlns:xlink="http://www.w3.org/1999/xlink" x="0px" y="0px" width="387px" height="1221px"
	 viewBox="0 0 387 1221" enable-background="new 0 0 387 1221" xml:space="preserve">
<sodipodi:namedview  inkscape:window-y="0" inkscape:window-x="0" inkscape:window-height="742" inkscape:window-width="1016" inkscape:current-layer="svg1340" inkscape:cy="530.05882" inkscape:cx="473.45188" inkscape:zoom="0.5" inkscape:pageshadow="2" inkscape:pageopacity="0.0" borderopacity="1.0" bordercolor="#666666" pagecolor="#ffffff" id="base">
	</sodipodi:namedview>
<path id="path1349" fill="#FFFFFF" d="M78.258,1220.793c-2.015-0.348-4.812-1.385-6.215-2.305c-1.403-0.919-4.069-1.671-5.925-1.671
	c-2.57,0-4.119-0.817-6.493-3.427c-1.715-1.885-3.7-3.797-4.411-4.25c-2.14-1.363-5.396-6.572-6.765-10.823
	c-0.708-2.2-1.75-4.582-2.315-5.293c-2.066-2.599-0.964-9.733,2.695-17.444c1.976-4.164,3.593-7.979,3.593-8.476
	c0-0.498,1.622-3.579,3.604-6.847s5.839-11.115,8.572-17.44c5.456-12.629,11.497-25.047,14.167-29.121
	c0.944-1.44,1.722-3.916,1.729-5.5c0.108-27.032-0.766-40.376-3.3-50.379c-5.06-19.974-9.943-45.59-11.818-62
	c-0.597-5.226-1.972-14.9-3.055-21.5c-2.493-15.188-3.89-37.344-2.806-44.5c0.458-3.025,1.523-12.25,2.368-20.5
	c0.844-8.25,2.256-18.601,3.138-23c1.852-9.236,6.833-25.399,9.399-30.5c1.552-3.085,1.641-4.628,0.748-13
	c-0.557-5.226-1.072-19.466-1.145-31.646c-0.129-21.644-0.191-22.277-2.769-28c-2.777-6.166-4.009-10.326-5.73-19.354
	c-0.577-3.025-1.976-9.97-3.108-15.433c-1.133-5.462-2.338-14.795-2.678-20.739l-0.619-10.808l-6.9-6.133
	c-5.789-5.145-7.69-7.706-11.808-15.912c-2.699-5.38-6.257-11.908-7.906-14.508c-1.649-2.601-3.236-6.582-3.527-8.848
	c-2.729-21.264-3.555-30.204-3.555-38.534c0-5.905-0.579-11.471-1.474-14.158c-1.346-4.04-4.452-21.172-8.063-44.464
	c-0.77-4.971-2.02-10.82-2.777-13c-0.757-2.181-2.366-9.139-3.575-15.464s-3.061-15.325-4.113-20
	c-4.999-22.198-5.352-25.16-5.417-45.5c-0.066-20.38,1.219-31.034,5.047-41.848c4.493-12.691,5.627-21.566,5.516-43.153
	c-0.169-32.745,3.097-59.938,8.697-72.405c1.78-3.962,1.926-5.924,1.452-19.5c-0.638-18.283,0.854-26.894,6.738-38.898
	c2.184-4.455,3.97-8.51,3.97-9.012c0-2.438,9.73-16.068,15.267-21.384c9.418-9.044,13.402-10.753,28.733-12.325
	c14.632-1.501,15.097-1.643,29.615-9.033c7.5-3.818,14.604-6.942,15.788-6.942c1.184,0,3.04-0.608,4.125-1.351
	c1.085-0.743,4.447-2.124,7.472-3.068c8.274-2.583,18.125-7.868,20.442-10.966c1.775-2.375,2.103-4.498,2.379-15.434
	c0.307-12.114,0.182-13.058-2.788-21.102c-1.86-5.039-4.478-9.936-6.518-12.193c-1.875-2.075-3.93-5.71-4.567-8.079
	c-0.637-2.369-2.193-6.107-3.458-8.307c-1.265-2.2-2.622-6.025-3.016-8.5c-0.394-2.475-1.787-6.521-3.096-8.992
	c-1.309-2.471-2.38-5.462-2.38-6.648s-1.35-4.723-3-7.86c-3.825-7.272-3.849-11.887-0.117-22.67
	c2.312-6.679,2.794-9.519,2.435-14.33c-0.542-7.254,2.318-13.821,7.4-16.992c1.77-1.104,4.647-2.908,6.394-4.008
	c1.994-1.256,4.529-4.604,6.815-9c3.044-5.854,4.371-7.361,8.106-9.208c2.855-1.412,6.385-2.224,9.783-2.25
	c5.874-0.045,7.792-0.828,13.684-5.576c5.661-4.562,11.087-7.086,18.275-8.5c12.355-2.431,22.643,1.09,32.217,11.026
	c3.184,3.305,6.625,6.019,7.648,6.031c6.709,0.08,14.465,7.324,17.99,16.804c0.956,2.571,2.928,6.474,4.381,8.674
	c5.303,8.029,11.977,21.357,13.367,26.695c1.811,6.952,0.871,12.365-3.854,22.186c-2.826,5.877-3.525,8.518-3.525,13.326
	c0,8.374-1.494,12.102-6.937,17.294c-3.103,2.961-5.312,6.21-6.456,9.5c-0.957,2.75-2.435,6.35-3.283,8
	c-2.904,5.646-4.324,13.593-4.324,24.205c0,9.773,0.197,10.864,2.5,13.885c1.375,1.803,2.5,3.716,2.5,4.251
	c0,1.486,9.918,10.077,14.094,12.207c2.033,1.038,4.332,2.521,5.107,3.297c0.776,0.776,3.475,2.703,5.998,4.283
	c2.523,1.58,7.629,5.573,11.348,8.873c3.718,3.3,7.479,6.493,8.356,7.095c2.401,1.646,10.404,3.405,15.49,3.405
	c6.634,0,14.548,1.877,19.214,4.558c5.707,3.278,18.354,17.118,21.544,23.576c7.115,14.401,11.711,24.65,12.273,27.367
	c1.625,7.859,2.379,24.51,1.451,32.093c-0.926,7.573-0.832,8.449,1.461,13.633c5.454,12.334,8.732,37.783,8.665,67.274
	c-0.055,24.417,0.374,29.458,3.45,40.5c6.501,23.34,7.039,27.088,7.035,49c-0.003,20.983-0.465,25.104-4.992,44.5
	c-1.284,5.5-3.091,14.252-4.015,19.449s-2.727,13.298-4.005,18c-1.278,4.703-3.722,17.551-5.429,28.551s-3.991,23.429-5.075,27.62
	c-1.244,4.809-1.972,10.906-1.972,16.528c0,4.899-0.894,16.032-1.985,24.74c-1.603,12.771-2.465,16.633-4.459,19.972
	c-1.359,2.276-4.851,8.819-7.758,14.539c-4.487,8.826-6.361,11.364-12.392,16.782l-7.104,6.384l-0.62,10.852
	c-0.593,10.347-5.956,40.19-9.056,50.381c-0.803,2.64-2.274,6.015-3.271,7.5c-1.605,2.395-1.816,5.148-1.852,24.202
	c-0.021,11.825-0.431,26.002-0.908,31.505c-0.861,9.932-0.841,10.08,2.704,20c6.378,17.844,7.692,24.458,11.629,58.495
	c1.599,13.82,1.758,18.852,0.979,30.983c-0.512,7.966-1.571,18.091-2.354,22.5s-1.952,12.066-2.597,17.017
	c-3.489,26.793-6.725,44.18-12.654,68c-2.18,8.759-2.532,12.667-2.836,31.5c-0.344,21.273-0.322,21.536,2.034,25
	c2.591,3.807,9.048,17.276,15.102,31.5c2.106,4.95,4.845,10.576,6.085,12.504c1.239,1.927,3.37,6.252,4.735,9.61
	c1.364,3.358,3.37,7.632,4.456,9.496c3.372,5.785,3.521,9.637,0.666,17.198c-2.574,6.819-5.937,12.484-8.309,13.999
	c-0.695,0.444-1.82,1.489-2.5,2.322c-3.615,4.43-4.977,5.37-7.775,5.37c-1.672,0-4.809,0.902-6.972,2.006
	c-4.584,2.339-9.82,2.715-15.607,1.121c-6.049-1.665-8.703-4.237-11.736-11.377c-2.371-5.578-3.287-6.664-7.244-8.586
	c-6.883-3.344-8.964-8.605-8.645-21.845l0.246-10.181l-4.75-4.498c-2.613-2.474-6.648-5.871-8.966-7.55
	c-7.796-5.646-8.688-10.17-5.146-26.091c1.531-6.886,2.338-15.28,2.93-30.5c0.449-11.551,1.098-24.507,1.439-28.794
	c0.455-5.693,0.211-9.062-0.904-12.5c-0.839-2.588-2.24-8.981-3.112-14.206c-0.872-5.226-2.442-12.875-3.489-17
	c-2.777-10.955-4.822-24.919-5.564-38c-0.512-9.017-1.295-13.336-3.628-20c-1.637-4.675-4.498-14.591-6.358-22.036
	c-5.893-23.577-6.778-39.659-3.387-61.464c3.485-22.398,3.499-21.12-0.318-29.5c-1.878-4.125-3.977-10.425-4.662-14
	s-1.659-8.655-2.164-11.29c-1.529-7.985-5.793-55.922-6.873-77.275c-0.723-14.293-1.719-23.355-3.463-31.5
	c-2.751-12.847-14.968-50.584-17.163-53.016c-0.784-0.87-1.089-1.955-0.675-2.411c1.09-1.2-1.942,0.534-3.964,2.269
	c-2.176,1.867-15.063,41.503-17.768,54.646c-1.256,6.107-2.436,17.624-3.071,29.996c-1.199,23.336-5.395,68.487-7.441,80.082
	c-2.409,13.646-2.726,14.792-6.231,22.5c-3.851,8.468-3.845,7.977-0.393,30c1.164,7.425,2.109,16.649,2.101,20.5
	c-0.037,17.395-3.932,38.539-10.961,59.5c-3.107,9.266-3.976,13.54-4.469,22c-0.794,13.611-3.279,30.917-5.528,38.5
	c-0.979,3.3-2.541,10.725-3.47,16.5c-0.93,5.774-2.339,12.542-3.131,15.037c-0.917,2.891-1.284,7.064-1.01,11.5
	c0.236,3.829,0.737,15.963,1.112,26.963c0.506,14.836,1.301,23.13,3.08,32.125c1.319,6.669,2.397,13.555,2.397,15.3
	c0,4.393-2.389,8.588-6.469,11.36c-1.896,1.288-6.002,4.721-9.125,7.627l-5.678,5.284l0.542,7.914
	c0.556,8.117-0.686,15.379-3.363,19.666c-0.767,1.228-3.247,3.103-5.512,4.168c-3.984,1.873-6.63,5.704-8.824,12.779
	C96.474,1217.442,85.478,1222.04,78.258,1220.793z M91.262,1213.048c1.287-0.952,3.561-4.613,5.052-8.137
	c2.375-5.609,3.266-6.667,7.16-8.501c6.871-3.236,8.278-6.806,7.328-18.593c-2.223-27.589,0.098-41.413,9.168-54.621
	c1.934-2.816,3.952-6.639,4.484-8.493c1.412-4.924,1.186-18.956-0.634-39.4c-2.054-23.077-1.549-50.764,0.972-53.285
	c1.417-1.417,1.973-1.467,3.779-0.339c3.322,2.075,3.708,1.172,6.312-14.788c1.743-10.681,2.037-24.647,0.538-25.573
	c-0.55-0.34-1-1.388-1-2.328c0-1.955,5.573-15.585,7.702-18.838c1.58-2.413,6.648-22.283,8.249-32.334
	c1.292-8.119,1.363-31.295,0.115-37.701c-0.515-2.64-1.21-6.486-1.545-8.549c-0.336-2.062-1.036-3.75-1.555-3.75
	c-1.495,0-9.487,16.748-11.929,25c-3.17,10.711-5.13,14.442-7.786,14.819c-1.88,0.267-2.246-0.144-2.229-2.5
	c0.012-1.551,1.126-6.587,2.478-11.191c3.481-11.862,7.103-19.996,21.131-47.449c3.606-7.057,4.899-11.055,6.468-20
	c2.681-15.284,5.685-46.189,7.405-76.179c1.887-32.894,3.595-42.886,11.022-64.5c4.468-13.003,7.42-23.706,7.451-27.014
	c0.021-2.166-0.678-2.718-5.069-4c-4.574-1.335-5.466-2.091-8.75-7.416l-3.657-5.931l0.272-16.569
	c0.161-9.845-0.204-18.931-0.9-22.385c-0.986-4.894-0.938-6.047,0.301-7.286c2.071-2.071,4.544-0.789,5.796,3.004
	c1.736,5.261,2.769,16.585,1.915,20.993c-1.274,6.571-1.001,17.382,0.53,21.048c2.352,5.628,4.978,7.556,10.296,7.556h4.708
	l-4.092-4.25c-5.944-6.173-8.156-14.794-6.109-23.812c0.679-2.991,1.246-9.039,1.26-13.438c0.023-7.341,0.198-8.024,2.113-8.299
	c3.491-0.498,4.882,2.399,4.889,10.185c0.003,3.912-0.459,9.589-1.029,12.614c-1.908,10.137,1.116,18.425,6.493,17.797
	c4.483-0.523,5.54-4.565,4.116-15.743c-0.673-5.276-1.22-11.609-1.217-14.073c0.01-7.458,3.438-13.98,7.347-13.98
	c2.812,0,3.205,2.409,1.233,7.569c-1.621,4.246-1.662,5.747-0.49,17.953c1.368,14.26,0.883,17.996-3.068,23.632
	c-2.425,3.458-2.355,3.846,0.685,3.846c6.067,0,9.259-7.778,8.061-19.649c-0.325-3.218-0.869-10.7-1.21-16.626
	c-0.586-10.2-0.493-10.963,1.742-14.275c2.348-3.479,5.783-5.233,7.805-3.984c1.625,1.004,1.264,3.437-0.979,6.585
	c-2.467,3.465-2.906,12.855-0.978,20.896c1.602,6.676,0.875,21.492-1.254,25.587c-0.849,1.633-2.711,4.059-4.138,5.392
	c-4.258,3.977-3.652,8.101,4.921,33.576c7.382,21.931,9.944,36.631,10.984,63c1.087,27.565,5.129,66.963,8.617,84
	c0.563,2.75,4.786,12.649,9.384,22c11.246,22.868,14.324,29.82,16.607,37.5c1.062,3.575,2.451,8.206,3.085,10.29
	c0.952,3.131,0.893,4.052-0.343,5.287c-3.291,3.291-5.438,0.114-9.854-14.577c-2.445-8.14-10.472-25-11.9-25
	c-2.888,0-5.186,34.966-3.159,48.061c2.945,19.035,7.638,33.858,15.59,49.255c1.29,2.497,1.271,3.173-0.169,5.958
	c-1.325,2.562-1.504,4.902-0.966,12.684c0.362,5.249,1.12,12.468,1.685,16.043c1.967,12.468,2.59,13.783,5.723,12.106
	c3.335-1.785,4.904-0.393,5.617,4.986c0.972,7.321,0.719,32.775-0.451,45.407c-1.768,19.089-2.174,35.309-1.018,40.698
	c0.613,2.858,2.986,7.994,5.406,11.698c6.951,10.64,8.73,16.974,8.953,31.868c0.105,7.004-0.203,16.364-0.687,20.801
	c-0.778,7.147-0.644,8.597,1.187,12.732c1.648,3.727,2.871,4.99,6.068,6.27c4.414,1.766,5.867,3.593,8.531,10.724
	c0.984,2.636,2.771,5.436,3.972,6.222c2.874,1.883,13.747,2.441,14.347,0.737c0.305-0.864-0.784-1.25-3.521-1.25
	c-5.708,0-6.683-1.667-4.634-7.931c0.999-3.054,1.42-6.363,1.045-8.231c-0.6-2.999,0.612-5.838,2.492-5.838
	c0.476,0,1.51,1.545,2.299,3.434c0.795,1.903,2.768,4.122,4.425,4.979c3.598,1.86,7.167,6.175,7.167,8.662
	c0,2.323,1.854,3.472,3.287,2.038c1.552-1.553-1.866-8.197-7.688-14.945c-4.512-5.23-5.66-8.395-3.525-9.714
	c0.591-0.365,2.082,0.283,3.314,1.441c3.046,2.861,3.572,2.658,2.978-1.146c-0.552-3.523,1.578-7.521,3.405-6.392
	c0.591,0.365,1.391,2.104,1.777,3.863c0.662,3.013,8.075,12.776,9.701,12.777c0.413,0.001,0.75-1.187,0.75-2.638
	c0-1.688-1.44-4.201-4-6.978c-4.284-4.647-4.964-7.339-2.392-9.474c1.696-1.407,1.966-1.206,5.024,3.753
	c2.157,3.498,2.588,0.423,0.541-3.861c-1.131-2.366-2.371-5.652-2.755-7.302c-0.385-1.65-1.874-4.8-3.31-7
	c-2.621-4.016-4.318-7.602-10.176-21.5c-4.847-11.5-10.75-22.479-13.452-25.019c-1.341-1.259-4.13-2.564-6.198-2.9
	c-5.117-0.832-5.507-3.427-0.921-6.133c4.495-2.652,4.863-4.438,5.038-24.429c0.12-13.804,0.525-17.61,2.926-27.52
	c5.657-23.348,9.177-42.691,12.188-67c0.921-7.425,2.062-15.315,2.535-17.534c2.144-10.033,3.289-31.355,2.132-39.679
	c-0.634-4.559-1.823-15.077-2.642-23.375c-2.281-23.12-7.482-43.424-12.259-47.853c-2.502-2.319-2.512-2.396-1.398-10.698
	c0.617-4.599,1.575-13.925,2.13-20.725c0.555-6.799,1.232-12.724,1.505-13.166c0.273-0.441,0.022-2.051-0.557-3.575l-1.054-2.771
	l-1.938,3.188c-2.064,3.395-2.658,3.671-4.871,2.27c-1.079-0.683-1.253-2.317-0.756-7.081c0.5-4.781,2.019-8.923,6.662-18.17
	c5.89-11.728,7.091-15.533,11.94-37.83c2.57-11.818,4.325-25.578,3.565-27.97c-0.51-1.606-1.485-1.748-8.866-1.288
	c-6.651,0.415-9.069,0.162-12.218-1.28c-9.009-4.126-9.437-7.059-2.916-20.007c6.551-13.008,10.028-22.708,11.94-33.306
	c2.465-13.659,1.562-14.765-6.335-7.752c-4.99,4.432-14.057,8.603-18.702,8.603c-5.656,0-11.489-4.98-11.63-9.93
	c-0.133-4.65,1.757-7.342,8.051-11.47c6.979-4.576,11.863-11.549,16.27-23.221c2.559-6.779,4.474-9.97,8.777-14.617l5.504-5.945
	l-1.25-10.659c-0.688-5.862-1.698-17.634-2.246-26.158c-1.893-29.483-4.852-41.742-10.908-45.204
	c-3.663-2.094-3.748-4.201-0.371-9.173c1.436-2.112,2.841-5.558,3.122-7.657c0.964-7.188-2.079-30.694-6.275-48.466
	c-2.229-9.442-1.511-17.242,2.991-32.438c2.025-6.84,4.043-13.141,4.482-14c0.684-1.337,2.45-27.635,2.355-35.062
	c-0.076-6.015-2.465-25.576-3.213-26.327c-0.454-0.455-3.469,0.502-6.699,2.125s-9.023,3.492-12.873,4.151
	c-8.618,1.477-54.097,0.932-60-0.719c-16.613-4.646-19.205-5.625-22.047-8.331c-1.677-1.595-3.658-2.901-4.404-2.901
	c-0.746,0-2.974,1.753-4.952,3.895c-6.206,6.72-20.034,9.098-52.963,9.106c-26.159,0.007-33.68-0.997-42.19-5.628
	c-3.053-1.662-5.355-2.36-5.918-1.796c-0.812,0.813-3.193,19.711-3.329,26.423c-0.028,1.375,0.296,9.25,0.722,17.5
	c0.593,11.511,1.315,16.628,3.104,22c3.835,11.513,7.479,26.639,7.457,30.954c-0.012,2.226-0.674,6.971-1.472,10.546
	c-3.701,16.584-5.652,30.346-5.823,41.067c-0.177,11.13-0.08,11.719,2.565,15.554c3.516,5.096,3.466,7.062-0.23,9.175
	c-6.002,3.431-8.929,15.418-10.917,44.704c-0.56,8.25-1.569,20.202-2.243,26.561l-1.225,11.562l4.662,4.297
	c4.541,4.186,7.675,9.615,11.172,19.354c2.857,7.956,8.863,15.865,14.891,19.611c6.006,3.731,7.717,6.11,7.854,10.918
	c0.107,3.777-2.365,6.903-7.016,8.871c-5.877,2.487-15.536-0.609-23.557-7.551c-7.595-6.573-8.279-5.752-6.163,7.399
	c1.648,10.242,5.8,22.201,11.102,31.979c7.146,13.18,6.87,17.854-1.276,21.522c-4.061,1.828-6.075,2.089-13.022,1.683
	c-7.291-0.426-8.283-0.276-8.792,1.325c-0.71,2.24,0.941,15.966,3.125,25.97c5.931,27.163,7.306,31.112,17.511,50.305
	c0.528,0.992,1.234,4.741,1.569,8.331l0.609,6.526l-2.879-0.331c-1.858-0.214-3.312-1.203-4.098-2.789l-1.219-2.458l-1.062,2.792
	c-0.584,1.535-0.865,3.108-0.625,3.497c0.239,0.388,0.919,6.312,1.511,13.166c0.592,6.854,1.578,16.224,2.191,20.822
	c1.107,8.3,1.096,8.379-1.406,10.699c-5.639,5.229-10.868,27.889-13.831,59.939c-2.41,26.068-2.414,26.004,3.095,66
	c4.533,32.911,7.438,48.923,12.788,70.5c2.227,8.979,2.633,12.981,2.809,27.622c0.113,9.417,0.499,18.047,0.858,19.177
	c0.359,1.131,2.24,2.992,4.18,4.137c4.616,2.724,4.278,5.446-0.728,5.866c-6.573,0.551-11.866,8.604-22.477,34.198
	c-2.622,6.325-5.756,12.85-6.964,14.5c-1.208,1.649-2.986,5.475-3.953,8.5c-0.966,3.024-2.461,6.724-3.323,8.219
	c-1.741,3.022-0.6,5.355,1.196,2.444c3.088-5.007,3.315-5.172,5.089-3.7c2.336,1.939,1.203,5.718-3.024,10.079
	c-3.213,3.316-4.822,8.958-2.555,8.958c1.713,0,10.122-11.262,10.122-13.556c0-1.279,0.519-2.646,1.152-3.038
	c1.892-1.169,4.044,2.752,3.482,6.344c-0.583,3.729,0.281,4.106,2.866,1.25c0.996-1.101,2.416-2,3.155-2
	c2.72,0,1.217,4.377-3.566,10.389c-6.168,7.752-8.895,13.205-7.366,14.734c1.563,1.562,3.015,0.349,3.787-3.168
	c0.455-2.072,2.334-4.282,5.98-7.035c2.931-2.213,5.593-5.115,5.933-6.468c1.209-4.816,4.835-1.25,3.869,3.806
	c-0.288,1.505,0.226,5.027,1.142,7.827c2.036,6.224,1.062,7.915-4.556,7.915c-3.718,0-4.734,0.791-3.128,2.433
	C78.414,1216.52,88.752,1214.903,91.262,1213.048z M118.863,884.376c-1.55-1.151-1.719-1.806-0.839-3.25
	c0.606-0.995,2.181-1.962,3.5-2.15c4.561-0.648,5.621-2.665,6.089-11.585c0.406-7.736,0.758-8.871,4.873-15.681
	c3.928-6.503,4.438-8.029,4.456-13.357c0.017-4.96,0.333-6.076,1.798-6.358c3.727-0.718,4.953,1.789,4.432,9.06
	c-0.405,5.663-1.128,7.833-4.341,13.029c-3.527,5.703-3.902,7.001-4.403,15.234c-0.301,4.95-1.104,9.989-1.785,11.198
	C129.839,885.5,122.969,887.425,118.863,884.376z M257.652,884.266c-3.633-2.544-4.66-5.477-5.236-14.948
	c-0.504-8.27-0.867-9.517-4.48-15.359c-3.264-5.277-4.002-7.453-4.342-12.79c-0.326-5.113-0.053-6.825,1.335-8.358
	c1.267-1.398,2.216-1.677,3.458-1.012c1.318,0.706,1.725,2.321,1.77,7.024c0.049,5.263,0.543,6.84,3.574,11.403
	c4.275,6.439,5.679,11.176,5.686,19.187c0.007,6.833,1.721,9.405,6.268,9.405c3.407,0,4.832,3.727,2.17,5.674
	C265.41,886.278,260.366,886.167,257.652,884.266z M284.499,884.41c-1.843-2.221,0.53-13.877,3.471-17.05
	c2.606-2.812,6.204-3.354,7.081-1.068c0.311,0.811-0.357,2.969-1.486,4.796c-1.13,1.827-2.361,5.243-2.736,7.593
	C289.854,884.771,286.968,887.385,284.499,884.41z M97.681,883.567c-0.542-0.688-1.288-3.224-1.656-5.635
	c-0.369-2.412-1.555-5.51-2.637-6.885c-2.493-3.17-2.494-4.929-0.004-5.719c2.517-0.799,5.299,0.701,6.79,3.66
	c1.469,2.917,3.411,13.756,2.677,14.943C102.045,885.236,98.817,885.008,97.681,883.567z M287.785,847.248
	c-1.484-2.266-1.541-3.355-0.47-9.25c0.667-3.675,1.718-8.395,2.336-10.49c1.316-4.467,4.296-6.6,6.341-4.538
	c1.115,1.125,1.018,2.752-0.592,9.848c-1.06,4.675-1.938,9.872-1.953,11.55c-0.023,2.901-1.521,5.45-3.202,5.45
	C289.818,849.817,288.711,848.661,287.785,847.248z M92.937,840.067c-3.223-16.18-3.108-19.183,0.683-17.728
	c2.146,0.823,3.339,3.853,5.296,13.444c1.859,9.115,1.155,13.033-2.343,13.033C94.993,848.817,94.392,847.37,92.937,840.067z
	 M222.622,602.617c-0.66-0.66-1.2-1.715-1.2-2.345c0-1.644,3.363-4.455,5.329-4.455c0.919,0,1.671-0.686,1.671-1.522
	c0-0.838,1.74-3.425,3.868-5.75c9.324-10.192,17.878-25.335,23.606-41.792c5.619-16.143,13.098-27.899,16.945-26.635
	c2.27,0.746,1.697,5.008-1.217,9.066c-3.13,4.358-6.497,11.853-10.17,22.633c-6.367,18.694-23.838,45-29.885,45
	c-1.216,0-2.49,0.787-2.832,1.75c-0.723,2.038-3.336,5.25-4.271,5.25C224.112,603.817,223.282,603.277,222.622,602.617z
	 M159.622,601.617c-0.66-0.66-1.2-2.01-1.2-3c0-1.238-0.756-1.8-2.423-1.8c-3.547,0-7.59-3.876-14.335-13.743
	c-7.396-10.819-12.381-20.752-16.936-33.744c-3.91-11.155-5.306-14.139-9.447-20.193c-3.572-5.223-3.771-8.319-0.533-8.319
	c4.552,0,10.744,9.883,16.051,25.621c5.315,15.762,13.668,30.732,23.022,41.266c2.53,2.849,4.6,5.84,4.6,6.646
	s0.831,1.467,1.845,1.467c2.447,0,5.551,3.526,4.808,5.463C164.372,603.111,161.306,603.301,159.622,601.617z M179.026,501.662
	c-1.671-2.385-0.6-5.845,1.809-5.845c0.738,0,1.902-0.675,2.587-1.5c1.496-1.802,5.138-1.963,6.8-0.3
	c1.989,1.988,1.426,6.527-1.022,8.243C185.918,504.559,180.846,504.261,179.026,501.662z M133.783,455.314
	c-0.368-0.958,1.362-3.412,4.782-6.782c3.077-3.033,6.714-8.033,8.544-11.748c3.704-7.519,8.769-19.363,9.82-22.967
	c1.665-5.707,11.271-23.6,14.858-27.676c4.097-4.655,8.28-7.324,11.479-7.324c4.127,0,3.034,2.943-3.641,9.801
	c-4.99,5.127-7.881,9.288-11.318,16.292c-2.539,5.174-4.954,10.532-5.367,11.907c-3.728,12.406-16.017,35.135-20.813,38.494
	C139.352,457.255,134.528,457.257,133.783,455.314z M244.643,455.259c-5.149-3.606-14.247-20.27-20.17-36.941
	c-4.277-12.041-10.514-22.775-17.253-29.699c-3.935-4.042-6.483-7.456-6.173-8.266c0.844-2.197,3.284-2.635,6.188-1.11
	c7.188,3.773,15.349,16.165,22.372,33.97c7.625,19.329,13.557,30.471,19.002,35.692c3.293,3.157,4.848,5.378,4.465,6.378
	C252.308,457.278,247.506,457.265,244.643,455.259z M63.387,1196.883c1.305-2.438,1.319-3.359,0.041-2.569
	c-1.606,0.993-3.225,4.504-2.076,4.504C61.902,1198.817,62.817,1197.947,63.387,1196.883z M325.452,1196.873
	c-1.074-2.007-3.03-3.652-3.03-2.549c0,1.373,2.132,4.493,3.07,4.493C326.146,1198.817,326.131,1198.143,325.452,1196.873z
	 M122.29,1152.762c1.998-1.681,4.694-3.94,5.992-5.022c2.094-1.745,2.283-2.501,1.676-6.694c-1.194-8.252-2.731-13.228-4.086-13.228
	c-3.423,0-9.45,14.573-9.45,22.853C116.422,1156.703,117.252,1157,122.29,1152.762z M270.422,1150.421
	c0-6.02-4.529-18.577-7.925-21.974c-1.984-1.984-1.99-1.983-2.97,0.594c-1.626,4.276-3.252,14.739-2.605,16.773
	c0.332,1.047,2.072,2.812,3.867,3.921c1.796,1.109,4.092,2.932,5.104,4.05C269.111,1157.342,270.422,1156.368,270.422,1150.421z
	 M87.422,709.82c0-1.099-1.533-5.262-3.407-9.25c-7.175-15.275-10.511-25.572-12.069-37.253c-1.104-8.276-1.579-9.335-5.122-11.426
	c-4.151-2.449-4.481-5.713-0.915-9.062c2.287-2.148,2.807-2.24,6.468-1.144c2.372,0.711,7.53,4.226,12.763,8.696
	c4.831,4.128,9.333,7.946,10.007,8.485c0.674,0.54,3.166,1.247,5.539,1.572c3.228,0.442,4.64,0.199,5.608-0.968
	c1.836-2.212,0.507-5.407-3.002-7.222c-8.181-4.231-13.149-11.153-19.328-26.933c-2.87-7.33-6.714-12.189-12.462-15.753
	c-1.881-1.167-5.861-4.393-8.843-7.168c-4.837-4.502-5.367-5.39-4.907-8.226c0.284-1.748-0.092-17.713-0.835-35.478
	c-0.743-17.766-1.173-32.587-0.957-32.938c0.217-0.351,1.31-6.525,2.428-13.721c2.324-14.947,2.97-51.521,0.933-52.779
	c-2.394-1.479-5.038,3.172-5.955,10.479c-1.045,8.324-1.378,9.083-3.984,9.083c-2.56,0-3.389-3.627-2.586-11.309
	c0.776-7.428,4.788-14.557,12.094-21.492c4.224-4.01,5.471-6.086,7.772-12.934c1.507-4.486,3.444-12.235,4.304-17.219
	c0.939-5.443,2.783-11.52,4.618-15.217c2.98-6.007,3.039-6.398,2.408-16.243c-0.445-6.955-0.048-16.186,1.278-29.724
	c2.017-20.584,1.888-23.114-1.696-33.142c-1.136-3.178-3.244-10.577-4.684-16.442c-3.075-12.52-2.791-17.28,1.031-17.28
	c2.018,0,2.501,0.61,2.974,3.75c3.026,20.128,12.679,46.078,18.984,51.038c5.229,4.113,14.305,5.311,41.833,5.518
	c14.141,0.107,25.823-0.059,25.96-0.369c0.137-0.309,4.035-1.299,8.661-2.2c7.986-1.555,8.654-1.893,13.228-6.688
	c4.566-4.787,7.99-6.269,9.361-4.05c0.34,0.55,1.514,1,2.607,1s3.014,1.106,4.268,2.459c2.746,2.964,4.838,3.8,17.614,7.039
	c9.096,2.306,11.655,2.502,32.495,2.502c24.438,0,34.053-1.275,39.01-5.173c5.55-4.366,14.992-28.151,17.973-45.275
	c1.542-8.864,2.591-10.85,5.201-9.849c3.63,1.393,2.025,13.836-4.184,32.442c-4.009,12.012-4.129,14.43-1.879,37.731
	c1.016,10.507,1.381,20.303,0.993,26.624c-0.595,9.693-0.52,10.199,2.455,16.469c1.688,3.558,3.711,10.15,4.495,14.649
	c0.785,4.5,2.628,11.939,4.096,16.531c2.312,7.236,3.492,9.229,8.843,14.939c8.083,8.626,11.513,15.486,11.513,23.025
	c0,6.971-0.656,8.886-3.048,8.886c-2.511,0-2.856-0.807-3.896-9.083c-0.647-5.158-1.505-7.811-3.013-9.314
	c-1.824-1.819-2.247-1.9-3.137-0.603c-1.645,2.399-0.372,43.643,1.698,55c2.082,11.426,2.126,13.627,0.92,45.5
	c-0.52,13.75-0.963,27.772-0.984,31.161c-0.047,7.21-0.913,8.411-12.22,16.934c-9.134,6.885-10.337,8.473-14.73,19.45
	c-5.549,13.864-6.496,15.12-19.475,25.799c-3.059,2.519-3.266,3.007-2.148,5.093c1.094,2.043,1.74,2.238,5.66,1.701
	c2.434-0.334,4.975-1.047,5.648-1.584c0.674-0.538,4.523-3.808,8.557-7.266c12.769-10.951,17.242-12.772,21.129-8.6
	c3.117,3.345,2.622,6.535-1.379,8.896c-3.141,1.853-3.515,2.602-4.603,9.216c-2.648,16.098-8.462,33.848-14.147,43.2
	c-2.209,3.633-2.4,7.5-0.371,7.5c1.972,0,4.832-3.145,10.46-11.5c5.183-7.695,8.044-14.216,11.1-25.296
	c3.026-10.975,8.784-18.484,10.581-13.802c0.296,0.772-0.352,3.148-1.439,5.28c-1.088,2.133-2.734,6.563-3.659,9.848
	c-2.652,9.417-6.405,18.402-10.755,25.753c-2.208,3.73-3.77,7.027-3.471,7.327c0.691,0.691,8.175-6.032,10.77-9.677
	c1.081-1.518,3.06-6.96,4.397-12.097c4.229-16.235,7.812-22.407,11.624-20.027c1.048,0.654,2.784,1.19,3.859,1.19
	c3.258,0,3.296,1.654,0.202,8.729c-2.915,6.662-4.92,14.271-3.762,14.271c0.325,0,1.538-1.856,2.695-4.124
	c1.157-2.269,3.352-5.848,4.877-7.952c1.525-2.105,3.256-5.763,3.846-8.126c3.032-12.156,4.544-37.74,3.187-53.942
	c-0.386-4.607-0.117-6.037,1.459-7.779c1.164-1.287,2.407-5.003,3.128-9.355c3.996-24.117,5.03-29.565,8.015-42.221
	c1.816-7.7,3.807-16.925,4.423-20.5s1.545-8.3,2.063-10.5c5.343-22.652,7.523-41.28,6.615-56.5
	c-0.622-10.428-1.804-16.533-7.254-37.5l-3.64-14l-0.284-26.5c-0.285-26.6-2.323-50.937-4.625-55.238
	c-1.1-2.055-1.18-2.063-2.505-0.251c-0.752,1.029-1.368,3.305-1.368,5.058c0,4.079-2.311,6.248-4.617,4.334
	c-1.907-1.583-1.523-10.196,1.043-23.403c2.387-12.279,3.07-28.883,1.583-38.445c-2.937-18.879-22.075-44.303-40.631-53.975
	c-3.732-1.945-4.715-2.008-16.858-1.082c-10.99,0.839-13.238,0.761-15.208-0.53c-2.917-1.912-2.937-3.798-0.062-5.756l2.25-1.531
	l-5-5.161c-2.75-2.839-9.359-7.885-14.689-11.214c-5.328-3.329-12.264-8.229-15.409-10.89c-3.146-2.66-6.1-4.603-6.562-4.316
	s-0.556,2.959-0.205,5.939c0.536,4.562,0.366,5.523-1.075,6.077c-4.349,1.668-6.559-6.587-6.559-24.5
	c0-7.533-0.418-13.256-0.994-13.612c-0.896-0.554-6.752,4.5-21.576,18.619c-2.788,2.656-6.613,5.459-8.5,6.23
	c-5.209,2.127-18.986,2.984-25.687,1.598c-5.194-1.075-6.378-1.851-12.4-8.123c-4.024-4.191-6.927-6.499-7.339-5.833
	c-0.374,0.605-0.42,6.707-0.102,13.559c0.468,10.08,0.273,13.221-1.02,16.453c-0.879,2.196-1.947,3.994-2.373,3.994
	s-1.02,0.936-1.318,2.079c-0.391,1.495-1.197,1.987-2.867,1.75c-1.991-0.282-2.282-0.828-2.037-3.815
	c0.157-1.917,0.72-3.919,1.25-4.449c1.224-1.224,1.265-5.564,0.053-5.564c-0.501,0-4.664,1.615-9.25,3.588s-13.542,5.31-19.9,7.415
	c-6.359,2.105-12.924,4.653-14.589,5.663c-7.851,4.759-11.372,7.489-10.817,8.387c0.333,0.54,1.025,0.722,1.537,0.405
	s0.931,0.082,0.931,0.886c0,2.784-5.162,3.488-18.413,2.51c-12.239-0.903-12.851-0.855-16.4,1.293
	c-19.111,11.565-36.103,33.611-39.866,51.724c-1.895,9.121-1.29,28.961,1.27,41.63c0.889,4.4,1.846,11.297,2.126,15.328l0.51,7.327
	l-2.863-0.327c-2.544-0.291-2.926-0.803-3.433-4.597c-0.7-5.244-2.324-7.247-3.72-4.587c-2.754,5.245-4.442,25.417-4.717,56.357
	l-0.226,25.5l-3.755,14c-3.66,13.646-4.312,16.573-6.462,29c-2.582,14.919-0.474,38.204,5.884,65c0.522,2.2,1.453,6.925,2.07,10.5
	c0.616,3.575,2.603,12.8,4.415,20.5c3.107,13.205,5.624,26.698,7.741,41.5c0.543,3.802,1.817,7.728,3.069,9.458
	c2.318,3.205,2.355,3.791,1.235,19.812c-0.561,8.021-0.314,14.277,0.966,24.5c2.175,17.382,3.197,21.413,6.631,26.153
	c1.525,2.104,3.782,5.796,5.014,8.202c1.233,2.405,2.423,3.841,2.646,3.188c0.537-1.573-3.512-15.068-4.75-15.833
	c-0.533-0.33-0.97-1.923-0.97-3.541c0-2.402,0.421-2.94,2.3-2.94c1.265,0,2.81-0.51,3.433-1.133s1.865-0.853,2.759-0.509
	c2.051,0.787,7.175,11.979,8.65,18.894c1.708,8.011,5.166,14.873,9.468,18.794c7.821,7.128,8.184,6.356,1.926-4.092
	c-2.456-4.1-5.883-11.954-7.615-17.454c-1.733-5.5-4.269-12.633-5.636-15.85c-1.539-3.621-2.13-6.205-1.552-6.783
	c2.709-2.709,7.606,4.227,10.232,14.494c3.422,13.38,9.938,25.832,17.995,34.389C85.005,712.354,87.422,712.475,87.422,709.82z
	 M108.028,341.893c-3.296-0.656-6.986-4.957-6.113-7.125c0.321-0.798,2.328-2.256,4.458-3.241c4.387-2.027,7.976-1.552,10.658,1.411
	C120.9,337.213,114.834,343.248,108.028,341.893z M272.707,341.316c-4.645-1.984-5.482-6.073-1.881-9.171
	c3.238-2.785,5.328-2.909,9.764-0.579c5.479,2.879,5.863,4.012,2.582,7.595C280.282,342.317,276.751,343.044,272.707,341.316z
	 M201.622,307.617c-1.829-1.83-1.461-3.58,1.55-7.354c2.938-3.681,5.654-4.443,6.643-1.865c1.166,3.039,0.59,5.527-1.847,7.963
	C205.257,309.073,203.438,309.433,201.622,307.617z M202.439,287.338c-0.914-1.102-0.956-2.257-0.164-4.528
	c0.584-1.677,0.846-3.611,0.582-4.299s0.18-2.138,0.984-3.222c3.201-4.312,7.564,2.951,5.52,9.19
	C207.962,288.75,204.722,290.088,202.439,287.338z M91.089,252.15c-1.631-1.631-0.349-4.006,3.28-6.078
	c3.333-1.903,3.979-2.816,4.242-6c0.241-2.91,0.776-3.822,2.379-4.051c2.165-0.31,4.431,3.122,4.431,6.708
	C105.422,247.929,94.226,255.288,91.089,252.15z M285.465,248.972c-2.949-2.805-4.043-4.646-4.043-6.809
	c0-6.6,6.198-8.953,6.813-2.586c0.204,2.113,1.196,3.852,2.846,4.992c7.116,4.916,7.835,8.249,1.776,8.249
	C290.338,252.817,288.504,251.863,285.465,248.972z M193.479,236.874c-2.264-2.264-2.762-6.655-0.827-7.3
	c0.676-0.225,2.465,0.057,3.975,0.627c2.383,0.899,3.121,0.678,5.576-1.673c5.953-5.704,8.719-2.18,3.922,4.998
	c-2.738,4.097-3.738,4.836-6.896,5.099C196.549,238.847,194.972,238.367,193.479,236.874z M115.422,233.887
	c-5.105-1.021-8.172-2.946-7.784-4.888c0.296-1.485,1.689-1.641,11.844-1.332c7.341,0.224,14.574-0.192,19.974-1.15
	c25.533-4.528,29.259-4.657,29.775-1.036c0.381,2.673,0.188,2.734-16.781,5.35c-7.41,1.142-15.285,2.495-17.5,3.007
	C130.36,234.898,120.601,234.923,115.422,233.887z M248.422,233.401c-3.025-0.73-10.738-2.117-17.141-3.08
	c-12.959-1.95-14.217-2.42-13.689-5.124c0.58-2.966,10.069-2.506,33.83,1.641c4.064,0.709,10.529,0.877,17.25,0.448
	c10.447-0.668,10.75-0.628,10.75,1.396c0,1.326-1.146,2.676-3.148,3.712C272.041,234.583,255.752,235.172,248.422,233.401z
	 M196.422,220.505c-6.872-3.265-11.498-8.227-10.381-11.135c0.968-2.522,4.547-1.784,8.114,1.673
	c4.312,4.179,5.01,3.725,13.336-8.667c6.699-9.971,8.942-12.152,11.492-11.174c2.648,1.016,1.347,4.032-7.385,17.115
	C202.557,221.865,201.34,222.841,196.422,220.505z M62.422,709.894c0-1.289-4.979-7.076-6.089-7.076
	c-1.589,0-0.992,1.749,1.678,4.923C60.57,710.781,62.422,711.686,62.422,709.894z M328.833,707.74
	c2.671-3.174,3.267-4.923,1.678-4.923c-1.109,0-6.089,5.787-6.089,7.076C324.422,711.686,326.274,710.781,328.833,707.74z
	 M69.811,594.246c0.906-2.361,3.654-25.55,3.129-26.4c-0.454-0.733,0.573-12.002,2.529-27.753c0.562-4.523,2.55-12.447,4.418-17.608
	c3.21-8.867,3.321-9.599,2.01-13.275c-0.763-2.141-1.404-5.691-1.425-7.892c-0.053-5.569,3.459-31.454,5.496-40.5
	c3.144-13.963,3.041-19.442-0.614-32.645c-1.805-6.521-3.708-12.418-4.229-13.105c-1.5-1.98-2.614-1.472-3.286,1.5
	c-1.957,8.657-6.805,24.307-8.599,27.75c-1.931,3.707-2.106,5.937-2.395,30.5c-0.236,20.048-0.788,29.59-2.269,39.191
	c-1.693,10.978-1.896,16.312-1.495,39.5c0.438,25.429,1.138,33.249,3.538,39.559C67.795,596.16,68.917,596.575,69.811,594.246z
	 M320.226,593.067c2.396-6.3,3.104-14.106,3.559-39.25c0.417-23.026,0.218-28.27-1.524-40c-1.518-10.218-2.073-19.822-2.287-39.5
	c-0.261-24.101-0.434-26.293-2.366-30c-1.795-3.442-6.643-19.082-8.601-27.75c-0.672-2.972-1.786-3.48-3.286-1.5
	c-0.521,0.688-2.425,6.585-4.229,13.105c-3.654,13.202-3.758,18.682-0.613,32.645c2.036,9.046,5.549,34.931,5.496,40.5
	c-0.021,2.2-0.663,5.751-1.426,7.892c-1.307,3.668-1.198,4.414,1.897,13c1.807,5.01,3.568,10.684,3.915,12.608
	c1.168,6.487,3.632,32.24,3.158,33.007c-0.535,0.865,2.195,24.025,3.115,26.422C317.927,596.575,319.049,596.16,320.226,593.067z
	 M201.247,183.652c5.909-1.119,11.995-5.802,27.63-21.262c6.52-6.447,8.693-9.354,10.395-13.9
	c3.475-9.289,2.727-12.804-2.244-10.539c-1.967,0.896-2.888,0.876-4.046-0.085c-1.323-1.098-1.269-1.675,0.47-4.897
	c1.084-2.009,3.301-5.227,4.928-7.152c3.334-3.945,6.043-12.97,6.043-20.133c0-5.753-2.352-8.875-11.721-15.562
	c-7.066-5.042-9.207-8.612-11.782-19.647c-1.651-7.081-1.981-7.47-4.792-5.667c-9.791,6.279-16.502,6.472-30.46,0.874l-3.255-1.306
	l-7.745,7.572c-8.598,8.406-12.109,11.01-17.153,12.721c-1.875,0.636-4.038,2.055-4.807,3.153c-0.77,1.098-2.499,1.997-3.842,1.997
	c-2.035,0-2.443-0.489-2.443-2.928c0-1.611-0.769-3.697-1.708-4.637c-1.611-1.611-1.753-1.544-2.503,1.179
	c-1.434,5.209,1.144,12.517,3.675,10.417c4.059-3.369,8.525,11.333,5.169,17.014c-2.216,3.751-2.063,5.993,0.884,12.994
	c1.384,3.288,2.774,8.787,3.089,12.22c0.595,6.482,2.634,14.058,5.006,18.604c0.757,1.451,1.379,3.637,1.382,4.857
	c0.003,1.313,1.258,3.146,3.071,4.486c1.686,1.247,3.775,3.762,4.643,5.591c2.988,6.296,9.369,12.207,15.292,14.164
	C189.893,185.587,191.078,185.578,201.247,183.652z M186.422,170.564c-3.226-1.686-3.399-5.276-0.25-5.176
	c1.238,0.039,4.95,0.152,8.25,0.25c6.066,0.18,7.694,1.539,4.75,3.962C196.996,171.392,189.142,171.986,186.422,170.564z
	 M171.581,160.216c-2.271-1.591-2.825-3.869-1.186-4.882c2.587-1.599,16.248-4.042,22.027-3.938
	c9.066,0.162,16.767,1.435,18.053,2.984c1.608,1.938-0.47,5.153-3.794,5.867c-1.517,0.326-9.55,0.792-17.85,1.037
	C176.46,161.647,173.35,161.455,171.581,160.216z M176.25,144.695c-3.518-1.308-4.92-5.394-3.242-9.447
	c2.876-6.942,6.91-6.921,5.867,0.031l-0.643,4.285l6.63,0.71c5.823,0.624,10.502,0.098,18.325-2.058
	c0.896-0.247,1.078-1.527,0.623-4.374c-0.586-3.666-0.449-4.025,1.535-4.025c1.557,0,2.608,1.029,3.684,3.604
	c1.787,4.275,1.105,8.471-1.658,10.196C204.833,145.202,179.935,146.065,176.25,144.695z M184.673,135.114
	c-0.934-0.347-1.088-2.562-0.611-8.771c0.608-7.915,0.532-8.364-1.616-9.514c-1.29-0.69-3.595-0.934-5.389-0.569
	c-4.945,1.005-5.83,0.932-11.135-0.921c-8.555-2.989-9.98-3.918-10.308-6.718c-0.291-2.486,1.765-4.203,4.455-3.721
	c0.47,0.084,5.129,0.085,10.354,0.003c8.585-0.136,9.313-0.292,7.559-1.619c-1.336-1.011-4.469-1.468-10.059-1.468
	c-8.718,0-12.326-1.404-11.194-4.355c0.527-1.375,2.273-1.645,10.616-1.645c5.491,0,11.018,0.485,12.281,1.077
	c1.264,0.592,3.848,3.165,5.742,5.717c4.299,5.79,5.609,13.475,4.041,23.706C188.322,133.401,186.946,135.957,184.673,135.114z
	 M208.172,115.107c-4.146-0.349-4.75-0.687-4.75-2.658c0-1.242,1.238-3.444,2.751-4.894c3.797-3.637,9.398-4.361,17.077-2.207
	c5.182,1.454,6.172,2.087,6.172,3.945c0,1.217-0.787,2.905-1.75,3.75C225.762,114.723,215.941,115.761,208.172,115.107z
	 M223.803,102.319c-3.172-1-6.129-1.066-12.834-0.284c-9.064,1.057-11.153,0.527-9.98-2.531c0.906-2.36,6.682-3.675,16.168-3.681
	c7.748-0.005,8.428,0.171,11.5,2.979c2.737,2.502,3.023,3.146,1.766,3.984C228.673,103.953,229.066,103.98,223.803,102.319z
	 M260.426,112.808c1.226-2.958,0.58-6.991-1.117-6.991c-0.539,0-1.746,1.399-2.684,3.109c-0.937,1.71-2.932,4.973-4.435,7.25
	s-2.74,4.955-2.75,5.95C249.415,124.653,258.826,116.67,260.426,112.808z M254.447,97.252c0.536-1.411,0.975-5.881,0.975-9.935
	c0-8.821,1.17-12.5,3.976-12.5c1.113,0,2.067,0.338,2.118,0.75c0.053,0.413,0.237,3.823,0.411,7.578
	c0.175,3.755,0.571,7.082,0.882,7.393c1.162,1.161,3.559-2.037,5.176-6.906c2.234-6.729,1.518-13.583-1.971-18.856
	c-2.389-3.609-3.043-4.018-5.553-3.466c-4.066,0.893-6.039-2.287-6.039-9.739c0-9.833-5.242-21.692-11.123-25.167
	c-2.476-1.462-2.855-1.464-4.297-0.023c-0.995,0.996-1.58,3.333-1.58,6.318c0,5.441-1.766,8.514-4.566,7.944
	c-1.732-0.353-1.905-1.164-1.666-7.79c0.147-4.068-0.22-8.876-0.816-10.683c-1.514-4.588-9.943-11.831-16.719-14.366
	c-4.902-1.834-6.442-1.986-11.352-1.122c-6.422,1.131-13.936,4.652-18.381,8.614c-5.469,4.875-7.239,5.617-14.65,6.149
	c-4.042,0.291-8.339,1.007-9.55,1.593c-1.21,0.586-3.387,3.588-4.838,6.672c-3.287,6.99-5.458,9.35-11.988,13.036
	c-6.272,3.54-7.461,6.051-7.88,16.642c-0.213,5.389-1.16,10.297-2.955,15.317c-2.227,6.226-2.483,7.975-1.632,11.133
	c0.555,2.061,1.614,4.25,2.355,4.864c1.1,0.913,1.462-0.262,1.984-6.433c0.736-8.705,1.697-11.012,4.875-11.7
	c1.254-0.271,3.011-0.803,3.905-1.181c1.074-0.455,2.768,0.361,5,2.408c6.83,6.262,10.278,5.001,23.375-8.552
	c10.155-10.508,14.103-12.4,22.5-10.789c4.169,0.8,4.494,1.084,4.42,3.863c-0.154,5.859,4.597,6.028,13.133,0.466
	c3.406-2.219,8.076-6.269,10.379-9c6.945-8.236,10.824-6.202,7.252,3.804c-3.129,8.77-3.465,12.6-1.662,18.994
	c1.972,6.991,2.442,7.611,9.979,13.131c8.098,5.931,11.532,9.169,12.576,11.854C251.654,100.543,253.244,100.417,254.447,97.252z"/>
</svg>
