<?xml version="1.0" encoding="utf-8"?>
<!-- Generator: Adobe Illustrator 15.1.0, SVG Export Plug-In . SVG Version: 6.00 Build 0)  -->
<!DOCTYPE svg PUBLIC "-//W3C//DTD SVG 1.1//EN" "http://www.w3.org/Graphics/SVG/1.1/DTD/svg11.dtd">
<svg version="1.1"
	 id="svg1447" xmlns:inkscape="http://www.inkscape.org/namespaces/inkscape" xmlns:svg="http://www.w3.org/2000/svg" xmlns:rdf="http://www.w3.org/1999/02/22-rdf-syntax-ns#" xmlns:cc="http://web.resource.org/cc/" xmlns:dc="http://purl.org/dc/elements/1.1/" sodipodi:docname="Pioneer plaque line-drawing of a human male.svg" inkscape:version="0.43" xmlns:sodipodi="http://inkscape.sourceforge.net/DTD/sodipodi-0.dtd" sodipodi:docbase="/home/adam/Desktop" sodipodi:version="0.32"
	 xmlns="http://www.w3.org/2000/svg" xmlns:xlink="http://www.w3.org/1999/xlink" x="0px" y="0px" width="458px" height="1221px"
	 viewBox="0 0 458 1221" enable-background="new 0 0 458 1221" xml:space="preserve">
<sodipodi:namedview  inkscape:window-y="0" inkscape:window-x="0" inkscape:window-height="742" inkscape:window-width="1016" inkscape:current-layer="svg1447" inkscape:cy="1206.7998" inkscape:cx="219.42162" inkscape:zoom="1.4215638" inkscape:pageshadow="2" inkscape:pageopacity="0.0" borderopacity="1.0" bordercolor="#666666" pagecolor="#ffffff" id="base" showborder="false">
	</sodipodi:namedview>
<path id="path2632" fill="none" stroke="#FFFFFF" stroke-width="6" stroke-linecap="round" stroke-linejoin="round" d="
	M141.405,224.793c2.046-10.843,4.092-20.271,3.197-32.123 M209.926,129.557c1.93,4.949-4.019,11.814-9.967,18.68
	c6.895-1.923,13.803-5.819,18.775-13.679 M220.568,152.339c-2.978,3.927-5.934,4.892-8.882,4.869 M153.345,205.141
	c3.888,5.951,1.871,12.846,6.733,19.792 M156.94,250.575c-14.742-0.11-42.289,3.633-45.187-3.299 M167.722,254.603
	c5.867,3.992,12.834-7.801,18.709-4.796 M205.118,247.973c33.399,2.224,51.163-7.515,61.02-11.39 M170.779,239.82
	c7.782,10.916,15.922-26.533,21.877-34.386 M305.745,595.197c6.996-15.741,6.13-31.541,11.168-48.284
	c15.07-44.308,16.382-88.717,5.9-133.215c-10.452-48.446,3.694-100.656-20.554-144.271c-9.675-20.801-43.94-38.825-81.146-57.857
	c-11.735-7.984-13.555-27.74-12.375-54.383 M279.919,499.255c-5.678-29.655-27.196-43.636-27.065-61.402
	c-4.709-27.674,31.705-34.312,3.906-129.281 M278.523,422.25c1.775,25.679,3.543,52.344,1.388,77.992
	c-6.087,25.619-2.374,55.26-5.534,83.862c-8.947,13.752-13.979,29.508-15.093,47.268c-4.04,14.775-5.126,28.588-2.258,39.467
	c10.804,1.068,14.902-21.605,19.999-46.244c-1.041,7.889-1.1,15.785-2.134,22.688c4.819,12.867,6.697,24.727-0.271,36.52
	c-4.07,18.725,0.837,19.75,6.756,16.832c1.899,8.898,4.862,6.945,9.812,2.047c2.956-0.965,6.895-1.922,11.881-11.756
	c1.973-0.973,3.953-2.932,5.955-7.852c6.945-8.832,7.019-18.703,5.126-28.588c0.161-21.715-2.634-42.465-10.336-64.24 M267,385.642
	c1.907,7.911,12.498,37.604,22.194,55.443 M194.392,369.306c41.901,48.681,95.358-3.236,61.282-46.923 M238.639,366.675
	c5.911-1.93,6.923-5.871,5.977-10.813C240.662,358.793,237.67,364.694,238.639,366.675z M97.097,368.58
	c5.897,0.044,7.885-2.902,5.963-8.839 M150.145,371.937c-39.604,39.188-88.501,6.249-58.608-48.806
	c1.02-4.928,2.046-10.843,0.117-15.793 M97.955,385.367c-1.165,24.669-10.215,52.24-13.346,76.895 M143.438,215.925
	c-10.913,13.737-22.787,24.507-37.565,29.332c-29.542,7.677-48.36,27.278-50.589,62.797c3.529,54.317-0.68,91.796-10.676,114.424
	c-10.985,23.608-14.109,47.276-12.318,70.979c-0.358,48.365,9.089,99.766-10.881,142.062c-2.992,5.9-3.028,10.834,0.866,15.799
	c7.774,11.904,11.604,25.752,22.334,36.689c4.884,3.986,8.779,8.949,13.663,12.936 M90.09,518.567
	c2.89,7.918,6.77,14.857,11.64,20.816 M228.197,449.514c0.072-9.871,3.079-17.745,9.005-21.649 M149.166,504.202
	c-0.029,3.948,4.877,4.972,6.857,3.012C157.035,503.273,152.128,502.25,149.166,504.202z M225.5,548.204
	c2.992-5.9,4.995-10.82,6.021-16.735 M203.536,594.434l1.973-0.973 M195.615,602.271c-14.822,10.749-21.796,23.528-21.913,39.321
	c-13.671-11.947-27.335-24.881-37.017-44.696c-8.743-13.885-19.466-25.811-30.195-36.748 M33.188,637.582
	c4.841,9.906,4.76,20.764,9.594,31.658c2.919,3.971,5.86,4.979,9.762,8.957 M103.83,388.373c7.57,39.54-8.345,65.086-29.15,87.634
	c-9.959,17.693-15.027,38.385-15.202,62.074c2.729,29.634-11.249,59.142-12.451,88.746c4.388,71.105,29.487,132.492,55.591,190.926
	 M116.062,860.299c-15.645-10.977-23.346-32.75-24.109-62.367 M109.139,866.17c-4.855-7.934-7.753-14.865-7.687-23.748
	 M159.26,866.543c0.11-14.805,2.148-24.662,7.121-32.521 M120.91,869.219c9.82,1.061,12.82-5.828,10.928-15.713
	c-0.954-3.955-0.925-7.904,0.088-11.844 M99.523,837.471c-23.887,40.293,38.744,209.555,28.683,241.066 M174.678,642.586
	c2.518,58.258-8.446,78.906-5.717,108.539c-0.103,13.818,9.506,43.504,2.458,66.154c-11.939,19.652,5.692,27.682,7.314,74.086
	c-12.217,57.162-1.685,94.75-13.247,196.336 M163.886,1038.334c19.407,33.705,24.175,53.482,13.32,59.324
	c-8.881,4.869-18.745,9.732-28.61,14.594 M128.294,1066.693c-5.933,4.891-9.988,21.643-17.895,27.506
	c-8.911,8.816-26.667,17.568-29.681,26.43c-4.979,8.846,4.893,2.998,9.828,0.072c-23.777,25.488-6.087,25.619,3.901,3.979
	c-17.836,19.607-23.93,46.215,7.818,5.98c-28.727,30.387-18.936,35.395,6.836,5.975c-2.985,4.912-14.873,17.656-17.858,22.568
	c4.855,7.934,15.725,0.119,26.594-7.697c9.82,1.061,17.756-8.752,24.76-25.48c3.035-11.822,8.016-20.668,13.963-27.533
	 M409.017,1116.17c10.745,8.965,17.573,15.926,23.404,24.852c4.862,6.947,4.797,15.83-7.862-0.059
	c15.578,19.859,12.586,25.76-3.997,8.855c20.499,18.906,17.464,30.73-4.95,4.898c26.352,24.873,23.346,32.748-6.945,8.832
	c8.793,6.975,17.588,13.949,21.489,17.928c-3.997,8.854-11.859,8.795-20.683,5.768c-7.832-4.006-13.648-14.908-22.494-14.975
	c-13.729-4.051-19.355-40.615-28.113-52.525 M341.395,1090c-7.135,34.496-7.135,34.496,22.275,44.586 M299.709,879.436
	c-8.786-7.961-12.659-15.887-12.586-25.758 M268.225,884.137c-19.955,40.322,38.471,113.805,50.052,142.516
	c11.603,25.752,21.212,55.438,33.783,83.17 M275.001,898.006c-8.677-22.768-43.823-54.617-58.846-149.49
	c-2.875-9.893-32.91-68.355-40.517-102.961 M331.085,889.541c5.199-38.457-10.343-63.252-12.896-116.574
	c-3.741-25.691,3.409-62.162-4.22-93.805 M334.158,872.783c35.975,52.586,30.271,159.15,40.893,184.895
	c2.773,23.711,30.108,48.592,38.771,73.334 M319.351,881.557c1.979-1.959,3.968-4.904,3.997-8.854 M305.336,650.471
	c-5.934,4.891-6.96,10.807-4.078,19.711c-1.056,9.863-5.06,19.705-10.047,29.539 M305.058,687.979l4.18-33.529 M280.386,701.613
	c5.991-12.787,12.98-27.541,13.054-37.412c-1.922-5.938-0.896-11.852,1.121-18.746 M126.667,91.425
	c19.751-12.685,28.757-34.334,28.837-45.191c-14.778,4.825-26.637,13.62-40.564,36.22c-9.893,8.81-1.144,21.708-9.181,45.338
	c-10.979,22.621,28.076,57.462,4.066,114.534 M268.096,237.585c-2.817-17.789-9.535-39.556-7.438-57.308
	c2.279-42.429-3.325-81.954-26.699-110.755c-14.596-19.852-28.208-39.694-43.97-34.877c-26.549,1.776-36.473,14.534-39.552,32.279
	c1.827,18.769,12.601,23.784,28.311,25.876c14.697,6.032,16.598,14.93,19.479,23.836c7.782,10.916,16.619,11.969,23.44,19.917
	c1.79,23.703-2.36,53.285,4.352,76.039"/>
<path fill="#FFFFFF" d="M146.553,196.167c-0.719,0-1.404-0.31-1.879-0.851c-5.724-6.52-10.773-14.226-15.889-24.25
	c-6.255-12.256-10.815-22.863-7.914-37.971c-0.084-0.316-0.174-0.639-0.265-0.966c-0.945-3.415-2.216-8.004,0.33-12.054
	c-1.095-10.033,0.084-18.391,3.507-24.853c0.646-1.22,2.158-1.685,3.379-1.039c1.22,0.646,1.685,2.159,1.039,3.379
	c-3.043,5.746-4.003,13.44-2.851,22.867c0.081,0.664-0.107,1.332-0.522,1.855c-1.668,2.106-1.108,4.736-0.063,8.509
	c0.153,0.552,0.302,1.091,0.434,1.613c0.091,0.363,0.1,0.742,0.026,1.108c-2.813,13.857,1.273,23.362,7.354,35.277
	c4.693,9.196,9.301,16.333,14.437,22.351c35.957-0.851,53.457-13.76,56.687-41.75c0.157-1.372,1.404-2.355,2.77-2.197
	c1.372,0.158,2.355,1.398,2.197,2.77c-3.563,30.879-23.498,45.56-62.736,46.199C146.58,196.167,146.566,196.167,146.553,196.167z"/>
<path fill="#FFFFFF" d="M147.224,156.754c-3.533,0-6.728-1.714-9.301-5.118c-0.667-0.881-0.492-2.135,0.389-2.801
	c0.88-0.667,2.135-0.492,2.801,0.389c1.236,1.635,4.999,6.612,12.962,0.826l0.81-0.589l0.956,0.296
	c2.605,0.806,4.528,0.874,5.278,0.191c0.716-0.653,0.828-2.454,0.306-4.941c-0.227-1.081,0.466-2.141,1.547-2.368
	c1.077-0.225,2.142,0.465,2.368,1.547c0.869,4.139,0.369,6.991-1.527,8.719c-1.783,1.625-4.471,1.937-8.2,0.948
	C152.709,155.79,149.872,156.754,147.224,156.754z"/>
<path fill="#FFFFFF" d="M154.924,179.479c-2.453,0-4.792-0.509-6.477-1.301c-1-0.47-1.429-1.662-0.959-2.661s1.66-1.429,2.661-0.959
	c2.242,1.054,6.296,1.368,9.203,0.071c1.009-0.448,2.192,0.003,2.642,1.012s-0.003,2.191-1.012,2.642
	C159.096,179.124,156.971,179.479,154.924,179.479z"/>
<path fill="#FFFFFF" d="M137.356,122.533c-0.661,0-1.308-0.327-1.688-0.926c-1.106-1.736-2.99-1.974-5.529-2.099
	c-0.289,0.015-0.618,0.071-0.994,0.136c-1.34,0.23-3.175,0.546-5.437-0.695c-0.969-0.531-1.323-1.747-0.792-2.715
	c0.531-0.968,1.745-1.324,2.715-0.792c1.038,0.567,1.752,0.445,2.836,0.259c0.486-0.083,1.037-0.178,1.625-0.194l0.077-0.002
	l0.076,0.004c2.423,0.116,6.478,0.312,8.795,3.949c0.594,0.932,0.32,2.168-0.612,2.761
	C138.096,122.432,137.724,122.533,137.356,122.533z"/>
<path fill="#FFFFFF" d="M159.038,121.635c-0.323,0-0.646-0.036-0.973-0.113c-1.074-0.256-1.738-1.334-1.483-2.409
	c0.256-1.074,1.332-1.737,2.409-1.483c0.468,0.083,2.051-0.786,3.096-1.363l0.048-0.027c2.095-1.48,4.833-1.801,7.728-2.141
	l1.181-0.137c2.89-0.172,7.731-0.456,10.163,2.293c0.731,0.828,0.653,2.092-0.175,2.823c-0.827,0.732-2.092,0.654-2.823-0.174
	c-1.128-1.277-4.968-1.064-6.87-0.953l-1.01,0.12c-2.512,0.295-4.682,0.549-5.938,1.473l-0.371,0.224
	C162.229,120.758,160.64,121.634,159.038,121.635z"/>
<path fill="#FFFFFF" d="M145.917,143.337c-0.025,0-0.05,0-0.074-0.001c-1.104-0.04-1.966-0.968-1.926-2.071
	c0.041-1.113,0.116-2.225,0.191-3.337c0.254-3.743,0.495-7.278-0.611-10.745c-0.336-1.053,0.245-2.178,1.297-2.513
	c1.054-0.336,2.178,0.245,2.513,1.297c1.337,4.193,1.06,8.279,0.791,12.232c-0.073,1.07-0.146,2.141-0.185,3.211
	C147.875,142.489,146.987,143.337,145.917,143.337z"/>
<path id="path4308" fill="#FFFFFF" d="M168.863,168.418c2.604-0.871,2.775-2.854,0.613-4.023c-1.586-0.857-3.514-0.478-5.386,0
	c-1.73,0.442-4.825,0.938-5.834,0.146c-2.553-2.001-4.929-2.312-6.894-1.207c-1.252,0.703-3.401,0.777-4.773,0.354
	c-2.971-0.918-4.027,0.904-7.425,2.216c-2.683,1.036-1.378,5.023,2.829,3.648c1.953-0.639,4.209-0.204,5.833,0.177
	c1.808,0.424,3.778,0.839,5.562,0.323c2.174-0.629,4.987-1.813,6.458-1.414C162.425,169.336,166.294,169.277,168.863,168.418z"/>
<path fill="#FFFFFF" d="M164.446,134.752c-0.023,0-0.047,0-0.07-0.001c-1.104-0.038-1.968-0.964-1.93-2.068
	c0.092-2.659,1.558-4.918,4.129-6.364c4.364-2.454,11.167-2.192,16.173,0.623c0.963,0.542,1.306,1.761,0.764,2.724
	s-1.762,1.302-2.723,0.764c-3.747-2.105-9.13-2.38-12.254-0.623c-1.345,0.756-2.048,1.771-2.091,3.015
	C166.406,133.902,165.518,134.752,164.446,134.752z"/>
<path id="path4312" fill="#FFFFFF" d="M176.642,129.835c0.011,2.343-2.196,4.25-4.93,4.26c-2.733,0.009-4.959-1.883-4.97-4.226
	c0-0.012,0-0.023,0-0.034c-0.012-2.344,2.195-4.251,4.93-4.26c2.733-0.01,4.959,1.882,4.97,4.226
	C176.642,129.812,176.642,129.824,176.642,129.835z"/>
<path fill="#FFFFFF" d="M142.525,135.813c-0.647,0-1.282-0.313-1.667-0.893c-4.206-6.323-7.975-6.068-13.691-5.684l-0.463,0.031
	c-1.099,0.067-2.055-0.761-2.128-1.863s0.761-2.055,1.863-2.128l0.459-0.031c6.066-0.411,11.799-0.797,17.291,7.46
	c0.611,0.919,0.362,2.161-0.558,2.773C143.291,135.705,142.906,135.813,142.525,135.813z"/>
<path id="path4316" fill="#FFFFFF" d="M138.797,132.25c-0.497,2.289-3.065,3.672-5.736,3.088c-2.67-0.583-4.432-2.913-3.935-5.202
	c0.003-0.012,0.005-0.022,0.007-0.034c0.498-2.289,3.066-3.672,5.737-3.089c2.67,0.584,4.433,2.913,3.935,5.203
	C138.802,132.227,138.8,132.239,138.797,132.25z"/>
</svg>
