<?xml version="1.0" encoding="utf-8"?>
<!-- Generator: Adobe Illustrator 15.1.0, SVG Export Plug-In . SVG Version: 6.00 Build 0)  -->
<!DOCTYPE svg PUBLIC "-//W3C//DTD SVG 1.1//EN" "http://www.w3.org/Graphics/SVG/1.1/DTD/svg11.dtd">
<svg version="1.1"
	 id="svg1447" xmlns:inkscape="http://www.inkscape.org/namespaces/inkscape" xmlns:svg="http://www.w3.org/2000/svg" xmlns:rdf="http://www.w3.org/1999/02/22-rdf-syntax-ns#" xmlns:cc="http://web.resource.org/cc/" xmlns:dc="http://purl.org/dc/elements/1.1/" sodipodi:docname="Pioneer plaque line-drawing of a human male.svg" inkscape:version="0.43" xmlns:sodipodi="http://inkscape.sourceforge.net/DTD/sodipodi-0.dtd" sodipodi:docbase="/home/adam/Desktop" sodipodi:version="0.32"
	 xmlns="http://www.w3.org/2000/svg" xmlns:xlink="http://www.w3.org/1999/xlink" x="0px" y="0px" width="458px" height="1221px"
	 viewBox="0 0 458 1221" enable-background="new 0 0 458 1221" xml:space="preserve">
<sodipodi:namedview  inkscape:window-y="0" inkscape:window-x="0" inkscape:window-height="742" inkscape:window-width="1016" inkscape:current-layer="svg1447" inkscape:cy="1206.7998" inkscape:cx="219.42162" inkscape:zoom="1.4215638" inkscape:pageshadow="2" inkscape:pageopacity="0.0" borderopacity="1.0" bordercolor="#666666" pagecolor="#ffffff" id="base" showborder="false">
	</sodipodi:namedview>
<path id="path1456" fill="#FFFFFF" d="M367.383,1219.603c-5.356-1.91-7.03-3.72-10.082-10.899c-2.325-5.473-3.259-6.572-7.201-8.487
	c-6.883-3.344-8.964-8.604-8.645-21.845l0.246-10.181l-4.751-4.466c-2.613-2.455-6.773-5.995-9.244-7.865
	c-7.725-5.844-8.452-9.701-4.865-25.808c1.547-6.948,2.338-15.275,2.945-31c0.456-11.825,1.066-24.875,1.356-29
	c0.357-5.107,0.064-8.936-0.919-12c-0.795-2.476-2.159-8.775-3.031-14c-0.873-5.226-2.442-12.875-3.489-17
	c-2.766-10.905-4.818-24.878-5.582-38c-0.524-8.995-1.319-13.352-3.652-20c-1.641-4.675-4.496-14.575-6.344-22
	c-5.857-23.535-6.785-40.753-3.34-62c3.478-21.447,3.487-20.604-0.346-29c-1.883-4.125-3.74-9.075-4.128-11
	c-2.272-11.292-3.832-21.929-5.114-34.87c-2.824-28.504-3.48-36.852-4.461-56.63c-0.611-12.353-1.748-23.633-2.973-29.5
	c-2.283-10.938-15.152-52-16.299-52c-0.421,0-0.785,1.237-0.809,2.75c-0.082,5.161-1.936,22.738-2.979,28.25
	c-0.999,5.28-2.121,18.099-2.319,26.5c-0.051,2.2,0.511,13.269,1.25,24.598c1.631,25.006,1.044,55.1-1.217,62.402
	c-0.851,2.75-2.076,8.375-2.725,12.5l-1.178,7.5l5.012,15.053c5.585,16.77,9.199,35.453,9.199,47.554
	c0,8.109-0.341,10.866-4.525,36.63c-1.361,8.381-2.475,17.935-2.475,21.231c0,6.383-0.707,11.725-4.703,35.532
	c-2.24,13.341-2.444,16.659-1.848,30c0.368,8.25,1.332,20.175,2.141,26.5c2.541,19.874,4.515,37.157,5.367,47
	c0.451,5.225,1.371,12.558,2.043,16.294c0.672,3.737,1.05,9.822,0.84,13.522c-0.674,11.924-4.631,15.146-24.701,20.109
	c-18.533,4.583-21.133,5.971-26.049,13.897c-2.277,3.672-5.865,10.296-7.974,14.719c-2.108,4.424-5.232,9.219-6.941,10.657
	c-4.001,3.367-15.331,7.134-21.146,7.03c-3.458-0.061-5.12,0.479-7.029,2.281c-3.664,3.461-7.236,4.489-15.597,4.489
	c-8.167,0-12.74-1.458-16.062-5.12c-1.188-1.309-3.257-3.137-4.599-4.062c-3.693-2.548-5.103-10.882-3.838-22.703
	c0.735-6.878,1.52-9.951,2.937-11.5c1.063-1.163,3.15-4.718,4.636-7.899c3.188-6.826,5.363-8.468,12.821-9.682
	c8.06-1.312,10.613-2.972,22.841-14.841c14.203-13.787,22.12-23.615,24.878-30.887c1.948-5.134,2.132-7.007,1.594-16.184
	c-0.541-9.226-3.827-28.217-8.156-47.122c-1.922-8.397-8.717-38.379-11.898-52.5c-3.883-17.24-5.644-27.672-5.925-35.124
	c-0.144-3.781-0.802-7.874-1.464-9.093c-3.103-5.717-3.759-46.265-1.082-66.827c0.933-7.166,0.833-8.588-0.915-13.021
	c-3.642-9.241-10.411-37.574-11.689-48.936c-0.372-3.3-2.373-11.4-4.446-18s-4.488-15.375-5.365-19.5
	c-1.801-8.47-4.083-33.847-5.709-63.5c-0.604-11-1.557-23.15-2.118-27c-2.812-19.288-4.936-36.728-6.476-53.173l-1.702-18.173
	l2.623-13.411c1.443-7.376,3.821-16.523,5.286-20.327c2.485-6.455,2.704-8.348,3.295-28.416c0.348-11.825,1.057-22.16,1.574-22.966
	c0.518-0.807,1.039-7.332,1.158-14.5l0.216-13.034l6.306-18.5l6.306-18.5l-0.132-11c-0.093-7.806-0.743-13.179-2.236-18.5
	c-6.665-23.751-10.065-40.565-12.108-59.872c-1.8-17.012-2.813-17.886-9.973-8.605c-2.271,2.943-5.573,6.453-7.337,7.799
	c-4.365,3.329-25.682,12.93-33.499,15.086c-3.495,0.964-10.694,3.772-16,6.239c-13.855,6.442-20.144,8.353-27.49,8.353
	c-7.34,0-29.651-3.567-34.234-5.474c-4.123-1.715-5.841-5.706-8.408-19.526c-1.175-6.325-2.808-13.257-3.629-15.404
	c-0.978-2.558-1.867-11.077-2.579-24.702c-1.446-27.72,0.063-59.04,4.164-86.394c1.649-11,3.765-26.131,4.701-33.625l1.703-13.625
	l-2.269-5.875c-6.913-17.9-9.52-30.083-11.099-51.875c-0.638-8.8-1.552-17.237-2.031-18.75c-2.042-6.445-2.249-19.137-0.443-27.25
	c2.812-12.642,8.439-16.683,14.622-10.5c1.65,1.65,3.155,3,3.346,3c0.19,0,0.857-1.551,1.483-3.446
	c1.768-5.357,6.635-14.991,8.25-16.332c0.802-0.666,2.852-1.488,4.555-1.829c2.526-0.505,3.556-0.125,5.583,2.062
	c2.307,2.489,2.554,2.551,3.439,0.863c0.524-1,1.245-3.177,1.601-4.838c0.791-3.689,4.347-8.093,7.2-8.917
	c3.268-0.943,6.422,2.261,7.084,7.197c0.625,4.658,0.903,4.859,3.747,2.708c2.908-2.2,6.171-1.777,8.428,1.092
	c3.554,4.518,4.437,12.316,3.842,33.939c-0.427,15.529-0.215,21.677,0.947,27.5c0.823,4.125,1.887,7.903,2.364,8.395
	c0.501,0.518,3.89-1.904,8.04-5.746c7.728-7.155,13.328-9.648,21.668-9.648c12.645,0,14.832,10.683,3.71,18.124
	c-4.721,3.158-12.523,14.898-15.495,23.316c-1.781,5.045-4.063,8.701-8.92,14.292c-9.101,10.476-8.864,10.067-12.08,20.779
	c-3.507,11.682-5.144,28.41-5.281,53.99c-0.083,15.553,0.209,19.221,2.155,26.98c1.238,4.939,2.925,10.009,3.749,11.267
	c1.808,2.758,3.104,2.241,11.43-4.56c3.025-2.471,7.852-5.577,10.727-6.902c5.646-2.604,7.811-5.069,11.156-12.706
	c1.186-2.706,3.769-6.889,5.74-9.295c3.265-3.983,5.722-6.057,18.921-15.965c9.47-7.108,19.883-10.996,35.656-13.313
	c7.625-1.121,9.683-2.161,26.267-13.279c6.597-4.422,14.896-9.23,18.442-10.684c10.245-4.199,12.025-8.069,12.066-26.225
	c0.021-9.467-0.324-11.628-3.034-19c-1.921-5.227-4.306-9.619-6.417-11.818c-1.915-1.995-3.871-5.435-4.548-8
	c-0.653-2.475-2.264-6.336-3.579-8.581s-2.684-6.294-3.041-9s-1.488-6.119-2.512-7.585c-1.024-1.466-2.136-4.166-2.471-6
	c-0.335-1.833-1.906-5.993-3.492-9.244c-3.661-7.503-3.716-12.903-0.228-22.095c2.113-5.567,2.609-8.456,2.431-14.149
	c-0.334-10.648,2.575-15.659,11.915-20.524c3.739-1.948,5.176-3.611,8.5-9.833c3.382-6.332,4.695-7.831,8.5-9.698
	c2.867-1.407,6.428-2.224,9.815-2.25c5.898-0.045,8.062-0.924,13.138-5.335c5.755-5.002,14.727-8.622,23.084-9.312
	c10.574-0.875,18.657,2.412,27.375,11.129c4.189,4.19,7.367,6.485,9.665,6.98c7.813,1.685,11.856,5.577,16.353,15.742
	c1.372,3.104,5.063,10.055,8.202,15.449c12.944,22.243,13.622,27.208,5.821,42.636c-2.845,5.626-3.453,7.935-3.453,13.101
	c0,8.656-1.453,12.337-6.938,17.569c-3.103,2.961-5.311,6.21-6.455,9.5c-0.957,2.75-2.45,6.35-3.317,8
	c-2.604,4.953-3.562,10.393-3.995,22.677l-0.41,11.677l4.07,5.963c4.191,6.14,10.167,11.664,15.7,14.512
	c1.735,0.894,3.761,2.197,4.5,2.897s3.819,2.908,6.845,4.905s8.282,6.17,11.683,9.273c7.874,7.186,10.979,8.429,24.104,9.652
	c8.223,0.767,11.941,1.616,16,3.653c6.712,3.37,19.759,16.965,23.371,24.354c1.462,2.99,4.65,9.486,7.085,14.437
	s4.729,10.215,5.098,11.7c1.599,6.424,2.537,26.327,1.595,33.839c-0.908,7.247-0.806,8.199,1.437,13.267
	c5.397,12.206,8.662,37.553,8.654,67.194c-0.007,24.274,0.432,29.405,3.458,40.5c1.426,5.225,3.735,14.9,5.134,21.5
	c2.354,11.115,2.505,13.401,2.054,31c-0.479,18.705-0.849,21.463-6.03,45c-0.847,3.85-2.498,12.104-3.668,18.342
	s-2.803,13.213-3.629,15.5c-0.825,2.287-2.117,8.208-2.871,13.158c-3.203,21.041-6.638,40.313-8.006,44.919
	c-0.82,2.765-1.468,8.954-1.468,14.041c0,5.003-0.894,16.221-1.986,24.929c-1.61,12.842-2.456,16.614-4.477,19.972
	c-1.37,2.277-4.72,8.692-7.444,14.257c-4.314,8.811-5.911,10.978-12.372,16.782l-7.418,6.666l-0.621,11.218
	c-0.361,6.528-2.083,18.322-4.12,28.217c-4.023,19.547-5.687,25.516-8.163,29.296c-1.54,2.351-1.813,5.803-2.113,26.702
	c-0.189,13.201-0.428,28.052-0.53,33.002c-0.165,7.987,0.178,9.957,3.052,17.5c4.27,11.206,7.834,26.912,9.192,40.5
	c0.604,6.05,1.73,15.841,2.502,21.757c1.455,11.163,0.704,33.956-1.491,45.243c-1.057,5.432-3.52,22.693-4.494,31.5
	c-1.034,9.35-5.714,33.847-9.742,51c-1.098,4.675-2.416,10.3-2.93,12.5s-1.105,13.543-1.316,25.207
	c-0.348,19.235-0.216,21.42,1.412,23.5c2.499,3.19,7.809,14.05,14.08,28.793c2.924,6.875,6.353,14.077,7.619,16.004
	c1.266,1.927,3.418,6.252,4.782,9.61c1.365,3.358,3.37,7.632,4.457,9.496c3.371,5.785,3.521,9.638,0.666,17.198
	c-2.856,7.565-5.01,10.852-11.341,17.309c-3.301,3.367-5.039,4.384-7.5,4.387c-1.762,0.002-4.677,0.901-6.478,2
	C381.054,1221.416,373.157,1221.662,367.383,1219.603z M380.455,1214.302c0.282-0.858-0.829-1.25-3.55-1.25
	c-5.709,0-6.683-1.667-4.634-7.931c0.999-3.054,1.419-6.363,1.045-8.231c-1.078-5.395,2.739-7.982,4.467-3.027
	c0.538,1.545,3.202,4.469,5.918,6.497c3.306,2.468,5.213,4.74,5.765,6.872c0.913,3.524,2.912,4.819,3.814,2.47
	c0.693-1.807-3.291-8.87-8.688-15.402c-4.165-5.04-5.136-9.247-2.133-9.247c0.967,0,2.321,0.899,3.008,2
	c1.886,3.02,3.17,2.401,2.598-1.25c-0.68-4.35,1.687-7.782,4.026-5.84c0.885,0.734,1.608,2.434,1.608,3.776
	c0,2.291,7.528,12.312,9.25,12.312c0.412,0.001,0.75-1.187,0.75-2.638c0-1.688-1.44-4.2-4-6.978
	c-4.208-4.565-4.963-7.34-2.544-9.348c1.793-1.487,3.379-0.602,4.581,2.561c0.502,1.322,1.374,2.403,1.938,2.403
	c1.274,0,1.354-2.678,0.103-3.452c-0.508-0.313-1.889-3.473-3.069-7.021s-3.274-8.112-4.651-10.143
	c-1.378-2.03-4.536-8.686-7.018-14.788c-5.839-14.359-12.735-27.68-15.84-30.597c-1.352-1.27-4.149-2.583-6.218-2.919
	c-5.148-0.837-5.504-3.428-0.848-6.176c1.969-1.161,3.813-3.077,4.102-4.258c0.287-1.182,0.688-10.248,0.89-20.147
	c0.295-14.444,0.776-19.403,2.435-25.105c1.137-3.908,2.497-9.533,3.023-12.5s2.372-12.595,4.103-21.395s3.552-19.825,4.049-24.5
	c0.496-4.675,1.599-13,2.449-18.5c3.018-19.504,4.643-36.086,4.164-42.5c-0.267-3.575-0.976-11.45-1.577-17.5
	c-0.601-6.05-1.321-13.475-1.6-16.5c-1.594-17.301-7.62-39.147-12.164-44.094l-2.382-2.594l1.552-15.406
	c0.854-8.474,1.896-18.435,2.317-22.135c0.421-3.701,0.396-7.728-0.056-8.947c-0.799-2.16-0.872-2.135-2.766,0.979
	c-2.069,3.402-2.662,3.681-4.872,2.281c-1.047-0.663-1.263-2.368-0.861-6.793c0.415-4.579,2.012-8.93,7.102-19.35
	c5.923-12.123,6.907-15.06,10.032-29.941c4.551-21.67,6.006-32.421,4.715-34.834c-0.879-1.642-1.909-1.812-8.408-1.396
	c-7.993,0.513-12.942-0.615-17.118-3.9c-3.709-2.917-3.335-7.151,1.459-16.516c6.555-12.803,10.641-24.229,12.392-34.652
	c2.234-13.301,1.562-14.171-5.943-7.676c-9.708,8.402-18.461,10.793-25.347,6.923c-8.546-4.804-7.412-13.292,2.567-19.216
	c6.726-3.992,11.626-10.977,16.194-23.079c2.6-6.888,4.481-10.016,8.895-14.782l5.598-6.046l-1.667-16.163
	c-0.917-8.89-1.936-20.663-2.263-26.163c-1.402-23.517-4.475-35.247-10.321-39.41c-3.807-2.711-3.903-4.481-0.517-9.466
	c1.436-2.112,2.84-5.559,3.122-7.658c0.965-7.196-2.089-30.76-6.28-48.466c-2.326-9.825-1.436-18.232,3.604-34
	c3.526-11.032,4.287-14.968,5.027-26c1.228-18.302,1.229-24.716,0.005-35c-0.589-4.95-1.081-9.45-1.094-10
	c-0.014-0.55-0.404-1.601-0.87-2.334c-0.672-1.061-2.061-0.721-6.774,1.658c-9.256,4.672-14.989,5.328-43.349,4.955
	c-23.302-0.307-26.146-0.536-33-2.656c-4.631-1.433-8.666-3.43-10.548-5.221c-3.869-3.683-5.777-3.657-8.463,0.114
	c-2.757,3.871-5.743,5.337-15.009,7.37c-8.154,1.789-9.191,1.854-31.48,2.001c-20.057,0.132-30.035-0.957-42-4.586
	c-9.429-2.859-10.32-3.368-15.6-8.917c-3.08-3.236-6.127-5.884-6.771-5.884c-3.146,0-3.27,4.505-0.689,25.112
	c2.779,22.193,6.128,39.735,10.003,52.388c3.521,11.498,5.904,27.719,5.213,35.5c-0.349,3.938-2.967,13.729-6.644,24.846
	c-7.446,22.514-7.369,24.091,1.691,34.407c3.709,4.225,3.916,4.987,1.817,6.729c-1.116,0.926-2.25,0.959-4.615,0.135
	c-1.725-0.602-3.492-0.873-3.927-0.604c-0.435,0.27-1.508,2.595-2.385,5.167c-1.223,3.587-1.594,8.807-1.594,22.399v17.724
	l-3.849,12.349c-2.117,6.792-4.675,16.447-5.686,21.457c-1.763,8.739-1.768,9.856-0.138,27.5
	c0.935,10.115,2.831,26.042,4.214,35.392c2.747,18.572,5.635,53.052,5.571,66.5c-0.023,4.675,0.618,12.037,1.423,16.36
	s1.464,10.423,1.464,13.555c0,5.911,5.414,27.219,9.102,35.822c1.212,2.828,4.925,7.58,9.49,12.145
	c5.252,5.252,7.41,8.115,7.203,9.558c-0.449,3.143-4.88,3.201-8.549,0.113c-1.668-1.404-3.368-2.553-3.775-2.553
	c-2.787,0,5.561,31.741,12.2,46.387c6.159,13.586,7.724,18.146,6.934,20.204c-0.788,2.054-4.009,1.724-6.138-0.629
	c-2.731-3.018-3.372-1.033-4.104,12.707c-1.081,20.284,3.107,56.79,10.133,88.331c1.287,5.775,3.982,17.925,5.99,27
	c2.008,9.075,4.269,19.2,5.025,22.5c3.344,14.598,7.605,37.606,8.596,46.41c1.463,13.013,0.585,19.676-3.559,27.007
	c-1.846,3.266-3.671,7.433-4.057,9.26c-0.895,4.239-6.274,13.803-8.174,14.532c-0.797,0.306-1.959,0.047-2.583-0.576
	c-2.14-2.141-3.953-1.113-12.908,7.316c-10.411,9.8-15.23,12.862-22.756,14.457c-5.783,1.225-8.414,2.727-7.465,4.262
	c0.333,0.537,1.648,0.242,3.07-0.689c3.503-2.296,5.723-1.208,4.992,2.446c-0.404,2.019-0.138,3.063,0.878,3.453
	c3.416,1.311,0.323,5.636-6.62,9.257c-3.746,1.954-11.597,10.024-10.662,10.96c0.298,0.299,2.724-1.023,5.39-2.938
	s8.145-5.347,12.173-7.629c5.783-3.275,7.621-3.903,8.729-2.983c2.15,1.784,0.298,4.179-5.734,7.415
	c-9.929,5.328-13.342,8.541-9.07,8.539c2.704-0.001,13.521-5.419,16.697-8.362c3.231-2.995,6.553-3.482,6.553-0.962
	c0,1.703-9.418,11.325-11.086,11.325c-0.503,0-0.914,1.114-0.914,2.477c0,3.717-4.276,6.064-10.627,5.835
	c-3.739-0.136-5.362,0.217-5.758,1.25c-1.391,3.623,2.375,6.375,9.765,7.138c6.587,0.681,11.92-1.444,14.072-5.606
	c1.778-3.438,4.942-4.617,9.898-3.688c5.591,1.049,15.952-2.735,19.597-7.157c1.679-2.037,3.053-4.255,3.053-4.929
	c0-3.478,13.668-25.963,20.097-33.061c3.245-3.583,11.682-8.259,14.901-8.259c2.564,0,3.502,2.196,2.076,4.861
	c-0.602,1.123-0.688,2.259-0.197,2.562c1.635,1.011,16.912-4.57,19.21-7.017c3.251-3.46,3.567-10.79,1.021-23.601
	c-1.159-5.828-2.107-12.812-2.107-15.519c0-2.706-0.438-7.366-0.971-10.354c-0.534-2.988-1.41-9.709-1.946-14.934
	c-0.536-5.226-1.673-15.351-2.525-22.5c-0.853-7.15-2.005-20.875-2.562-30.5c-0.555-9.625-1.273-19.351-1.596-21.613
	c-0.523-3.68-0.256-4.421,2.531-7.025c3.307-3.091,4.207-7.186,5.746-26.173c0.551-6.787,0.432-7.423-1.651-8.883
	c-2.857-2.001-2.482-4.643,2.417-17.027c3.891-9.836,6.557-24.048,6.557-34.947c0-12.513-4.615-36.153-8.99-46.04
	c-3.268-7.388-4.371-4.591-4.691,11.89c-0.296,15.271-1.074,17.494-4.818,13.757c-1.807-1.804-1.999-3.321-1.99-15.717
	c0.01-12.913,0.201-14.25,3.233-22.721c1.772-4.95,4.152-13.275,5.289-18.5c1.136-5.225,2.519-11.525,3.07-14
	c1.224-5.481,0.435-55.345-1.091-69c-1.232-11.03-0.633-21.988,2.065-37.703c2.198-12.812,2.61-32.21,0.723-34.097
	c-0.659-0.66-2.485-1.2-4.058-1.2c-6.467,0-11.54-2.101-14.137-5.853c-5.1-7.37-5.84-11.288-5.102-26.997
	c0.473-10.084,0.295-16.253-0.599-20.75c-1.17-5.885-1.479-6.4-3.853-6.4c-3.415,0-11.977-5.854-16.011-10.946
	c-3.415-4.312-8.899-16.579-11.598-25.941c-2.504-8.689-8.112-20.807-13.003-28.096c-4.605-6.865-5.517-10.39-2.941-11.378
	c2.411-0.926,3.747,0.094,8.262,6.303c5.479,7.534,10,17.522,15.085,33.324c5.305,16.483,8.759,21.802,19.505,30.027
	c2.007,1.536,3.648,3.479,3.648,4.317c0,1.041,0.601,1.334,1.895,0.923c5.645-1.791,8.12,9.902,6.568,31.033
	c-0.822,11.198,0.062,15.551,4.035,19.837c1.911,2.062,3.342,2.597,6.954,2.597c2.501,0,4.548-0.238,4.548-0.53
	s-1.619-1.952-3.596-3.688c-5.801-5.093-8.279-14.63-6.193-23.827c0.682-3,1.249-9.054,1.264-13.454c0.025-7.834,0.076-8,2.496-8
	c4.846,0,6.425,8.938,3.656,20.704c-1.46,6.199-0.701,14.796,1.543,17.5c2.131,2.567,5.153,3.23,7.061,1.548
	c2.654-2.342,3.002-6.765,1.461-18.587c-1.59-12.194-0.841-18.679,2.591-22.415c2.354-2.564,5.511-2.953,6.344-0.781
	c0.31,0.808-0.229,3.544-1.198,6.08c-1.617,4.237-1.655,5.744-0.459,18.497c1.422,15.15,1.104,17.204-3.68,23.704l-2.391,3.25h2.904
	c3.823,0,7.894-3.863,8.722-8.279c0.36-1.923,0.4-6.585,0.087-10.358c-1.983-23.947-1.936-28.102,0.362-31.819
	c2.146-3.473,5.868-5.377,7.97-4.078c1.584,0.979,1.287,3.031-0.999,6.904c-2.454,4.159-2.849,12.693-0.952,20.598
	c1.596,6.655,0.866,21.479-1.26,25.566c-0.848,1.632-2.711,4.058-4.138,5.392c-4.272,3.991-3.864,6.728,5.067,33.95
	c7.377,22.483,9.806,36.44,10.809,62.125c0.854,21.858,4.335,58.694,7.089,75c2.407,14.248,2.596,14.796,10.876,31.5
	c13.282,26.798,14.725,30.278,19.811,47.791c0.898,3.092,0.825,4.066-0.396,5.286c-3.295,3.295-5.578-0.07-9.889-14.577
	c-2.459-8.274-10.438-25-11.927-25c-0.52,0-1.183,1.463-1.474,3.25s-0.986,5.92-1.545,9.184c-1.485,8.672-1.241,29.032,0.464,38.686
	c3.391,19.199,7.739,32.452,15.127,46.103c1.314,2.431,1.294,3.069-0.2,5.958c-1.382,2.672-1.558,4.898-1.011,12.777
	c0.364,5.249,1.14,12.468,1.722,16.043c2.051,12.592,2.745,14.188,5.258,12.103c2.565-2.129,5.305-0.448,5.986,3.675
	c0.95,5.748,0.704,34.353-0.41,47.723c-1.761,21.117-2.102,34.574-1.007,39.683c0.582,2.713,2.845,7.563,5.029,10.78
	c7.02,10.336,9.082,17.534,9.319,32.522c0.113,7.158-0.193,16.5-0.682,20.76c-1.244,10.857,0.661,15.846,7.343,19.232
	c4.701,2.382,5.657,3.682,9.002,12.239c0.692,1.77,1.908,3.757,2.703,4.416C368.509,1215.799,379.692,1216.626,380.455,1214.302z
	 M244.926,1116.802c-0.67-0.822-0.731-5.188-0.18-12.75c0.461-6.325,0.863-16.309,0.896-22.185
	c0.067-12.603,0.976-15.815,4.466-15.815c2.549,0,4.084,2.514,3.121,5.109c-0.283,0.765-0.93,10.684-1.434,22.041
	c-0.512,11.491-1.418,21.582-2.043,22.75C248.488,1118.313,246.449,1118.672,244.926,1116.802z M327.93,884.5
	c-3.633-2.544-4.66-5.477-5.237-14.948c-0.503-8.27-0.866-9.517-4.479-15.359c-3.264-5.277-4.003-7.453-4.343-12.79
	c-0.325-5.113-0.052-6.825,1.336-8.358c2.54-2.807,5.925-0.9,5.163,2.908c-0.814,4.071,1.036,10.812,4.25,15.483
	c3.611,5.249,5.067,10.475,5.074,18.211c0.007,6.833,1.721,9.405,6.268,9.405c3.406,0,4.832,3.727,2.17,5.674
	C335.687,886.513,330.644,886.401,327.93,884.5z M354.776,884.645c-1.862-2.244,0.602-14.362,3.511-17.272
	c4.654-4.653,9.518-1.659,5.697,3.509c-1.092,1.477-2.305,4.813-2.694,7.415C360.312,884.815,357.33,887.722,354.776,884.645z
	 M358.271,848.48c-1.947-1.947-1.969-4.408-0.115-13.22c2.342-11.134,5.066-15.131,8.175-11.996
	c1.034,1.044,0.911,2.894-0.652,9.787c-1.06,4.675-1.938,9.872-1.953,11.55c-0.023,2.868-1.519,5.45-3.154,5.45
	C360.17,850.052,359.135,849.345,358.271,848.48z M202.256,846.829c-0.856-1.223-1.557-3.166-1.557-4.318
	c0-4.276-3.136-12.435-7.009-18.234c-4.282-6.412-4.777-8.327-2.618-10.119c1.918-1.593,4.076-0.517,7.213,3.597
	c1.817,2.383,5.162,4.653,10.302,6.995c10.152,4.624,10.438,4.781,10.846,6.008c0.195,0.585-0.419,1.836-1.364,2.781
	c-1.611,1.611-3.573,1.687-9.371,0.357c-1.247-0.286-1.439,0.814-1.139,6.528c0.264,5.023-0.005,7.104-1,7.735
	C204.533,849.443,203.964,849.268,202.256,846.829z M292.949,603.385c-3.104-1.241,0.283-7.333,4.078-7.333
	c0.92,0,1.672-0.685,1.672-1.522c0-0.837,1.744-3.425,3.875-5.75c8.95-9.762,19.184-28.121,24.097-43.228
	c4.456-13.705,12.729-26.421,16.404-25.213c2.31,0.76,1.763,4.992-1.174,9.081c-3.335,4.645-5.03,8.364-9.403,20.632
	c-7.579,21.261-24.146,46.913-30.377,47.038c-1.057,0.021-2.822,1.452-3.922,3.18C296.1,603.567,295.014,604.211,292.949,603.385z
	 M249.303,501.897c-1.67-2.386-0.6-5.846,1.809-5.846c0.738,0,1.903-0.675,2.588-1.5c1.495-1.802,5.137-1.963,6.8-0.3
	c1.989,1.989,1.427,6.528-1.022,8.243C256.195,504.794,251.123,504.495,249.303,501.897z M204.366,456.385
	c-1.998-1.998-0.235-4.39,5.583-7.573c9.082-4.971,11.929-9.826,17.738-30.26c4.023-14.152,8.241-25.319,11.531-30.531
	c4.068-6.445,14.38-10.657,24.762-10.115c5.953,0.312,3.726,6.146-2.347,6.146c-3.911,0-11.013,2.728-13.757,5.284
	c-4.559,4.248-9.484,16.494-15.602,38.788c-2.145,7.819-5.899,15.971-9.117,19.794C218.182,453.832,206.897,458.916,204.366,456.385
	z M314.919,455.493c-3.841-2.69-9.994-12.833-15.233-25.11c-2.777-6.507-6.483-15.206-8.236-19.331
	c-4.895-11.521-7.354-15.394-14.28-22.493c-6.235-6.392-7.112-8.663-3.829-9.922c2.145-0.823,6.242,1.618,11.055,6.585
	c4.35,4.49,14.012,22.364,16.936,31.33c0.897,2.75,4.073,10.112,7.058,16.361c4.137,8.661,6.628,12.514,10.488,16.215
	c3.301,3.165,4.858,5.39,4.475,6.39C322.585,457.514,317.783,457.5,314.919,455.493z M395.729,1197.107
	c-1.074-2.007-3.029-3.652-3.029-2.549c0,1.374,2.132,4.493,3.07,4.493C396.422,1199.052,396.408,1198.377,395.729,1197.107z
	 M145.199,1159.052c1.598-1.766,1.62-2,0.19-2c-0.891,0-2.101,0.899-2.69,2c-0.589,1.1-0.674,2-0.19,2
	C142.993,1161.052,144.204,1160.151,145.199,1159.052z M340.699,1150.741c0-7.885-6.137-22.689-9.404-22.689
	c-1.402,0-2.921,4.86-4.132,13.228c-0.626,4.324-0.453,4.921,2.028,7c1.492,1.25,4.13,3.497,5.86,4.993
	C339.735,1157.321,340.699,1156.89,340.699,1150.741z M374.605,710.146c3.495-3.495,11.701-16.523,13.915-22.094
	c1.203-3.025,3.093-8.783,4.199-12.795c1.106-4.013,3.135-9.075,4.508-11.25c4.293-6.801,8.241-4.344,4.573,2.846
	c-1.121,2.197-2.903,7.078-3.961,10.847c-2.742,9.774-5.633,16.648-10.319,24.536c-2.249,3.785-3.873,7.098-3.609,7.361
	c0.928,0.929,9.894-7.833,11.684-11.417c0.997-1.995,2.745-7.228,3.886-11.628c3.92-15.119,7.503-21.053,11.286-18.689
	c1.048,0.654,2.785,1.189,3.86,1.189c3.258,0,3.296,1.654,0.201,8.729c-2.914,6.662-4.919,14.271-3.761,14.271
	c0.325,0,1.538-1.855,2.695-4.124s3.352-5.847,4.877-7.952s3.255-5.762,3.845-8.126c3.031-12.15,4.5-37.182,3.164-53.939
	c-0.365-4.585-0.088-6.042,1.482-7.779c1.159-1.283,2.415-5.025,3.14-9.358c0.665-3.972,2.342-13.971,3.727-22.221
	s2.963-16.146,3.507-17.545c1.133-2.912,4.985-20.776,6.246-28.955c0.466-3.025,1.977-10.187,3.356-15.915
	c2.677-11.113,4.584-27.79,4.589-40.142c0.005-8.985-2.552-23.273-7.594-42.443l-3.683-14l-0.214-25.5
	c-0.118-14.025-0.531-28.65-0.917-32.5c-1.247-12.423-2.77-21.952-3.823-23.93c-1.003-1.881-1.063-1.883-2.397-0.059
	c-0.753,1.029-1.368,3.306-1.368,5.058c0,4.079-2.312,6.248-4.617,4.333c-1.908-1.583-1.523-10.195,1.043-23.402
	c4.325-22.252,3.012-41.507-3.707-54.342c-4.499-8.595-14.441-21.868-20.44-27.287c-4.36-3.939-14.757-11.152-17.547-12.174
	c-0.973-0.356-7.386-0.219-14.253,0.305c-13.306,1.016-17.479,0.29-17.479-3.04c0-0.945,1.013-2.406,2.25-3.248l2.25-1.53l-6-5.871
	c-3.3-3.229-9.86-8.233-14.579-11.122c-4.719-2.889-11.223-7.487-14.453-10.218c-3.476-2.938-6.241-4.6-6.772-4.068
	c-0.532,0.532-0.5,2.769,0.077,5.479c0.783,3.67,0.688,4.82-0.481,5.79c-4.473,3.712-7.245-5.408-7.271-23.923
	c-0.019-12.385-0.145-13.25-1.937-13.25c-1.054,0-2.066,0.337-2.25,0.75c-0.969,2.18-24.128,22.472-26.983,23.643
	c-4.834,1.982-19.419,2.946-25.131,1.661c-6.222-1.4-10.329-4.211-15.065-10.309c-2.115-2.724-4.198-4.568-4.628-4.099
	s-1.295,4.414-1.922,8.764c-1.747,12.127-5.104,16.292-17.043,21.143c-6.514,2.646-21.79,12.631-23.883,15.611
	c-1.207,1.717-0.905,2.068,3.434,3.987c4.111,1.819,5.92,2.019,13.323,1.474c4.711-0.347,11.041-1.047,14.066-1.555
	c9.221-1.55,22.555-1.311,24,0.43c2.479,2.987-0.416,4.164-11.968,4.865c-6.035,0.367-14.468,1.39-18.74,2.273
	c-9.149,1.892-16.823,1.381-26.292-1.75c-11.272-3.728-28.508-2.101-40.319,3.806c-4.664,2.332-15.156,9.444-22.996,15.587
	c-4.604,3.608-10.686,12.358-10.686,15.376c0,1.602,0.781,2.355,2.931,2.828c7.589,1.667,5.453,5.978-3.945,7.961
	c-11.181,2.36-17.104,5.182-25.5,12.146c-4.392,3.644-8.354,7.267-8.806,8.053c-0.483,0.841,0.021,4.394,1.225,8.642
	c1.816,6.408,4.979,27.163,6.521,42.789c0.658,6.667-1.078,10.175-4.118,8.323c-1.964-1.196-2.062-1.691-5.324-26.898
	c-1.878-14.51-4.797-27.316-10.03-44c-4.909-15.651-5.276-19.399-4.648-47.5c0.604-27.023,1.165-32.415,4.837-46.5
	c2.972-11.398,4.997-15.086,12.64-23.021c4.826-5.01,7.14-8.304,8.078-11.5c2.399-8.172,10.104-20.99,16.023-26.652
	c4.615-4.415,5.348-5.55,4.116-6.371c-1.777-1.183-7.235-0.386-11.673,1.704c-1.745,0.822-6.107,4.498-9.694,8.167
	c-9.644,9.868-15.568,14.568-20.854,16.548c-6.08,2.277-14.026,9.44-16.779,15.126c-1.187,2.452-2.295,6.83-2.463,9.728
	s-0.357,5.607-0.42,6.02s-1.004,0.75-2.092,0.75c-2.479,0-4.538-3.105-6.202-9.356c-1.257-4.721-1.221-4.916,1.286-7
	c1.418-1.179,3.973-4.212,5.677-6.739c4.255-6.31,9.538-10.723,16.752-13.995c3.354-1.521,6.651-3.432,7.329-4.249
	c2.167-2.611,2.4-8.2,0.659-15.782c-1.438-6.262-1.59-10.408-1-27.38c0.49-14.106,0.351-21.271-0.471-24.314
	c-1.842-6.817-3.474-4.701-4.16,5.394c-0.333,4.906-1.186,10.945-1.894,13.42c-0.708,2.475-1.561,8.55-1.894,13.5l-0.606,9
	l-3.267,0.314c-1.797,0.173-4.607-0.354-6.244-1.17c-2.795-1.395-3.397-1.298-9.879,1.582c-3.796,1.687-7.572,2.81-8.391,2.496
	c-1.143-0.438-1.654-3.328-2.202-12.444c-0.608-10.124-0.404-13.3,1.385-21.558c2.502-11.547,2.668-14.875,0.706-14.123
	c-1.581,0.606-5.935,9.898-7.454,15.903c-2.469,9.765-2.312,24.64,0.351,33.137c0.987,3.148-4.071,8.483-8.362,8.821
	c-4.821,0.379-7.456,5.117-7.322,13.169c0.277,16.668,6.063,38.151,13.088,48.599c1.581,2.351,3.339,5.968,3.906,8.039
	c0.92,3.357,0.767,4.079-1.417,6.674c-2.178,2.588-2.883,5.876-6.38,29.735c-2.163,14.754-4.397,33.351-4.965,41.326
	c-1.12,15.714-1.225,45.864-0.194,55.491c0.562,5.255,0.979,6.152,3.392,7.305c3.119,1.49,3.512,4.291,1.644,11.712
	c-0.873,3.468-0.761,6.457,0.536,14.193c2.078,12.401,3.261,16.063,5.594,17.312c2.184,1.168,26.77,4.971,32.204,4.981
	c7.072,0.012,25.234-8.01,31.623-13.968c2.297-2.142,6.758-5.358,9.913-7.147s8.604-5.668,12.108-8.621
	c4.766-4.014,7.032-5.291,8.992-5.062c3.563,0.415,3.771,2.898,0.561,6.713c-3.369,4.004-2.54,4.898,2.454,2.647
	c7.301-3.292,20.768-20.114,26.048-32.537c2.158-5.079,2.269-6.215,1.502-15.5c-0.455-5.51-0.739-12.183-0.632-14.828
	c0.11-2.69-0.462-6.082-1.298-7.698c-1.497-2.895-7.335-7.993-9.152-7.993c-1.27,0-5.344-3.815-5.344-5.004
	c0-2.156,3.817-2.972,7.66-1.636c2.112,0.733,5.457,1.137,7.433,0.896c3.339-0.407,3.725-0.167,5.455,3.403
	c1.384,2.857,1.906,6.403,2.034,13.841c0.297,17.214,1.328,23.242,5.475,32c5.407,11.421,9.42,15.243,19.593,18.662
	c14.934,5.018,53.121,6.323,70.726,2.416c6.092-1.352,7.422-2.097,11.693-6.551c4.563-4.76,8.057-6.251,9.432-4.026
	c0.34,0.55,1.477,1,2.524,1c1.049,0,3.224,1.288,4.834,2.861c2.019,1.974,5.387,3.525,10.853,5
	c7.002,1.89,10.572,2.139,30.659,2.139c24.495,0,34.162-1.271,39.076-5.137c5.241-4.122,15.115-28.489,17.574-43.363
	c1.827-11.057,1.883-11.249,3.441-11.847c2.965-1.138,4.817,2.318,4.172,7.784c-0.75,6.358-3.982,18.953-7.182,27.983
	c-2.913,8.221-3.028,12.729-0.861,33.689c1.023,9.898,1.383,19.321,1.009,26.405c-0.568,10.77-0.514,11.16,2.471,17.469
	c1.678,3.549,3.693,10.135,4.479,14.635c0.784,4.499,2.626,11.899,4.092,16.443c2.282,7.077,3.564,9.242,8.937,15.097
	c8.84,9.632,11.604,15.652,11.222,24.44c-0.251,5.772-0.598,6.937-2.155,7.233c-2.854,0.545-3.573-0.838-4.571-8.782
	c-0.663-5.282-1.514-7.936-3.03-9.448c-1.823-1.819-2.247-1.9-3.136-0.603c-1.646,2.399-0.372,43.643,1.697,55
	c2.092,11.477,2.138,13.769,0.922,45.5c-0.527,13.75-0.974,27.889-0.992,31.419l-0.033,6.42l-7.5,6.259
	c-14.645,12.222-15.284,13.018-20.028,24.902c-3.798,9.516-5.149,11.742-10.018,16.5c-3.096,3.025-7.051,6.547-8.791,7.826
	c-3.59,2.64-3.804,3.391-1.592,5.603c3.536,3.536,10.398,0.605,21.149-9.031c10.657-9.553,15.4-11.33,19.24-7.209
	c3.116,3.346,2.622,6.535-1.379,8.896c-3.141,1.854-3.515,2.603-4.604,9.217c-2.702,16.422-6.097,27.066-12.983,40.708
	c-1.647,3.264-2.995,6.847-2.995,7.963C369.699,712.584,372.107,712.644,374.605,710.146z M342.984,341.551
	c-5.969-2.55-5.113-9.322,1.384-10.953c3.312-0.831,11.331,2.968,11.331,5.368c0,2.218-3.765,5.656-7,6.39
	C347.324,342.669,344.752,342.307,342.984,341.551z M185.734,341.318c-3.906-1.536-6.777-8.865-3.785-9.662
	c9.708-2.583,10.141-2.578,13,0.148c3.135,2.989,3.413,4.856,1.193,8.025c-1.155,1.648-2.511,2.202-5.25,2.144
	C188.861,341.929,186.54,341.635,185.734,341.318z M128.04,324.497c-0.932-2.429,0.684-4.783,7.114-10.363
	c6.092-5.288,9.702-6.274,10.358-2.833c0.432,2.267-2.459,5.881-8.641,10.803C131.586,326.312,129.004,327.011,128.04,324.497z
	 M271.949,308.39c-2.028-0.818-1.438-4.224,1.369-7.905c2.781-3.647,5.771-4.464,6.773-1.851c1.166,3.038,0.589,5.527-1.848,7.963
	C275.838,309.004,274.451,309.399,271.949,308.39z M272.901,287.795c-1.56-1.88-0.071-11.798,1.964-13.079
	c3.656-2.301,6.893,4.829,4.58,10.091C277.57,289.077,274.955,290.271,272.901,287.795z M179.668,251.228
	c-2.063-1.671-2.214-2.176-1.064-3.562c0.737-0.888,2.21-1.615,3.274-1.615s3.207-1.393,4.761-3.096
	c3.195-3.498,6.388-3.589,6.873-0.198c0.389,2.724-5.265,8.979-8.876,9.82C182.898,252.982,181.298,252.547,179.668,251.228z
	 M355.581,249.169c-2.74-2.741-3.882-4.743-3.882-6.809c0-6.57,6.2-8.89,6.813-2.549c0.204,2.113,1.195,3.853,2.845,4.992
	c5.309,3.667,6.561,5.281,5.286,6.816C364.372,254.355,359.742,253.33,355.581,249.169z M263.397,237.271
	c-1.971-2.178-2.265-6.864-0.469-7.462c0.677-0.226,2.482,0.063,4.015,0.641c2.446,0.924,3.09,0.721,5.311-1.673
	c2.759-2.976,5.91-3.563,6.791-1.267c0.308,0.802-0.882,3.614-2.643,6.25c-2.844,4.253-3.658,4.826-7.255,5.09
	C266.187,239.067,264.639,238.642,263.397,237.271z M318.699,233.636c-3.025-0.731-10.738-2.117-17.141-3.08
	c-12.955-1.949-14.213-2.419-13.699-5.124c0.623-3.289,9.801-2.987,27.84,0.916c3.025,0.654,11.793,1.193,19.484,1.197
	c12.338,0.006,14.023,0.206,14.312,1.699c0.209,1.079-0.836,2.293-2.884,3.353C342.317,234.817,326.093,235.422,318.699,233.636z
	 M266.665,220.739c-7.009-3.285-11.507-8.113-10.355-11.115c0.948-2.472,4.001-1.853,7.948,1.614
	c2.828,2.482,3.988,2.958,5.258,2.158c0.896-0.565,4.601-5.411,8.23-10.768c6.83-10.078,8.241-11.535,11.203-11.561
	c3.444-0.03,1.602,4.537-7.057,17.485C272.826,222.109,271.631,223.066,266.665,220.739z M400.147,706.821
	c0.854-1.218,1.539-2.902,1.524-3.742c-0.03-1.716-6.973,5.247-6.973,6.993C394.699,711.632,398.271,709.501,400.147,706.821z
	 M391.302,590.802c1.317-4.117,1.849-11.505,2.466-34.25c0.716-26.42,0.607-30.156-1.214-42
	c-1.541-10.018-2.064-19.127-2.282-39.704c-0.239-22.598-0.531-27.084-1.901-29.175c-1.712-2.613-8.66-24.554-8.687-27.429
	c-0.008-0.931-0.442-2.367-0.964-3.192c-1.694-2.68-3.49,0.766-6.964,13.356c-3.642,13.201-3.743,18.695-0.603,32.644
	c2.15,9.549,5.557,35.109,5.464,41c-0.038,2.475-0.64,6.075-1.336,8c-1.158,3.206-0.946,4.425,2.529,14.5
	c3.86,11.192,5.356,21.447,6.49,44.5c0.442,8.996,2.14,23.161,3.062,25.566C388.382,597.273,389.612,596.081,391.302,590.802z
	 M268.199,184.473c7.348-1.019,9.254-1.96,16.051-7.927c15.735-13.815,23.079-21.889,25.294-27.808
	c3.497-9.347,2.735-12.819-2.307-10.521c-2.157,0.983-2.89,0.913-4.204-0.402c-1.722-1.722-1.229-2.725,5.786-11.763
	c5.613-7.231,7.758-22.342,3.873-27.282c-1.104-1.404-5.348-5.065-9.43-8.138c-6.429-4.839-7.698-6.323-9.482-11.094
	c-1.134-3.029-2.338-7.241-2.677-9.359c-0.945-5.91-1.861-6.935-4.624-5.176c-9.95,6.333-16.856,6.546-30.536,0.94l-3.255-1.334
	l-7.745,7.572c-8.561,8.369-12.113,11.012-17.061,12.689c-1.824,0.618-4.074,2.011-5,3.096c-0.926,1.084-2.56,2.11-3.63,2.279
	c-1.569,0.247-2.114-0.518-2.809-3.943c-0.96-4.733-3.172-5.665-4.155-1.75c-1.193,4.754,1.537,11.47,3.874,9.53
	c4.059-3.368,8.525,11.333,5.169,17.014c-2.212,3.745-2.063,5.993,0.854,12.925c1.368,3.25,2.882,9.424,3.364,13.72
	s2.022,10.735,3.422,14.311s2.845,7.524,3.211,8.777c0.366,1.252,1.763,2.995,3.102,3.872s3.169,3.143,4.067,5.035
	c3.024,6.374,9.387,12.306,15.346,14.309c3.025,1.017,6.175,1.685,7,1.485C262.524,185.329,265.449,184.854,268.199,184.473z
	 M256.699,170.799c-3.227-1.686-3.4-5.276-0.25-5.176c1.237,0.04,4.95,0.152,8.25,0.25c6.065,0.181,7.694,1.539,4.75,3.963
	C267.273,171.627,259.419,172.22,256.699,170.799z M241.855,160.449c-2.27-1.59-2.822-3.868-1.184-4.88
	c2.588-1.599,16.248-4.041,22.027-3.938c13.878,0.248,20.061,2.213,18.638,5.924c-1.024,2.67-5.263,3.445-21.494,3.931
	C246.788,161.876,243.633,161.694,241.855,160.449z M246.699,145.231c-3.79-1.159-5.406-5.271-3.688-9.384
	c3.023-7.232,7.206-7.438,6.137-0.302l-0.648,4.316l7.518,0.705c4.135,0.387,8.117,0.333,8.85-0.12s3.132-1.072,5.332-1.375l4-0.55
	l-0.326-4.314c-0.299-3.954-0.143-4.287,1.867-3.985c3.239,0.487,5.599,6.872,3.981,10.775c-0.663,1.601-1.848,3.157-2.632,3.458
	C274.65,145.391,249.337,146.038,246.699,145.231z M255.02,135.25c-0.78-0.482-1.119-3.574-1-9.112l0.18-8.383l-2.92-0.991
	c-2.015-0.685-3.893-0.639-6.065,0.146c-2.642,0.956-3.81,0.817-7.282-0.86c-2.275-1.099-4.957-1.998-5.961-1.998
	c-2.921,0-6.271-2.912-6.271-5.45c0-3.064,0.745-3.271,12.468-3.47c5.474-0.092,10.183-0.398,10.464-0.679
	c1.369-1.37-3.278-2.373-11.059-2.387c-8.98-0.016-11.778-1.214-10.517-4.502c0.468-1.218,2.585-1.506,10.862-1.477
	c11.739,0.04,13.119,0.578,18.016,7.026c4.197,5.526,5.408,13.134,3.752,23.577C258.562,133.775,257.066,136.516,255.02,135.25z
	 M278.449,115.365c-4.14-0.369-4.75-0.713-4.75-2.681c0-1.242,1.238-3.444,2.75-4.894c3.797-3.637,9.399-4.361,17.077-2.207
	c5.269,1.479,6.173,2.068,6.173,4.029c0,2.938-2.498,5.439-5.432,5.439c-1.26,0-4.265,0.166-6.679,0.369
	C285.174,115.623,281.062,115.598,278.449,115.365z M294.079,102.554c-3.171-1-6.128-1.066-12.833-0.285
	c-9.064,1.057-11.154,0.527-9.98-2.531c0.914-2.382,6.704-3.675,16.496-3.681c8.242-0.005,8.673,0.109,11.482,3.042
	c2.438,2.544,2.676,3.202,1.438,3.985C298.948,104.18,299.328,104.21,294.079,102.554z M14.004,123.637
	c0.692-2.078,0.507-5.379-0.646-11.5c-0.89-4.722-1.912-11.735-2.27-15.585c-1.098-11.78-2.721-11.981-5.376-0.667
	c-1.678,7.15-0.431,17.683,3.553,29.99C9.992,128.122,12.981,126.71,14.004,123.637z M330.701,113.047
	c2.447-5.908-0.802-9.346-3.751-3.969c-0.963,1.756-2.98,5.056-4.482,7.333c-1.503,2.277-2.74,4.955-2.75,5.95
	C319.692,124.886,329.103,116.906,330.701,113.047z M49.86,92.971c0.363-9.58,1.128-20.536,1.7-24.346
	c1.037-6.916,0.795-9.097-0.893-8.053c-2.219,1.372-7.968,29.843-7.968,39.463c0,5.754,0.371,7.388,2.062,9.079
	C48.652,113.005,49.161,111.394,49.86,92.971z M36.629,96.302c-0.054-2.856-0.255-3.277-0.845-1.766
	c-0.714,1.83-0.359,5.516,0.532,5.516C36.526,100.052,36.667,98.364,36.629,96.302z M324.724,97.487
	c0.537-1.411,0.976-5.882,0.976-9.935c0-8.821,1.17-12.5,3.976-12.5c2.341,0,2.184-0.505,2.613,8.377
	c0.183,3.783,0.564,7.109,0.848,7.393c1.115,1.115,3.536-2.171,5.125-6.957c2.235-6.729,1.519-13.583-1.971-18.855
	c-2.398-3.625-3.035-4.02-5.584-3.459c-4.008,0.88-5.644-2.11-6.295-11.504c-0.837-12.064-7.42-23.995-13.241-23.995
	c-2.678,0-3.471,1.688-3.471,7.391c0,4.969-1.85,7.983-4.566,7.441c-1.701-0.338-1.938-1.286-1.972-7.858
	c-0.057-11.318-0.16-11.691-4.57-16.476c-11.788-12.789-28.009-12.958-42.948-0.45c-5.6,4.688-9.211,5.952-16.998,5.952
	c-6.69,0-8.962,1.721-12.331,9.338c-2.281,5.157-8.453,11.662-11.064,11.662c-0.759,0-2.656,1.348-4.215,2.995
	c-2.561,2.707-2.895,3.888-3.458,12.25c-0.412,6.117-1.514,11.759-3.251,16.641c-2.213,6.219-2.469,7.979-1.62,11.134
	c0.555,2.061,1.615,4.25,2.355,4.864c1.1,0.913,1.46-0.229,1.967-6.236c0.778-9.202,1.201-10.279,4.502-11.476
	c1.468-0.532,3.401-1.265,4.294-1.629c1.057-0.43,2.804,0.421,5,2.435c6.807,6.242,9.894,5.115,23.208-8.467
	c6.994-7.136,10.116-9.608,13.168-10.427c5.029-1.349,8.623-1.368,12.056-0.063c2.29,0.871,2.601,1.447,2.108,3.91
	c-0.62,3.099,0.516,4.069,4.761,4.069c2.98,0,15.196-8.781,19.382-13.931c3.387-4.168,6.793-5.276,7.84-2.549
	c0.32,0.836-0.354,4.099-1.497,7.25c-3.196,8.806-3.507,12.327-1.667,18.854c2.014,7.143,2.463,7.738,10.018,13.272
	c8.097,5.932,11.532,9.169,12.576,11.855C321.932,100.778,323.521,100.651,324.724,97.487z M58.338,79.881
	c0.499-11.718-1.424-8.696-2.315,3.638c-0.462,6.4-0.326,7.795,0.669,6.862C57.454,89.667,58.096,85.568,58.338,79.881z"/>
</svg>
