<?xml version="1.0" encoding="utf-8"?>
<!-- Generator: Adobe Illustrator 15.1.0, SVG Export Plug-In . SVG Version: 6.00 Build 0)  -->
<!DOCTYPE svg PUBLIC "-//W3C//DTD SVG 1.1//EN" "http://www.w3.org/Graphics/SVG/1.1/DTD/svg11.dtd">
<svg version="1.1"
	 id="svg2112" xmlns:inkscape="http://www.inkscape.org/namespaces/inkscape" xmlns:svg="http://www.w3.org/2000/svg" xmlns:rdf="http://www.w3.org/1999/02/22-rdf-syntax-ns#" xmlns:cc="http://web.resource.org/cc/" xmlns:dc="http://purl.org/dc/elements/1.1/" sodipodi:docname="S1R.svg" inkscape:version="0.44.1" xmlns:sodipodi="http://sodipodi.sourceforge.net/DTD/sodipodi-0.dtd" sodipodi:docbase="C:\Documents and Settings\Billy Graham\My Documents\InTray" sodipodi:version="0.32"
	 xmlns="http://www.w3.org/2000/svg" xmlns:xlink="http://www.w3.org/1999/xlink" x="0px" y="0px" width="605.071px"
	 height="360.85px" viewBox="0 0 605.071 360.85" enable-background="new 0 0 605.071 360.85" xml:space="preserve">
<sodipodi:namedview  inkscape:window-y="-4" inkscape:window-x="-4" inkscape:window-height="998" inkscape:window-width="1280" inkscape:current-layer="g10844" inkscape:cy="219.59167" inkscape:cx="393.46423" inkscape:zoom="2.0895108" inkscape:pageshadow="2" inkscape:pageopacity="0.0" borderopacity="1.0" bordercolor="#666666" pagecolor="#ffffff" id="base" guidetolerance="10.0" gridtolerance="10.0" objecttolerance="10.0">
	</sodipodi:namedview>
<g id="g3057" transform="translate(508.4235,0.432993)">
</g>
<g id="g5845">
	<g id="g4520" transform="translate(509.2056,-32.49284)">
		<g id="g4522">
			<path id="path4524" fill="none" stroke="#FFFFFF" d="M-106.734,166.234l-0.047-13.988"/>
			<path id="path4526" fill="none" stroke="#FFFFFF" d="M-93.295,166.27l-0.045-14.302"/>
			<path id="path4528" fill="none" stroke="#FFFFFF" d="M-106.84,165.76l13.523-0.021"/>
			<path id="path4530" fill="none" stroke="#FFFFFF" d="M-107.26,151.782l14.428-0.021"/>
			<path id="path4532" fill="none" stroke="#FFFFFF" d="M-93.252,151.551l-4.992-8.043"/>
			<path id="path4534" fill="none" stroke="#FFFFFF" d="M-106.84,151.551l4.992-8.043"/>
			<path id="path4536" fill="none" stroke="#FFFFFF" d="M-97.826,143.598l-4.439,0.02"/>
			<path id="path4538" fill="none" stroke="#FFFFFF" d="M-101.764,143.451l0.029-14.28"/>
			<path id="path4540" fill="none" stroke="#FFFFFF" d="M-98.299,143.457l0.031-14.249"/>
			<path id="path4542" fill="none" stroke="#FFFFFF" d="M-97.881,129.67h-4.043"/>
			<path id="path4544" fill="none" stroke="#FFFFFF" d="M-98.26,129.731l-0.936-18.553"/>
			<path id="path4546" fill="none" stroke="#FFFFFF" d="M-101.74,129.736l0.936-18.552"/>
			<path id="path4548" fill="none" stroke="#FFFFFF" d="M-100.842,111.346c0.885-2.651,1.229-2.65,1.658-0.154
				c0.002,0.019-0.008,0.037-0.012,0.056"/>
			<path id="path4550" fill="none" stroke="#FFFFFF" d="M-100.84,112.889l1.75,0.062"/>
		</g>
		<path id="path4552" fill="none" stroke="#FFFFFF" d="M-101.537,165.76l-0.045,3.005"/>
		<path id="path4554" fill="none" stroke="#FFFFFF" d="M-98.576,165.715l-0.045,3.05"/>
		<path id="path4556" fill="none" stroke="#FFFFFF" d="M-102.07,168.809h3.982"/>
		<path id="path4558" fill="none" stroke="#FFFFFF" d="M-101.537,168.809l-2.785,6.407l-0.133,1.326l0.619,0.265l7.469,0.134
			l0.752-0.354l-0.133-1.148l-3.049-6.763"/>
	</g>
	<g id="g5817">
		<path id="path3059" fill="none" stroke="#FFFFFF" d="M397.469,299.214l-0.09-76.16"/>
		<path id="path3061" fill="none" stroke="#FFFFFF" d="M419.69,299.081l-22.721,0.133"/>
		<path id="path3063" fill="none" stroke="#FFFFFF" d="M397.797,227.161h20.982"/>
		<path id="path3065" fill="none" stroke="#FFFFFF" d="M419.278,223.233l-0.088,75.981"/>
		<path id="path3067" fill="none" stroke="#FFFFFF" d="M397.682,285.241h21.225"/>
		<path id="path3069" fill="none" stroke="#FFFFFF" d="M402.459,285.108l0.088-58.035"/>
		<path id="path3071" fill="none" stroke="#FFFFFF" d="M408.575,285.464l-0.135-58.125"/>
		<path id="path3073" fill="none" stroke="#FFFFFF" d="M414.512,285.375v-58.17"/>
		<path id="path3075" fill="none" stroke="#FFFFFF" d="M397.516,223.277h21.453"/>
		<path id="path3077" fill="none" stroke="#FFFFFF" d="M401.266,298.98l1.697,2.401v0.632h-4.414v-0.568l1.51-2.465"/>
		<path id="path3079" fill="none" stroke="#FFFFFF" d="M408.688,298.886l1.691,2.471v0.65h-4.404v-0.585l1.508-2.536"/>
		<path id="path3081" fill="none" stroke="#FFFFFF" d="M416.594,298.886l1.691,2.471v0.65h-4.404v-0.585l1.508-2.536"/>
		<path id="path3083" fill="none" stroke="#FFFFFF" d="M405.055,299.004l-2.039,2.99h2.58"/>
		<path id="path3085" fill="none" stroke="#FFFFFF" d="M411.565,299.083l2.344,2.885h-3.635"/>
		<path id="path5795" fill="none" stroke="#FFFFFF" d="M397.571,285.451l-9.09,10.739l-0.035,5.197l9.014-2.702"/>
		<path id="path5799" fill="none" stroke="#FFFFFF" d="M419.118,285.451l9.088,10.739l0.037,5.197l-9.016-2.703"/>
		<path id="path4560" fill="none" stroke="#FFFFFF" d="M397.389,225.652v-66.664"/>
		<path id="path4562" fill="none" stroke="#FFFFFF" d="M419.319,224.256v-65.28"/>
		<path id="path4564" fill="none" stroke="#FFFFFF" d="M397.667,195.298l21.586-0.062"/>
		<path id="path4566" fill="none" stroke="#FFFFFF" d="M397.413,195.537l7.939,10.845l1.877,1.541h1.537l1.195-0.925l9.561-11.153"
			/>
		<path id="path4568" fill="none" stroke="#FFFFFF" d="M408.235,208.048l-2.188,4.594l-0.688,1.844l-0.096,1.47l0.346,0.625
			l6.5-0.031l0.469-0.531l-0.25-1.469l-0.562-1.594l-2.531-4.906"/>
		<path id="path4570" fill="none" stroke="#FFFFFF" d="M397.227,159.215l22.01,0.044"/>
		<path id="path4572" fill="none" stroke="#FFFFFF" d="M397.758,162.265l21.213-0.045"/>
		<path id="path4574" fill="none" stroke="#FFFFFF" d="M397.762,172.296h21.514"/>
		<path id="path4576" fill="none" stroke="#FFFFFF" d="M402.487,133.318l-5.082,26.429"/>
		<path id="path4578" fill="none" stroke="#FFFFFF" d="M415.899,133.406l3.58,26.206"/>
	</g>
</g>
<g id="g5894" transform="translate(80.65612,5.588e-2)">
	<g id="g5936">
		<path id="path5938" fill="none" stroke="#FFFFFF" d="M397.469,299.215l-0.09-76.161"/>
		<path id="path5940" fill="none" stroke="#FFFFFF" d="M419.69,299.081l-22.723,0.133"/>
		<path id="path5942" fill="none" stroke="#FFFFFF" d="M397.797,227.161h20.982"/>
		<path id="path5944" fill="none" stroke="#FFFFFF" d="M419.278,223.232l-0.088,75.981"/>
		<path id="path5946" fill="none" stroke="#FFFFFF" d="M397.682,285.241h21.225"/>
		<path id="path5948" fill="none" stroke="#FFFFFF" d="M402.46,285.107l0.088-58.036"/>
		<path id="path5950" fill="none" stroke="#FFFFFF" d="M408.575,285.465l-0.135-58.125"/>
		<path id="path5952" fill="none" stroke="#FFFFFF" d="M414.512,285.375v-58.169"/>
		<path id="path5954" fill="none" stroke="#FFFFFF" d="M397.516,223.277h21.453"/>
		<path id="path5956" fill="none" stroke="#FFFFFF" d="M401.266,298.98l1.697,2.4v0.632h-4.414v-0.567l1.51-2.465"/>
		<path id="path5958" fill="none" stroke="#FFFFFF" d="M408.688,298.886l1.691,2.473v0.649h-4.404v-0.586l1.508-2.536"/>
		<path id="path5960" fill="none" stroke="#FFFFFF" d="M416.594,298.886l1.691,2.473v0.649h-4.404v-0.586l1.508-2.536"/>
		<path id="path5962" fill="none" stroke="#FFFFFF" d="M405.053,299.004l-2.037,2.99h2.58"/>
		<path id="path5964" fill="none" stroke="#FFFFFF" d="M411.565,299.084l2.344,2.884h-3.635"/>
		<path id="path5966" fill="none" stroke="#FFFFFF" d="M397.571,285.451l-9.09,10.741l-0.035,5.195l9.014-2.702"/>
		<path id="path5968" fill="none" stroke="#FFFFFF" d="M419.118,285.451l9.088,10.74l0.037,5.196l-9.016-2.702"/>
		<path id="path5970" fill="none" stroke="#FFFFFF" d="M397.389,225.651v-66.663"/>
		<path id="path5972" fill="none" stroke="#FFFFFF" d="M419.319,224.256v-65.28"/>
		<path id="path5974" fill="none" stroke="#FFFFFF" d="M397.667,195.298l21.586-0.062"/>
		<path id="path5976" fill="none" stroke="#FFFFFF" d="M397.413,195.537l7.939,10.845l1.877,1.541h1.537l1.195-0.925l9.561-11.153"
			/>
		<path id="path5978" fill="none" stroke="#FFFFFF" d="M408.235,208.048l-2.188,4.594l-0.688,1.845l-0.096,1.469l0.346,0.625
			l6.5-0.031l0.469-0.531l-0.25-1.469l-0.562-1.594l-2.531-4.906"/>
		<path id="path5980" fill="none" stroke="#FFFFFF" d="M397.227,159.215l22.01,0.045"/>
		<path id="path5984" fill="none" stroke="#FFFFFF" d="M397.762,172.297h21.514"/>
		<path id="path6000" fill="none" stroke="#FFFFFF" d="M397.407,159.272c0,0,5.119-15.094,5.385-15.63
			c0.258-0.52,4.758-7.12,5.352-7.12c0.531,0,5.896,6.427,6.197,7.061c0.264,0.561,4.953,13.721,4.941,15.627"/>
		<g id="g9514" transform="translate(15.2028,0)">
			<path id="path6003" fill="none" stroke="#FFFFFF" d="M454.849,299.207l-0.09-76.161"/>
			<path id="path6005" fill="none" stroke="#FFFFFF" d="M477.069,299.073l-22.723,0.133"/>
			<path id="path6007" fill="none" stroke="#FFFFFF" d="M455.177,227.153h20.982"/>
			<path id="path6009" fill="none" stroke="#FFFFFF" d="M476.657,223.225l-0.088,75.982"/>
			<path id="path6011" fill="none" stroke="#FFFFFF" d="M455.061,285.233h21.225"/>
			<path id="path6013" fill="none" stroke="#FFFFFF" d="M459.837,285.1l0.09-58.035"/>
			<path id="path6015" fill="none" stroke="#FFFFFF" d="M465.954,285.457l-0.135-58.125"/>
			<path id="path6017" fill="none" stroke="#FFFFFF" d="M471.892,285.367v-58.169"/>
			<path id="path6019" fill="none" stroke="#FFFFFF" d="M454.895,223.271h21.453"/>
			<path id="path6021" fill="none" stroke="#FFFFFF" d="M458.645,298.972l1.697,2.401v0.633h-4.416v-0.569l1.512-2.465"/>
			<path id="path6023" fill="none" stroke="#FFFFFF" d="M466.067,298.878l1.691,2.472V302h-4.404v-0.586l1.508-2.536"/>
			<path id="path6025" fill="none" stroke="#FFFFFF" d="M473.974,298.878l1.691,2.472V302h-4.404v-0.586l1.508-2.536"/>
			<path id="path6027" fill="none" stroke="#FFFFFF" d="M462.433,298.996l-2.037,2.99h2.58"/>
			<path id="path6029" fill="none" stroke="#FFFFFF" d="M468.944,299.076l2.344,2.884h-3.635"/>
			<path id="path6031" fill="none" stroke="#FFFFFF" d="M454.948,285.443l-9.088,10.74l-0.037,5.196l9.016-2.702"/>
			<path id="path6033" fill="none" stroke="#FFFFFF" d="M476.497,285.443l9.088,10.739l0.037,5.197l-9.016-2.702"/>
			<path id="path6035" fill="none" stroke="#FFFFFF" d="M454.769,225.644V158.98"/>
			<path id="path6037" fill="none" stroke="#FFFFFF" d="M476.698,224.248v-65.28"/>
			<path id="path6039" fill="none" stroke="#FFFFFF" d="M455.046,195.29l21.586-0.062"/>
			<path id="path6041" fill="none" stroke="#FFFFFF" d="M454.792,195.529l7.939,10.846l1.877,1.54h1.537l1.195-0.924l9.561-11.153"
				/>
			<path id="path6043" fill="none" stroke="#FFFFFF" d="M465.614,208.04l-2.188,4.594l-0.689,1.844l-0.094,1.47l0.344,0.625
				l6.5-0.031l0.471-0.531l-0.25-1.469l-0.562-1.594l-2.531-4.906"/>
			<path id="path6045" fill="none" stroke="#FFFFFF" d="M454.606,159.207l22.01,0.045"/>
			<path id="path6047" fill="none" stroke="#FFFFFF" d="M455.142,172.289h21.514"/>
			<path id="path6049" fill="none" stroke="#FFFFFF" d="M454.786,159.263c0,0,2.898-24.89,5.385-30.577
				c2.486-5.687,4.162-7.476,5.352-7.476c1.191,0,3.615,2.219,6.197,7.414c2.58,5.195,4.953,28.67,4.941,30.576"/>
		</g>
	</g>
</g>
<g id="g4610" transform="translate(-3.9738,-11.66726)">
	<path id="path2209" fill="none" stroke="#FFFFFF" d="M20.48,227.074h18.989"/>
	<path id="path2211" fill="none" stroke="#FFFFFF" d="M19.989,234.782l0.998-8.096"/>
	<path id="path2215" fill="none" stroke="#FFFFFF" d="M39.916,234.778l-0.998-8.096"/>
	<g id="g3011">
		<path id="path2173" fill="none" stroke="#FFFFFF" d="M20.019,311.136l-0.089-76.161"/>
		<path id="path2183" fill="none" stroke="#FFFFFF" d="M40.421,311.047l-20.892,0.088"/>
		<path id="path2187" fill="none" stroke="#FFFFFF" d="M20.064,239.084h20.223"/>
		<path id="path2191" fill="none" stroke="#FFFFFF" d="M39.974,235.154l-0.089,75.982"/>
		<path id="path2193" fill="none" stroke="#FFFFFF" d="M20.109,297.163H39.93"/>
		<path id="path2197" fill="none" stroke="#FFFFFF" d="M23.947,297.029l0.089-58.036"/>
		<path id="path2199" fill="none" stroke="#FFFFFF" d="M30.064,297.386l-0.134-58.125"/>
		<path id="path2203" fill="none" stroke="#FFFFFF" d="M36.001,297.296v-58.17"/>
		<path id="path2207" fill="none" stroke="#FFFFFF" d="M19.436,235.199h21.032"/>
		<path id="path2246" fill="none" stroke="#FFFFFF" d="M22.756,310.901l1.696,2.401v0.632h-4.415v-0.568l1.51-2.465"/>
		<path id="path2250" fill="none" stroke="#FFFFFF" d="M30.176,310.807l1.692,2.472v0.65h-4.403v-0.586l1.506-2.536"/>
		<path id="path2254" fill="none" stroke="#FFFFFF" d="M38.082,310.807l1.692,2.472v0.65h-4.403v-0.586l1.506-2.536"/>
		<path id="path2301" fill="none" stroke="#FFFFFF" d="M26.543,310.925l-2.039,2.989h2.581"/>
		<path id="path2303" fill="none" stroke="#FFFFFF" d="M33.054,311.005l2.344,2.884h-3.636"/>
	</g>
	<path id="path2307" fill="none" stroke="#FFFFFF" d="M38.915,227.662v-13.351"/>
	<path id="path3296" fill="none" stroke="#FFFFFF" d="M20.854,227.7v-13.351"/>
	<g id="g3335">
		<path id="path2305" fill="none" stroke="#FFFFFF" d="M20.885,215.168v-8.603"/>
		<path id="path2311" fill="none" stroke="#FFFFFF" d="M39.423,207.082l-19.046-0.042"/>
		<path id="path2313" fill="none" stroke="#FFFFFF" d="M20.886,206.682l2.293-11.904"/>
		<path id="path2315" fill="none" stroke="#FFFFFF" d="M38.912,206.715l-2.292-11.904"/>
		<path id="path2317" fill="none" stroke="#FFFFFF" d="M37.103,195.128l-14.428,0.021"/>
		<path id="path2409" fill="none" stroke="#FFFFFF" d="M23.205,195.109l-0.039-17.105"/>
		<path id="path2411" fill="none" stroke="#FFFFFF" d="M36.654,195.234l-0.039-17.105"/>
		<path id="path2550" fill="none" stroke="#FFFFFF" d="M20.862,214.927l17.898-0.088"/>
		<path id="path2552" fill="none" stroke="#FFFFFF" d="M20.82,214.787l4.493,6.493"/>
		<path id="path2556" fill="none" stroke="#FFFFFF" d="M24.926,221.069l9.991,0.047"/>
		<path id="path2558" fill="none" stroke="#FFFFFF" d="M38.814,215.183l-4.306,6.118"/>
		<g id="g2578">
			<g id="g2471">
				<path id="path2324" fill="none" stroke="#FFFFFF" d="M23.177,178.588L23.131,164.6"/>
				<path id="path2326" fill="none" stroke="#FFFFFF" d="M36.618,178.626l-0.045-14.301"/>
				<path id="path2328" fill="none" stroke="#FFFFFF" d="M23.071,178.114l13.523-0.021"/>
				<path id="path2330" fill="none" stroke="#FFFFFF" d="M22.653,164.136l14.428-0.021"/>
				<path id="path2332" fill="none" stroke="#FFFFFF" d="M36.661,163.905l-4.994-8.043"/>
				<path id="path2334" fill="none" stroke="#FFFFFF" d="M23.071,163.905l4.994-8.043"/>
				<path id="path2336" fill="none" stroke="#FFFFFF" d="M32.086,155.952l-4.438,0.02"/>
				<path id="path2340" fill="none" stroke="#FFFFFF" d="M28.149,155.805l0.03-14.28"/>
				<path id="path2342" fill="none" stroke="#FFFFFF" d="M31.613,155.811l0.03-14.249"/>
				<path id="path2348" fill="none" stroke="#FFFFFF" d="M32.032,142.024h-4.043"/>
				<path id="path2350" fill="none" stroke="#FFFFFF" d="M31.653,142.085l-0.936-18.553"/>
				<path id="path2354" fill="none" stroke="#FFFFFF" d="M28.173,142.09l0.935-18.553"/>
				<path id="path2376" fill="none" stroke="#FFFFFF" d="M29.071,123.7c0.884-2.651,1.221-2.65,1.657-0.154l-0.011,0.056"/>
				<path id="path2380" fill="none" stroke="#FFFFFF" d="M29.072,125.243l1.75,0.062"/>
			</g>
			<path id="path2534" fill="none" stroke="#FFFFFF" d="M28.375,178.114l-0.044,3.005"/>
			<path id="path2536" fill="none" stroke="#FFFFFF" d="M31.336,178.07l-0.044,3.049"/>
			<path id="path2538" fill="none" stroke="#FFFFFF" d="M27.842,181.163h3.982"/>
			<path id="path2568" fill="none" stroke="#FFFFFF" d="M28.375,181.163l-2.784,6.408l-0.132,1.326l0.619,0.265l7.469,0.134
				l0.751-0.354l-0.133-1.147l-3.049-6.763"/>
		</g>
		<path id="path2572" fill="none" stroke="#FFFFFF" d="M26.254,221.159l-1.149,2.873l-0.133,0.973l3.094,0.044l-0.088-0.885
			l-1.105-3.005"/>
		<path id="path2574" fill="none" stroke="#FFFFFF" d="M29.568,221.214l-1.149,2.872l-0.132,0.973l3.093,0.044l-0.088-0.884
			l-1.104-3.005"/>
		<path id="path2576" fill="none" stroke="#FFFFFF" d="M32.75,221.247l-1.149,2.873l-0.133,0.974l3.094,0.044l-0.088-0.884
			l-1.105-3.007"/>
		<path id="path3298" fill="none" stroke="#FFFFFF" d="M38.916,215.231v-8.07"/>
	</g>
</g>
<g id="g5117" transform="translate(66.5,0)">
	<path id="path4670" fill="none" stroke="#FFFFFF" d="M9.134,215.463h18.989"/>
	<path id="path4672" fill="none" stroke="#FFFFFF" d="M8.643,223.172l0.998-8.096"/>
	<path id="path4674" fill="none" stroke="#FFFFFF" d="M28.57,223.168l-0.998-8.098"/>
	<g id="g4676" transform="translate(-11.34622,-11.60991)">
		<path id="path4678" fill="none" stroke="#FFFFFF" d="M20.019,311.136l-0.089-76.159"/>
		<path id="path4680" fill="none" stroke="#FFFFFF" d="M40.42,311.047l-20.892,0.089"/>
		<path id="path4682" fill="none" stroke="#FFFFFF" d="M20.064,239.082h20.224"/>
		<path id="path4684" fill="none" stroke="#FFFFFF" d="M39.975,235.154l-0.089,75.98"/>
		<path id="path4686" fill="none" stroke="#FFFFFF" d="M20.108,297.163H39.93"/>
		<path id="path4688" fill="none" stroke="#FFFFFF" d="M23.948,297.029l0.089-58.036"/>
		<path id="path4690" fill="none" stroke="#FFFFFF" d="M30.064,297.386l-0.134-58.125"/>
		<path id="path4692" fill="none" stroke="#FFFFFF" d="M36.001,297.297v-58.17"/>
		<path id="path4694" fill="none" stroke="#FFFFFF" d="M19.437,235.198h21.031"/>
		<path id="path4696" fill="none" stroke="#FFFFFF" d="M22.755,310.901l1.696,2.4v0.633h-4.414v-0.568l1.51-2.465"/>
		<path id="path4698" fill="none" stroke="#FFFFFF" d="M30.176,310.807l1.691,2.471v0.649h-4.403v-0.585l1.506-2.535"/>
		<path id="path4700" fill="none" stroke="#FFFFFF" d="M38.083,310.807l1.691,2.471v0.649h-4.403v-0.585l1.506-2.535"/>
		<path id="path4702" fill="none" stroke="#FFFFFF" d="M26.543,310.926l-2.039,2.99h2.582"/>
		<path id="path4704" fill="none" stroke="#FFFFFF" d="M33.054,311.005l2.344,2.886h-3.636"/>
	</g>
	<path id="path4706" fill="none" stroke="#FFFFFF" d="M27.569,216.051V202.7"/>
	<path id="path4708" fill="none" stroke="#FFFFFF" d="M9.508,216.089v-13.35"/>
	<path id="path4712" fill="none" stroke="#FFFFFF" d="M9.539,203.557v-8.603"/>
	<path id="path4714" fill="none" stroke="#FFFFFF" d="M28.076,195.472L9.03,195.43"/>
	<path id="path4716" fill="none" stroke="#FFFFFF" d="M9.541,195.073l2.292-11.905"/>
	<path id="path4718" fill="none" stroke="#FFFFFF" d="M27.566,195.106L25.273,183.2"/>
	<path id="path4720" fill="none" stroke="#FFFFFF" d="M25.756,183.519l-14.428,0.021"/>
	<path id="path4726" fill="none" stroke="#FFFFFF" d="M9.516,203.318l17.898-0.089"/>
	<path id="path4728" fill="none" stroke="#FFFFFF" d="M9.474,203.176l4.493,6.493"/>
	<path id="path4730" fill="none" stroke="#FFFFFF" d="M13.58,209.458l9.992,0.048"/>
	<path id="path4732" fill="none" stroke="#FFFFFF" d="M27.468,203.573l-4.306,6.117"/>
	<path id="path4722" fill="none" stroke="#FFFFFF" d="M11.859,183.174l-0.039-47.209"/>
	<path id="path4724" fill="none" stroke="#FFFFFF" d="M25.308,183.798l-0.039-49.133"/>
	<g id="g4734" transform="translate(-11.34622,-40.6221)">
		<g id="g4736">
			<path id="path4738" fill="none" stroke="#FFFFFF" d="M23.177,178.588L23.131,164.6"/>
			<path id="path4740" fill="none" stroke="#FFFFFF" d="M36.618,178.624l-0.045-14.3"/>
			<path id="path4742" fill="none" stroke="#FFFFFF" d="M23.072,178.115l13.523-0.022"/>
			<path id="path4744" fill="none" stroke="#FFFFFF" d="M22.652,164.136l14.428-0.021"/>
			<path id="path4746" fill="none" stroke="#FFFFFF" d="M36.661,163.905l-4.994-8.043"/>
			<path id="path4748" fill="none" stroke="#FFFFFF" d="M23.072,163.905l4.994-8.043"/>
			<path id="path4750" fill="none" stroke="#FFFFFF" d="M32.085,155.951l-4.438,0.02"/>
			<path id="path4752" fill="none" stroke="#FFFFFF" d="M28.148,155.805l0.03-14.28"/>
			<path id="path4754" fill="none" stroke="#FFFFFF" d="M31.614,155.812l0.03-14.249"/>
			<path id="path4756" fill="none" stroke="#FFFFFF" d="M32.032,142.025h-4.043"/>
			<path id="path4758" fill="none" stroke="#FFFFFF" d="M31.653,142.085l-0.936-18.552"/>
			<path id="path4760" fill="none" stroke="#FFFFFF" d="M28.172,142.09l0.936-18.552"/>
			<path id="path4762" fill="none" stroke="#FFFFFF" d="M29.071,123.699c0.884-2.651,1.222-2.651,1.657-0.154l-0.011,0.055"/>
			<path id="path4764" fill="none" stroke="#FFFFFF" d="M29.073,125.243l1.75,0.062"/>
		</g>
		<path id="path4766" fill="none" stroke="#FFFFFF" d="M28.375,178.115l-0.044,3.005"/>
		<path id="path4768" fill="none" stroke="#FFFFFF" d="M31.336,178.07l-0.044,3.05"/>
		<path id="path4770" fill="none" stroke="#FFFFFF" d="M27.842,181.163h3.982"/>
		<path id="path4772" fill="none" stroke="#FFFFFF" d="M28.375,181.163l-2.784,6.406l-0.133,1.326l0.619,0.267l7.469,0.132
			l0.751-0.354l-0.133-1.147l-3.049-6.762"/>
	</g>
	<path id="path4774" fill="none" stroke="#FFFFFF" d="M14.907,209.549l-1.149,2.872l-0.133,0.973l3.094,0.044l-0.088-0.884
		l-1.105-3.005"/>
	<path id="path4776" fill="none" stroke="#FFFFFF" d="M18.222,209.604l-1.149,2.873l-0.132,0.973l3.094,0.045l-0.088-0.885
		l-1.105-3.006"/>
	<path id="path4778" fill="none" stroke="#FFFFFF" d="M21.404,209.637l-1.149,2.873l-0.133,0.972l3.094,0.045l-0.088-0.885
		l-1.105-3.005"/>
	<path id="path4780" fill="none" stroke="#FFFFFF" d="M27.57,203.621v-8.07"/>
	<path id="path4938" fill="none" stroke="#FFFFFF" d="M18.513,177.791l-4.021-0.07l-2.537-5.822v-17.825h8.569"/>
	<path id="path4940" fill="none" stroke="#FFFFFF" d="M18.118,177.791l4.574,0.035l2.603-5.929v-17.825h-8.569"/>
	<path id="path4948" fill="none" stroke="#FFFFFF" d="M11.885,174.181h13.469"/>
	<path id="path4952" fill="none" stroke="#FFFFFF" d="M16.37,177.673l-1.149,2.873l-0.132,0.973l3.094,0.044l-0.088-0.884
		l-1.105-3.006"/>
	<path id="path4954" fill="none" stroke="#FFFFFF" d="M20.319,177.725l-1.149,2.872l-0.133,0.973l3.094,0.045l-0.088-0.885
		l-1.105-3.005"/>
</g>
<g id="g6173">
	<path id="path5305" fill="none" stroke="#FFFFFF" d="M164.39,215.216h18.989"/>
	<path id="path5307" fill="none" stroke="#FFFFFF" d="M163.899,222.924l0.998-8.096"/>
	<path id="path5309" fill="none" stroke="#FFFFFF" d="M183.826,222.92l-0.998-8.096"/>
	<g id="g5311" transform="translate(143.91,-11.85747)">
		<path id="path5313" fill="none" stroke="#FFFFFF" d="M20.019,311.136l-0.089-76.161"/>
		<path id="path5315" fill="none" stroke="#FFFFFF" d="M40.421,311.047l-20.892,0.088"/>
		<path id="path5317" fill="none" stroke="#FFFFFF" d="M20.064,239.082h20.223"/>
		<path id="path5319" fill="none" stroke="#FFFFFF" d="M39.974,235.154l-0.089,75.982"/>
		<path id="path5321" fill="none" stroke="#FFFFFF" d="M20.109,297.162H39.93"/>
		<path id="path5323" fill="none" stroke="#FFFFFF" d="M23.947,297.029l0.089-58.034"/>
		<path id="path5325" fill="none" stroke="#FFFFFF" d="M30.064,297.386l-0.134-58.125"/>
		<path id="path5327" fill="none" stroke="#FFFFFF" d="M36.001,297.296v-58.169"/>
		<path id="path5329" fill="none" stroke="#FFFFFF" d="M19.436,235.199h21.032"/>
		<path id="path5331" fill="none" stroke="#FFFFFF" d="M22.756,310.901l1.696,2.401v0.633h-4.415v-0.569l1.51-2.465"/>
		<path id="path5333" fill="none" stroke="#FFFFFF" d="M30.176,310.807l1.691,2.472v0.65h-4.403v-0.586l1.506-2.536"/>
		<path id="path5335" fill="none" stroke="#FFFFFF" d="M38.083,310.807l1.691,2.472v0.65h-4.403v-0.586l1.506-2.536"/>
		<path id="path5337" fill="none" stroke="#FFFFFF" d="M26.543,310.925l-2.039,2.99h2.581"/>
		<path id="path5339" fill="none" stroke="#FFFFFF" d="M33.054,311.005l2.344,2.885h-3.636"/>
	</g>
	<path id="path5341" fill="none" stroke="#FFFFFF" d="M182.825,215.804v-13.351"/>
	<path id="path5343" fill="none" stroke="#FFFFFF" d="M164.764,215.842v-13.351"/>
	<path id="path5345" fill="none" stroke="#FFFFFF" d="M164.795,203.309v-8.602"/>
	<path id="path5347" fill="none" stroke="#FFFFFF" d="M183.333,195.225l-19.046-0.043"/>
	<path id="path5349" fill="none" stroke="#FFFFFF" d="M164.796,194.824l2.293-11.904"/>
	<path id="path5351" fill="none" stroke="#FFFFFF" d="M182.822,194.858l-2.292-11.903"/>
	<path id="path5353" fill="none" stroke="#FFFFFF" d="M181.013,183.272l-14.428,0.021"/>
	<path id="path5355" fill="none" stroke="#FFFFFF" d="M164.772,203.07l17.898-0.088"/>
	<path id="path5357" fill="none" stroke="#FFFFFF" d="M164.729,202.929l4.493,6.493"/>
	<path id="path5359" fill="none" stroke="#FFFFFF" d="M168.836,209.211l9.991,0.048"/>
	<path id="path5361" fill="none" stroke="#FFFFFF" d="M182.724,203.325l-4.306,6.117"/>
	<path id="path5363" fill="none" stroke="#FFFFFF" d="M167.115,182.926l-0.039-19.454"/>
	<path id="path5365" fill="none" stroke="#FFFFFF" d="M180.564,183.551l-0.039-21.733"/>
	<path id="path5407" fill="none" stroke="#FFFFFF" d="M170.164,209.301l-1.149,2.873l-0.133,0.972l3.094,0.045l-0.088-0.885
		l-1.105-3.005"/>
	<path id="path5409" fill="none" stroke="#FFFFFF" d="M173.478,209.357l-1.149,2.872l-0.132,0.974l3.093,0.044l-0.088-0.885
		l-1.104-3.005"/>
	<path id="path5411" fill="none" stroke="#FFFFFF" d="M176.66,209.39l-1.149,2.872l-0.133,0.973l3.094,0.044l-0.088-0.884
		l-1.105-3.005"/>
	<path id="path5413" fill="none" stroke="#FFFFFF" d="M182.826,203.374v-8.07"/>
	<path id="path5415" fill="none" stroke="#FFFFFF" d="M167.098,171.652v-17.826h8.569"/>
	<path id="path5417" fill="none" stroke="#FFFFFF" d="M180.551,171.652v-17.826h-8.569"/>
	<path id="path5419" fill="none" stroke="#FFFFFF" d="M167.141,173.933h13.469"/>
	<path id="path5427" fill="none" stroke="#FFFFFF" d="M167.101,153.453c2.07-12.771,4.538-19.654,6.742-19.658
		c2.172-0.004,4.291,5.665,6.715,19.636"/>
</g>
<g id="g5507" transform="translate(76.72108,0)">
	<a id="a5442">
		<g id="g5003" transform="translate(198.2718,-11.78653)">
			<path id="path5005" fill="none" stroke="#FFFFFF" d="M20.48,227.073h18.989"/>
			<path id="path5007" fill="none" stroke="#FFFFFF" d="M19.989,234.782l0.998-8.096"/>
			<path id="path5009" fill="none" stroke="#FFFFFF" d="M39.916,234.778l-0.998-8.096"/>
			<g id="g5011">
				<path id="path5013" fill="none" stroke="#FFFFFF" d="M20.019,311.135l-0.089-76.16"/>
				<path id="path5015" fill="none" stroke="#FFFFFF" d="M40.42,311.048l-20.892,0.089"/>
				<path id="path5017" fill="none" stroke="#FFFFFF" d="M20.064,239.083h20.223"/>
				<path id="path5019" fill="none" stroke="#FFFFFF" d="M39.974,235.154l-0.09,75.981"/>
				<path id="path5021" fill="none" stroke="#FFFFFF" d="M20.108,297.163h19.821"/>
				<path id="path5023" fill="none" stroke="#FFFFFF" d="M23.948,297.029l0.089-58.036"/>
				<path id="path5025" fill="none" stroke="#FFFFFF" d="M30.064,297.385l-0.135-58.125"/>
				<path id="path5027" fill="none" stroke="#FFFFFF" d="M36.002,297.298v-58.171"/>
				<path id="path5029" fill="none" stroke="#FFFFFF" d="M19.436,235.198h21.033"/>
				<path id="path5031" fill="none" stroke="#FFFFFF" d="M22.756,310.901l1.696,2.401v0.632h-4.414v-0.568l1.51-2.465"/>
				<path id="path5033" fill="none" stroke="#FFFFFF" d="M30.176,310.807l1.691,2.471v0.65h-4.402v-0.585l1.505-2.536"/>
				<path id="path5035" fill="none" stroke="#FFFFFF" d="M38.082,310.807l1.691,2.471v0.65h-4.402v-0.585l1.506-2.536"/>
				<path id="path5037" fill="none" stroke="#FFFFFF" d="M26.543,310.925l-2.039,2.989h2.582"/>
				<path id="path5039" fill="none" stroke="#FFFFFF" d="M33.054,311.006l2.344,2.885h-3.635"/>
			</g>
			<path id="path5041" fill="none" stroke="#FFFFFF" d="M38.916,227.661v-13.35"/>
			<path id="path5043" fill="none" stroke="#FFFFFF" d="M20.854,227.7v-13.351"/>
			<g id="g5045">
				<path id="path5047" fill="none" stroke="#FFFFFF" d="M20.885,215.167v-8.602"/>
				<path id="path5049" fill="none" stroke="#FFFFFF" d="M39.422,207.082l-19.044-0.042"/>
				<path id="path5051" fill="none" stroke="#FFFFFF" d="M20.887,206.682l2.293-11.905"/>
				<path id="path5053" fill="none" stroke="#FFFFFF" d="M38.912,206.715l-2.293-11.905"/>
				<path id="path5055" fill="none" stroke="#FFFFFF" d="M37.103,195.129l-14.429,0.021"/>
				<path id="path5057" fill="none" stroke="#FFFFFF" d="M23.205,195.108l-0.039-17.105"/>
				<path id="path5059" fill="none" stroke="#FFFFFF" d="M36.654,195.233l-0.039-17.105"/>
				<path id="path5061" fill="none" stroke="#FFFFFF" d="M20.862,214.927l17.897-0.089"/>
				<path id="path5063" fill="none" stroke="#FFFFFF" d="M20.82,214.786l4.493,6.494"/>
				<path id="path5065" fill="none" stroke="#FFFFFF" d="M24.926,221.069l9.992,0.047"/>
				<path id="path5067" fill="none" stroke="#FFFFFF" d="M38.814,215.183l-4.307,6.118"/>
				<g id="g5069">
					<g id="g5071">
						<path id="path5073" fill="none" stroke="#FFFFFF" d="M23.178,178.59L23.131,164.6"/>
						<path id="path5075" fill="none" stroke="#FFFFFF" d="M36.617,178.625l-0.045-14.301"/>
						<path id="path5077" fill="none" stroke="#FFFFFF" d="M23.072,178.114l13.523-0.021"/>
						<path id="path5079" fill="none" stroke="#FFFFFF" d="M22.653,164.136l14.427-0.021"/>
						<path id="path5081" fill="none" stroke="#FFFFFF" d="M36.662,163.905l-4.994-8.043"/>
						<path id="path5083" fill="none" stroke="#FFFFFF" d="M23.072,163.905l4.995-8.043"/>
						<path id="path5085" fill="none" stroke="#FFFFFF" d="M32.086,155.952l-4.438,0.02"/>
						<path id="path5087" fill="none" stroke="#FFFFFF" d="M28.148,155.805l0.031-14.28"/>
						<path id="path5089" fill="none" stroke="#FFFFFF" d="M31.613,155.811l0.031-14.249"/>
						<path id="path5091" fill="none" stroke="#FFFFFF" d="M32.031,142.024h-4.043"/>
						<path id="path5093" fill="none" stroke="#FFFFFF" d="M31.652,142.086l-0.936-18.552"/>
						<path id="path5095" fill="none" stroke="#FFFFFF" d="M28.172,142.09l0.937-18.553"/>
						<path id="path5097" fill="none" stroke="#FFFFFF" d="M29.071,123.7c0.884-2.651,1.222-2.65,1.657-0.155l-0.012,0.057"/>
						<path id="path5099" fill="none" stroke="#FFFFFF" d="M29.072,125.243l1.75,0.062"/>
					</g>
					<path id="path5101" fill="none" stroke="#FFFFFF" d="M28.375,178.114l-0.044,3.005"/>
					<path id="path5103" fill="none" stroke="#FFFFFF" d="M31.336,178.069l-0.045,3.05"/>
					<path id="path5105" fill="none" stroke="#FFFFFF" d="M27.843,181.163h3.981"/>
					<path id="path5107" fill="none" stroke="#FFFFFF" d="M28.375,181.163l-2.784,6.408l-0.132,1.326l0.619,0.265l7.469,0.133
						l0.752-0.354l-0.133-1.149l-3.049-6.762"/>
				</g>
				<path id="path5109" fill="none" stroke="#FFFFFF" d="M26.254,221.159l-1.149,2.872l-0.132,0.973l3.094,0.045l-0.089-0.885
					l-1.105-3.005"/>
				<path id="path5111" fill="none" stroke="#FFFFFF" d="M29.568,221.215l-1.148,2.872l-0.134,0.974l3.095,0.044l-0.09-0.884
					l-1.104-3.006"/>
				<path id="path5113" fill="none" stroke="#FFFFFF" d="M32.75,221.247l-1.148,2.873l-0.133,0.973l3.094,0.045l-0.088-0.885
					l-1.104-3.006"/>
				<path id="path5115" fill="none" stroke="#FFFFFF" d="M38.916,215.231v-8.07"/>
			</g>
		</g>
	</a>
	<path id="path5503" fill="none" stroke="#FFFFFF" d="M218.321,285.399c-0.25,0-7.812,6.062-7.812,6.062v7.875h7.5"/>
	<path id="path5505" fill="none" stroke="#FFFFFF" d="M237.822,285.337c0.25,0,7.812,6.062,7.812,6.062v7.875h-7.5"/>
</g>
<g id="g6214" transform="translate(18.76219,0)">
	<path id="path5787" fill="none" stroke="#FFFFFF" d="M210.697,166.683c0,0,5.381-18.047,6.751-18.047
		c1.432,0,6.732,17.949,6.732,17.949"/>
	<a id="a5571" transform="translate(-10.72258,0.272209)">
		<g id="g5573" transform="translate(198.2718,-11.78653)">
			<path id="path5575" fill="none" stroke="#FFFFFF" d="M20.48,227.073h18.989"/>
			<path id="path5577" fill="none" stroke="#FFFFFF" d="M19.989,234.782l0.998-8.096"/>
			<path id="path5579" fill="none" stroke="#FFFFFF" d="M39.916,234.778l-0.998-8.098"/>
			<g id="g5581">
				<path id="path5583" fill="none" stroke="#FFFFFF" d="M20.019,311.136l-0.089-76.159"/>
				<path id="path5585" fill="none" stroke="#FFFFFF" d="M40.421,311.047l-20.892,0.089"/>
				<path id="path5587" fill="none" stroke="#FFFFFF" d="M20.064,239.082h20.223"/>
				<path id="path5589" fill="none" stroke="#FFFFFF" d="M39.974,235.153l-0.089,75.981"/>
				<path id="path5591" fill="none" stroke="#FFFFFF" d="M20.108,297.163H39.93"/>
				<path id="path5593" fill="none" stroke="#FFFFFF" d="M23.948,297.028l0.089-58.035"/>
				<path id="path5595" fill="none" stroke="#FFFFFF" d="M30.064,297.386l-0.134-58.125"/>
				<path id="path5597" fill="none" stroke="#FFFFFF" d="M36.001,297.297v-58.17"/>
				<path id="path5599" fill="none" stroke="#FFFFFF" d="M19.436,235.198h21.032"/>
				<path id="path5601" fill="none" stroke="#FFFFFF" d="M22.755,310.901l1.696,2.4v0.633h-4.415v-0.568l1.51-2.465"/>
				<path id="path5603" fill="none" stroke="#FFFFFF" d="M30.176,310.809l1.691,2.471v0.649h-4.403v-0.585l1.506-2.535"/>
				<path id="path5605" fill="none" stroke="#FFFFFF" d="M38.083,310.809l1.691,2.471v0.649h-4.403v-0.585l1.506-2.535"/>
				<path id="path5607" fill="none" stroke="#FFFFFF" d="M26.543,310.926l-2.039,2.99h2.581"/>
				<path id="path5609" fill="none" stroke="#FFFFFF" d="M33.054,311.005l2.344,2.886h-3.636"/>
			</g>
			<path id="path5611" fill="none" stroke="#FFFFFF" d="M38.915,227.661V214.31"/>
			<path id="path5613" fill="none" stroke="#FFFFFF" d="M20.854,227.699v-13.35"/>
			<g id="g5615">
				<path id="path5617" fill="none" stroke="#FFFFFF" d="M20.885,215.167v-8.603"/>
				<path id="path5619" fill="none" stroke="#FFFFFF" d="M39.422,207.082l-19.046-0.043"/>
				<path id="path5621" fill="none" stroke="#FFFFFF" d="M20.887,206.684l2.292-11.905"/>
				<path id="path5623" fill="none" stroke="#FFFFFF" d="M38.913,206.716L36.62,194.81"/>
				<path id="path5625" fill="none" stroke="#FFFFFF" d="M37.103,195.129l-14.428,0.021"/>
				<path id="path5627" fill="none" stroke="#FFFFFF" d="M23.206,195.108l-0.039-17.105"/>
				<path id="path5629" fill="none" stroke="#FFFFFF" d="M36.654,195.233l-0.039-17.306"/>
				<path id="path5631" fill="none" stroke="#FFFFFF" d="M20.862,214.928l17.898-0.089"/>
				<path id="path5633" fill="none" stroke="#FFFFFF" d="M20.82,214.786l4.493,6.493"/>
				<path id="path5635" fill="none" stroke="#FFFFFF" d="M24.926,221.068l9.991,0.048"/>
				<path id="path5637" fill="none" stroke="#FFFFFF" d="M38.814,215.184l-4.306,6.117"/>
				<g id="g5639">
				</g>
				<path id="path5679" fill="none" stroke="#FFFFFF" d="M26.254,221.159l-1.149,2.872l-0.133,0.973l3.094,0.044l-0.088-0.884
					l-1.105-3.005"/>
				<path id="path5681" fill="none" stroke="#FFFFFF" d="M29.568,221.214l-1.149,2.873l-0.132,0.973l3.093,0.045l-0.088-0.886
					l-1.104-3.005"/>
				<path id="path5683" fill="none" stroke="#FFFFFF" d="M32.75,221.247l-1.149,2.873l-0.133,0.972l3.094,0.044l-0.088-0.884
					l-1.105-3.005"/>
				<path id="path5685" fill="none" stroke="#FFFFFF" d="M38.917,215.231v-8.07"/>
			</g>
		</g>
	</a>
	<path id="path5687" fill="none" stroke="#FFFFFF" d="M207.598,285.67c-0.25,0-7.812,6.062-7.812,6.062v7.875h7.5"/>
	<path id="path5689" fill="none" stroke="#FFFFFF" d="M227.1,285.609c0.25,0,7.812,6.062,7.812,6.062v7.875h-7.5"/>
	<path id="path5793" fill="none" stroke="#FFFFFF" d="M224.242,166.937l-13.959,0.021"/>
</g>
<path id="path9955" fill="none" stroke="#FFFFFF" d="M132.497,309.146l-0.708-254.558"/>
<path id="path10842" fill="none" stroke="#FFFFFF" d="M356.467,309.439L355.76,54.881"/>
</svg>
