<?xml version="1.0" encoding="utf-8"?>
<!-- Generator: Adobe Illustrator 15.1.0, SVG Export Plug-In . SVG Version: 6.00 Build 0)  -->
<!DOCTYPE svg PUBLIC "-//W3C//DTD SVG 1.1//EN" "http://www.w3.org/Graphics/SVG/1.1/DTD/svg11.dtd">
<svg version="1.1"
	 id="svg7129" xmlns:inkscape="http://www.inkscape.org/namespaces/inkscape" xmlns:svg="http://www.w3.org/2000/svg" xmlns:rdf="http://www.w3.org/1999/02/22-rdf-syntax-ns#" xmlns:cc="http://creativecommons.org/ns#" xmlns:dc="http://purl.org/dc/elements/1.1/" sodipodi:docname="Wireframe.svg" inkscape:version="0.46" xmlns:sodipodi="http://sodipodi.sourceforge.net/DTD/sodipodi-0.dtd" sodipodi:version="0.32" inkscape:output_extension="org.inkscape.output.svg.inkscape"
	 xmlns="http://www.w3.org/2000/svg" xmlns:xlink="http://www.w3.org/1999/xlink" x="0px" y="0px" width="299px" height="121px"
	 viewBox="0 0 299 121" enable-background="new 0 0 299 121" xml:space="preserve">
<defs>
	
	
		<inkscape:perspective  sodipodi:type="inkscape:persp3d" inkscape:persp3d-origin="372.04724 : 350.78739 : 1" inkscape:vp_y="0 : 1000 : 0" id="perspective7136" inkscape:vp_z="744.09448 : 526.18109 : 1" inkscape:vp_x="0 : 526.18109 : 1">
		</inkscape:perspective>
</defs>
<sodipodi:namedview  inkscape:window-y="-4" inkscape:window-x="-4" inkscape:window-height="968" inkscape:window-width="1280" showgrid="false" inkscape:current-layer="svg7129" inkscape:cy="66.975794" inkscape:cx="145.62139" inkscape:zoom="1.2865087" inkscape:pageshadow="2" inkscape:pageopacity="0.0" borderopacity="1.0" bordercolor="#666666" pagecolor="#ffffff" showguides="true" id="base" inkscape:guide-bbox="true" guidetolerance="10.0" gridtolerance="10.0" objecttolerance="10.0">
	</sodipodi:namedview>
<path id="path7170" fill="none" stroke="#FFFFFF" d="M7.489,33.402l55.169-12.917l26.794,15.733L32.428,52.571L7.489,33.402z"/>
<path id="path7172" fill="none" stroke="#FFFFFF" d="M7.558,33.265l9.893,51.252l50.085-15.939l-4.878-48.092"/>
<path id="path7174" fill="none" stroke="#FFFFFF" d="M32.566,52.571l8.931,55.513l53.246-19.443l-4.672-52.353"/>
<path id="path7176" fill="none" stroke="#FFFFFF" d="M67.673,68.647l26.932,19.993"/>
<path id="path7178" fill="none" stroke="#FFFFFF" d="M41.36,108.084L17.451,84.449"/>
<path id="path7184" fill="none" stroke="#FFFFFF" d="M146.521,21.506l-33.618,24.776l22.348-5.344L146.521,21.506z"/>
<path id="path7186" fill="none" stroke="#FFFFFF" d="M146.423,21.797l36.242,15.546l-20.112,0.194L146.423,21.797z"/>
<path id="path7188" fill="none" stroke="#FFFFFF" d="M146.521,21.797l-0.292,16.906l16.42-1.069l6.898,7.287l13.021-7.481"/>
<path id="path7190" fill="none" stroke="#FFFFFF" d="M113.194,46.379l17.392,3.304l4.47-8.259l11.076-2.818l27.983,36.728
	l9.327-37.796"/>
<path id="path7192" fill="none" stroke="#FFFFFF" d="M146.229,38.995l-18.364,41.877l-15.157-34.493"/>
<path id="path7196" fill="none" stroke="#FFFFFF" d="M130.489,49.489l-10.882,34.298l-6.801-37.116"/>
<path id="path7200" fill="none" stroke="#FFFFFF" d="M130.586,49.877l38.962-4.858l17.198,30.898l-3.109-37.699"/>
<path id="path7202" fill="none" stroke="#FFFFFF" d="M130.392,50.363l23.805,30.509l15.644-35.853"/>
<path id="path7204" fill="none" stroke="#FFFFFF" d="M119.704,84.855l8.259-3.498l45.958-6.023l13.02,0.972l-13.99,2.234
	l-18.656,2.915l-24.97,2.04L119.704,84.855z"/>
<path id="path7206" fill="none" stroke="#FFFFFF" d="M154.488,81.649l0.971,21.376l30.801-26.72"/>
<path id="path7208" fill="none" stroke="#FFFFFF" d="M174.309,75.625l-19.043,27.594"/>
<path id="path7210" fill="none" stroke="#FFFFFF" d="M127.671,81.164l27.399,21.473"/>
<path id="path7212" fill="none" stroke="#FFFFFF" d="M119.898,84.661l35.172,18.461"/>
<path id="path7801" sodipodi:nodetypes="ccccccccccccccccccccccc" fill="none" stroke="#FFFFFF" d="M259.289,77.854l7.42,6.871
	l-1.374,6.732l-8.794,4.26l-17.588,0.138l-11.955-4.122l-7.832-8.244l3.848-6.047l9.344-4.122l14.428,0.687l12.779,3.848
	l-9.207,7.558l-6.32-1.374l-7.695-1.236l-4.122,2.336l-1.512,2.885l1.374,3.023l6.733,4.123l8.657-0.139l5.908-2.061l1.236-3.298
	l-4.26-4.397l-7.557,5.084l1.511-6.596l2.336-9.617"/>
<path id="path7803" fill="none" stroke="#FFFFFF" d="M243.074,90.221l-6.32-7.283l-3.984-9.206"/>
<path id="path7805" fill="none" stroke="#FFFFFF" d="M223.288,77.579c0,0,8.932,7.832,20.062,13.19l-12.367-1.648l-11.268-5.084"/>
<path id="path7807" fill="none" stroke="#FFFFFF" d="M239.64,95.029l3.71-4.26l5.359,4.26"/>
<path id="path7809" fill="none" stroke="#FFFFFF" d="M264.648,92.007l-11.405,0.962l-10.03-2.611l11.129-0.961l11.818-4.672"/>
<path id="path7811" fill="none" stroke="#FFFFFF" d="M238.266,95.029l1.512-21.984l2.061-13.466l2.199-14.153l2.885-13.604
	l3.16-10.993l0.825-4.947"/>
<path id="path7813" fill="none" stroke="#FFFFFF" d="M268.633,73.457l-28.719,0.137l-24.596-9.344"/>
<path id="path7815" fill="none" stroke="#FFFFFF" d="M251.045,15.883l-10.58,4.535l-8.107,8.107l-8.107,10.718
	c0,0-5.771,12.779-8.382,25.42l0.55,12.092l1.786,7.146"/>
<path id="path7817" fill="none" stroke="#FFFFFF" d="M216.555,66.312l6.733,11.68"/>
<path id="path7821" fill="none" stroke="#FFFFFF" d="M266.16,84.725l-16.078,0.274"/>
<path id="path7823" fill="none" stroke="#FFFFFF" d="M234.968,83.35l-12.778-4.121l-9.895-6.321l-6.596-7.97"/>
<path id="path7825" fill="none" stroke="#FFFFFF" d="M218.342,83.9l-7.971-9.482l-4.121-8.793"/>
<path id="path7827" fill="none" stroke="#FFFFFF" d="M216.83,66.861l12.916-4.535h19.237l16.764,5.635l5.634,4.672l4.535,3.297
	l-9.207,8.52"/>
<path id="path7829" fill="none" stroke="#FFFFFF" d="M259.701,77.717l6.459-9.481"/>
<path id="path7831" fill="none" stroke="#FFFFFF" d="M246.51,73.731l2.474-11.267"/>
<path id="path7833" fill="none" stroke="#FFFFFF" d="M232.632,73.594c0-0.549-2.61-11.129-2.61-11.129"/>
<path id="path7835" fill="none" stroke="#FFFFFF" d="M219.715,52.708l21.986,7.146l26.932,0.137l-0.137,13.603l-2.749,9.756
	l-7.558,11.818"/>
<path id="path7837" fill="none" stroke="#FFFFFF" d="M206.387,65.35l2.886-6.183l2.748-3.298l16.765-5.359l21.984,0.687
	l20.475,6.046l12.916,10.443l-14.978,6.046"/>
<path id="path7839" fill="none" stroke="#FFFFFF" d="M215.043,64.525l-9.617-9.894l0.273,10.581"/>
<path id="path7841" fill="none" stroke="#FFFFFF" d="M229.609,62.052l-1.237-11.817v-11.13l23.359,0.274l-0.962,11.268l-1.374,9.619
	l-0.138,2.886"/>
<path id="path7843" sodipodi:nodetypes="cccccc" fill="none" stroke="#FFFFFF" d="M218.891,54.22l-7.832-8.245l-5.633,7.833
	l2.061-10.443l6.87-12.229l9.618,8.794"/>
<path id="path7845" fill="none" stroke="#FFFFFF" d="M207.762,44.601l20.473-4.947l15.803,6.321l22.947-0.275l-0.688-2.885
	l-14.291-3.023"/>
<path id="path7847" fill="none" stroke="#FFFFFF" d="M229.609,32.921v6.458"/>
<path id="path7849" fill="none" stroke="#FFFFFF" d="M215.318,32.784l16.076-3.985l22.261,0.275l9.069,2.748l-15.391,0.687
	l-14.977-3.435"/>
<path id="path7851" fill="none" stroke="#FFFFFF" d="M268.496,59.991l-1.237-16.352l-4.397-11.817l-4.534-10.168l-7.146-5.634"/>
<path id="path7853" sodipodi:nodetypes="ccc" fill="none" stroke="#FFFFFF" d="M212.707,34.708l-1.373,21.436l4.26,8.244"/>
<path id="path7855" fill="none" stroke="#FFFFFF" d="M211.196,75.105c0.138-0.688,4.81-8.382,4.81-8.382"/>
<path id="path7857" fill="none" stroke="#FFFFFF" d="M266.16,91.045l9.617-5.359l6.734-7.282l1.236-10.718l-7.558,8.656l-1.1,8.657"
	/>
<path id="path7859" fill="none" stroke="#FFFFFF" d="M267.671,84.037l14.841-5.908"/>
<path id="path7861" fill="none" stroke="#FFFFFF" d="M265.473,68.098l5.633-9.481l3.711-12.504V34.295l-11.68-2.336"/>
<path id="path7863" fill="none" stroke="#FFFFFF" d="M267.121,44.189l7.008,0.687l12.504,8.657l-18,6.458"/>
<path id="path7865" fill="none" stroke="#FFFFFF" d="M267.259,46.113l15.253-4.81l3.984,12.229"/>
<path id="path7867" fill="none" stroke="#FFFFFF" d="M263.137,32.646l11.542-3.71l8.106,10.855"/>
<path id="path7869" fill="none" stroke="#FFFFFF" d="M274.404,28.799v5.496l8.381,5.497l0.413-8.382l5.358,11.817l-5.908-3.573"/>
<path id="path7871" fill="none" stroke="#FFFFFF" d="M288.42,43.227l0.137,9.894l-1.512,14.428l-4.396,11.404"/>
<path id="path7873" fill="none" stroke="#FFFFFF" d="M283.473,74.969l2.062-7.42l2.062-14.016l0.687-9.756"/>
<path id="path7875" fill="none" stroke="#FFFFFF" d="M252.418,39.654c0,0,1.787-9.756,1.375-10.306
	c-0.412-0.549,0.137-8.931,0.137-8.931l-20.473-0.138l-2.749,8.382"/>
<path id="path7877" sodipodi:nodetypes="cccccccc" fill="none" stroke="#FFFFFF" d="M214.082,31.41
	c0.137-0.688,8.52-10.168,8.52-10.168l14.29-6.458l12.917-2.336l12.641,3.023l11.955,6.733l9.068,9.756l-25.97-10.443"/>
<path id="path7879" sodipodi:nodetypes="cccc" fill="none" stroke="#FFFFFF" d="M214.356,30.585l10.718-7.145l8.383-3.573
	l17.312-4.122"/>
<path id="path7881" fill="none" stroke="#FFFFFF" d="M222.876,21.104l3.022,2.885l5.084,4.672"/>
<path id="path7883" fill="none" stroke="#FFFFFF" d="M233.594,20.28l5.634-4.672c0.412-1.511,0.412,0,0.412,0"/>
<path id="path7885" fill="none" stroke="#FFFFFF" d="M241.014,14.234l8.52-1.924"/>
<path id="path7887" fill="none" stroke="#FFFFFF" d="M250.907,15.608l8.106-0.137"/>
<path id="path7889" fill="none" stroke="#FFFFFF" d="M269.457,19.73l5.222,8.931"/>
<path id="path7891" fill="none" stroke="#FFFFFF" d="M258.877,21.792l21.985,7.557"/>
<path id="path7893" fill="none" stroke="#FFFFFF" d="M270.145,25.639l-17.588-9.893"/>
<path id="path7895" fill="none" stroke="#FFFFFF" d="M245.686,13.272l4.947,2.199"/>
<path id="path7901" fill="none" stroke="#FFFFFF" d="M254.067,20.417l-0.412-6.184l-2.61,1.786"/>
<path id="path7905" fill="none" stroke="#FFFFFF" d="M253.655,15.746l19.169,10.168"/>
<path id="path7907" fill="none" stroke="#FFFFFF" d="M257.503,15.814l12.092,4.123"/>
</svg>
