<?xml version="1.0" encoding="utf-8"?>
<!-- Generator: Adobe Illustrator 15.1.0, SVG Export Plug-In  -->
<!DOCTYPE svg PUBLIC "-//W3C//DTD SVG 1.1//EN" "http://www.w3.org/Graphics/SVG/1.1/DTD/svg11.dtd" [
	<!ENTITY ns_flows "http://ns.adobe.com/Flows/1.0/">
]>
<svg version="1.1"
	 xmlns="http://www.w3.org/2000/svg" xmlns:xlink="http://www.w3.org/1999/xlink" xmlns:a="http://ns.adobe.com/AdobeSVGViewerExtensions/3.0/"
	 x="0px" y="0px" width="1463px" height="575px" viewBox="143.807 41.712 1463 575"
	 overflow="visible" enable-background="new 143.807 41.712 1463 575" xml:space="preserve">
<defs>
</defs>
<rect x="143.807" y="41.712" fill="#383535" width="1463" height="575"/>
<rect x="241.731" y="135.884" fill="#050001" width="588.914" height="370.982"/>
<g>
	<defs>
		<rect id="SVGID_1_" x="241.731" y="135.884" width="588.914" height="370.982"/>
	</defs>
	<clipPath id="SVGID_2_">
		<use xlink:href="#SVGID_1_"  overflow="visible"/>
	</clipPath>
	
		<radialGradient id="SVGID_3_" cx="406.4839" cy="313.731" r="164.4704" gradientTransform="matrix(2.1765 0 0 1.3593 -505.1207 -122.7081)" gradientUnits="userSpaceOnUse">
		<stop  offset="0" style="stop-color:#58595B"/>
		<stop  offset="1" style="stop-color:#404041;stop-opacity:0"/>
	</radialGradient>
	<path clip-path="url(#SVGID_2_)" fill="url(#SVGID_3_)" d="M737.554,303.747c0-123.473-160.269-223.57-357.965-223.57
		c-197.699,0-357.963,100.097-357.963,223.57c0,123.472,160.264,223.566,357.963,223.566
		C577.285,527.313,737.554,427.219,737.554,303.747z"/>
	<g clip-path="url(#SVGID_2_)">
		<linearGradient id="SVGID_4_" gradientUnits="userSpaceOnUse" x1="57.7939" y1="374.9346" x2="452.1561" y2="158.3714">
			<stop  offset="0" style="stop-color:#000000"/>
			<stop  offset="0.589" style="stop-color:#000000;stop-opacity:0"/>
		</linearGradient>
		<path fill="url(#SVGID_4_)" d="M438.168,152.846c8.918,18.202,13.867,37.979,13.867,58.687
			c0,89.48-91.387,162.018-204.117,162.018c-112.734,0-204.117-72.538-204.117-162.018c0-15.201,2.696-29.894,7.628-43.844
			c-23.704,27.039-37.502,59.159-37.502,93.647c0,96.08,106.624,173.958,238.148,173.958c131.525,0,238.146-77.879,238.146-173.958
			C490.221,220.292,470.716,182.594,438.168,152.846z"/>
		
			<linearGradient id="SVGID_5_" gradientUnits="userSpaceOnUse" x1="477.626" y1="251.8643" x2="31.571" y2="71.1209" gradientTransform="matrix(0.9902 -0.1398 0.1398 0.9902 -41.2686 108.076)">
			<stop  offset="0" style="stop-color:#FDE500"/>
			<stop  offset="0.1302" style="stop-color:#F7E303"/>
			<stop  offset="0.3099" style="stop-color:#E5DE0B"/>
			<stop  offset="0.5187" style="stop-color:#C8D619"/>
			<stop  offset="0.7492" style="stop-color:#9FCB2C"/>
			<stop  offset="0.9949" style="stop-color:#6BBC44"/>
			<stop  offset="1" style="stop-color:#6ABC45"/>
		</linearGradient>
		<path fill="url(#SVGID_5_)" d="M481.681,153.819c-27.949-48.374-81.154-90.86-148.726-103.8
			c-85.872-16.438-160.824,1.378-222.604,44.615c-62.52,43.749-87.117,88.272-98.041,148.151L1.974,239.59l11.878,50.395
			c9.649,42.223,38.583,78.764,57.851,92.241c26.224,18.336,98.44,58.93,189.579,43.214c63.422-10.936,103.85-31.708,125.614-46.101
			l29.974,26.926c48.333-31.727,64.862-70.04,75.807-96.609c10.953-26.573,17.785-65.729,7.081-111.158l-11.642-49.436
			L481.681,153.819z M404.249,239.742c0.487,27.749-14.847,60.351-38.802,86.8L336.07,300.13c0,0-31.705,31.461-106.955,41.885
			c-51.034,7.069-111.292-21.315-117.273-68.334c-6.109-48.106,36.11-101.333,82.49-125.818
			c53.969-28.492,114.737-24.454,148.79-3.762C382.079,167.785,403.476,196.643,404.249,239.742z"/>
		
			<linearGradient id="SVGID_6_" gradientUnits="userSpaceOnUse" x1="159.1934" y1="210.8662" x2="476.8235" y2="-55.6571" gradientTransform="matrix(0.9734 -0.2293 0.2293 0.9734 -59.6293 180.6439)">
			<stop  offset="0" style="stop-color:#6FC6B4"/>
			<stop  offset="0.0321" style="stop-color:#6DC5B6"/>
			<stop  offset="0.6538" style="stop-color:#4FB3D5"/>
			<stop  offset="1" style="stop-color:#44ACE1"/>
		</linearGradient>
		<path fill="url(#SVGID_6_)" d="M378.608,24.66C329.804,1.216,264.424-7.373,200.935,7.063
			C137.448,21.495,73.889,59.414,37.886,108.049c-36,48.637-44.503,95.069-33.235,142.903
			c11.267,47.834,47.393,92.09,102.126,114.138c54.742,22.05,119.562,25.559,180.186,9.188
			c46.502-12.556,67.086-23.604,88.893-38.368c0.008,0,0.008,0,0.008,0c6.63-4.489,13.369-9.314,20.988-14.634l10.002,42.494
			c0,0,52.629-40.034,70.381-86.462c17.749-46.424,24.03-72.412,10.879-128.246C474.963,93.229,427.417,48.108,378.608,24.66z
			 M396.852,321.276l-71.146-65.118c0,0-27.402,23.146-61.407,33.764c-34,10.617-96.421,17.946-136.126-13.343
			c-39.705-31.29-38.038-99.479,10.35-144.255c48.383-44.774,121.979-60.025,165.72-44.774
			c43.749,15.252,87.196,53.559,87.633,97.505c0.388,37.701-4.204,64.116-37.079,97.731"/>
		<g opacity="0.88">
			<path fill="#707457" d="M386.895,379.334l29.974,26.931l-10.015-42.495C406.854,363.77,400.554,370.296,386.895,379.334z"/>
		</g>
		
			<linearGradient id="SVGID_7_" gradientUnits="userSpaceOnUse" x1="223.1616" y1="204.4365" x2="362.2883" y2="152.4734" gradientTransform="matrix(0.9734 -0.2293 0.2293 0.9734 -59.6293 180.6439)">
			<stop  offset="0" style="stop-color:#6FC6B4;stop-opacity:0"/>
			<stop  offset="0.7957" style="stop-color:#83CCB9;stop-opacity:0.7957"/>
			<stop  offset="1" style="stop-color:#89CEBA"/>
		</linearGradient>
		<path fill="url(#SVGID_7_)" d="M264.299,289.916c-34.006,10.616-96.425,17.949-136.126-13.337
			c-4.303-3.393-8.092-7.243-11.418-11.423l-55.101,73.74c13.16,10.476,28.25,19.4,45.124,26.195
			c54.742,22.048,119.562,25.553,180.186,9.182c46.502-12.552,67.086-23.599,88.893-38.368c0.008,0,0.008,0,0.008,0
			c6.63-4.485,13.369-9.31,20.988-14.629l-71.146-65.118C325.706,256.158,298.304,279.296,264.299,289.916z"/>
		
			<linearGradient id="SVGID_8_" gradientUnits="userSpaceOnUse" x1="416.6758" y1="279.7183" x2="487.0783" y2="95.331" gradientTransform="matrix(0.9734 -0.2293 0.2293 0.9734 -59.6293 180.6439)">
			<stop  offset="0" style="stop-color:#357FC1"/>
			<stop  offset="0.9161" style="stop-color:#30A1DA;stop-opacity:0.0839"/>
			<stop  offset="1" style="stop-color:#30A4DC;stop-opacity:0"/>
		</linearGradient>
		<path fill="url(#SVGID_8_)" d="M379.698,145.288c7.502,12.305,12.04,25.746,12.177,39.767
			c0.383,37.701-4.208,64.115-37.083,97.727l42.06,38.495l10.002,42.494c0,0,52.629-40.034,70.377-86.462
			c17.753-46.424,24.035-72.416,10.879-128.246c-2.025-8.619-4.878-16.982-8.427-25.049L379.698,145.288z"/>
	</g>
</g>
<path fill="#FFFFFF" d="M544.366,358.785c-2.499-0.692-4.732-1.436-6.992-2.313c-0.372-0.16-0.771-0.239-1.169-0.266
	c-4.148-0.213-7.842-3.27-7.842-9.092c0-5.557,3.428-9.438,8.56-9.438c5.184,0,8.267,3.988,8.267,9.064
	c0,4.308-1.994,7.205-4.625,8.269v0.106c1.542,0.425,3.27,0.797,4.732,1.063L544.366,358.785z M541.734,346.875
	c0-3.402-1.675-6.566-4.918-6.566c-3.271,0-4.998,3.11-4.998,6.699c0,3.589,1.834,6.566,4.971,6.566
	C539.926,353.574,541.734,350.649,541.734,346.875z"/>
<path fill="#FFFFFF" d="M559.57,352.032c0,1.542,0.053,2.818,0.106,3.881h-2.845l-0.159-1.941h-0.08
	c-0.558,0.905-1.834,2.234-4.173,2.234s-4.493-1.409-4.493-5.636v-7.603h3.27v7.044c0,2.153,0.691,3.535,2.419,3.535
	c1.329,0,2.18-0.903,2.498-1.754c0.134-0.266,0.187-0.638,0.187-1.011v-7.815h3.27V352.032z"/>
<path fill="#FFFFFF" d="M573.153,352.803c0,1.169,0.054,2.312,0.214,3.11h-2.952l-0.24-1.436h-0.079
	c-0.772,1.01-2.126,1.729-3.828,1.729c-2.606,0-4.067-1.888-4.067-3.855c0-3.244,2.897-4.918,7.683-4.892v-0.212
	c0-0.851-0.345-2.26-2.632-2.26c-1.276,0-2.605,0.399-3.482,0.958l-0.638-2.127c0.956-0.585,2.632-1.143,4.678-1.143
	c4.146,0,5.343,2.632,5.343,5.477V352.803z M569.964,349.586c-2.313-0.026-4.52,0.452-4.52,2.419c0,1.276,0.825,1.861,1.861,1.861
	c1.329,0,2.259-0.851,2.579-1.781c0.08-0.24,0.08-0.479,0.08-0.718V349.586z"/>
<path fill="#FFFFFF" d="M576.609,347.141c0-1.755-0.026-3.031-0.106-4.173h2.818l0.133,2.445h0.08
	c0.638-1.807,2.154-2.738,3.562-2.738c0.318,0,0.505,0.026,0.771,0.08v3.056c-0.292-0.053-0.585-0.079-0.983-0.079
	c-1.542,0-2.632,0.983-2.924,2.472c-0.053,0.293-0.08,0.638-0.08,0.983v6.726h-3.27V347.141z"/>
<path fill="#FFFFFF" d="M590.433,339.645v3.323h3.111v2.445h-3.111v5.716c0,1.594,0.425,2.392,1.675,2.392
	c0.585,0,0.904-0.027,1.276-0.133l0.053,2.472c-0.479,0.186-1.356,0.346-2.367,0.346c-1.222,0-2.206-0.398-2.818-1.063
	c-0.718-0.745-1.036-1.941-1.036-3.643v-6.087h-1.834v-2.445h1.834v-2.419L590.433,339.645z"/>
<path fill="#FFFFFF" d="M598.169,350.357c0.08,2.339,1.887,3.35,3.986,3.35c1.516,0,2.579-0.24,3.589-0.585l0.479,2.234
	c-1.116,0.478-2.659,0.823-4.519,0.823c-4.2,0-6.672-2.578-6.672-6.54c0-3.589,2.18-6.964,6.327-6.964
	c4.199,0,5.582,3.456,5.582,6.3c0,0.612-0.053,1.09-0.106,1.382H598.169z M603.857,348.071c0.027-1.196-0.504-3.164-2.685-3.164
	c-2.02,0-2.87,1.834-3.003,3.164H603.857z"/>
<path fill="#FFFFFF" d="M609.572,347.141c0-1.755-0.026-3.031-0.106-4.173h2.818l0.133,2.445h0.08
	c0.638-1.807,2.154-2.738,3.562-2.738c0.318,0,0.505,0.026,0.771,0.08v3.056c-0.293-0.053-0.585-0.079-0.984-0.079
	c-1.542,0-2.632,0.983-2.924,2.472c-0.053,0.293-0.08,0.638-0.08,0.983v6.726h-3.27V347.141z"/>
<path fill="#FFFFFF" d="M624.618,352.351c1.036,0.612,2.659,1.143,4.333,1.143c2.074,0,3.243-0.983,3.243-2.445
	c0-1.355-0.903-2.153-3.163-2.978c-2.977-1.063-4.864-2.632-4.864-5.211c0-2.95,2.445-5.157,6.353-5.157
	c1.94,0,3.35,0.425,4.281,0.903l-0.771,2.632c-0.665-0.345-1.915-0.851-3.589-0.851c-2.074,0-2.95,1.09-2.95,2.154
	c0,1.382,1.036,2.02,3.428,2.95c3.111,1.17,4.599,2.738,4.599,5.317c0,2.897-2.18,5.396-6.779,5.396
	c-1.914,0-3.881-0.532-4.864-1.144L624.618,352.351z"/>
<path fill="#FFFFFF" d="M638.335,347.273c0-1.701-0.053-3.084-0.106-4.306h2.871l0.16,1.993h0.053
	c0.958-1.461,2.472-2.285,4.44-2.285c2.978,0,5.45,2.552,5.45,6.593c0,4.679-2.952,6.938-5.902,6.938
	c-1.622,0-2.978-0.691-3.642-1.729h-0.053v6.7h-3.27V347.273z M641.604,350.49c0,0.32,0.027,0.612,0.08,0.905
	c0.345,1.329,1.489,2.286,2.897,2.286c2.074,0,3.297-1.728,3.297-4.28c0-2.286-1.117-4.148-3.217-4.148
	c-1.356,0-2.605,0.984-2.951,2.419c-0.054,0.266-0.107,0.559-0.107,0.825V350.49z"/>
<path fill="#FFFFFF" d="M657.368,339.352c0,0.957-0.718,1.754-1.861,1.754c-1.089,0-1.807-0.797-1.807-1.754
	c0-1.011,0.744-1.781,1.834-1.781C656.65,337.571,657.341,338.341,657.368,339.352z M653.886,355.913v-12.946h3.27v12.946H653.886z"
	/>
<path fill="#FFFFFF" d="M660.691,347.141c0-1.755-0.026-3.031-0.105-4.173h2.817l0.133,2.445h0.08
	c0.638-1.807,2.154-2.738,3.562-2.738c0.318,0,0.505,0.026,0.771,0.08v3.056c-0.292-0.053-0.585-0.079-0.983-0.079
	c-1.543,0-2.632,0.983-2.925,2.472c-0.053,0.293-0.08,0.638-0.08,0.983v6.726h-3.271V347.141z"/>
<path fill="#FFFFFF" d="M679.964,352.803c0,1.169,0.054,2.312,0.214,3.11h-2.951l-0.24-1.436h-0.079
	c-0.772,1.01-2.127,1.729-3.828,1.729c-2.606,0-4.068-1.888-4.068-3.855c0-3.244,2.897-4.918,7.683-4.892v-0.212
	c0-0.851-0.346-2.26-2.632-2.26c-1.276,0-2.606,0.399-3.482,0.958l-0.638-2.127c0.957-0.585,2.632-1.143,4.679-1.143
	c4.147,0,5.343,2.632,5.343,5.477V352.803z M676.775,349.586c-2.313-0.026-4.52,0.452-4.52,2.419c0,1.276,0.825,1.861,1.861,1.861
	c1.329,0,2.26-0.851,2.579-1.781c0.08-0.24,0.08-0.479,0.08-0.718V349.586z"/>
<path fill="#FFFFFF" d="M683.42,337.039h3.27v18.875h-3.27V337.039z"/>
<path fill="#00ADEE" d="M542.072,397.25c0,5.197-3.172,7.987-7.041,7.987c-4.026,0-6.816-3.127-6.816-7.716
	c0-4.814,2.97-7.963,7.019-7.963C539.396,389.558,542.072,392.729,542.072,397.25z M530.285,397.476
	c0,3.262,1.754,6.164,4.859,6.164c3.104,0,4.858-2.856,4.858-6.299c0-3.036-1.574-6.187-4.836-6.187
	C531.904,391.154,530.285,394.168,530.285,397.476z"/>
<path fill="#00ADEE" d="M553.724,401.997c0,1.147,0.021,2.138,0.09,2.993h-1.754l-0.113-1.777h-0.045
	c-0.496,0.877-1.665,2.025-3.6,2.025c-1.709,0-3.757-0.968-3.757-4.77v-6.366h1.98v6.006c0,2.07,0.652,3.487,2.429,3.487
	c1.328,0,2.25-0.923,2.61-1.822c0.113-0.27,0.18-0.63,0.18-1.012v-6.659h1.98V401.997z"/>
<path fill="#00ADEE" d="M557.006,397.498c0-1.282-0.023-2.384-0.09-3.396h1.732l0.09,2.159h0.067
	c0.495-1.462,1.71-2.384,3.037-2.384c0.203,0,0.359,0.022,0.54,0.045v1.867c-0.202-0.045-0.405-0.045-0.674-0.045
	c-1.396,0-2.386,1.035-2.655,2.519c-0.045,0.271-0.067,0.608-0.067,0.923v5.804h-1.98V397.498z"/>
<path fill="#00ADEE" d="M569.13,397.048c0-1.147-0.045-2.047-0.089-2.946h1.732l0.09,1.777h0.067
	c0.607-1.035,1.62-2.002,3.442-2.002c1.461,0,2.587,0.9,3.059,2.182h0.045c0.337-0.63,0.787-1.08,1.237-1.417
	c0.652-0.495,1.35-0.765,2.384-0.765c1.462,0,3.6,0.945,3.6,4.724v6.389h-1.934v-6.142c0-2.114-0.788-3.351-2.363-3.351
	c-1.147,0-2.001,0.832-2.362,1.777c-0.089,0.292-0.158,0.63-0.158,0.989v6.727h-1.934v-6.524c0-1.732-0.765-2.969-2.272-2.969
	c-1.215,0-2.137,0.989-2.452,1.979c-0.112,0.27-0.158,0.629-0.158,0.966v6.547h-1.934V397.048z"/>
<path fill="#00ADEE" d="M590.094,391.042c0,0.675-0.472,1.214-1.26,1.214c-0.72,0-1.192-0.54-1.192-1.214s0.496-1.238,1.237-1.238
	C589.599,389.804,590.094,390.344,590.094,391.042z M587.89,404.99v-10.888h1.98v10.888H587.89z"/>
<path fill="#00ADEE" d="M592.882,402.988c0.608,0.359,1.643,0.765,2.633,0.765c1.417,0,2.092-0.698,2.092-1.62
	c0-0.945-0.562-1.439-2.001-1.98c-1.98-0.72-2.903-1.777-2.903-3.082c0-1.754,1.44-3.194,3.757-3.194
	c1.102,0,2.07,0.292,2.655,0.675l-0.473,1.439c-0.427-0.271-1.214-0.653-2.227-0.653c-1.17,0-1.8,0.675-1.8,1.485
	c0,0.899,0.63,1.305,2.048,1.867c1.867,0.698,2.856,1.643,2.856,3.262c0,1.935-1.506,3.285-4.049,3.285
	c-1.192,0-2.295-0.316-3.06-0.765L592.882,402.988z"/>
<path fill="#00ADEE" d="M601.789,402.988c0.608,0.359,1.643,0.765,2.633,0.765c1.417,0,2.092-0.698,2.092-1.62
	c0-0.945-0.562-1.439-2.002-1.98c-1.98-0.72-2.903-1.777-2.903-3.082c0-1.754,1.44-3.194,3.757-3.194
	c1.103,0,2.07,0.292,2.655,0.675l-0.473,1.439c-0.428-0.271-1.214-0.653-2.227-0.653c-1.17,0-1.8,0.675-1.8,1.485
	c0,0.899,0.63,1.305,2.048,1.867c1.867,0.698,2.856,1.643,2.856,3.262c0,1.935-1.506,3.285-4.049,3.285
	c-1.193,0-2.295-0.316-3.06-0.765L601.789,402.988z"/>
<path fill="#00ADEE" d="M613.171,391.042c0,0.675-0.472,1.214-1.26,1.214c-0.72,0-1.192-0.54-1.192-1.214s0.496-1.238,1.237-1.238
	C612.676,389.804,613.171,390.344,613.171,391.042z M610.967,404.99v-10.888h1.98v10.888H610.967z"/>
<path fill="#00ADEE" d="M626.083,399.455c0,4.027-2.812,5.782-5.422,5.782c-2.924,0-5.219-2.16-5.219-5.602
	c0-3.623,2.408-5.759,5.4-5.759C623.969,393.876,626.083,396.148,626.083,399.455z M617.467,399.568c0,2.384,1.35,4.185,3.285,4.185
	c1.889,0,3.307-1.777,3.307-4.229c0-1.845-0.922-4.162-3.262-4.162C618.479,395.361,617.467,397.521,617.467,399.568z"/>
<path fill="#00ADEE" d="M628.579,397.048c0-1.147-0.022-2.047-0.089-2.946h1.754l0.113,1.799h0.045c0.541-1.012,1.8-2.024,3.6-2.024
	c1.506,0,3.847,0.9,3.847,4.634v6.479h-1.979v-6.276c0-1.755-0.652-3.217-2.52-3.217c-1.282,0-2.294,0.922-2.654,2.024
	c-0.089,0.247-0.135,0.584-0.135,0.921v6.547h-1.98V397.048z"/>
<path fill="#00ADEE" d="M648.036,391.042c0,0.675-0.472,1.214-1.26,1.214c-0.719,0-1.191-0.54-1.191-1.214s0.495-1.238,1.237-1.238
	C647.541,389.804,648.036,390.344,648.036,391.042z M645.831,404.99v-10.888h1.98v10.888H645.831z"/>
<path fill="#00ADEE" d="M650.824,402.988c0.608,0.359,1.643,0.765,2.633,0.765c1.417,0,2.092-0.698,2.092-1.62
	c0-0.945-0.562-1.439-2.002-1.98c-1.98-0.72-2.902-1.777-2.902-3.082c0-1.754,1.439-3.194,3.757-3.194
	c1.103,0,2.07,0.292,2.655,0.675l-0.473,1.439c-0.427-0.271-1.214-0.653-2.227-0.653c-1.17,0-1.8,0.675-1.8,1.485
	c0,0.899,0.63,1.305,2.048,1.867c1.867,0.698,2.856,1.643,2.856,3.262c0,1.935-1.506,3.285-4.049,3.285
	c-1.193,0-2.295-0.316-3.06-0.765L650.824,402.988z"/>
<path fill="#00ADEE" d="M667.154,391.491v2.61h2.835v1.506h-2.835v5.872c0,1.35,0.383,2.115,1.485,2.115
	c0.541,0,0.855-0.045,1.147-0.135l0.09,1.506c-0.382,0.136-0.989,0.271-1.754,0.271c-0.923,0-1.665-0.316-2.138-0.833
	c-0.539-0.607-0.765-1.574-0.765-2.856v-5.94h-1.686v-1.506h1.686v-2.025L667.154,391.491z"/>
<path fill="#00ADEE" d="M681.934,399.455c0,4.027-2.812,5.782-5.422,5.782c-2.924,0-5.219-2.16-5.219-5.602
	c0-3.623,2.407-5.759,5.399-5.759C679.82,393.876,681.934,396.148,681.934,399.455z M673.317,399.568
	c0,2.384,1.35,4.185,3.285,4.185c1.889,0,3.307-1.777,3.307-4.229c0-1.845-0.922-4.162-3.262-4.162
	C674.33,395.361,673.317,397.521,673.317,399.568z"/>
<path fill="#00ADEE" d="M696.959,404.607c-0.518,0.248-1.665,0.63-3.127,0.63c-3.284,0-5.422-2.228-5.422-5.557
	c0-3.353,2.294-5.804,5.849-5.804c1.171,0,2.204,0.292,2.745,0.584l-0.45,1.508c-0.473-0.248-1.214-0.518-2.295-0.518
	c-2.498,0-3.847,1.867-3.847,4.117c0,2.519,1.621,4.072,3.781,4.072c1.125,0,1.867-0.27,2.429-0.517L696.959,404.607z"/>
<path fill="#00ADEE" d="M699.275,389.017h1.98v6.817h0.045c0.314-0.563,0.81-1.081,1.417-1.418c0.585-0.337,1.282-0.539,2.025-0.539
	c1.462,0,3.802,0.9,3.802,4.634v6.479h-1.979v-6.254c0-1.754-0.652-3.217-2.52-3.217c-1.282,0-2.271,0.901-2.654,1.958
	c-0.113,0.292-0.135,0.584-0.135,0.945v6.569h-1.98V389.017z"/>
<path fill="#00ADEE" d="M719.407,402.379c0,0.946,0.045,1.868,0.159,2.61h-1.778l-0.157-1.372h-0.067
	c-0.608,0.855-1.778,1.62-3.33,1.62c-2.205,0-3.329-1.553-3.329-3.127c0-2.632,2.339-4.072,6.546-4.05v-0.225
	c0-0.877-0.248-2.519-2.475-2.497c-1.035,0-2.092,0.292-2.857,0.81l-0.45-1.327c0.9-0.562,2.227-0.945,3.6-0.945
	c3.329,0,4.138,2.272,4.138,4.432V402.379z M717.495,399.433c-2.16-0.044-4.611,0.338-4.611,2.453c0,1.305,0.856,1.889,1.845,1.889
	c1.44,0,2.363-0.899,2.677-1.822c0.067-0.225,0.089-0.449,0.089-0.63V399.433z"/>
<path fill="#00ADEE" d="M722.601,397.048c0-1.147-0.023-2.047-0.09-2.946h1.754l0.114,1.799h0.044
	c0.541-1.012,1.799-2.024,3.599-2.024c1.508,0,3.848,0.9,3.848,4.634v6.479h-1.979v-6.276c0-1.755-0.653-3.217-2.52-3.217
	c-1.283,0-2.295,0.922-2.655,2.024c-0.089,0.247-0.135,0.584-0.135,0.921v6.547h-1.979V397.048z"/>
<path fill="#00ADEE" d="M744.399,403.392c0,2.52-0.519,4.027-1.554,4.994c-1.079,0.967-2.609,1.305-3.981,1.305
	c-1.305,0-2.746-0.314-3.623-0.9l0.495-1.529c0.721,0.472,1.845,0.876,3.195,0.876c2.023,0,3.508-1.058,3.508-3.824v-1.192h-0.043
	c-0.584,1.012-1.778,1.822-3.464,1.822c-2.7,0-4.634-2.294-4.634-5.309c0-3.69,2.407-5.759,4.927-5.759
	c1.889,0,2.902,0.967,3.397,1.867h0.043l0.067-1.642h1.756c-0.067,0.765-0.089,1.664-0.089,2.969V403.392z M742.417,398.397
	c0-0.337-0.022-0.63-0.113-0.876c-0.359-1.17-1.305-2.115-2.766-2.115c-1.891,0-3.241,1.597-3.241,4.117
	c0,2.137,1.103,3.914,3.217,3.914c1.239,0,2.34-0.765,2.746-2.023c0.113-0.338,0.157-0.72,0.157-1.057V398.397z"/>
<path fill="#00ADEE" d="M748.76,399.905c0.045,2.677,1.732,3.779,3.733,3.779c1.417,0,2.294-0.248,3.015-0.562l0.36,1.417
	c-0.696,0.315-1.912,0.698-3.644,0.698c-3.352,0-5.355-2.228-5.355-5.512c0-3.285,1.936-5.849,5.107-5.849
	c3.577,0,4.5,3.104,4.5,5.106c0,0.406-0.022,0.698-0.069,0.923H748.76z M754.565,398.488c0.021-1.237-0.518-3.194-2.746-3.194
	c-2.023,0-2.879,1.822-3.037,3.194H754.565z"/>
<path fill="#00ADEE" d="M538.361,429.975c0,2.521-0.518,4.027-1.553,4.995c-1.079,0.967-2.61,1.305-3.982,1.305
	c-1.305,0-2.745-0.315-3.622-0.9l0.495-1.529c0.72,0.473,1.845,0.877,3.195,0.877c2.024,0,3.509-1.058,3.509-3.824v-1.191h-0.046
	c-0.584,1.012-1.777,1.821-3.463,1.821c-2.7,0-4.635-2.295-4.635-5.309c0-3.69,2.407-5.759,4.927-5.759
	c1.889,0,2.902,0.966,3.396,1.867h0.045l0.067-1.643h1.755c-0.068,0.765-0.09,1.664-0.09,2.97V429.975z M536.381,424.98
	c0-0.338-0.023-0.63-0.113-0.877c-0.359-1.17-1.304-2.114-2.767-2.114c-1.89,0-3.24,1.597-3.24,4.116
	c0,2.138,1.102,3.914,3.217,3.914c1.238,0,2.34-0.765,2.745-2.023c0.113-0.337,0.158-0.721,0.158-1.058V424.98z"/>
<path fill="#00ADEE" d="M549.269,428.963c0,0.944,0.045,1.866,0.158,2.609h-1.777l-0.158-1.372h-0.067
	c-0.607,0.854-1.777,1.62-3.33,1.62c-2.205,0-3.33-1.554-3.33-3.127c0-2.632,2.34-4.072,6.546-4.051v-0.225
	c0-0.877-0.248-2.519-2.474-2.497c-1.036,0-2.093,0.293-2.858,0.81l-0.449-1.326c0.899-0.562,2.227-0.944,3.6-0.944
	c3.329,0,4.138,2.271,4.138,4.431V428.963z M547.357,426.016c-2.16-0.044-4.612,0.338-4.612,2.453c0,1.305,0.855,1.889,1.845,1.889
	c1.44,0,2.363-0.9,2.677-1.822c0.067-0.225,0.09-0.449,0.09-0.63V426.016z"/>
<path fill="#00ADEE" d="M552.462,423.631c0-1.147-0.045-2.048-0.09-2.946h1.732l0.09,1.777h0.067
	c0.608-1.036,1.621-2.002,3.443-2.002c1.461,0,2.587,0.898,3.059,2.182h0.045c0.337-0.631,0.787-1.08,1.237-1.417
	c0.652-0.495,1.35-0.765,2.384-0.765c1.463,0,3.6,0.944,3.6,4.724v6.389h-1.934v-6.142c0-2.114-0.788-3.352-2.362-3.352
	c-1.147,0-2.002,0.832-2.362,1.777c-0.09,0.293-0.158,0.63-0.158,0.989v6.727h-1.934v-6.523c0-1.732-0.765-2.97-2.272-2.97
	c-1.215,0-2.137,0.989-2.452,1.979c-0.112,0.27-0.158,0.63-0.158,0.968v6.546h-1.934V423.631z"/>
<path fill="#00ADEE" d="M572.324,426.488c0.045,2.677,1.732,3.778,3.734,3.778c1.417,0,2.294-0.247,3.015-0.561l0.36,1.416
	c-0.698,0.315-1.912,0.698-3.644,0.698c-3.353,0-5.355-2.228-5.355-5.512c0-3.285,1.935-5.849,5.107-5.849
	c3.577,0,4.5,3.104,4.5,5.105c0,0.406-0.023,0.698-0.068,0.923H572.324z M578.127,425.07c0.022-1.237-0.517-3.194-2.745-3.194
	c-2.025,0-2.879,1.822-3.037,3.194H578.127z"/>
<path fill="#00ADEE" d="M587.259,424.239c0-1.396-0.045-2.521-0.09-3.555h1.755l0.112,1.867h0.045
	c0.786-1.327,2.091-2.092,3.869-2.092c2.655,0,4.635,2.227,4.635,5.512c0,3.913-2.408,5.849-4.972,5.849
	c-1.44,0-2.7-0.63-3.352-1.711h-0.045v5.917h-1.957V424.239z M589.215,427.141c0,0.293,0.023,0.562,0.09,0.81
	c0.36,1.373,1.552,2.316,2.969,2.316c2.093,0,3.307-1.709,3.307-4.205c0-2.16-1.147-4.027-3.239-4.027
	c-1.35,0-2.632,0.945-2.993,2.43c-0.067,0.247-0.135,0.539-0.135,0.788V427.141z"/>
<path fill="#00ADEE" d="M609.168,428.58c0,1.147,0.021,2.138,0.089,2.992h-1.754l-0.113-1.777h-0.045
	c-0.496,0.878-1.665,2.025-3.6,2.025c-1.709,0-3.757-0.968-3.757-4.771v-6.365h1.98v6.006c0,2.07,0.652,3.487,2.429,3.487
	c1.328,0,2.25-0.923,2.61-1.822c0.112-0.27,0.179-0.63,0.179-1.013v-6.658h1.98V428.58z"/>
<path fill="#00ADEE" d="M612.451,415.601h1.957v6.838h0.045c0.698-1.214,1.957-1.979,3.712-1.979c2.722,0,4.612,2.249,4.612,5.533
	c0,3.892-2.475,5.827-4.905,5.827c-1.574,0-2.834-0.607-3.667-2.025h-0.045l-0.112,1.777h-1.688c0.045-0.743,0.09-1.845,0.09-2.812
	V415.601z M614.408,427.208c0,0.248,0.023,0.495,0.09,0.72c0.36,1.372,1.53,2.317,2.969,2.317c2.093,0,3.307-1.688,3.307-4.184
	c0-2.184-1.125-4.051-3.262-4.051c-1.327,0-2.587,0.945-2.992,2.431c-0.068,0.247-0.113,0.518-0.113,0.832V427.208z"/>
<path fill="#00ADEE" d="M625.249,415.601h1.979v15.972h-1.979V415.601z"/>
<path fill="#00ADEE" d="M632.761,417.625c0,0.675-0.472,1.214-1.26,1.214c-0.72,0-1.192-0.539-1.192-1.214s0.495-1.238,1.237-1.238
	C632.266,416.387,632.761,416.928,632.761,417.625z M630.557,431.572v-10.888h1.98v10.888H630.557z"/>
<path fill="#00ADEE" d="M635.549,429.57c0.607,0.359,1.642,0.765,2.633,0.765c1.417,0,2.091-0.697,2.091-1.619
	c0-0.945-0.562-1.44-2.002-1.979c-1.979-0.721-2.902-1.777-2.902-3.082c0-1.755,1.44-3.194,3.757-3.194
	c1.103,0,2.07,0.291,2.655,0.674l-0.473,1.44c-0.427-0.271-1.214-0.653-2.227-0.653c-1.17,0-1.8,0.675-1.8,1.484
	c0,0.9,0.63,1.306,2.048,1.868c1.867,0.698,2.857,1.643,2.857,3.262c0,1.935-1.507,3.285-4.049,3.285
	c-1.193,0-2.295-0.316-3.061-0.766L635.549,429.57z"/>
<path fill="#00ADEE" d="M644.727,415.601h1.98v6.816h0.045c0.314-0.563,0.81-1.081,1.417-1.418c0.585-0.338,1.282-0.539,2.025-0.539
	c1.461,0,3.802,0.898,3.802,4.634v6.479h-1.979v-6.254c0-1.754-0.653-3.217-2.52-3.217c-1.282,0-2.271,0.9-2.654,1.957
	c-0.113,0.292-0.134,0.584-0.134,0.944v6.569h-1.98V415.601z"/>
<path fill="#00ADEE" d="M659.415,417.625c0,0.675-0.472,1.214-1.26,1.214c-0.72,0-1.192-0.539-1.192-1.214s0.496-1.238,1.237-1.238
	C658.92,416.387,659.415,416.928,659.415,417.625z M657.21,431.572v-10.888h1.98v10.888H657.21z"/>
<path fill="#00ADEE" d="M662.473,423.631c0-1.147-0.022-2.048-0.089-2.946h1.754l0.113,1.799h0.045c0.541-1.013,1.8-2.023,3.6-2.023
	c1.507,0,3.847,0.898,3.847,4.634v6.479h-1.979v-6.276c0-1.755-0.653-3.217-2.52-3.217c-1.282,0-2.294,0.923-2.654,2.024
	c-0.089,0.247-0.134,0.585-0.134,0.923v6.546h-1.98V423.631z"/>
<path fill="#00ADEE" d="M684.271,429.975c0,2.521-0.519,4.027-1.553,4.995c-1.079,0.967-2.61,1.305-3.982,1.305
	c-1.305,0-2.745-0.315-3.623-0.9l0.496-1.529c0.719,0.473,1.845,0.877,3.195,0.877c2.024,0,3.509-1.058,3.509-3.824v-1.191h-0.045
	c-0.584,1.012-1.777,1.821-3.463,1.821c-2.7,0-4.635-2.295-4.635-5.309c0-3.69,2.407-5.759,4.927-5.759
	c1.889,0,2.902,0.966,3.396,1.867h0.045l0.066-1.643h1.756c-0.068,0.765-0.09,1.664-0.09,2.97V429.975z M682.291,424.98
	c0-0.338-0.023-0.63-0.113-0.877c-0.359-1.17-1.305-2.114-2.767-2.114c-1.89,0-3.24,1.597-3.24,4.116
	c0,2.138,1.103,3.914,3.217,3.914c1.238,0,2.34-0.765,2.745-2.023c0.113-0.337,0.158-0.721,0.158-1.058V424.98z"/>
<rect x="920.189" y="137.34" fill="#080004" width="588.915" height="368.071"/>
<path fill="#FFFFFF" d="M1000.408,359.274l-0.98,3.533h-3.212l4.192-13.773h4.087l4.292,13.773h-3.374l-1.062-3.533H1000.408z
	 M1003.902,356.941l-0.859-2.922c-0.245-0.817-0.489-1.84-0.695-2.654h-0.041c-0.204,0.814-0.408,1.857-0.632,2.654l-0.817,2.922
	H1003.902z"/>
<path fill="#FFFFFF" d="M1010.387,348.299h3.106v14.509h-3.106V348.299z"/>
<path fill="#FFFFFF" d="M1018.402,358.803c0.081,1.288,1.369,1.901,2.818,1.901c1.062,0,1.922-0.144,2.761-0.43l0.409,2.104
	c-1.022,0.43-2.27,0.634-3.617,0.634c-3.395,0-5.335-1.96-5.335-5.088c0-2.534,1.573-5.335,5.048-5.335
	c3.229,0,4.455,2.515,4.455,4.987c0,0.531-0.062,1.003-0.102,1.227H1018.402z M1022.06,356.678c0-0.757-0.328-2.025-1.758-2.025
	c-1.308,0-1.839,1.207-1.921,2.025H1022.06z"/>
<path fill="#FFFFFF" d="M1028.933,352.815l0.98,1.674c0.285,0.511,0.553,1.002,0.816,1.493h0.042
	c0.266-0.551,0.511-1.042,0.776-1.533l0.879-1.634h3.371l-3.289,4.761l3.331,5.231h-3.515l-1-1.796
	c-0.288-0.491-0.531-1.003-0.779-1.514h-0.061c-0.245,0.531-0.511,1.022-0.756,1.514l-0.941,1.796h-3.412l3.393-5.087l-3.311-4.905
	H1028.933z"/>
<path fill="#FFFFFF" d="M1045.491,360.396c0,0.939,0.042,1.86,0.164,2.411h-2.8l-0.184-1.003h-0.06
	c-0.655,0.799-1.678,1.227-2.861,1.227c-2.023,0-3.229-1.468-3.229-3.062c0-2.597,2.328-3.823,5.865-3.823v-0.124
	c0-0.551-0.286-1.308-1.818-1.308c-1.023,0-2.105,0.347-2.761,0.757l-0.571-2.004c0.695-0.389,2.064-0.9,3.882-0.9
	c3.331,0,4.373,1.963,4.373,4.334V360.396z M1042.488,358.088c-1.633,0-2.901,0.388-2.901,1.574c0,0.797,0.532,1.186,1.227,1.186
	c0.756,0,1.409-0.511,1.614-1.146c0.041-0.164,0.061-0.348,0.061-0.531V358.088z"/>
<path fill="#FFFFFF" d="M1047.972,356.003c0-1.246-0.041-2.289-0.082-3.188h2.697l0.144,1.39h0.06
	c0.41-0.655,1.41-1.616,3.088-1.616c2.043,0,3.574,1.369,3.574,4.312v5.906h-3.105v-5.539c0-1.286-0.449-2.165-1.572-2.165
	c-0.859,0-1.371,0.592-1.596,1.165c-0.08,0.205-0.101,0.489-0.101,0.776v5.763h-3.106V356.003z"/>
<path fill="#FFFFFF" d="M1069.642,348.299v11.526c0,1.121,0.04,2.308,0.08,2.982h-2.76l-0.121-1.448h-0.062
	c-0.611,1.101-1.838,1.672-3.127,1.672c-2.369,0-4.27-2.02-4.27-5.127c-0.021-3.374,2.084-5.337,4.475-5.337
	c1.248,0,2.186,0.451,2.639,1.126h0.039v-5.395H1069.642z M1066.535,357.045c0-0.163,0-0.388-0.039-0.571
	c-0.188-0.818-0.859-1.514-1.822-1.514c-1.43,0-2.145,1.267-2.145,2.841c0,1.697,0.839,2.76,2.125,2.76
	c0.898,0,1.635-0.613,1.818-1.492c0.043-0.226,0.062-0.47,0.062-0.715V357.045z"/>
<path fill="#FFFFFF" d="M1074.531,358.803c0.083,1.288,1.369,1.901,2.821,1.901c1.064,0,1.921-0.144,2.758-0.43l0.411,2.104
	c-1.022,0.43-2.268,0.634-3.618,0.634c-3.393,0-5.336-1.96-5.336-5.088c0-2.534,1.576-5.335,5.048-5.335
	c3.23,0,4.457,2.515,4.457,4.987c0,0.531-0.062,1.003-0.104,1.227H1074.531z M1078.189,356.678c0-0.757-0.325-2.025-1.758-2.025
	c-1.307,0-1.838,1.207-1.921,2.025H1078.189z"/>
<path fill="#FFFFFF" d="M1082.937,356.104c0-1.472-0.02-2.433-0.08-3.289h2.656l0.123,1.837h0.081
	c0.511-1.47,1.717-2.085,2.698-2.085c0.285,0,0.429,0.021,0.652,0.063v2.923c-0.244-0.042-0.489-0.082-0.837-0.082
	c-1.145,0-1.921,0.613-2.127,1.573c-0.039,0.204-0.06,0.45-0.06,0.695v5.067h-3.107V356.104z"/>
<path fill="#FFFFFF" d="M1094.941,349.034h3.086v6.09h0.041c0.307-0.531,0.633-1.022,0.961-1.514l3.107-4.576h3.842l-4.558,5.866
	l4.78,7.907h-3.617l-3.391-5.946l-1.166,1.45v4.496h-3.086V349.034z"/>
<path fill="#FFFFFF" d="M1116.917,357.7c0,3.659-2.597,5.331-5.271,5.331c-2.925,0-5.173-1.921-5.173-5.147
	c0-3.251,2.124-5.316,5.356-5.316C1114.873,352.567,1116.917,354.673,1116.917,357.7z M1109.682,357.801
	c0,1.717,0.715,3.005,2.042,3.005c1.227,0,1.983-1.206,1.983-3.025c0-1.47-0.573-2.984-1.983-2.984
	C1110.255,354.796,1109.682,356.33,1109.682,357.801z"/>
<path fill="#FFFFFF" d="M1118.846,348.299h3.104v5.721h0.042c0.325-0.449,0.735-0.797,1.227-1.041c0.47-0.247,1.042-0.39,1.614-0.39
	c1.98,0,3.494,1.369,3.494,4.395v5.824h-3.107v-5.497c0-1.308-0.447-2.207-1.613-2.207c-0.818,0-1.33,0.531-1.555,1.103
	c-0.081,0.185-0.102,0.451-0.102,0.676v5.926h-3.104V348.299z"/>
<path fill="#FFFFFF" d="M1130.828,348.299h3.106v14.509h-3.106V348.299z"/>
<path fill="#FFFFFF" d="M1136.451,348.299h3.107v5.721h0.039c0.328-0.449,0.735-0.797,1.227-1.041
	c0.471-0.247,1.043-0.39,1.613-0.39c1.982,0,3.495,1.369,3.495,4.395v5.824h-3.104v-5.497c0-1.308-0.45-2.207-1.616-2.207
	c-0.817,0-1.328,0.531-1.554,1.103c-0.08,0.185-0.1,0.451-0.1,0.676v5.926h-3.107V348.299z"/>
<path fill="#FFFFFF" d="M1158.304,357.7c0,3.659-2.596,5.331-5.271,5.331c-2.923,0-5.172-1.921-5.172-5.147
	c0-3.251,2.125-5.316,5.355-5.316C1156.26,352.567,1158.304,354.673,1158.304,357.7z M1151.07,357.801
	c0,1.717,0.715,3.005,2.043,3.005c1.227,0,1.983-1.206,1.983-3.025c0-1.47-0.573-2.984-1.983-2.984
	C1151.644,354.796,1151.07,356.33,1151.07,357.801z"/>
<path fill="#FFFFFF" d="M1160.599,362.808v-7.704h-1.327v-2.288h1.327v-0.39c0-1.205,0.367-2.533,1.248-3.352
	c0.795-0.735,1.857-1.001,2.777-1.001c0.676,0,1.207,0.102,1.636,0.206l-0.124,2.391c-0.264-0.082-0.591-0.144-1-0.144
	c-1.02,0-1.451,0.795-1.451,1.777v0.512h2.004v2.288h-1.984v7.704H1160.599z"/>
<path fill="#FFFFFF" d="M1169.392,358.803c0.08,1.288,1.369,1.901,2.818,1.901c1.063,0,1.922-0.144,2.761-0.43l0.407,2.104
	c-1.021,0.43-2.269,0.634-3.615,0.634c-3.395,0-5.334-1.96-5.334-5.088c0-2.534,1.572-5.335,5.048-5.335
	c3.227,0,4.452,2.515,4.452,4.987c0,0.531-0.059,1.003-0.1,1.227H1169.392z M1173.05,356.678c0-0.757-0.328-2.025-1.758-2.025
	c-1.31,0-1.841,1.207-1.921,2.025H1173.05z"/>
<path fill="#FFFFFF" d="M1177.798,356.104c0-1.472-0.021-2.433-0.083-3.289h2.657l0.122,1.837h0.081
	c0.512-1.47,1.719-2.085,2.699-2.085c0.287,0,0.43,0.021,0.654,0.063v2.923c-0.245-0.042-0.49-0.082-0.838-0.082
	c-1.145,0-1.922,0.613-2.125,1.573c-0.043,0.204-0.062,0.45-0.062,0.695v5.067h-3.105V356.104z"/>
<path fill="#FFFFFF" d="M1004.291,401.336c0,0.854,0.041,1.693,0.143,2.368h-1.615l-0.143-1.246h-0.062
	c-0.551,0.775-1.612,1.471-3.022,1.471c-2.005,0-3.028-1.41-3.028-2.839c0-2.393,2.127-3.699,5.949-3.679v-0.204
	c0-0.799-0.225-2.291-2.248-2.269c-0.94,0-1.899,0.264-2.594,0.734l-0.412-1.206c0.819-0.511,2.025-0.858,3.271-0.858
	c3.025,0,3.762,2.064,3.762,4.026V401.336z M1002.553,398.657c-1.962-0.04-4.189,0.308-4.189,2.229c0,1.184,0.775,1.717,1.675,1.717
	c1.31,0,2.146-0.819,2.432-1.656c0.062-0.204,0.083-0.407,0.083-0.571V398.657z"/>
<path fill="#FFFFFF" d="M1007.197,389.196h1.799v14.508h-1.799V389.196z"/>
<path fill="#FFFFFF" d="M1013.024,399.087c0.042,2.431,1.573,3.432,3.392,3.432c1.289,0,2.086-0.225,2.74-0.512l0.325,1.29
	c-0.633,0.284-1.736,0.632-3.311,0.632c-3.045,0-4.862-2.02-4.862-5.006c0-2.984,1.758-5.314,4.637-5.314
	c3.25,0,4.09,2.82,4.09,4.642c0,0.367-0.021,0.631-0.062,0.837H1013.024z M1018.297,397.799c0.021-1.123-0.472-2.902-2.494-2.902
	c-1.839,0-2.616,1.655-2.758,2.902H1018.297z"/>
<path fill="#FFFFFF" d="M1023.042,393.812l1.411,2.127c0.39,0.554,0.695,1.043,1.021,1.595h0.043
	c0.326-0.573,0.652-1.083,0.999-1.616l1.37-2.105h1.963l-3.372,4.786l3.454,5.106h-2.025l-1.469-2.229
	c-0.389-0.569-0.715-1.121-1.062-1.714h-0.042c-0.327,0.593-0.653,1.124-1.042,1.714l-1.433,2.229h-1.98l3.515-5.047l-3.351-4.846
	H1023.042z"/>
<path fill="#FFFFFF" d="M1040.89,405.033c-1.121,0.593-2.268,0.816-3.638,0.816c-3.352,0-6.19-2.452-6.19-6.396
	c0-4.21,2.92-7.869,7.459-7.869c3.556,0,5.926,2.515,5.926,5.928c0,3.066-1.715,4.863-3.617,4.863c-0.818,0-1.572-0.533-1.532-1.797
	h-0.06c-0.717,1.204-1.658,1.797-2.885,1.797c-1.186,0-2.207-0.959-2.207-2.574c0-2.534,2.004-4.844,4.843-4.844
	c0.858,0,1.657,0.184,2.188,0.428l-0.694,3.701c-0.308,1.554-0.062,2.267,0.611,2.291c1.042,0.039,2.209-1.371,2.209-3.723
	c0-2.984-1.778-5.13-4.944-5.13c-3.334,0-6.133,2.656-6.133,6.807c0,3.412,2.227,5.539,5.252,5.539c1.164,0,2.248-0.247,3.085-0.717
	L1040.89,405.033z M1039.769,396.204c-0.207-0.081-0.554-0.163-1.023-0.163c-1.799,0-3.251,1.697-3.251,3.679
	c0,0.898,0.451,1.553,1.351,1.553c1.186,0,2.269-1.511,2.491-2.779L1039.769,396.204z"/>
<path fill="#00ADEE" d="M1053.487,402.19h-0.04c-0.551,0.963-1.635,1.738-3.229,1.738c-2.311,0-4.189-1.981-4.189-4.984
	c0-3.723,2.39-5.336,4.475-5.336c1.534,0,2.557,0.757,3.045,1.697h0.042l0.06-1.494h1.698c-0.04,0.819-0.082,1.698-0.082,2.721
	v11.219h-1.779V402.19z M1053.487,397.818c0-0.243-0.021-0.511-0.08-0.735c-0.288-1.103-1.226-2.045-2.575-2.045
	c-1.861,0-2.984,1.574-2.984,3.783c0,1.979,0.939,3.677,2.924,3.677c1.162,0,2.164-0.715,2.574-1.939
	c0.082-0.266,0.142-0.613,0.142-0.879V397.818z"/>
<path fill="#00ADEE" d="M1066.533,400.988c0,1.04,0.021,1.939,0.082,2.716h-1.594l-0.104-1.613h-0.039
	c-0.45,0.795-1.515,1.838-3.271,1.838c-1.555,0-3.411-0.879-3.411-4.331v-5.786h1.796v5.459c0,1.878,0.594,3.168,2.209,3.168
	c1.205,0,2.044-0.839,2.369-1.656c0.104-0.243,0.164-0.571,0.164-0.919v-6.052h1.799V400.988z"/>
<path fill="#00ADEE" d="M1076.472,401.336c0,0.854,0.041,1.693,0.143,2.368h-1.613l-0.144-1.246h-0.062
	c-0.554,0.775-1.616,1.471-3.025,1.471c-2.002,0-3.023-1.41-3.023-2.839c0-2.393,2.125-3.699,5.946-3.679v-0.204
	c0-0.799-0.224-2.291-2.248-2.269c-0.938,0-1.901,0.264-2.597,0.734l-0.407-1.206c0.817-0.511,2.023-0.858,3.27-0.858
	c3.024,0,3.761,2.064,3.761,4.026V401.336z M1074.734,398.657c-1.961-0.04-4.189,0.308-4.189,2.229c0,1.184,0.777,1.717,1.678,1.717
	c1.306,0,2.145-0.819,2.432-1.656c0.061-0.204,0.08-0.407,0.08-0.571V398.657z"/>
<path fill="#00ADEE" d="M1079.379,396.899c0-1.166-0.021-2.167-0.082-3.088h1.573l0.082,1.964h0.062
	c0.449-1.328,1.552-2.167,2.759-2.167c0.184,0,0.327,0.02,0.49,0.04v1.697c-0.184-0.04-0.367-0.04-0.613-0.04
	c-1.268,0-2.166,0.939-2.409,2.289c-0.043,0.244-0.065,0.551-0.065,0.839v5.271h-1.796V396.899z"/>
<path fill="#00ADEE" d="M1088.722,391.444v2.367h2.574v1.37h-2.574v5.337c0,1.227,0.348,1.92,1.349,1.92
	c0.491,0,0.778-0.042,1.042-0.124l0.084,1.37c-0.348,0.122-0.9,0.244-1.596,0.244c-0.837,0-1.512-0.284-1.941-0.756
	c-0.491-0.551-0.693-1.428-0.693-2.594v-5.397h-1.535v-1.37h1.535v-1.836L1088.722,391.444z"/>
<path fill="#00ADEE" d="M1094.205,399.087c0.039,2.431,1.572,3.432,3.391,3.432c1.29,0,2.084-0.225,2.739-0.512l0.327,1.29
	c-0.635,0.284-1.737,0.632-3.311,0.632c-3.045,0-4.864-2.02-4.864-5.006c0-2.984,1.757-5.314,4.639-5.314
	c3.249,0,4.088,2.82,4.088,4.642c0,0.367-0.021,0.631-0.06,0.837H1094.205z M1099.476,397.799c0.02-1.123-0.472-2.902-2.492-2.902
	c-1.842,0-2.615,1.655-2.76,2.902H1099.476z"/>
<path fill="#00ADEE" d="M1103.446,396.899c0-1.166-0.021-2.167-0.082-3.088h1.574l0.081,1.964h0.062
	c0.449-1.328,1.551-2.167,2.758-2.167c0.184,0,0.327,0.02,0.49,0.04v1.697c-0.184-0.04-0.367-0.04-0.613-0.04
	c-1.268,0-2.166,0.939-2.409,2.289c-0.042,0.244-0.063,0.551-0.063,0.839v5.271h-1.798V396.899z"/>
<path fill="#00ADEE" d="M1109.888,401.885c0.551,0.328,1.492,0.695,2.39,0.695c1.288,0,1.901-0.633,1.901-1.47
	c0-0.859-0.512-1.309-1.82-1.798c-1.797-0.655-2.635-1.616-2.635-2.801c0-1.596,1.309-2.903,3.412-2.903
	c1.001,0,1.88,0.268,2.411,0.613l-0.428,1.308c-0.388-0.243-1.104-0.591-2.024-0.591c-1.063,0-1.634,0.611-1.634,1.348
	c0,0.817,0.57,1.185,1.858,1.696c1.696,0.635,2.597,1.493,2.597,2.964c0,1.756-1.37,2.982-3.681,2.982
	c-1.082,0-2.082-0.284-2.777-0.695L1109.888,401.885z"/>
<path fill="#00ADEE" d="M1118.231,397.044c0-1.269-0.042-2.289-0.083-3.232h1.596l0.101,1.698h0.04
	c0.717-1.206,1.901-1.901,3.517-1.901c2.41,0,4.21,2.025,4.21,5.009c0,3.554-2.188,5.312-4.516,5.312
	c-1.31,0-2.453-0.571-3.047-1.553h-0.041v5.375h-1.776V397.044z M1120.007,399.68c0,0.266,0.021,0.512,0.082,0.735
	c0.326,1.244,1.41,2.104,2.699,2.104c1.9,0,3.002-1.555,3.002-3.821c0-1.962-1.042-3.659-2.942-3.659
	c-1.227,0-2.392,0.859-2.716,2.209c-0.064,0.224-0.125,0.491-0.125,0.715V399.68z"/>
<path fill="#00ADEE" d="M1131.869,391.032c0,0.616-0.43,1.107-1.145,1.107c-0.655,0-1.083-0.491-1.083-1.107
	c0-0.61,0.448-1.121,1.122-1.121C1131.419,389.911,1131.869,390.402,1131.869,391.032z M1129.865,403.704v-9.893h1.798v9.893
	H1129.865z"/>
<path fill="#00ADEE" d="M1134.65,396.899c0-1.166-0.021-2.167-0.082-3.088h1.573l0.082,1.964h0.062
	c0.449-1.328,1.551-2.167,2.758-2.167c0.184,0,0.328,0.02,0.491,0.04v1.697c-0.184-0.04-0.368-0.04-0.613-0.04
	c-1.269,0-2.166,0.939-2.409,2.289c-0.043,0.244-0.064,0.551-0.064,0.839v5.271h-1.797V396.899z"/>
<path fill="#00ADEE" d="M1148.185,401.336c0,0.854,0.039,1.693,0.142,2.368h-1.616l-0.142-1.246h-0.062
	c-0.552,0.775-1.613,1.471-3.023,1.471c-2.005,0-3.027-1.41-3.027-2.839c0-2.393,2.127-3.699,5.949-3.679v-0.204
	c0-0.799-0.227-2.291-2.248-2.269c-0.941,0-1.9,0.264-2.596,0.734l-0.41-1.206c0.818-0.511,2.024-0.858,3.271-0.858
	c3.024,0,3.762,2.064,3.762,4.026V401.336z M1146.447,398.657c-1.962-0.04-4.189,0.308-4.189,2.229c0,1.184,0.775,1.717,1.674,1.717
	c1.311,0,2.146-0.819,2.432-1.656c0.062-0.204,0.084-0.407,0.084-0.571V398.657z"/>
<path fill="#00ADEE" d="M1151.09,389.196h1.799v14.508h-1.799V389.196z"/>
<path fill="#00ADEE" d="M1155.282,402.642c0-0.732,0.511-1.288,1.226-1.288c0.717,0,1.207,0.531,1.207,1.288
	c0,0.735-0.49,1.287-1.246,1.287C1155.773,403.929,1155.282,403.377,1155.282,402.642z"/>
<path fill="#00ADEE" d="M1166.996,403.357c-0.471,0.224-1.514,0.571-2.84,0.571c-2.985,0-4.926-2.02-4.926-5.048
	c0-3.044,2.084-5.272,5.312-5.272c1.062,0,2.004,0.268,2.493,0.531l-0.407,1.37c-0.43-0.224-1.105-0.472-2.086-0.472
	c-2.268,0-3.494,1.697-3.494,3.743c0,2.289,1.471,3.697,3.433,3.697c1.022,0,1.696-0.246,2.207-0.472L1166.996,403.357z"/>
<path fill="#00ADEE" d="M1177.935,398.677c0,3.658-2.557,5.252-4.926,5.252c-2.656,0-4.742-1.962-4.742-5.088
	c0-3.291,2.188-5.232,4.904-5.232C1176.013,393.608,1177.935,395.673,1177.935,398.677z M1170.107,398.781
	c0,2.165,1.227,3.799,2.982,3.799c1.719,0,3.004-1.616,3.004-3.841c0-1.676-0.836-3.781-2.963-3.781
	C1171.026,394.958,1170.107,396.92,1170.107,398.781z"/>
<path fill="#00ADEE" d="M1180.207,396.492c0-1.043-0.039-1.861-0.08-2.681h1.574l0.08,1.616h0.063
	c0.552-0.94,1.47-1.819,3.125-1.819c1.329,0,2.351,0.818,2.78,1.983h0.042c0.306-0.573,0.715-0.981,1.122-1.288
	c0.596-0.45,1.227-0.695,2.168-0.695c1.327,0,3.27,0.858,3.27,4.294v5.802h-1.759v-5.578c0-1.922-0.715-3.046-2.146-3.046
	c-1.043,0-1.818,0.757-2.145,1.616c-0.083,0.264-0.143,0.571-0.143,0.898v6.109h-1.758v-5.926c0-1.574-0.695-2.698-2.064-2.698
	c-1.104,0-1.941,0.9-2.229,1.8c-0.103,0.244-0.143,0.571-0.143,0.879v5.945h-1.76V396.492z"/>
<path fill="#FFFFFF" d="M1001.223,416.106c-1.491,2.02-2.554,4.658-2.554,8.379c0,3.635,1.125,6.231,2.554,8.275h-1.39
	c-1.285-1.696-2.676-4.312-2.676-8.297c0.02-4.005,1.391-6.642,2.676-8.357H1001.223z"/>
<path fill="#FFFFFF" d="M1008.134,430.288v-3.638h-6.172v-1.165l5.927-8.48h1.941v8.256h1.861v1.39h-1.861v3.638H1008.134z
	 M1008.134,425.261v-4.435c0-0.695,0.021-1.39,0.062-2.085h-0.062c-0.409,0.775-0.736,1.348-1.104,1.961l-3.249,4.518v0.041
	H1008.134z"/>
<path fill="#FFFFFF" d="M1016.969,418.679h-0.042l-2.308,1.247l-0.348-1.366l2.901-1.555h1.531v13.283h-1.735V418.679z"/>
<path fill="#FFFFFF" d="M1031.486,418.516h-5.068l-0.512,3.413c0.308-0.04,0.594-0.061,1.082-0.061c1.043,0,2.045,0.204,2.861,0.716
	c1.043,0.571,1.9,1.737,1.9,3.392c0,2.595-2.062,4.536-4.945,4.536c-1.449,0-2.656-0.408-3.311-0.817l0.451-1.366
	c0.551,0.323,1.633,0.733,2.859,0.733c1.678,0,3.147-1.102,3.127-2.881c0-1.717-1.164-2.922-3.802-2.922
	c-0.774,0-1.368,0.061-1.857,0.122l0.856-6.376h6.357V418.516z"/>
<path fill="#FFFFFF" d="M1033.535,432.761c1.429-2.023,2.555-4.66,2.555-8.34c0-3.679-1.104-6.271-2.555-8.314h1.389
	c1.288,1.672,2.678,4.311,2.678,8.314c-0.021,4.006-1.39,6.622-2.678,8.34H1033.535z"/>
<path fill="#FFFFFF" d="M1046.639,423.299c-1.491-0.695-2.124-1.84-2.124-2.984c0-2.103,1.777-3.535,4.127-3.535
	c2.576,0,3.883,1.596,3.883,3.269c0,1.126-0.572,2.353-2.205,3.107v0.062c1.653,0.653,2.676,1.84,2.676,3.434
	c0,2.329-1.98,3.861-4.518,3.861c-2.779,0-4.455-1.634-4.455-3.574c0-1.677,1.002-2.884,2.639-3.579L1046.639,423.299z
	 M1051.177,426.834c0-1.594-1.125-2.391-2.922-2.902c-1.555,0.45-2.393,1.492-2.393,2.761c-0.06,1.326,0.963,2.513,2.656,2.513
	C1050.136,429.205,1051.177,428.202,1051.177,426.834z M1046.23,420.191c-0.02,1.33,1.002,2.045,2.536,2.452
	c1.143-0.387,2.021-1.206,2.021-2.412c0-1.062-0.632-2.164-2.247-2.164C1047.048,418.067,1046.23,419.047,1046.23,420.191z"/>
<path fill="#FFFFFF" d="M1055.719,429.021c0.388,0.04,0.839,0,1.45-0.062c1.043-0.144,2.024-0.553,2.779-1.286
	c0.879-0.797,1.514-1.961,1.758-3.516h-0.061c-0.734,0.899-1.797,1.41-3.146,1.41c-2.373,0-3.904-1.799-3.904-4.068
	c0-2.514,1.819-4.72,4.537-4.72s4.396,2.186,4.396,5.621c0,2.901-0.983,4.945-2.289,6.212c-1.022,1-2.432,1.615-3.864,1.777
	c-0.652,0.102-1.226,0.122-1.655,0.102V429.021z M1056.375,421.397c0,1.656,1,2.82,2.555,2.82c1.203,0,2.146-0.592,2.615-1.391
	c0.102-0.184,0.162-0.367,0.162-0.675c0-2.269-0.837-4.003-2.736-4.003C1057.457,418.149,1056.375,419.496,1056.375,421.397z"/>
<path fill="#FFFFFF" d="M1070.726,430.288v-3.638h-6.172v-1.165l5.927-8.48h1.94v8.256h1.861v1.39h-1.861v3.638H1070.726z
	 M1070.726,425.261v-4.435c0-0.695,0.021-1.39,0.062-2.085h-0.062c-0.409,0.775-0.736,1.348-1.104,1.961l-3.249,4.518v0.041
	H1070.726z"/>
<path fill="#FFFFFF" d="M1087.921,418.516h-5.068l-0.511,3.413c0.306-0.04,0.591-0.061,1.083-0.061c1.042,0,2.044,0.204,2.859,0.716
	c1.042,0.571,1.9,1.737,1.9,3.392c0,2.595-2.062,4.536-4.943,4.536c-1.453,0-2.656-0.408-3.311-0.817l0.447-1.366
	c0.554,0.323,1.637,0.733,2.863,0.733c1.674,0,3.146-1.102,3.126-2.881c0-1.717-1.166-2.922-3.802-2.922
	c-0.777,0-1.37,0.061-1.861,0.122l0.859-6.376h6.357V418.516z"/>
<path fill="#FFFFFF" d="M1094.384,418.679h-0.041l-2.308,1.247l-0.348-1.366l2.899-1.555h1.534v13.283h-1.737V418.679z"/>
<path fill="#FFFFFF" d="M1103.421,423.299c-1.489-0.695-2.125-1.84-2.125-2.984c0-2.103,1.778-3.535,4.131-3.535
	c2.574,0,3.881,1.596,3.881,3.269c0,1.126-0.57,2.353-2.206,3.107v0.062c1.655,0.653,2.679,1.84,2.679,3.434
	c0,2.329-1.984,3.861-4.518,3.861c-2.779,0-4.457-1.634-4.457-3.574c0-1.677,1.002-2.884,2.638-3.579L1103.421,423.299z
	 M1107.958,426.834c0-1.594-1.122-2.391-2.922-2.902c-1.551,0.45-2.39,1.492-2.39,2.761c-0.062,1.326,0.961,2.513,2.655,2.513
	C1106.917,429.205,1107.958,428.202,1107.958,426.834z M1103.015,420.191c-0.021,1.33,1.002,2.045,2.533,2.452
	c1.145-0.387,2.023-1.206,2.023-2.412c0-1.062-0.633-2.164-2.249-2.164C1103.833,418.067,1103.015,419.047,1103.015,420.191z"/>
<path fill="#FFFFFF" d="M1115.363,418.679h-0.039l-2.309,1.247l-0.348-1.366l2.9-1.555h1.533v13.283h-1.738V418.679z"/>
<g>
	<g>
		<path fill="#FFFFFF" d="M1307.089,321.534c-2.211-0.613-4.188-1.271-6.187-2.047c-0.329-0.143-0.683-0.211-1.034-0.235
			c-3.67-0.188-6.941-2.895-6.941-8.046c0-4.918,3.035-8.353,7.576-8.353c4.587,0,7.316,3.529,7.316,8.023
			c0,3.811-1.766,6.374-4.094,7.316v0.093c1.364,0.379,2.894,0.706,4.188,0.94L1307.089,321.534z M1304.761,310.993
			c0-3.011-1.482-5.81-4.352-5.81c-2.896,0-4.424,2.753-4.424,5.929c0,3.175,1.623,5.812,4.399,5.812
			S1304.761,314.334,1304.761,310.993z"/>
		<path fill="#FFFFFF" d="M1320.556,315.557c0,1.367,0.049,2.497,0.094,3.436h-2.516l-0.142-1.718h-0.07
			c-0.495,0.801-1.624,1.978-3.694,1.978s-3.976-1.246-3.976-4.988v-6.729h2.894v6.235c0,1.906,0.611,3.129,2.141,3.129
			c1.176,0,1.929-0.799,2.213-1.554c0.117-0.236,0.164-0.563,0.164-0.896v-6.915h2.893V315.557z"/>
		<path fill="#FFFFFF" d="M1332.587,316.241c0,1.033,0.047,2.045,0.188,2.751h-2.612l-0.211-1.271h-0.07
			c-0.684,0.896-1.882,1.53-3.387,1.53c-2.307,0-3.601-1.67-3.601-3.411c0-2.871,2.563-4.354,6.8-4.328v-0.189
			c0-0.752-0.307-2-2.331-2c-1.128,0-2.304,0.354-3.081,0.846l-0.565-1.881c0.847-0.517,2.33-1.01,4.142-1.01
			c3.671,0,4.729,2.329,4.729,4.844V316.241z M1329.763,313.392c-2.045-0.021-3.998,0.402-3.998,2.142c0,1.13,0.73,1.65,1.646,1.65
			c1.176,0,1.999-0.755,2.283-1.577c0.068-0.213,0.068-0.424,0.068-0.637V313.392z"/>
		<path fill="#FFFFFF" d="M1335.652,311.229c0-1.552-0.023-2.681-0.095-3.693h2.495l0.117,2.165h0.069
			c0.565-1.6,1.907-2.422,3.153-2.422c0.283,0,0.447,0.021,0.684,0.069v2.705c-0.261-0.047-0.518-0.07-0.871-0.07
			c-1.363,0-2.328,0.869-2.588,2.188c-0.049,0.259-0.07,0.562-0.07,0.87v5.951h-2.895V311.229z"/>
		<path fill="#FFFFFF" d="M1347.892,304.595v2.94h2.752v2.165h-2.752v5.058c0,1.41,0.375,2.118,1.481,2.118
			c0.518,0,0.799-0.025,1.129-0.116l0.048,2.187c-0.424,0.166-1.201,0.306-2.095,0.306c-1.081,0-1.952-0.353-2.493-0.94
			c-0.635-0.66-0.918-1.718-0.918-3.224V309.7h-1.623v-2.165h1.623v-2.14L1347.892,304.595z"/>
		<path fill="#FFFFFF" d="M1354.744,314.076c0.07,2.07,1.67,2.964,3.528,2.964c1.34,0,2.28-0.213,3.176-0.517l0.423,1.976
			c-0.988,0.422-2.353,0.728-4,0.728c-3.717,0-5.904-2.279-5.904-5.786c0-3.175,1.929-6.162,5.599-6.162
			c3.719,0,4.94,3.057,4.94,5.575c0,0.538-0.046,0.962-0.094,1.223H1354.744z M1359.777,312.053c0.025-1.06-0.446-2.801-2.376-2.801
			c-1.788,0-2.542,1.625-2.657,2.801H1359.777z"/>
		<path fill="#FFFFFF" d="M1364.841,311.229c0-1.552-0.023-2.681-0.095-3.693h2.493l0.119,2.165h0.071
			c0.563-1.6,1.905-2.422,3.151-2.422c0.283,0,0.447,0.021,0.682,0.069v2.705c-0.258-0.047-0.517-0.07-0.869-0.07
			c-1.364,0-2.329,0.869-2.589,2.188c-0.048,0.259-0.069,0.562-0.069,0.87v5.951h-2.895V311.229z"/>
		<path fill="#FFFFFF" d="M1378.165,315.841c0.917,0.54,2.353,1.01,3.834,1.01c1.836,0,2.873-0.87,2.873-2.163
			c0-1.199-0.801-1.905-2.8-2.635c-2.637-0.94-4.306-2.331-4.306-4.61c0-2.613,2.163-4.565,5.62-4.565
			c1.719,0,2.967,0.377,3.789,0.801l-0.683,2.33c-0.588-0.308-1.694-0.755-3.175-0.755c-1.836,0-2.613,0.967-2.613,1.905
			c0,1.225,0.919,1.788,3.037,2.612c2.751,1.034,4.068,2.424,4.068,4.704c0,2.565-1.929,4.777-5.999,4.777
			c-1.692,0-3.434-0.471-4.305-1.011L1378.165,315.841z"/>
		<path fill="#FFFFFF" d="M1390.312,311.349c0-1.507-0.047-2.731-0.095-3.813h2.542l0.14,1.765h0.048
			c0.846-1.296,2.188-2.021,3.93-2.021c2.635,0,4.822,2.256,4.822,5.833c0,4.14-2.611,6.141-5.225,6.141
			c-1.434,0-2.633-0.611-3.223-1.53h-0.045v5.929h-2.895V311.349z M1393.207,314.194c0,0.28,0.021,0.54,0.069,0.801
			c0.306,1.173,1.317,2.021,2.563,2.021c1.836,0,2.918-1.529,2.918-3.789c0-2.021-0.989-3.67-2.847-3.67
			c-1.199,0-2.306,0.872-2.611,2.142c-0.048,0.235-0.093,0.495-0.093,0.73V314.194z"/>
		<path fill="#FFFFFF" d="M1407.165,304.336c0,0.848-0.636,1.552-1.646,1.552c-0.964,0-1.6-0.704-1.6-1.552
			c0-0.894,0.659-1.575,1.623-1.575C1406.529,302.761,1407.14,303.442,1407.165,304.336z M1404.083,318.992v-11.457h2.894v11.457
			H1404.083z"/>
		<path fill="#FFFFFF" d="M1410.111,311.229c0-1.552-0.024-2.681-0.098-3.693h2.495l0.118,2.165h0.069
			c0.565-1.6,1.907-2.422,3.153-2.422c0.283,0,0.447,0.021,0.684,0.069v2.705c-0.26-0.047-0.518-0.07-0.871-0.07
			c-1.363,0-2.329,0.869-2.588,2.188c-0.049,0.259-0.07,0.562-0.07,0.87v5.951h-2.893V311.229z"/>
		<path fill="#FFFFFF" d="M1427.171,316.241c0,1.033,0.046,2.045,0.188,2.751h-2.611l-0.213-1.271h-0.068
			c-0.683,0.896-1.881,1.53-3.387,1.53c-2.307,0-3.601-1.67-3.601-3.411c0-2.871,2.563-4.354,6.8-4.328v-0.189
			c0-0.752-0.306-2-2.331-2c-1.128,0-2.304,0.354-3.08,0.846l-0.565-1.881c0.846-0.517,2.33-1.01,4.141-1.01
			c3.67,0,4.729,2.329,4.729,4.844V316.241z M1424.348,313.392c-2.048-0.021-3.999,0.402-3.999,2.142c0,1.13,0.73,1.65,1.646,1.65
			c1.177,0,1.999-0.755,2.283-1.577c0.069-0.213,0.069-0.424,0.069-0.637V313.392z"/>
		<path fill="#FFFFFF" d="M1430.238,302.289h2.893v16.703h-2.893V302.289z"/>
	</g>
</g>
<linearGradient id="SVGID_9_" gradientUnits="userSpaceOnUse" x1="1336.522" y1="267.6396" x2="1398.0073" y2="233.8751">
	<stop  offset="0" style="stop-color:#000000"/>
	<stop  offset="0.589" style="stop-color:#000000;stop-opacity:0"/>
</linearGradient>
<path fill="url(#SVGID_9_)" d="M1395.827,233.017c1.388,2.835,2.161,5.919,2.161,9.148c0,13.952-14.246,25.263-31.824,25.263
	c-17.576,0-31.822-11.311-31.822-25.263c0-2.37,0.419-4.661,1.186-6.836c-3.696,4.217-5.842,9.224-5.842,14.602
	c0,14.98,16.621,27.122,37.129,27.122c20.505,0,37.13-12.142,37.13-27.122C1403.944,243.53,1400.902,237.651,1395.827,233.017z"/>
<linearGradient id="SVGID_10_" gradientUnits="userSpaceOnUse" x1="1406.9175" y1="346.5137" x2="1337.3739" y2="318.3343" gradientTransform="matrix(0.9902 -0.1398 0.1398 0.9902 -41.2686 108.076)">
	<stop  offset="0" style="stop-color:#FDE500"/>
	<stop  offset="0.1302" style="stop-color:#F7E303"/>
	<stop  offset="0.3099" style="stop-color:#E5DE0B"/>
	<stop  offset="0.5187" style="stop-color:#C8D619"/>
	<stop  offset="0.7492" style="stop-color:#9FCB2C"/>
	<stop  offset="0.9949" style="stop-color:#6BBC44"/>
	<stop  offset="1" style="stop-color:#6ABC45"/>
</linearGradient>
<path fill="url(#SVGID_10_)" d="M1402.613,233.166c-4.359-7.54-12.656-14.166-23.189-16.185
	c-13.392-2.562-25.077,0.215-34.706,6.958c-9.749,6.821-13.583,13.763-15.286,23.101l-1.611-0.5l1.852,7.858
	c1.502,6.583,6.014,12.277,9.018,14.379c4.091,2.86,15.35,9.188,29.559,6.737c9.891-1.702,16.193-4.941,19.586-7.187l4.674,4.196
	c7.537-4.946,10.111-10.918,11.818-15.061c1.705-4.143,2.771-10.249,1.105-17.331l-1.816-7.707L1402.613,233.166z M1390.538,246.563
	c0.076,4.328-2.316,9.41-6.048,13.533l-4.584-4.119c0,0-4.939,4.903-16.674,6.532c-7.957,1.104-17.354-3.324-18.285-10.653
	c-0.953-7.5,5.629-15.801,12.861-19.618c8.416-4.441,17.89-3.81,23.197-0.586C1387.083,235.346,1390.419,239.844,1390.538,246.563z"
	/>
<linearGradient id="SVGID_11_" gradientUnits="userSpaceOnUse" x1="1352.897" y1="403.9819" x2="1402.4196" y2="362.4275" gradientTransform="matrix(0.9734 -0.2293 0.2293 0.9734 -59.6293 180.6439)">
	<stop  offset="0" style="stop-color:#6FC6B4"/>
	<stop  offset="0.0321" style="stop-color:#6DC5B6"/>
	<stop  offset="0.6538" style="stop-color:#4FB3D5"/>
	<stop  offset="1" style="stop-color:#44ACE1"/>
</linearGradient>
<path fill="url(#SVGID_11_)" d="M1386.542,213.028c-7.609-3.656-17.803-4.993-27.701-2.744c-9.898,2.251-19.813,8.162-25.424,15.748
	c-5.614,7.582-6.938,14.819-5.184,22.279c1.758,7.458,7.392,14.358,15.929,17.795c8.532,3.438,18.639,3.984,28.087,1.434
	c7.254-1.957,10.463-3.681,13.861-5.984c0.002,0,0.002,0,0.002,0c1.033-0.698,2.085-1.45,3.273-2.279l1.559,6.626
	c0,0,8.204-6.244,10.972-13.484c2.769-7.237,3.751-11.286,1.698-19.992C1401.566,223.72,1394.149,216.686,1386.542,213.028z
	 M1389.386,259.276l-11.092-10.153c0,0-4.271,3.606-9.578,5.264c-5.3,1.654-15.031,2.799-21.22-2.079
	c-6.192-4.878-5.931-15.514,1.609-22.495c7.548-6.979,19.02-9.355,25.841-6.979c6.82,2.38,13.593,8.35,13.662,15.204
	c0.061,5.877-0.655,9.996-5.783,15.236"/>
<path fill="#707457" d="M1387.833,268.328l4.674,4.196l-1.562-6.622C1390.945,265.902,1389.962,266.918,1387.833,268.328z"/>
<linearGradient id="SVGID_12_" gradientUnits="userSpaceOnUse" x1="1362.8696" y1="402.9785" x2="1384.5609" y2="394.8769" gradientTransform="matrix(0.9734 -0.2293 0.2293 0.9734 -59.6293 180.6439)">
	<stop  offset="0" style="stop-color:#6FC6B4;stop-opacity:0"/>
	<stop  offset="0.7957" style="stop-color:#83CCB9;stop-opacity:0.7957"/>
	<stop  offset="1" style="stop-color:#89CEBA"/>
</linearGradient>
<path fill="url(#SVGID_12_)" d="M1368.716,254.386c-5.3,1.655-15.031,2.8-21.22-2.078c-0.675-0.529-1.262-1.13-1.783-1.781
	l-8.589,11.497c2.051,1.634,4.403,3.024,7.038,4.083c8.532,3.438,18.639,3.984,28.087,1.434c7.254-1.957,10.463-3.681,13.861-5.984
	c0.002,0,0.002,0,0.002,0c1.033-0.698,2.085-1.45,3.273-2.279l-11.092-10.153C1378.294,249.123,1374.023,252.729,1368.716,254.386z"
	/>
<linearGradient id="SVGID_13_" gradientUnits="userSpaceOnUse" x1="1393.0405" y1="414.7178" x2="1404.0177" y2="385.968" gradientTransform="matrix(0.9734 -0.2293 0.2293 0.9734 -59.6293 180.6439)">
	<stop  offset="0" style="stop-color:#357FC1"/>
	<stop  offset="0.9161" style="stop-color:#30A1DA;stop-opacity:0.0839"/>
	<stop  offset="1" style="stop-color:#30A4DC;stop-opacity:0"/>
</linearGradient>
<path fill="url(#SVGID_13_)" d="M1386.712,231.836c1.167,1.92,1.877,4.013,1.896,6.201c0.061,5.877-0.655,9.996-5.783,15.236
	l6.561,6.003l1.559,6.626c0,0,8.204-6.244,10.972-13.484c2.769-7.237,3.751-11.288,1.698-19.992
	c-0.318-1.345-0.761-2.647-1.314-3.906L1386.712,231.836z"/>
</svg>
