<?xml version="1.0" encoding="utf-8"?>
<!-- Generator: Adobe Illustrator 15.1.0, SVG Export Plug-In  -->
<!DOCTYPE svg PUBLIC "-//W3C//DTD SVG 1.1//EN" "http://www.w3.org/Graphics/SVG/1.1/DTD/svg11.dtd" [
	<!ENTITY ns_flows "http://ns.adobe.com/Flows/1.0/">
]>
<svg version="1.1"
	 xmlns="http://www.w3.org/2000/svg" xmlns:xlink="http://www.w3.org/1999/xlink" xmlns:a="http://ns.adobe.com/AdobeSVGViewerExtensions/3.0/"
	 x="0px" y="0px" width="1600px" height="1000px" viewBox="0 0 1600 1000"
	 overflow="visible" enable-background="new 0 0 1600 1000" xml:space="preserve">
<defs>
</defs>
<rect width="1600" height="1000"/>
<linearGradient id="SVGID_1_" gradientUnits="userSpaceOnUse" x1="605.2119" y1="557.0459" x2="985.6483" y2="348.1301">
	<stop  offset="0" style="stop-color:#000000"/>
	<stop  offset="0.589" style="stop-color:#000000;stop-opacity:0"/>
</linearGradient>
<path fill="url(#SVGID_1_)" d="M972.151,342.797c8.605,17.562,13.379,36.641,13.379,56.619c0,86.319-88.16,156.297-196.91,156.297
	c-108.751,0-196.908-69.978-196.908-156.297c0-14.666,2.599-28.84,7.356-42.297c-22.865,26.084-36.175,57.065-36.175,90.341
	c0,92.685,102.857,167.82,229.738,167.82c126.88,0,229.736-75.136,229.736-167.82
	C1022.368,407.866,1003.553,371.496,972.151,342.797z"/>
<linearGradient id="SVGID_2_" gradientUnits="userSpaceOnUse" x1="1034.707" y1="539.9053" x2="604.4034" y2="365.5445" gradientTransform="matrix(0.9902 -0.1398 0.1398 0.9902 -100.1876 85.8221)">
	<stop  offset="0" style="stop-color:#FDE500"/>
	<stop  offset="0.1302" style="stop-color:#F7E303"/>
	<stop  offset="0.3099" style="stop-color:#E5DE0B"/>
	<stop  offset="0.5187" style="stop-color:#C8D619"/>
	<stop  offset="0.7492" style="stop-color:#9FCB2C"/>
	<stop  offset="0.9949" style="stop-color:#6BBC44"/>
	<stop  offset="1" style="stop-color:#6ABC45"/>
</linearGradient>
<path fill="url(#SVGID_2_)" d="M1014.129,343.735c-26.96-46.663-78.291-87.648-143.479-100.132
	c-82.833-15.858-155.141,1.33-214.74,43.039c-60.312,42.206-84.04,85.155-94.578,142.92l-9.972-3.082l11.458,48.616
	c9.312,40.731,37.221,75.986,55.809,88.98c25.297,17.688,94.964,56.849,182.884,41.688c61.187-10.544,100.187-30.584,121.179-44.474
	l28.915,25.976c46.626-30.607,62.571-67.561,73.129-93.197c10.566-25.63,17.158-63.405,6.838-107.232l-11.238-47.69
	L1014.129,343.735z M939.429,426.627c0.47,26.767-14.319,58.22-37.428,83.735l-28.346-25.48c0,0-30.579,30.347-103.175,40.404
	c-49.232,6.821-107.364-20.558-113.13-65.916c-5.895-46.406,34.831-97.758,79.577-121.38
	c52.064-27.483,110.684-23.588,143.535-3.627C918.044,357.209,938.684,385.048,939.429,426.627z"/>
<linearGradient id="SVGID_3_" gradientUnits="userSpaceOnUse" x1="735.6914" y1="567.7661" x2="1042.1046" y2="310.6549" gradientTransform="matrix(0.9734 -0.2293 0.2293 0.9734 -158.2455 148.4402)">
	<stop  offset="0" style="stop-color:#6FC6B4"/>
	<stop  offset="0.0321" style="stop-color:#6DC5B6"/>
	<stop  offset="0.6538" style="stop-color:#4FB3D5"/>
	<stop  offset="1" style="stop-color:#44ACE1"/>
</linearGradient>
<path fill="url(#SVGID_3_)" d="M914.696,219.139c-47.084-22.614-110.155-30.9-171.399-16.978
	c-61.248,13.924-122.562,50.504-157.291,97.424c-34.728,46.919-42.932,91.709-32.061,137.856
	c10.868,46.143,45.719,88.834,98.521,110.106c52.805,21.27,115.337,24.653,173.819,8.863c44.86-12.112,64.72-22.771,85.758-37.013
	c0.005,0,0.005,0,0.005,0c6.396-4.333,12.902-8.984,20.249-14.116l9.65,40.993c0,0,50.765-38.625,67.894-83.406
	c17.121-44.788,23.181-69.859,10.492-123.722C1007.646,285.288,961.78,241.758,914.696,219.139z M932.297,505.282l-68.632-62.819
	c0,0-26.436,22.327-59.243,32.573c-32.796,10.24-93.018,17.309-131.319-12.871c-38.303-30.188-36.691-95.97,9.986-139.163
	c46.674-43.192,117.671-57.907,159.87-43.192c42.199,14.71,84.115,51.665,84.536,94.057c0.374,36.372-4.056,61.857-35.771,94.28"/>
<path fill="#707457" d="M922.689,561.289l28.915,25.978l-9.657-40.992C941.947,546.275,935.868,552.569,922.689,561.289z"/>
<linearGradient id="SVGID_4_" gradientUnits="userSpaceOnUse" x1="797.4023" y1="561.5674" x2="931.6162" y2="511.4392" gradientTransform="matrix(0.9734 -0.2293 0.2293 0.9734 -158.2455 148.4402)">
	<stop  offset="0" style="stop-color:#6FC6B4;stop-opacity:0"/>
	<stop  offset="0.7957" style="stop-color:#83CCB9;stop-opacity:0.7957"/>
	<stop  offset="1" style="stop-color:#89CEBA"/>
</linearGradient>
<path fill="url(#SVGID_4_)" d="M804.422,475.03c-32.803,10.241-93.018,17.314-131.319-12.865
	c-4.149-3.272-7.805-6.989-11.013-11.019l-53.157,71.131c12.694,10.108,27.253,18.719,43.533,25.271
	c52.805,21.27,115.337,24.653,173.819,8.858c44.86-12.107,64.72-22.766,85.758-37.008c0.005,0,0.005,0,0.005,0
	c6.396-4.333,12.902-8.984,20.249-14.116l-68.632-62.819C863.665,442.463,837.226,464.786,804.422,475.03z"/>
<linearGradient id="SVGID_5_" gradientUnits="userSpaceOnUse" x1="984.0811" y1="634.187" x2="1051.9974" y2="456.3109" gradientTransform="matrix(0.9734 -0.2293 0.2293 0.9734 -158.2455 148.4402)">
	<stop  offset="0" style="stop-color:#357FC1"/>
	<stop  offset="0.9161" style="stop-color:#30A1DA;stop-opacity:0.0839"/>
	<stop  offset="1" style="stop-color:#30A4DC;stop-opacity:0"/>
</linearGradient>
<path fill="url(#SVGID_5_)" d="M915.749,335.509c7.237,11.871,11.611,24.834,11.746,38.358c0.368,36.372-4.062,61.853-35.773,94.28
	l40.575,37.134l9.65,40.993c0,0,50.765-38.625,67.888-83.406c17.127-44.788,23.187-69.859,10.498-123.722
	c-1.957-8.313-4.709-16.38-8.134-24.164L915.749,335.509z"/>
<path fill="#E0F2FF" d="M486.383,805.437c-12.569-3.477-23.801-7.223-35.168-11.635c-1.872-0.801-3.878-1.201-5.885-1.336
	c-20.858-1.072-39.448-16.449-39.448-45.734c0-27.944,17.252-47.471,43.06-47.471c26.075,0,41.586,20.057,41.586,45.598
	c0,21.662-10.028,36.237-23.266,41.591v0.531c7.754,2.143,16.446,4.012,23.801,5.354L486.383,805.437z M473.145,745.528
	c0-17.115-8.423-33.031-24.737-33.031c-16.45,0-25.141,15.651-25.141,33.703s9.226,33.026,25.005,33.026
	S473.145,764.516,473.145,745.528z"/>
<path fill="#E0F2FF" d="M562.882,771.469c0,7.757,0.268,14.178,0.536,19.523H549.11l-0.803-9.758h-0.401
	c-2.81,4.545-9.229,11.23-20.994,11.23c-11.77,0-22.601-7.088-22.601-28.348v-38.246h16.447v35.435
	c0,10.833,3.479,17.787,12.17,17.787c6.686,0,10.966-4.543,12.568-8.825c0.67-1.339,0.936-3.211,0.936-5.08v-39.316h16.448V771.469z
	"/>
<path fill="#E0F2FF" d="M631.221,775.35c0,5.884,0.267,11.63,1.069,15.643h-14.841l-1.204-7.217h-0.401
	c-3.877,5.082-10.697,8.689-19.256,8.689c-13.105,0-20.459-9.492-20.459-19.39c0-16.313,14.575-24.737,38.643-24.606v-1.067
	c0-4.282-1.736-11.366-13.236-11.366c-6.42,0-13.104,2.004-17.519,4.81l-3.207-10.694c4.812-2.944,13.237-5.75,23.533-5.75
	c20.862,0,26.878,13.239,26.878,27.543V775.35z M615.174,759.168c-11.633-0.132-22.732,2.272-22.732,12.169
	c0,6.422,4.146,9.36,9.361,9.36c6.687,0,11.367-4.28,12.969-8.959c0.402-1.203,0.402-2.406,0.402-3.613V759.168z"/>
<path fill="#E0F2FF" d="M648.612,746.865c0-8.824-0.135-15.24-0.536-20.994h14.175l0.669,12.3h0.402
	c3.208-9.09,10.83-13.77,17.919-13.77c1.605,0,2.54,0.131,3.876,0.401v15.378c-1.472-0.271-2.941-0.402-4.948-0.402
	c-7.756,0-13.237,4.949-14.708,12.437c-0.268,1.468-0.401,3.206-0.401,4.944v33.833h-16.447V746.865z"/>
<path fill="#E0F2FF" d="M718.152,709.155v16.716h15.644v12.3h-15.644v28.754c0,8.023,2.139,12.034,8.422,12.034
	c2.941,0,4.547-0.134,6.419-0.67l0.268,12.437c-2.408,0.936-6.819,1.738-11.9,1.738c-6.15,0-11.1-2.008-14.174-5.35
	c-3.611-3.743-5.216-9.761-5.216-18.32v-30.624h-9.228v-12.3h9.228v-12.167L718.152,709.155z"/>
<path fill="#E0F2FF" d="M757.071,763.044c0.401,11.77,9.494,16.851,20.06,16.851c7.621,0,12.969-1.202,18.052-2.94l2.406,11.233
	c-5.618,2.409-13.373,4.146-22.734,4.146c-21.127,0-33.562-12.977-33.562-32.898c0-18.054,10.966-35.034,31.824-35.034
	c21.13,0,28.084,17.38,28.084,31.69c0,3.076-0.267,5.485-0.537,6.952H757.071z M785.688,751.548
	c0.133-6.02-2.541-15.916-13.506-15.916c-10.164,0-14.442,9.226-15.11,15.916H785.688z"/>
<path fill="#E0F2FF" d="M814.443,746.865c0-8.824-0.134-15.24-0.531-20.994h14.17l0.672,12.3h0.401
	c3.208-9.09,10.831-13.77,17.916-13.77c1.606,0,2.542,0.131,3.881,0.401v15.378c-1.473-0.271-2.94-0.402-4.949-0.402
	c-7.755,0-13.237,4.949-14.709,12.437c-0.266,1.468-0.397,3.206-0.397,4.944v33.833h-16.453V746.865z"/>
<path fill="#E0F2FF" d="M890.137,773.075c5.217,3.077,13.371,5.751,21.795,5.751c10.43,0,16.313-4.949,16.313-12.306
	c0-6.818-4.544-10.828-15.911-14.972c-14.978-5.349-24.473-13.243-24.473-26.214c0-14.84,12.301-25.94,31.958-25.94
	c9.765,0,16.852,2.138,21.534,4.546l-3.882,13.24c-3.342-1.738-9.626-4.279-18.051-4.279c-10.429,0-14.841,5.479-14.841,10.828
	c0,6.958,5.214,10.164,17.249,14.847c15.643,5.884,23.135,13.772,23.135,26.741c0,14.576-10.968,27.146-34.101,27.146
	c-9.628,0-19.525-2.674-24.475-5.75L890.137,773.075z"/>
<path fill="#E0F2FF" d="M959.144,747.533c0-8.556-0.266-15.511-0.533-21.662h14.444l0.802,10.031h0.267
	c4.812-7.357,12.433-11.5,22.331-11.5c14.975,0,27.412,12.836,27.412,33.163c0,23.531-14.841,34.9-29.688,34.9
	c-8.153,0-14.975-3.475-18.319-8.689h-0.266v33.697h-16.45V747.533z M975.594,763.715c0,1.603,0.135,3.075,0.4,4.543
	c1.738,6.69,7.489,11.503,14.575,11.503c10.429,0,16.579-8.69,16.579-21.528c0-11.503-5.614-20.864-16.178-20.864
	c-6.817,0-13.104,4.949-14.843,12.172c-0.269,1.336-0.534,2.808-0.534,4.142V763.715z"/>
<path fill="#E0F2FF" d="M1054.896,707.688c0,4.809-3.607,8.821-9.361,8.821c-5.484,0-9.092-4.013-9.092-8.821
	c0-5.083,3.746-8.964,9.228-8.964C1051.289,698.725,1054.766,702.605,1054.896,707.688z M1037.377,790.993v-65.122h16.453v65.122
	H1037.377z"/>
<path fill="#E0F2FF" d="M1071.614,746.865c0-8.824-0.133-15.24-0.532-20.994h14.172l0.671,12.3h0.4
	c3.207-9.09,10.831-13.77,17.916-13.77c1.606,0,2.541,0.131,3.882,0.401v15.378c-1.472-0.271-2.94-0.402-4.949-0.402
	c-7.757,0-13.236,4.949-14.709,12.437c-0.266,1.468-0.4,3.206-0.4,4.944v33.833h-16.45V746.865z"/>
<path fill="#E0F2FF" d="M1168.567,775.35c0,5.884,0.271,11.63,1.072,15.643h-14.847l-1.202-7.217h-0.403
	c-3.876,5.082-10.694,8.689-19.254,8.689c-13.103,0-20.459-9.492-20.459-19.39c0-16.313,14.574-24.737,38.645-24.606v-1.067
	c0-4.282-1.738-11.366-13.236-11.366c-6.422,0-13.108,2.004-17.521,4.81l-3.211-10.694c4.817-2.944,13.242-5.75,23.54-5.75
	c20.855,0,26.876,13.239,26.876,27.543V775.35z M1152.521,759.168c-11.636-0.132-22.734,2.272-22.734,12.169
	c0,6.422,4.146,9.36,9.361,9.36c6.687,0,11.364-4.28,12.971-8.959c0.402-1.203,0.402-2.406,0.402-3.613V759.168z"/>
<path fill="#E0F2FF" d="M1185.959,696.053h16.449v94.939h-16.449V696.053z"/>
</svg>
