<?xml version="1.0" encoding="utf-8"?>
<!-- Generator: Adobe Illustrator 15.1.0, SVG Export Plug-In  -->
<!DOCTYPE svg PUBLIC "-//W3C//DTD SVG 1.1//EN" "http://www.w3.org/Graphics/SVG/1.1/DTD/svg11.dtd" [
	<!ENTITY ns_flows "http://ns.adobe.com/Flows/1.0/">
]>
<svg version="1.1"
	 xmlns="http://www.w3.org/2000/svg" xmlns:xlink="http://www.w3.org/1999/xlink" xmlns:a="http://ns.adobe.com/AdobeSVGViewerExtensions/3.0/"
	 x="0px" y="0px" width="1200px" height="1200px" viewBox="-89.31 -143.826 1200 1200"
	 overflow="visible" enable-background="new -89.31 -143.826 1200 1200" xml:space="preserve">
<defs>
</defs>
<linearGradient id="SVGID_1_" gradientUnits="userSpaceOnUse" x1="116.8633" y1="758.124" x2="914.2727" y2="320.2283">
	<stop  offset="0" style="stop-color:#000000"/>
	<stop  offset="0.589" style="stop-color:#000000;stop-opacity:0"/>
</linearGradient>
<path fill="url(#SVGID_1_)" d="M885.986,309.053c18.032,36.81,28.039,76.803,28.039,118.674
	c0,180.928-184.789,327.601-412.729,327.601c-227.944,0-412.728-146.673-412.728-327.601c0-30.74,5.45-60.45,15.419-88.657
	c-47.925,54.676-75.823,119.622-75.823,189.361c0,194.269,215.592,351.755,481.538,351.755
	c265.946,0,481.542-157.486,481.542-351.755C991.244,445.437,951.799,369.209,885.986,309.053z"/>
<linearGradient id="SVGID_2_" gradientUnits="userSpaceOnUse" x1="908.2959" y1="645.4785" x2="6.3615" y2="280.011" gradientTransform="matrix(0.9902 -0.1398 0.1398 0.9902 -45.575 75.628)">
	<stop  offset="0" style="stop-color:#FFE600"/>
	<stop  offset="0.1274" style="stop-color:#F9E500"/>
	<stop  offset="0.3033" style="stop-color:#E7E100"/>
	<stop  offset="0.5075" style="stop-color:#CADA00"/>
	<stop  offset="0.7331" style="stop-color:#A1D100"/>
	<stop  offset="0.9736" style="stop-color:#6DC500"/>
	<stop  offset="1" style="stop-color:#67C400"/>
</linearGradient>
<path fill="url(#SVGID_2_)" d="M973.969,311.018c-56.505-97.804-164.099-183.713-300.729-209.877
	c-173.629-33.244-325.188,2.786-450.111,90.208C96.714,279.811,46.979,369.839,24.89,490.917l-20.9-6.464l24.017,101.902
	c19.518,85.369,78.015,159.263,116.975,186.508c53.023,37.076,199.048,119.163,383.333,87.385
	c128.246-22.107,209.991-64.111,253.998-93.224l60.604,54.446c97.729-64.151,131.152-141.615,153.284-195.341
	c22.149-53.728,35.964-132.902,14.321-224.768l-23.546-99.958L973.969,311.018z M817.396,484.764
	c0.985,56.108-30.014,122.026-78.452,175.514l-59.407-53.407c0,0-64.102,63.613-216.26,84.692
	c-103.193,14.295-225.038-43.096-237.128-138.174c-12.352-97.266,73.014-204.9,166.799-254.411
	c109.122-57.605,232-49.443,300.854-7.6C772.573,339.262,815.837,397.614,817.396,484.764z"/>
<linearGradient id="SVGID_3_" gradientUnits="userSpaceOnUse" x1="217.3438" y1="645.9326" x2="859.598" y2="107.0173" gradientTransform="matrix(0.9734 -0.2293 0.2293 0.9734 -69.1463 127.575)">
	<stop  offset="0" style="stop-color:#00FFD0"/>
	<stop  offset="0.3617" style="stop-color:#00DEE4"/>
	<stop  offset="0.7716" style="stop-color:#00BFF8"/>
	<stop  offset="1" style="stop-color:#00B3FF"/>
</linearGradient>
<path fill="url(#SVGID_3_)" d="M765.556,49.863C666.867,2.461,534.667-14.905,406.295,14.279
	c-128.374,29.185-256.893,105.857-329.688,204.2C3.816,316.825-13.38,410.708,9.404,507.431
	c22.782,96.718,95.831,186.208,206.507,230.787c110.683,44.591,241.752,51.679,364.331,18.578
	c94.029-25.386,135.652-47.724,179.754-77.578c0.009,0,0.009,0,0.009,0c13.405-9.083,27.037-18.838,42.437-29.594l20.23,85.922
	c0,0,106.41-80.947,142.309-174.824c35.89-93.871,48.593-146.421,21.996-259.317C960.385,188.51,864.244,97.272,765.556,49.863z
	 M802.441,649.624L658.588,517.956c0,0-55.408,46.8-124.169,68.269c-68.744,21.471-194.969,36.29-275.252-26.979
	s-76.906-201.148,20.932-291.681c97.83-90.534,246.639-121.373,335.094-90.534c88.453,30.838,176.305,108.293,177.19,197.149
	c0.78,76.238-8.501,129.655-74.979,197.615"/>
<path fill="#6F7356" d="M782.313,767.019l60.604,54.452l-20.245-85.925C822.672,735.546,809.931,748.74,782.313,767.019z"/>
<linearGradient id="SVGID_4_" gradientUnits="userSpaceOnUse" x1="346.6875" y1="632.9385" x2="628.0046" y2="527.868" gradientTransform="matrix(0.9734 -0.2293 0.2293 0.9734 -69.1463 127.575)">
	<stop  offset="0" style="stop-color:#00FFD0;stop-opacity:0"/>
	<stop  offset="0.2421" style="stop-color:#14FFD0;stop-opacity:0.2421"/>
	<stop  offset="0.7356" style="stop-color:#48FFD1;stop-opacity:0.7356"/>
	<stop  offset="1" style="stop-color:#66FFD1"/>
</linearGradient>
<path fill="url(#SVGID_4_)" d="M534.419,586.214c-68.761,21.476-194.97,36.298-275.252-26.969
	c-8.703-6.854-16.36-14.639-23.083-23.09L124.665,685.258c26.608,21.184,57.122,39.223,91.247,52.966
	c110.683,44.585,241.749,51.667,364.337,18.568c94.023-25.379,135.646-47.72,179.748-77.581c0.009,0,0.009,0,0.009,0
	c13.405-9.07,27.037-18.831,42.437-29.582L658.588,517.956C658.588,517.956,603.173,564.744,534.419,586.214z"/>
<linearGradient id="SVGID_5_" gradientUnits="userSpaceOnUse" x1="737.9805" y1="785.1494" x2="880.3352" y2="412.3163" gradientTransform="matrix(0.9734 -0.2293 0.2293 0.9734 -69.1463 127.575)">
	<stop  offset="0" style="stop-color:#0084E3"/>
	<stop  offset="0.9395" style="stop-color:#00A6EF;stop-opacity:0.0605"/>
	<stop  offset="1" style="stop-color:#00A8F0;stop-opacity:0"/>
</linearGradient>
<path fill="url(#SVGID_5_)" d="M767.755,293.78c15.176,24.877,24.351,52.052,24.628,80.398
	c0.772,76.238-8.508,129.649-74.984,197.609l85.043,77.841l20.23,85.917c0,0,106.41-80.947,142.302-174.824
	c35.896-93.871,48.6-146.423,22-259.319c-4.099-17.422-9.867-34.334-17.043-50.648L767.755,293.78z"/>
</svg>
