<?xml version="1.0" encoding="utf-8"?>
<!-- Generator: Adobe Illustrator 15.1.0, SVG Export Plug-In  -->
<!DOCTYPE svg PUBLIC "-//W3C//DTD SVG 1.1//EN" "http://www.w3.org/Graphics/SVG/1.1/DTD/svg11.dtd" [
	<!ENTITY ns_flows "http://ns.adobe.com/Flows/1.0/">
]>
<svg version="1.1"
	 xmlns="http://www.w3.org/2000/svg" xmlns:xlink="http://www.w3.org/1999/xlink" xmlns:a="http://ns.adobe.com/AdobeSVGViewerExtensions/3.0/"
	 x="0px" y="0px" width="1200px" height="1200px" viewBox="-46.881 -23.245 1200 1200"
	 overflow="visible" enable-background="new -46.881 -23.245 1200 1200" xml:space="preserve">
<defs>
</defs>
<path opacity="0.6" fill="#6BB2FF" d="M51.268,8.584v92.282c0,27.899,10.73,41.968,29.091,41.968
	c19.077,0,29.568-13.354,29.568-41.968V8.584h36.245v90.136c0,49.598-25.038,73.205-67.005,73.205
	c-40.538,0-64.145-22.653-64.145-73.682V8.584H51.268z"/>
<path opacity="0.6" fill="#6BB2FF" d="M172.162,169.303v-21.938l19.792-17.884c34.099-30.522,50.552-47.93,50.791-66.052
	c0-12.638-7.392-22.653-25.276-22.653c-13.354,0-25.038,6.677-33.146,12.638l-10.253-25.753
	c11.446-8.823,29.807-15.977,50.552-15.977c35.292,0,54.368,20.507,54.368,48.407c0,26.23-18.6,46.975-41.253,67.006l-14.307,11.922
	v0.477h58.66v29.807H172.162z"/>
<path opacity="0.6" fill="#6BB2FF" d="M310.225,8.584h98.004v29.807h-61.76v36.722h57.707v29.568H346.47v64.622h-36.245V8.584z"/>
<path opacity="0.6" fill="#6BB2FF" d="M434.219,137.827c6.677,4.054,20.507,8.584,31.237,8.584c10.969,0,15.5-3.577,15.5-9.538
	c0-6.2-3.577-9.062-16.93-13.592c-24.323-8.107-33.623-21.223-33.384-35.053c0-21.938,18.599-38.392,47.452-38.392
	c13.592,0,25.515,3.339,32.668,6.915l-6.2,25.038c-5.246-2.861-15.5-6.677-25.276-6.677c-8.823,0-13.831,3.577-13.831,9.3
	s4.531,8.584,18.838,13.592c22.176,7.631,31.237,19.077,31.476,36.007c0,21.938-16.93,37.914-50.314,37.914
	c-15.261,0-28.853-3.577-37.676-8.346L434.219,137.827z"/>
<path opacity="0.6" fill="#6BB2FF" d="M650.972,0v134.489c0,13.115,0.478,26.945,0.954,34.814h-32.191l-1.432-16.93h-0.715
	c-7.153,12.876-21.461,19.553-36.483,19.553c-27.661,0-49.837-23.607-49.837-59.852c-0.239-39.345,24.322-62.237,52.222-62.237
	c14.545,0,25.515,5.246,30.761,13.115h0.477V0H650.972z M614.727,102.059c0-1.908,0-4.531-0.477-6.677
	c-2.146-9.538-10.016-17.646-21.223-17.646c-16.691,0-25.038,14.784-25.038,33.145c0,19.792,9.776,32.191,24.799,32.191
	c10.492,0,19.077-7.153,21.223-17.407c0.478-2.623,0.716-5.484,0.716-8.346V102.059z"/>
<path opacity="0.6" fill="#6BB2FF" d="M815.504,161.911c-11.207,3.815-32.43,9.061-53.652,9.061
	c-29.33,0-50.553-7.392-65.337-21.461c-14.546-14.069-22.653-35.053-22.653-58.66c0.238-53.414,39.107-83.937,91.805-83.937
	c20.746,0,36.723,4.054,44.592,7.631l-7.631,29.33c-8.822-4.053-19.553-6.915-37.199-6.915c-30.283,0-53.413,16.93-53.413,51.983
	c0,33.383,20.983,52.698,50.791,52.698c8.106,0,14.784-0.954,17.645-2.146v-33.86h-24.799V77.259h59.853V161.911z"/>
<path opacity="0.6" fill="#6BB2FF" d="M881.791,169.303L830.285,8.584h39.822l19.553,67.959
	c5.484,19.315,10.492,37.438,14.308,57.468h0.715c4.054-19.315,9.062-38.391,14.546-56.752l20.507-68.675h38.63l-54.129,160.719
	H881.791z"/>
<path opacity="0.6" fill="#6BB2FF" d="M1028.676,101.82h0.478c2.622-5.008,5.484-9.777,8.346-14.069l23.607-35.053h43.637
	l-41.729,47.214l47.691,69.391h-44.591l-28.377-47.93l-9.062,11.446v36.484h-36.245V0h36.245V101.82z"/>
<path opacity="0.6" fill="#6BB2FF" d="M139.14,404.873l-14.546-29.092c-5.961-11.207-9.776-19.553-14.307-28.853h-0.477
	c-3.338,9.3-7.392,17.646-12.638,28.853l-13.115,29.092H42.565l46.499-81.313l-44.829-79.405h41.729l14.069,29.33
	c4.769,9.776,8.346,17.646,12.161,26.707h0.477c3.815-10.253,6.915-17.407,10.969-26.707l13.592-29.33h41.491l-45.306,78.452
	l47.691,82.267H139.14z"/>
<path opacity="0.6" fill="#6BB2FF" d="M241.195,282.068h-0.477l-29.568,14.069l-5.962-27.185l41.253-19.076h29.807v154.996h-35.053
	V282.068z"/>
<path opacity="0.6" fill="#6BB2FF" d="M321.075,414.172l51.029-172.88h24.084l-51.03,172.88H321.075z"/>
<path opacity="0.6" fill="#6BB2FF" d="M448.408,244.154v61.76h59.853v-61.76h36.245v160.719h-36.245v-67.245h-59.853v67.245h-36.245
	V244.154H448.408z"/>
<path opacity="0.6" fill="#6BB2FF" d="M575.739,235.569h36.245v169.303h-36.245V235.569z"/>
<path opacity="0.6" fill="#6BB2FF" d="M645.604,404.873v-89.898h-15.499v-26.707h15.499v-4.531c0-14.069,4.292-29.568,14.546-39.106
	c9.301-8.585,21.699-11.685,32.43-11.685c7.87,0,14.069,1.192,19.076,2.385l-1.43,27.899c-3.101-0.954-6.915-1.67-11.685-1.67
	c-11.923,0-16.931,9.3-16.931,20.746v5.961h23.369v26.707h-23.131v89.898H645.604z"/>
<path opacity="0.6" fill="#6BB2FF" d="M755.292,244.154h36.245v101.582c0,45.783-21.938,61.76-56.991,61.76
	c-8.585,0-19.553-1.43-26.707-3.815l4.054-29.33c5.007,1.669,11.445,2.861,18.6,2.861c15.262,0,24.8-6.915,24.8-31.714V244.154z"/>
<path opacity="0.6" fill="#6BB2FF" d="M848.523,288.268l17.406,57.467c1.908,6.677,4.293,15.5,5.723,21.7h0.954
	c1.432-6.438,3.339-15.022,5.008-21.938l14.546-57.229h38.63l-27.184,76.783c-16.692,46.498-27.9,64.859-41.015,76.544
	c-12.4,10.968-25.753,15.022-34.814,15.976l-7.869-30.522c4.531-0.953,10.253-3.1,15.738-6.199
	c5.484-2.862,11.685-8.823,15.022-14.546c1.192-1.907,1.907-3.815,1.907-5.246s-0.238-3.1-1.431-5.961l-42.921-106.828H848.523z"/>
<path opacity="0.6" fill="#6BB2FF" d="M1053.117,387.942c0,22.415-4.53,40.775-17.883,52.46
	c-12.639,10.969-30.046,14.307-47.215,14.307c-15.5,0-31.477-3.099-41.968-8.822l7.153-27.661c7.393,4.292,20.03,8.822,33.86,8.822
	c17.169,0,30.284-9.061,30.284-30.761v-7.392h-0.477c-6.915,9.539-18.123,15.023-31.476,15.023
	c-28.854,0-49.361-23.368-49.361-56.752c0-37.676,24.085-61.521,52.938-61.521c15.977,0,25.991,6.915,31.953,16.691h0.478
	l1.191-14.068h31.476c-0.477,7.63-0.954,17.407-0.954,34.814V387.942z M1016.873,335.72c0-2.146-0.238-4.53-0.715-6.676
	c-2.624-9.538-9.539-15.977-19.554-15.977c-13.354,0-23.846,11.922-23.846,33.145c0,17.407,8.585,30.999,23.607,30.999
	c9.538,0,16.93-6.2,19.314-14.545c0.954-2.861,1.192-6.677,1.192-9.777V335.72z"/>
<path opacity="0.6" fill="#6BB2FF" d="M79.406,640.441V603.48H10.731v-23.606l58.421-94.428h44.591v90.852h18.361v27.183h-18.361
	v36.961H79.406z M79.406,576.298V541.96c0-9.3,0.477-18.838,0.954-28.853h-0.715c-5.008,10.015-9.3,19.077-14.546,28.853
	l-20.506,33.861l-0.239,0.477H79.406z"/>
<path opacity="0.6" fill="#6BB2FF" d="M184.8,479.723h36.245v101.583c0,45.783-21.938,61.759-56.99,61.759
	c-8.584,0-19.554-1.431-26.707-3.815l4.054-29.33c5.008,1.67,11.446,2.861,18.599,2.861c15.261,0,24.799-6.914,24.799-31.714
	V479.723z"/>
<path opacity="0.6" fill="#6BB2FF" d="M326.918,625.657h-0.477c-7.392,11.208-19.076,17.407-34.814,17.407
	c-25.276,0-48.168-22.414-48.168-59.375c0-41.968,26.469-62.714,51.506-62.714c15.022,0,25.991,5.485,32.668,16.453l0.477,0.239
	l0.954-13.83h34.815c-0.239,11.445-0.716,22.892-0.716,35.053v128.766h-36.245V625.657z M326.918,572.72
	c0-2.146-0.238-4.054-0.715-5.961c-1.908-9.299-9.777-17.407-20.984-17.407c-16.454,0-25.038,14.068-25.038,32.906
	c0,19.316,9.539,32.192,24.8,32.192c10.253,0,18.599-6.916,20.983-16.454c0.716-2.384,0.954-5.484,0.954-7.868V572.72z"/>
<path opacity="0.6" fill="#6BB2FF" d="M393.205,481.869c11.684-1.908,28.853-3.338,48.407-3.338
	c23.845,0,40.537,3.577,51.982,12.638c9.777,7.631,15.023,19.076,15.023,33.86c0,20.269-14.546,34.338-28.376,39.345v0.715
	c11.207,4.531,17.407,15.022,21.461,29.807c5.007,18.361,9.776,39.345,12.876,45.545h-37.199
	c-2.385-4.769-6.438-17.646-10.969-37.438c-4.53-20.269-11.445-25.515-26.469-25.753h-10.73v63.19h-36.007V481.869z
	 M429.211,551.021h14.307c18.123,0,28.854-9.061,28.854-23.13c0-14.545-10.015-22.176-26.708-22.176
	c-8.823,0-13.83,0.477-16.453,1.192V551.021z"/>
<path opacity="0.6" fill="#6BB2FF" d="M569.66,479.723v92.282c0,27.899,10.731,41.968,29.092,41.968
	c19.076,0,29.568-13.353,29.568-41.968v-92.282h36.245v90.136c0,49.599-25.038,73.205-67.006,73.205
	c-40.536,0-64.144-22.653-64.144-73.682v-89.659H569.66z"/>
<path opacity="0.6" fill="#6BB2FF" d="M733.952,640.441l-51.505-160.718h39.821l19.554,67.959
	c5.484,19.314,10.492,37.438,14.307,57.468h0.716c4.054-19.314,9.062-38.392,14.546-56.752l20.507-68.675h38.629l-54.129,160.718
	H733.952z"/>
<path opacity="0.6" fill="#6BB2FF" d="M943.312,572.481h-59.137v38.153h66.052v29.807H847.931V479.723h98.958v29.807h-62.713v33.384
	h59.137V572.481z"/>
<path opacity="0.6" fill="#6BB2FF" d="M1092.822,636.149c-6.438,3.1-21.7,6.915-41.015,6.915c-55.56,0-84.175-34.814-84.175-80.597
	c0-54.845,39.107-85.129,87.752-85.129c18.837,0,33.146,3.577,39.583,7.154l-7.63,28.615c-7.154-3.1-17.408-5.962-30.522-5.962
	c-28.615,0-51.029,17.408-51.029,53.176c0,32.19,19.076,52.459,51.268,52.459c11.208,0,23.13-2.146,30.522-5.246L1092.822,636.149z"
	/>
<path opacity="0.6" fill="#6BB2FF" d="M47.213,715.293h98.004V745.1h-61.76v36.722h57.707v29.568H83.458v64.621H47.213V715.293z"/>
<path opacity="0.6" fill="#6BB2FF" d="M166.679,796.605c0-14.546-0.477-26.707-0.954-37.199h31.476l1.669,16.216h0.715
	c4.769-7.631,16.454-18.839,36.007-18.839c23.846,0,41.729,15.977,41.729,50.314v68.913h-36.245V811.39
	c0-15.022-5.246-25.275-18.361-25.275c-10.015,0-15.976,6.914-18.599,13.591c-0.954,2.386-1.192,5.724-1.192,9.062v67.244h-36.245
	V796.605z"/>
<path opacity="0.6" fill="#6BB2FF" d="M445.193,903.672c-22.892-6.677-41.968-13.831-63.667-22.653
	c-3.577-1.431-7.392-2.146-10.969-2.385c-36.484-2.385-70.344-29.092-70.344-81.789c0-48.407,30.522-84.414,78.69-84.414
	c48.883,0,75.829,37.199,75.829,81.313c0,36.483-16.93,62.236-37.915,71.774v0.954c12.161,3.577,25.992,6.678,38.63,9.062
	L445.193,903.672z M416.34,795.175c0-29.568-13.831-53.892-38.629-53.892c-24.799,0-39.106,24.323-39.106,54.607
	c0,30.522,14.545,53.891,39.106,53.891S416.34,826.651,416.34,795.175z"/>
<path opacity="0.6" fill="#6BB2FF" d="M521.017,727.931v31.476h25.992v26.708h-25.992v42.205c0,14.07,3.577,20.508,14.308,20.508
	c5.008,0,7.392-0.239,10.73-0.953l0.238,27.422c-4.531,1.669-13.353,3.1-23.368,3.1c-11.685,0-21.461-4.054-27.423-10.015
	c-6.677-6.915-10.015-18.123-10.015-34.577v-47.689h-15.5v-26.708h15.5v-21.699L521.017,727.931z"/>
<path opacity="0.6" fill="#6BB2FF" d="M654.312,872.911c-6.438,3.1-18.599,5.484-32.43,5.484c-37.676,0-61.76-23.13-61.76-59.614
	c0-34.099,23.368-61.998,66.767-61.998c9.538,0,20.03,1.669,27.661,4.531l-5.723,26.945c-4.292-1.907-10.73-3.577-20.269-3.577
	c-19.076,0-31.477,13.592-31.237,32.669c0,21.222,14.307,32.668,31.953,32.668c8.584,0,15.261-1.432,20.745-3.815L654.312,872.911z"
	/>
<path opacity="0.6" fill="#6BB2FF" d="M663.608,885.311l51.029-172.88h24.084l-51.028,172.88H663.608z"/>
<path opacity="0.6" fill="#6BB2FF" d="M866.293,706.708v134.488c0,13.115,0.478,26.946,0.954,34.814h-32.191l-1.432-16.931h-0.715
	c-7.153,12.877-21.46,19.554-36.483,19.554c-27.661,0-49.838-23.607-49.838-59.853c-0.238-39.345,24.323-62.236,52.223-62.236
	c14.545,0,25.515,5.246,30.761,13.115h0.477v-62.952H866.293z M830.048,808.767c0-1.907,0-4.53-0.477-6.676
	c-2.146-9.539-10.016-17.646-21.223-17.646c-16.691,0-25.038,14.784-25.038,33.145c0,19.793,9.776,32.192,24.799,32.192
	c10.492,0,19.077-7.153,21.223-17.407c0.478-2.623,0.716-5.484,0.716-8.347V808.767z"/>
<path opacity="0.6" fill="#6BB2FF" d="M895.383,706.708h36.245v169.303h-36.245V706.708z"/>
<path opacity="0.6" fill="#6BB2FF" d="M963.341,838.573c9.538,5.008,24.799,10.015,40.299,10.015
	c16.69,0,25.515-6.914,25.515-17.406c0-10.015-7.631-15.738-26.945-22.415c-26.708-9.538-44.353-24.322-44.353-47.69
	c0-27.423,23.13-48.168,60.806-48.168c18.36,0,31.477,3.576,41.014,8.106l-8.107,29.093c-6.199-3.101-17.884-7.632-33.383-7.632
	c-15.738,0-23.369,7.393-23.369,15.5c0,10.254,8.823,14.784,29.807,22.653c28.376,10.492,41.491,25.276,41.491,47.93
	c0,26.945-20.507,49.837-64.621,49.837c-18.36,0-36.484-5.007-45.545-10.015L963.341,838.573z"/>
<path opacity="0.6" fill="#6BB2FF" d="M36.245,950.862v61.759h59.853v-61.759h36.245v160.718H96.097v-67.244H36.245v67.244H0
	V950.862H36.245z"/>
<path opacity="0.6" fill="#6BB2FF" d="M201.969,1111.58l-51.506-160.718h39.822l19.553,67.959
	c5.485,19.314,10.492,37.438,14.307,57.468h0.715c4.054-19.314,9.062-38.392,14.546-56.753l20.507-68.674h38.629l-54.129,160.718
	H201.969z"/>
<path opacity="0.6" fill="#6BB2FF" d="M417.53,942.277v134.489c0,13.114,0.477,26.945,0.954,34.813h-32.191l-1.431-16.931h-0.715
	c-7.154,12.877-21.461,19.554-36.484,19.554c-27.661,0-49.837-23.606-49.837-59.853c-0.238-39.345,24.322-62.236,52.222-62.236
	c14.546,0,25.515,5.246,30.761,13.115h0.477v-62.952H417.53z M381.285,1044.336c0-1.907,0-4.53-0.477-6.676
	c-2.146-9.539-10.015-17.646-21.222-17.646c-16.692,0-25.039,14.784-25.039,33.145c0,19.793,9.777,32.192,24.8,32.192
	c10.492,0,19.076-7.153,21.222-17.407c0.477-2.623,0.716-5.484,0.716-8.347V1044.336z"/>
<path opacity="0.6" fill="#6BB2FF" d="M484.057,962.546c0,10.015-7.393,18.123-19.553,18.123c-11.446,0-18.838-8.108-18.838-18.123
	c0-10.254,7.63-18.122,19.315-18.122C476.664,944.424,483.818,952.292,484.057,962.546z M446.619,1111.58V994.976h36.245v116.604
	H446.619z"/>
<path opacity="0.6" fill="#6BB2FF" d="M538.898,994.976l15.738,54.129c2.861,10.016,4.77,19.077,6.677,28.377h0.715
	c1.908-9.538,3.816-18.361,6.438-28.377l15.023-54.129h38.153l-43.399,116.604h-36.246l-42.445-116.604H538.898z"/>
<path opacity="0.6" fill="#6BB2FF" d="M639.524,1111.58V950.862h42.445l33.384,58.897c9.538,16.931,18.838,36.961,26.23,55.083
	h0.477c-2.146-21.223-2.862-42.921-2.862-67.244v-46.736h33.385v160.718H734.43l-34.338-61.998
	c-9.537-17.168-20.269-37.914-27.899-56.753h-0.953c1.191,21.462,1.669,44.115,1.669,70.346v48.405H639.524z"/>
<path opacity="0.6" fill="#6BB2FF" d="M829.809,994.976l15.738,54.129c2.86,10.016,4.769,19.077,6.676,28.377h0.716
	c1.907-9.538,3.815-18.361,6.438-28.377l15.022-54.129h38.153l-43.399,116.604h-36.245l-42.444-116.604H829.809z"/>
<path opacity="0.6" fill="#6BB2FF" d="M929.243,942.277h36.245v66.768h0.477c3.815-5.246,8.584-9.3,14.308-12.161
	c5.484-2.861,12.161-4.531,18.837-4.531c23.131,0,40.776,15.977,40.776,51.268v67.96h-36.244v-64.144
	c0-15.262-5.246-25.754-18.839-25.754c-9.538,0-15.5,6.199-18.122,12.877c-0.954,2.146-1.192,5.246-1.192,7.869v69.151h-36.245
	V942.277z"/>
<path opacity="0.6" fill="#6BB2FF" d="M1106.652,950.862v160.718h-36.245V950.862H1106.652z"/>
<path opacity="0.4" fill="#D500DF" d="M23.488,8.584h98.005v29.807h-61.76v36.722h57.707v29.568H59.732v64.622H23.488V8.584z"/>
<path opacity="0.4" fill="#D500DF" d="M147.482,137.827c6.677,4.054,20.507,8.584,31.238,8.584c10.969,0,15.5-3.577,15.5-9.538
	c0-6.2-3.577-9.062-16.93-13.592c-24.323-8.107-33.622-21.223-33.384-35.053c0-21.938,18.599-38.392,47.452-38.392
	c13.592,0,25.515,3.339,32.668,6.915l-6.2,25.038c-5.246-2.861-15.5-6.677-25.276-6.677c-8.823,0-13.831,3.577-13.831,9.3
	s4.53,8.584,18.838,13.592c22.176,7.631,31.237,19.077,31.476,36.007c0,21.938-16.93,37.914-50.313,37.914
	c-15.261,0-28.854-3.577-37.676-8.346L147.482,137.827z"/>
<path opacity="0.4" fill="#D500DF" d="M364.235,0v134.489c0,13.115,0.477,26.945,0.954,34.814h-32.191l-1.431-16.93h-0.715
	c-7.154,12.876-21.461,19.553-36.484,19.553c-27.661,0-49.837-23.607-49.837-59.852c-0.239-39.345,24.322-62.237,52.221-62.237
	c14.546,0,25.515,5.246,30.761,13.115h0.477V0H364.235z M327.99,102.059c0-1.908,0-4.531-0.477-6.677
	c-2.146-9.538-10.015-17.646-21.222-17.646c-16.692,0-25.038,14.784-25.038,33.145c0,19.792,9.777,32.191,24.8,32.191
	c10.492,0,19.076-7.153,21.222-17.407c0.477-2.623,0.715-5.484,0.715-8.346V102.059z"/>
<path opacity="0.4" fill="#D500DF" d="M528.767,161.911c-11.208,3.815-32.43,9.061-53.652,9.061
	c-29.33,0-50.553-7.392-65.337-21.461c-14.545-14.069-22.653-35.053-22.653-58.66c0.238-53.414,39.106-83.937,91.805-83.937
	c20.745,0,36.722,4.054,44.591,7.631l-7.631,29.33c-8.822-4.053-19.553-6.915-37.199-6.915c-30.284,0-53.414,16.93-53.414,51.983
	c0,33.383,20.983,52.698,50.791,52.698c8.108,0,14.784-0.954,17.646-2.146v-33.86h-24.799V77.259h59.852V161.911z"/>
<path opacity="0.4" fill="#D500DF" d="M595.054,169.303L543.548,8.584h39.821l19.554,67.959
	c5.484,19.315,10.492,37.438,14.308,57.468h0.715c4.055-19.315,9.062-38.391,14.547-56.752l20.507-68.675h38.629l-54.129,160.719
	H595.054z"/>
<path opacity="0.4" fill="#D500DF" d="M741.94,101.82h0.477c2.623-5.008,5.485-9.777,8.346-14.069l23.608-35.053h43.637
	l-41.73,47.214l47.691,69.391h-44.591l-28.376-47.93l-9.062,11.446v36.484h-36.245V0h36.245V101.82z"/>
<path opacity="0.4" fill="#D500DF" d="M920.779,169.303l-14.546-29.092c-5.962-11.207-9.776-19.553-14.308-28.853h-0.477
	c-3.338,9.3-7.393,17.646-12.638,28.853l-13.115,29.092h-41.491l46.498-81.313L825.874,8.584h41.729l14.069,29.33
	c4.769,9.776,8.346,17.646,12.161,26.707h0.477c3.815-10.253,6.915-17.407,10.969-26.707l13.593-29.33h41.49l-45.307,78.452
	l47.691,82.267H920.779z"/>
<path opacity="0.4" fill="#D500DF" d="M1022.835,46.499h-0.478l-29.568,14.069l-5.961-27.185l41.253-19.076h29.807v154.996h-35.053
	V46.499z"/>
<path opacity="0.4" fill="#D500DF" d="M124.471,278.014v51.983h49.837v22.177h-49.837v52.699h-23.368v-52.699H51.266v-22.177h49.837
	v-51.983H124.471z"/>
<path opacity="0.4" fill="#D500DF" d="M308.795,387.942c0,22.415-4.531,40.775-17.884,52.46
	c-12.638,10.969-30.045,14.307-47.214,14.307c-15.499,0-31.476-3.099-41.968-8.822l7.154-27.661
	c7.392,4.292,20.03,8.822,33.86,8.822c17.169,0,30.284-9.061,30.284-30.761v-7.392h-0.477c-6.915,9.539-18.123,15.023-31.476,15.023
	c-28.853,0-49.36-23.368-49.36-56.752c0-37.676,24.084-61.521,52.937-61.521c15.977,0,25.992,6.915,31.953,16.691h0.477
	l1.192-14.068h31.476c-0.477,7.63-0.954,17.407-0.954,34.814V387.942z M272.55,335.72c0-2.146-0.239-4.53-0.716-6.676
	c-2.623-9.538-9.538-15.977-19.553-15.977c-13.354,0-23.845,11.922-23.845,33.145c0,17.407,8.584,30.999,23.607,30.999
	c9.538,0,16.931-6.2,19.315-14.545c0.954-2.861,1.192-6.677,1.192-9.777V335.72z"/>
<path opacity="0.4" fill="#D500DF" d="M339.315,244.154h98.004v29.807h-61.76v36.722h57.707v29.568H375.56v64.622h-36.245V244.154z"
	/>
<path opacity="0.4" fill="#D500DF" d="M582.537,400.58c-6.438,3.1-21.7,6.915-41.015,6.915c-55.561,0-84.175-34.814-84.175-80.597
	c0-54.845,39.106-85.129,87.751-85.129c18.838,0,33.146,3.577,39.583,7.154l-7.631,28.615c-7.153-3.1-17.407-5.962-30.522-5.962
	c-28.615,0-51.029,17.408-51.029,53.176c0,32.191,19.076,52.459,51.268,52.459c11.206,0,23.13-2.146,30.522-5.246L582.537,400.58z"
	/>
<path opacity="0.4" fill="#D500DF" d="M604.711,235.569h36.245v66.529h0.477c6.916-10.015,19.076-16.453,35.291-16.453
	c27.9,0,48.169,23.13,47.931,58.898c0,41.968-26.469,62.952-53.176,62.952c-13.592,0-26.946-5.007-35.054-18.838h-0.477
	l-1.431,16.215h-30.761c0.477-7.631,0.954-21.699,0.954-34.814V235.569z M640.956,355.274c0,2.385,0.238,4.531,0.715,6.438
	c2.385,9.538,10.731,17.169,21.223,17.169c15.5,0,25.038-11.923,25.038-32.907c0-18.123-8.108-32.43-25.038-32.43
	c-9.776,0-18.838,7.392-21.223,17.884c-0.477,2.146-0.715,4.292-0.715,6.677V355.274z"/>
<path opacity="0.4" fill="#D500DF" d="M835.53,401.772c-6.438,3.1-18.599,5.484-32.43,5.484c-37.676,0-61.76-23.13-61.76-59.614
	c0-34.099,23.369-61.998,66.767-61.998c9.538,0,20.03,1.669,27.662,4.53l-5.724,26.945c-4.292-1.907-10.73-3.577-20.269-3.577
	c-19.076,0-31.477,13.592-31.237,32.668c0,21.223,14.307,32.668,31.953,32.668c8.584,0,15.261-1.431,20.745-3.815L835.53,401.772z"
	/>
<path opacity="0.4" fill="#D500DF" d="M968.11,345.258c0,42.684-30.283,62.237-61.521,62.237c-34.1,0-60.33-22.415-60.33-60.09
	c0-37.914,24.801-61.999,62.476-61.999C944.266,285.406,968.11,309.967,968.11,345.258z M883.698,346.451
	c0,20.03,8.346,35.053,23.845,35.053c14.309,0,23.131-14.069,23.131-35.292c0-17.168-6.677-34.814-23.131-34.814
	C890.375,311.398,883.698,329.282,883.698,346.451z"/>
<path opacity="0.4" fill="#D500DF" d="M990.523,326.659c0-17.168-0.238-28.376-0.953-38.391h30.999l1.431,21.46h0.954
	c5.962-17.168,20.03-24.322,31.477-24.322c3.338,0,5.007,0.239,7.63,0.716v34.099c-2.861-0.477-5.723-0.954-9.776-0.954
	c-13.354,0-22.415,7.154-24.8,18.361c-0.477,2.385-0.715,5.246-0.715,8.107v59.137h-36.246V326.659z"/>
<path opacity="0.4" fill="#D500DF" d="M161.555,471.139v134.488c0,13.115,0.477,26.946,0.954,34.814h-32.191l-1.431-16.931h-0.715
	c-7.154,12.877-21.461,19.554-36.484,19.554c-27.661,0-49.837-23.606-49.837-59.853c-0.238-39.345,24.322-62.236,52.222-62.236
	c14.546,0,25.515,5.246,30.761,13.115h0.477v-62.952H161.555z M125.31,573.197c0-1.907,0-4.531-0.477-6.676
	c-2.146-9.539-10.015-17.646-21.222-17.646c-16.692,0-25.039,14.784-25.039,33.145c0,19.793,9.777,32.192,24.8,32.192
	c10.492,0,19.076-7.153,21.222-17.407c0.477-2.623,0.716-5.484,0.716-8.347V573.197z"/>
<path opacity="0.4" fill="#D500DF" d="M228.32,479.723v160.718h-36.245V479.723H228.32z"/>
<path opacity="0.4" fill="#D500DF" d="M260.032,479.723h98.005v29.807h-61.76v36.722h57.707v29.569h-57.707v64.621h-36.245V479.723z
	"/>
<path opacity="0.4" fill="#D500DF" d="M421.94,479.723v160.718h-36.245V479.723H421.94z"/>
<path opacity="0.4" fill="#D500DF" d="M549.272,612.305c0,10.968,0.477,21.698,1.907,28.137h-32.668l-2.146-11.685h-0.715
	c-7.63,9.3-19.553,14.308-33.384,14.308c-23.606,0-37.676-17.168-37.676-35.768c0-30.285,27.184-44.591,68.437-44.591v-1.431
	c0-6.438-3.338-15.261-21.222-15.261c-11.923,0-24.561,4.054-32.191,8.823l-6.677-23.369c8.107-4.53,24.084-10.492,45.306-10.492
	c38.869,0,51.03,22.892,51.03,50.553V612.305z M514.219,585.358c-19.077,0-33.86,4.531-33.86,18.361c0,9.299,6.2,13.83,14.307,13.83
	c8.823,0,16.454-5.961,18.838-13.354c0.477-1.907,0.715-4.054,0.715-6.2V585.358z"/>
<path opacity="0.4" fill="#D500DF" d="M579.317,481.869c11.685-1.908,28.853-3.338,48.405-3.338
	c23.847,0,40.537,3.577,51.983,12.638c9.776,7.631,15.022,19.076,15.022,33.86c0,20.269-14.545,34.338-28.375,39.345v0.715
	c11.207,4.531,17.406,15.022,21.461,29.807c5.008,18.361,9.776,39.345,12.876,45.545h-37.199
	c-2.384-4.769-6.438-17.646-10.968-37.438c-4.532-20.269-11.446-25.515-26.469-25.753h-10.73v63.19h-36.007V481.869z
	 M615.324,551.021h14.307c18.122,0,28.853-9.061,28.853-23.13c0-14.545-10.015-22.176-26.706-22.176
	c-8.823,0-13.831,0.477-16.453,1.192V551.021z"/>
<path opacity="0.4" fill="#D500DF" d="M721.907,561.036c0-14.546-0.477-26.707-0.954-37.199h31.477l1.67,16.214h0.715
	c4.77-7.63,16.453-18.837,36.007-18.837c23.846,0,41.729,15.977,41.729,50.314v68.913h-36.244v-64.621
	c0-15.023-5.246-25.277-18.361-25.277c-10.015,0-15.977,6.916-18.6,13.592c-0.953,2.385-1.192,5.723-1.192,9.061v67.244h-36.245
	V561.036z"/>
<path opacity="0.4" fill="#D500DF" d="M862.834,481.869c9.538-1.669,28.614-3.338,46.976-3.338c22.176,0,35.769,2.146,47.69,9.061
	c11.208,5.962,19.077,16.93,19.077,31.715c0,14.069-8.347,27.184-26.469,34.099v0.477c18.361,4.769,31.952,18.838,31.952,39.345
	c0,14.784-6.676,26.23-16.69,34.338c-11.685,9.3-31.238,14.546-63.191,14.546c-17.884,0-31.237-1.192-39.345-2.385V481.869z
	 M898.841,543.391h11.922c19.315,0,29.331-7.869,29.331-19.792c0-12.161-9.3-18.6-25.753-18.6c-8.108,0-12.639,0.477-15.5,0.954
	V543.391z M898.841,614.688c3.576,0.477,7.868,0.477,14.068,0.477c16.454,0,30.999-6.438,30.999-23.368
	c0-15.976-14.545-22.415-32.668-22.415h-12.399V614.688z"/>
<path opacity="0.4" fill="#D500DF" d="M1009.957,640.441v-89.897h-15.5v-26.707h15.5v-4.531c0-14.069,4.292-29.568,14.545-39.106
	c9.301-8.585,21.7-11.685,32.431-11.685c7.87,0,14.068,1.192,19.076,2.385l-1.43,27.899c-3.101-0.954-6.916-1.67-11.685-1.67
	c-11.924,0-16.931,9.3-16.931,20.746v5.961h23.369v26.707h-23.131v89.897H1009.957z"/>
<path opacity="0.4" fill="#D500DF" d="M16.81,796.605c0-14.546-0.477-26.707-0.953-37.199h31.476l1.669,16.216h0.715
	c4.769-7.631,16.454-18.839,36.007-18.839c23.846,0,41.73,15.977,41.73,50.314v68.913H91.208V811.39
	c0-15.022-5.246-25.275-18.361-25.275c-10.015,0-15.976,6.914-18.599,13.591c-0.954,2.386-1.192,5.724-1.192,9.062v67.244H16.81
	V796.605z"/>
<path opacity="0.4" fill="#D500DF" d="M177.051,759.406l9.539,47.931c2.146,11.922,4.531,24.799,6.438,38.152h0.716
	c2.146-13.354,5.723-26.469,8.346-37.915l12.399-48.168h28.614l11.685,46.499c3.338,13.354,6.438,26.23,8.584,39.584h0.477
	c1.669-13.115,4.054-26.469,6.916-39.822l9.776-46.261h35.53l-35.768,116.604h-33.861l-10.969-40.775
	c-3.1-11.446-5.246-21.938-7.631-36.484h-0.477c-2.146,14.546-4.531,25.516-7.392,36.246l-11.685,41.014H174.19l-34.099-116.604
	H177.051z"/>
<path opacity="0.4" fill="#D500DF" d="M372.104,876.011l-51.506-160.718h39.822l19.554,67.959
	c5.484,19.314,10.492,37.438,14.307,57.468h0.715c4.054-19.314,9.062-38.392,14.546-56.752l20.507-68.675h38.63l-54.129,160.718
	H372.104z"/>
<path opacity="0.4" fill="#D500DF" d="M570.494,876.011l-14.545-29.091c-5.962-11.208-9.777-19.554-14.308-28.854h-0.477
	c-3.338,9.3-7.392,17.646-12.638,28.854l-13.115,29.091H473.92l46.499-81.312l-44.829-79.405h41.729l14.069,29.329
	c4.769,9.777,8.346,17.646,12.161,26.708h0.477c3.815-10.254,6.915-17.408,10.969-26.708l13.591-29.329h41.492l-45.307,78.451
	l47.691,82.267H570.494z"/>
<path opacity="0.4" fill="#D500DF" d="M667.065,808.528h0.478c2.622-5.008,5.484-9.777,8.346-14.069l23.607-35.053h43.637
	l-41.729,47.215l47.691,69.39h-44.591l-28.377-47.93l-9.062,11.446v36.483H630.82V706.708h36.245V808.528z"/>
<path opacity="0.4" fill="#D500DF" d="M762.445,838.573c9.538,5.008,24.8,10.015,40.299,10.015c16.691,0,25.515-6.914,25.515-17.406
	c0-10.015-7.631-15.738-26.945-22.415c-26.707-9.538-44.353-24.322-44.353-47.69c0-27.423,23.13-48.168,60.807-48.168
	c18.36,0,31.476,3.576,41.014,8.106l-8.107,29.093c-6.199-3.101-17.884-7.632-33.384-7.632c-15.738,0-23.369,7.393-23.369,15.5
	c0,10.254,8.823,14.784,29.808,22.653c28.376,10.492,41.49,25.276,41.49,47.93c0,26.945-20.506,49.837-64.621,49.837
	c-18.36,0-36.483-5.007-45.545-10.015L762.445,838.573z"/>
<path opacity="0.4" fill="#D500DF" d="M888.585,844.535c6.678,4.053,20.508,8.584,31.238,8.584c10.969,0,15.499-3.577,15.499-9.538
	c0-6.199-3.576-9.062-16.931-13.592c-24.321-8.107-33.621-21.223-33.383-35.053c0-21.938,18.599-38.392,47.453-38.392
	c13.591,0,25.515,3.339,32.667,6.915l-6.199,25.038c-5.246-2.861-15.5-6.677-25.276-6.677c-8.823,0-13.83,3.577-13.83,9.3
	c0,5.724,4.53,8.584,18.838,13.592c22.176,7.631,31.237,19.076,31.476,36.007c0,21.938-16.931,37.914-50.313,37.914
	c-15.262,0-28.853-3.577-37.677-8.346L888.585,844.535z"/>
<path opacity="0.4" fill="#D500DF" d="M1019.256,759.406l15.738,54.129c2.861,10.016,4.77,19.077,6.677,28.377h0.716
	c1.907-9.538,3.815-18.361,6.438-28.377l15.023-54.129H1102l-43.398,116.604h-36.246l-42.443-116.604H1019.256z"/>
<path opacity="0.4" fill="#D500DF" d="M0.715,1111.58v-21.938l19.792-17.884c34.099-30.522,50.553-47.93,50.791-66.053
	c0-12.638-7.392-22.653-25.276-22.653c-13.354,0-25.038,6.677-33.145,12.639L2.623,969.938
	c11.446-8.822,29.807-15.977,50.552-15.977c35.291,0,54.368,20.507,54.368,48.405c0,26.23-18.6,46.977-41.252,67.007l-14.307,11.923
	v0.477h58.66v29.807H0.715z"/>
<path opacity="0.4" fill="#D500DF" d="M139.731,1074.143c9.539,5.008,24.8,10.015,40.299,10.015
	c16.692,0,25.515-6.914,25.515-17.406c0-10.015-7.63-15.738-26.945-22.415c-26.707-9.538-44.353-24.322-44.353-47.69
	c0-27.423,23.13-48.168,60.806-48.168c18.361,0,31.476,3.576,41.014,8.106l-8.107,29.093c-6.2-3.101-17.884-7.632-33.384-7.632
	c-15.738,0-23.369,7.393-23.369,15.5c0,10.254,8.823,14.784,29.807,22.653c28.376,10.492,41.491,25.276,41.491,47.93
	c0,26.945-20.507,49.838-64.622,49.838c-18.361,0-36.483-5.008-45.545-10.016L139.731,1074.143z"/>
<path opacity="0.4" fill="#D500DF" d="M404.892,1139.241c-22.892-6.677-41.968-13.831-63.667-22.653
	c-3.577-1.431-7.392-2.146-10.969-2.385c-36.483-2.384-70.344-29.092-70.344-81.789c0-48.407,30.522-84.414,78.69-84.414
	c48.883,0,75.829,37.199,75.829,81.313c0,36.483-16.93,62.236-37.914,71.774v0.954c12.161,3.577,25.992,6.678,38.629,9.062
	L404.892,1139.241z M376.039,1030.744c0-29.568-13.831-53.892-38.63-53.892s-39.106,24.323-39.106,54.607
	c0,30.521,14.546,53.891,39.106,53.891C361.97,1085.351,376.039,1062.221,376.039,1030.744z"/>
<path opacity="0.4" fill="#D500DF" d="M462.599,1111.58l-38.153-160.718h38.868l12.162,66.052
	c3.577,19.314,6.915,40.061,9.538,56.275h0.477c2.623-17.407,6.438-36.722,10.492-56.752l13.592-65.575h38.63l12.877,67.721
	c3.576,18.838,6.199,36.007,8.584,53.891h0.478c2.384-17.884,5.96-36.722,9.299-56.036l13.115-65.575h36.961l-41.491,160.718
	h-39.345l-13.592-69.151c-3.1-16.215-5.723-31.237-7.63-49.6h-0.477c-2.861,18.123-5.484,33.385-9.3,49.6l-15.261,69.151H462.599z"
	/>
<path opacity="0.4" fill="#D500DF" d="M684.834,950.862v160.718h-36.245V950.862H684.834z"/>
<path opacity="0.4" fill="#D500DF" d="M829.574,1051.967c0,42.683-30.283,62.236-61.521,62.236c-34.1,0-60.329-22.414-60.329-60.091
	c0-37.914,24.8-61.998,62.475-61.998C805.729,992.114,829.574,1016.676,829.574,1051.967z M745.162,1053.158
	c0,20.031,8.346,35.054,23.845,35.054c14.309,0,23.131-14.069,23.131-35.291c0-17.169-6.677-34.815-23.131-34.815
	C751.839,1018.105,745.162,1035.99,745.162,1053.158z"/>
<path opacity="0.4" fill="#D500DF" d="M967.874,1051.967c0,42.683-30.284,62.236-61.521,62.236c-34.1,0-60.33-22.414-60.33-60.091
	c0-37.914,24.801-61.998,62.476-61.998C944.029,992.114,967.874,1016.676,967.874,1051.967z M883.461,1053.158
	c0,20.031,8.346,35.054,23.846,35.054c14.308,0,23.131-14.069,23.131-35.291c0-17.169-6.678-34.815-23.131-34.815
	C890.139,1018.105,883.461,1035.99,883.461,1053.158z"/>
<path opacity="0.4" fill="#D500DF" d="M1101.405,1094.649c0,22.416-4.53,40.776-17.884,52.461
	c-12.639,10.969-30.045,14.307-47.215,14.307c-15.499,0-31.476-3.1-41.968-8.822l7.154-27.661c7.393,4.293,20.03,8.823,33.86,8.823
	c17.169,0,30.283-9.062,30.283-30.761v-7.393h-0.476c-6.916,9.538-18.123,15.022-31.477,15.022c-28.854,0-49.36-23.368-49.36-56.752
	c0-37.676,24.084-61.521,52.938-61.521c15.977,0,25.991,6.915,31.953,16.692h0.477l1.191-14.069h31.477
	c-0.477,7.631-0.954,17.408-0.954,34.814V1094.649z M1065.161,1042.429c0-2.146-0.239-4.531-0.716-6.677
	c-2.623-9.538-9.538-15.977-19.553-15.977c-13.354,0-23.847,11.923-23.847,33.146c0,17.406,8.585,30.998,23.608,30.998
	c9.537,0,16.93-6.199,19.314-14.545c0.953-2.861,1.192-6.677,1.192-9.777V1042.429z"/>
</svg>
