<?xml version="1.0" encoding="utf-8"?>
<!-- Generator: Adobe Illustrator 15.1.0, SVG Export Plug-In  -->
<!DOCTYPE svg PUBLIC "-//W3C//DTD SVG 1.1//EN" "http://www.w3.org/Graphics/SVG/1.1/DTD/svg11.dtd" [
	<!ENTITY ns_flows "http://ns.adobe.com/Flows/1.0/">
]>
<svg version="1.1"
	 xmlns="http://www.w3.org/2000/svg" xmlns:xlink="http://www.w3.org/1999/xlink" xmlns:a="http://ns.adobe.com/AdobeSVGViewerExtensions/3.0/"
	 x="0px" y="0px" width="970px" height="623px" viewBox="0 0 970 623" overflow="visible" enable-background="new 0 0 970 623"
	 xml:space="preserve">
<defs>
</defs>
<path fill="#8197AA" d="M922.645,0c19.065,28.176,35.065,58.567,47.511,90.723V0H922.645z M855.549,588.57l-41.897-40.156
	c79.299-72.929,129.101-177.467,129.101-293.427c0-96.916-34.812-185.833-92.517-254.987H747.259
	c74.94,59.847,123.097,151.863,123.097,254.987c0,96.558-42.194,183.407-109.064,243.204l-42.012-40.297
	c56.916-49.237,93.05-121.915,93.05-202.907c0-118.934-77.836-219.907-185.2-254.987H0v623.242h970.155v-203.97
	C945.029,484.131,905.52,541.891,855.549,588.57z M550.066,465.01c-15.915,3.95-35.854-14.679-55.299-47.959
	c-26.919-18.699-61.014-36.079-96.41-37.611c-55.145-2.376-100.585,7.396-118.547,11.993c-1.667,9.154-4.872,15.087-9.61,16.268
	l-4.021,0.999l26.784,98.897c1.617,5.963-2.087,11.375-8.231,12.051l-58.237,6.257c-6.144,0.66-13.414-3.332-16.155-8.872
	l-41.688-84.094l-15.748,3.923c-4.696,1.153-10.25-2.518-15.965-9.701l-23.256,5.765c-4.281,1.068-9.399-2.588-14.622-9.616
	c-27.242,0.87-52.613-18.166-59.728-46.792c-7.107-28.627,6.411-57.295,30.883-69.274c1.322-8.689,4.134-14.307,8.422-15.375
	l23.248-5.771c1.681-9.02,4.872-14.868,9.568-16.035l117.289-29.154c4.746-1.174,10.349,2.565,16.12,9.884
	c18.018-4.351,62.757-16.999,110.373-44.915c30.56-17.913,52.55-49.225,67.587-78.35c1.603-38.525,10.503-64.311,26.412-68.269
	c32.226-8.007,80.937,76.339,108.775,188.377C585.849,359.671,582.292,456.995,550.066,465.01z M669.24,409.922l-42.377-40.633
	c35.375-25.702,58.504-67.306,58.504-114.302c0-69.071-49.801-126.618-115.377-138.865l17.406-55.621
	c89.111,19.874,156.011,99.461,156.011,194.486C743.407,317.52,714.415,373.338,669.24,409.922z"/>
<path fill="#8197AA" d="M476.66,277.142c20.707,83.427,51.498,147.545,68.707,143.263c17.236-4.281,14.386-75.354-6.327-158.74
	c-20.729-83.406-51.498-147.545-68.721-143.27C453.104,122.669,455.933,193.763,476.66,277.142z"/>
</svg>
