<?xml version="1.0" encoding="utf-8"?>
<!-- Generator: Adobe Illustrator 15.1.0, SVG Export Plug-In  -->
<!DOCTYPE svg PUBLIC "-//W3C//DTD SVG 1.1//EN" "http://www.w3.org/Graphics/SVG/1.1/DTD/svg11.dtd" [
	<!ENTITY ns_flows "http://ns.adobe.com/Flows/1.0/">
]>
<svg version="1.1"
	 xmlns="http://www.w3.org/2000/svg" xmlns:xlink="http://www.w3.org/1999/xlink" xmlns:a="http://ns.adobe.com/AdobeSVGViewerExtensions/3.0/"
	 x="0px" y="0px" width="1200px" height="1200px" viewBox="0 0 1200 1200"
	 overflow="visible" enable-background="new 0 0 1200 1200" xml:space="preserve">
<defs>
</defs>
<rect x="0.001" fill="#E9F0E2" width="1199.999" height="1200"/>
<g>
	<defs>
		<rect id="SVGID_1_" width="1200" height="1200"/>
	</defs>
	<clipPath id="SVGID_2_">
		<use xlink:href="#SVGID_1_"  overflow="visible"/>
	</clipPath>
	<g clip-path="url(#SVGID_2_)">
		<path fill="#262D33" d="M1606.523,804.38c2.75,0,5-2.25,5-5V5c0-2.75-2.25-5-5-5H264.229c-2.75,0-5,2.25-5,5v794.38
			c0,2.75,2.25,5,5,5H1606.523z"/>
	</g>
	<rect x="308.719" clip-path="url(#SVGID_2_)" fill="#BECCDC" width="1253.314" height="638.855"/>
	<g clip-path="url(#SVGID_2_)">
		<path fill="#262D33" d="M357.099,921.794c0,2.75,2.25,5,5,5h439.965c2.75,0,5-2.25,5-5V52.617c0-2.75-2.25-5-5-5H362.099
			c-2.75,0-5,2.25-5,5V921.794z"/>
	</g>
	<rect x="379.426" y="101.932" clip-path="url(#SVGID_2_)" fill="#BECCDC" width="405.316" height="726.258"/>
	<circle clip-path="url(#SVGID_2_)" fill="#808B99" cx="935.375" cy="710.761" r="38.576"/>
	<circle clip-path="url(#SVGID_2_)" fill="#262D33" cx="935.376" cy="710.761" r="30.86"/>
	<g clip-path="url(#SVGID_2_)">
		<path fill="#808B99" d="M499.932,863.558c0,2.75-2.25,5-5,5h-63.143c-2.75,0-5-2.25-5-5v-6.165c0-2.75,2.25-5,5-5h63.143
			c2.75,0,5,2.25,5,5V863.558z"/>
	</g>
	<g clip-path="url(#SVGID_2_)">
		<path fill="#808B99" d="M610.995,863.558c0,2.75-2.25,5-5,5h-63.143c-2.75,0-5-2.25-5-5v-6.165c0-2.75,2.25-5,5-5h63.143
			c2.75,0,5,2.25,5,5V863.558z"/>
	</g>
	<g clip-path="url(#SVGID_2_)">
		<path fill="#808B99" d="M722.059,863.558c0,2.75-2.25,5-5,5h-63.143c-2.75,0-5-2.25-5-5v-6.165c0-2.75,2.25-5,5-5h63.143
			c2.75,0,5,2.25,5,5V863.558z"/>
	</g>
</g>
</svg>
