<?xml version="1.0" encoding="utf-8"?>
<!-- Generator: Adobe Illustrator 15.1.0, SVG Export Plug-In  -->
<!DOCTYPE svg PUBLIC "-//W3C//DTD SVG 1.1//EN" "http://www.w3.org/Graphics/SVG/1.1/DTD/svg11.dtd" [
	<!ENTITY ns_flows "http://ns.adobe.com/Flows/1.0/">
]>
<svg version="1.1"
	 xmlns="http://www.w3.org/2000/svg" xmlns:xlink="http://www.w3.org/1999/xlink" xmlns:a="http://ns.adobe.com/AdobeSVGViewerExtensions/3.0/"
	 x="0px" y="0px" width="1200px" height="1200px" viewBox="-221.962 -167.606 1200 1200"
	 overflow="visible" enable-background="new -221.962 -167.606 1200 1200" xml:space="preserve">
<defs>
</defs>
<path d="M145.643,363.101v-42.273c-29.813-1.334-58.737-9.789-75.646-19.134l13.35-52.062
	c18.689,10.235,44.942,19.579,73.866,19.579c25.809,0,43.163-10.234,43.163-27.588c0-16.909-14.239-27.588-47.613-38.713
	c-47.612-16.02-80.096-38.268-80.096-81.431c0-39.603,27.588-70.306,75.201-79.206V0h43.607v39.158
	c29.369,0.89,49.393,7.564,64.967,14.684l-13.349,50.282c-11.125-5.339-32.039-15.574-64.077-15.574
	c-28.924,0-38.268,12.904-38.268,25.364c0,14.239,15.574,24.029,53.842,37.823c52.952,18.689,73.866,43.163,73.866,83.655
	c0,39.603-27.589,73.421-78.761,81.876v45.833H145.643z"/>
<path d="M134.963,858.352v-71.195H65.547v-31.594h69.417v-28.479H65.547v-31.594h53.397L46.413,569.118h72.531l31.148,71.195
	c8.01,17.801,12.904,32.93,18.689,48.504h0.89c5.785-14.686,11.569-31.594,19.134-48.947l31.593-70.752h71.196l-76.091,126.373
	h52.953v31.594h-69.861v28.479h69.861v31.594h-69.861v71.195H134.963z"/>
<path d="M699.581,312.374c-15.129,8.454-40.938,16.909-69.416,16.909c-44.053,0-83.656-17.799-108.574-50.727
	c-12.015-15.129-20.914-34.263-24.919-57.847h-28.923v-31.593h24.473c0-2.225,0-4.895,0-7.564c0-4.45,0.445-8.9,0.445-13.35h-24.918
	v-31.593h29.812c5.34-24.029,16.465-44.498,30.703-60.517c24.92-28.924,60.518-45.833,102.79-45.833
	c26.698,0,50.728,6.23,66.747,13.35l-12.46,50.727c-11.569-4.895-30.259-10.679-49.837-10.679c-20.914,0-40.493,7.564-54.287,24.029
	c-6.675,7.12-11.125,17.354-14.24,28.923h110.8v31.593H560.303c-0.445,4.45-0.445,8.9-0.445,13.794c0,2.67,0,4.895,0,7.12h117.919
	v31.593H566.088c3.114,13.35,8.009,23.584,14.684,31.148c14.239,16.019,35.153,22.694,57.402,22.694
	c20.469,0,41.383-6.675,50.727-11.569L699.581,312.374z"/>
<path d="M488.217,858.352v-36.043c23.583-9.789,49.393-35.152,49.393-65.412c0-6.229,0-12.014-0.891-17.799h-43.607v-46.277h35.598
	c-2.225-11.125-3.56-23.584-3.56-36.043c0-55.621,40.493-92.555,100.564-92.555c24.028,0,42.272,5.34,52.062,10.68l-10.679,51.172
	c-8.9-4.895-21.359-8.01-37.824-8.01c-31.593,0-41.383,20.023-41.383,41.828c0,11.568,1.78,21.803,4.45,32.928h60.962v46.277
	h-55.178c0.445,10.68-0.89,21.359-4.004,31.594c-4.005,11.125-11.125,22.25-21.805,31.594v0.891h118.809v55.176H488.217z"/>
<polygon opacity="0.25" points="756.075,428.111 383.637,428.111 383.637,55.673 372.438,55.673 372.438,428.111 0,428.11 0,439.31 
	372.438,439.31 372.438,811.749 383.637,811.749 383.637,439.31 756.075,439.311 "/>
</svg>
