<?xml version="1.0" encoding="utf-8"?>
<!-- Generator: Adobe Illustrator 15.1.0, SVG Export Plug-In  -->
<!DOCTYPE svg PUBLIC "-//W3C//DTD SVG 1.1//EN" "http://www.w3.org/Graphics/SVG/1.1/DTD/svg11.dtd" [
	<!ENTITY ns_flows "http://ns.adobe.com/Flows/1.0/">
]>
<svg version="1.1"
	 xmlns="http://www.w3.org/2000/svg" xmlns:xlink="http://www.w3.org/1999/xlink" xmlns:a="http://ns.adobe.com/AdobeSVGViewerExtensions/3.0/"
	 x="0px" y="0px" width="800px" height="705px" viewBox="-11.438 -10.453 800 705"
	 overflow="visible" enable-background="new -11.438 -10.453 800 705" xml:space="preserve">
<defs>
</defs>
<g>
	<path fill="#E3E3E3" d="M769.171,422.816c0.521-1.565-0.335-3.272-1.9-3.793l-262.594-87.249c-1.565-0.52-3.272,0.335-3.793,1.901
		L473.3,416.703c-0.521,1.565,0.335,3.272,1.9,3.793l262.594,87.247c1.565,0.521,3.272-0.335,3.793-1.9L769.171,422.816z"/>
</g>
<path fill="#FFFFFF" d="M622.639,420.228c55.621-167.417-35-348.224-202.414-403.847C252.812-39.244,72.006,51.38,16.38,218.793
	c-55.624,167.416,35,348.221,202.411,403.842C386.207,678.261,567.013,587.636,622.639,420.228z"/>
<circle fill="#E3E3E3" cx="319.509" cy="319.509" r="255.759"/>
<circle fill="#AD7000" cx="319.508" cy="319.509" r="238.304"/>
<path fill="#7D5100" d="M539.361,392.557C579.702,271.136,513.976,140,392.554,99.656C271.138,59.315,140,125.042,99.657,246.462
	c-40.344,121.421,25.386,252.556,146.805,292.899C367.88,579.705,499.018,513.975,539.361,392.557z"/>
<path fill="#AD7000" d="M428.729,489.659c2.25-6.776-1.415-14.095-8.197-16.347c-6.775-2.253-14.098,1.416-16.347,8.191
	c-2.252,6.778,1.418,14.101,8.194,16.352C419.157,500.107,426.475,496.436,428.729,489.659z"/>
<circle fill="#AD7000" cx="439.587" cy="496.896" r="7.722"/>
<path fill="#AD7000" d="M440.465,512.625c0.708-2.129-0.443-4.432-2.573-5.138c-2.131-0.71-4.434,0.447-5.143,2.576
	c-0.706,2.132,0.445,4.432,2.581,5.142C437.458,515.913,439.758,514.759,440.465,512.625z"/>
<circle fill="#AD7000" cx="419.833" cy="514.898" r="7.721"/>
</svg>
