<?xml version="1.0" encoding="utf-8"?>
<!-- Generator: Adobe Illustrator 15.1.0, SVG Export Plug-In  -->
<!DOCTYPE svg PUBLIC "-//W3C//DTD SVG 1.1//EN" "http://www.w3.org/Graphics/SVG/1.1/DTD/svg11.dtd" [
	<!ENTITY ns_flows "http://ns.adobe.com/Flows/1.0/">
]>
<svg version="1.1"
	 xmlns="http://www.w3.org/2000/svg" xmlns:xlink="http://www.w3.org/1999/xlink" xmlns:a="http://ns.adobe.com/AdobeSVGViewerExtensions/3.0/"
	 x="0px" y="0px" width="1775px" height="800px" viewBox="-21.594 -17.118 1775 800"
	 overflow="visible" enable-background="new -21.594 -17.118 1775 800" xml:space="preserve">
<defs>
</defs>
<rect fill="#D9DEE3" width="1730.917" height="764.413"/>
<g>
	<path fill="#FFFFFF" d="M1541.18,212.106c0,1.65,1.35,3,3,3h144.355c1.65,0,3-1.35,3-3v-90.578c0-1.65-1.35-3-3-3H1544.18
		c-1.65,0-3,1.35-3,3V212.106z"/>
</g>
<g>
	<path fill="#FFFFFF" d="M1416.32,212.106c0,1.65,1.35,3,3,3h90.578c1.65,0,3-1.35,3-3v-90.578c0-1.65-1.35-3-3-3h-90.578
		c-1.65,0-3,1.35-3,3V212.106z"/>
</g>
<g>
	<path fill="#FFFFFF" d="M1291.207,212.106c0,1.65,1.35,3,3,3h90.579c1.65,0,3-1.35,3-3v-90.578c0-1.65-1.35-3-3-3h-90.579
		c-1.65,0-3,1.35-3,3V212.106z"/>
</g>
<g>
	<path fill="#FFFFFF" d="M1166.093,212.106c0,1.65,1.35,3,3,3h90.579c1.65,0,3-1.35,3-3v-90.578c0-1.65-1.35-3-3-3h-90.579
		c-1.65,0-3,1.35-3,3V212.106z"/>
</g>
<g>
	<path fill="#FFFFFF" d="M1040.98,212.106c0,1.65,1.35,3,3,3h90.579c1.65,0,3-1.35,3-3v-90.578c0-1.65-1.35-3-3-3h-90.579
		c-1.65,0-3,1.35-3,3V212.106z"/>
</g>
<g>
	<path fill="#FFFFFF" d="M915.868,212.106c0,1.65,1.35,3,3,3h90.578c1.65,0,3-1.35,3-3v-90.578c0-1.65-1.35-3-3-3h-90.578
		c-1.65,0-3,1.35-3,3V212.106z"/>
</g>
<g>
	<path fill="#FFFFFF" d="M790.755,212.106c0,1.65,1.35,3,3,3h90.578c1.65,0,3-1.35,3-3v-90.578c0-1.65-1.35-3-3-3h-90.578
		c-1.65,0-3,1.35-3,3V212.106z"/>
</g>
<g>
	<path fill="#FFFFFF" d="M665.643,212.106c0,1.65,1.35,3,3,3h90.579c1.65,0,3-1.35,3-3v-90.578c0-1.65-1.35-3-3-3h-90.579
		c-1.65,0-3,1.35-3,3V212.106z"/>
</g>
<g>
	<path fill="#FFFFFF" d="M540.529,212.106c0,1.65,1.35,3,3,3h90.579c1.65,0,3-1.35,3-3v-90.578c0-1.65-1.35-3-3-3h-90.579
		c-1.65,0-3,1.35-3,3V212.106z"/>
</g>
<g>
	<path fill="#FFFFFF" d="M415.417,212.106c0,1.65,1.35,3,3,3h90.579c1.65,0,3-1.35,3-3v-90.578c0-1.65-1.35-3-3-3h-90.579
		c-1.65,0-3,1.35-3,3V212.106z"/>
</g>
<g>
	<path fill="#FFFFFF" d="M290.303,212.106c0,1.65,1.35,3,3,3h90.579c1.65,0,3-1.35,3-3v-90.578c0-1.65-1.35-3-3-3h-90.579
		c-1.65,0-3,1.35-3,3V212.106z"/>
</g>
<g>
	<path fill="#FFFFFF" d="M165.19,212.106c0,1.65,1.35,3,3,3h90.579c1.65,0,3-1.35,3-3v-90.578c0-1.65-1.35-3-3-3H168.19
		c-1.65,0-3,1.35-3,3V212.106z"/>
</g>
<g>
	<path fill="#FFFFFF" d="M39.346,212.106c0,1.65,1.35,3,3,3h90.579c1.65,0,3-1.35,3-3v-90.578c0-1.65-1.35-3-3-3H42.346
		c-1.65,0-3,1.35-3,3V212.106z"/>
</g>
<g>
	<path fill="#FFFFFF" d="M1501.724,462.32c0,1.65,1.35,3,3,3h183.863c1.65,0,3-1.35,3-3v-90.579c0-1.65-1.35-3-3-3h-183.863
		c-1.65,0-3,1.35-3,3V462.32z"/>
</g>
<g>
	<path fill="#FFFFFF" d="M1379.057,462.32c0,1.65,1.35,3,3,3h90.579c1.65,0,3-1.35,3-3v-90.579c0-1.65-1.35-3-3-3h-90.579
		c-1.65,0-3,1.35-3,3V462.32z"/>
</g>
<g>
	<path fill="#FFFFFF" d="M1253.945,462.32c0,1.65,1.35,3,3,3h90.578c1.65,0,3-1.35,3-3v-90.579c0-1.65-1.35-3-3-3h-90.578
		c-1.65,0-3,1.35-3,3V462.32z"/>
</g>
<g>
	<path fill="#FFFFFF" d="M1128.832,462.32c0,1.65,1.35,3,3,3h90.578c1.65,0,3-1.35,3-3v-90.579c0-1.65-1.35-3-3-3h-90.578
		c-1.65,0-3,1.35-3,3V462.32z"/>
</g>
<g>
	<path fill="#FFFFFF" d="M1003.718,462.32c0,1.65,1.35,3,3,3h90.578c1.65,0,3-1.35,3-3v-90.579c0-1.65-1.35-3-3-3h-90.578
		c-1.65,0-3,1.35-3,3V462.32z"/>
</g>
<g>
	<path fill="#FFFFFF" d="M878.605,462.32c0,1.65,1.35,3,3,3h90.579c1.65,0,3-1.35,3-3v-90.579c0-1.65-1.35-3-3-3h-90.579
		c-1.65,0-3,1.35-3,3V462.32z"/>
</g>
<g>
	<path fill="#FFFFFF" d="M753.493,462.32c0,1.65,1.35,3,3,3h90.577c1.65,0,3-1.35,3-3v-90.579c0-1.65-1.35-3-3-3h-90.577
		c-1.65,0-3,1.35-3,3V462.32z"/>
</g>
<g>
	<path fill="#FFFFFF" d="M628.38,462.32c0,1.65,1.35,3,3,3h90.577c1.65,0,3-1.35,3-3v-90.579c0-1.65-1.35-3-3-3H631.38
		c-1.65,0-3,1.35-3,3V462.32z"/>
</g>
<g>
	<path fill="#FFFFFF" d="M503.267,462.32c0,1.65,1.35,3,3,3h90.578c1.65,0,3-1.35,3-3v-90.579c0-1.65-1.35-3-3-3h-90.578
		c-1.65,0-3,1.35-3,3V462.32z"/>
</g>
<g>
	<path fill="#FFFFFF" d="M378.154,462.32c0,1.65,1.35,3,3,3h90.579c1.65,0,3-1.35,3-3v-90.579c0-1.65-1.35-3-3-3h-90.579
		c-1.65,0-3,1.35-3,3V462.32z"/>
</g>
<g>
	<path fill="#FFFFFF" d="M253.041,462.32c0,1.65,1.35,3,3,3h90.578c1.65,0,3-1.35,3-3v-90.579c0-1.65-1.35-3-3-3h-90.578
		c-1.65,0-3,1.35-3,3V462.32z"/>
</g>
<g>
	<path fill="#FFFFFF" d="M39.346,462.32c0,1.65,1.35,3,3,3h178.07c1.65,0,3-1.35,3-3v-90.579c0-1.65-1.35-3-3-3H42.346
		c-1.65,0-3,1.35-3,3V462.32z"/>
</g>
<g>
	<path fill="#FFFFFF" d="M1439.17,593.152c0,1.65,1.35,3,3,3h246.417c1.65,0,3-1.35,3-3v-90.58c0-1.65-1.35-3-3-3H1442.17
		c-1.65,0-3,1.35-3,3V593.152z"/>
</g>
<g>
	<path fill="#FFFFFF" d="M1313.212,593.152c0,1.65,1.35,3,3,3h90.579c1.65,0,3-1.35,3-3v-90.58c0-1.65-1.35-3-3-3h-90.579
		c-1.65,0-3,1.35-3,3V593.152z"/>
</g>
<g>
	<path fill="#FFFFFF" d="M1188.099,593.152c0,1.65,1.35,3,3,3h90.579c1.65,0,3-1.35,3-3v-90.58c0-1.65-1.35-3-3-3h-90.579
		c-1.65,0-3,1.35-3,3V593.152z"/>
</g>
<g>
	<path fill="#FFFFFF" d="M1062.987,593.152c0,1.65,1.35,3,3,3h90.578c1.65,0,3-1.35,3-3v-90.58c0-1.65-1.35-3-3-3h-90.578
		c-1.65,0-3,1.35-3,3V593.152z"/>
</g>
<g>
	<path fill="#FFFFFF" d="M937.874,593.152c0,1.65,1.35,3,3,3h90.579c1.65,0,3-1.35,3-3v-90.58c0-1.65-1.35-3-3-3h-90.579
		c-1.65,0-3,1.35-3,3V593.152z"/>
</g>
<g>
	<path fill="#FFFFFF" d="M812.76,593.152c0,1.65,1.35,3,3,3h90.579c1.65,0,3-1.35,3-3v-90.58c0-1.65-1.35-3-3-3H815.76
		c-1.65,0-3,1.35-3,3V593.152z"/>
</g>
<g>
	<path fill="#FFFFFF" d="M687.647,593.152c0,1.65,1.35,3,3,3h90.579c1.65,0,3-1.35,3-3v-90.58c0-1.65-1.35-3-3-3h-90.579
		c-1.65,0-3,1.35-3,3V593.152z"/>
</g>
<g>
	<path fill="#FFFFFF" d="M562.534,593.152c0,1.65,1.35,3,3,3h90.579c1.65,0,3-1.35,3-3v-90.58c0-1.65-1.35-3-3-3h-90.579
		c-1.65,0-3,1.35-3,3V593.152z"/>
</g>
<g>
	<path fill="#FFFFFF" d="M437.421,593.152c0,1.65,1.35,3,3,3H531c1.65,0,3-1.35,3-3v-90.58c0-1.65-1.35-3-3-3h-90.579
		c-1.65,0-3,1.35-3,3V593.152z"/>
</g>
<g>
	<path fill="#FFFFFF" d="M312.308,593.152c0,1.65,1.35,3,3,3h90.579c1.65,0,3-1.35,3-3v-90.58c0-1.65-1.35-3-3-3h-90.579
		c-1.65,0-3,1.35-3,3V593.152z"/>
</g>
<g>
	<path fill="#FFFFFF" d="M39.346,593.152c0,1.65,1.35,3,3,3h238.428c1.65,0,3-1.35,3-3v-90.58c0-1.65-1.35-3-3-3H42.346
		c-1.65,0-3,1.35-3,3V593.152z"/>
</g>
<g>
	<path fill="#FFFFFF" d="M1224.32,718.26c0,1.65,1.35,3,3,3h90.579c1.65,0,3-1.35,3-3v-90.58c0-1.65-1.35-3-3-3h-90.579
		c-1.65,0-3,1.35-3,3V718.26z"/>
</g>
<g>
	<path fill="#FFFFFF" d="M1062.987,718.26c0,1.65,1.35,3,3,3h126.799c1.65,0,3-1.35,3-3v-90.58c0-1.65-1.35-3-3-3h-126.799
		c-1.65,0-3,1.35-3,3V718.26z"/>
</g>
<g>
	<path fill="#FFFFFF" d="M1595.008,718.26c0,1.65,1.35,3,3,3h90.579c1.65,0,3-1.35,3-3v-37.564c0-1.65-1.35-3-3-3h-90.579
		c-1.65,0-3,1.35-3,3V718.26z"/>
</g>
<g>
	<path fill="#FFFFFF" d="M1469.895,718.26c0,1.65,1.35,3,3,3h90.579c1.65,0,3-1.35,3-3v-37.564c0-1.65-1.35-3-3-3h-90.579
		c-1.65,0-3,1.35-3,3V718.26z"/>
</g>
<g>
	<path fill="#FFFFFF" d="M1469.895,666.465c0,1.65,1.35,3,3,3h90.579c1.65,0,3-1.35,3-3V627.68c0-1.65-1.35-3-3-3h-90.579
		c-1.65,0-3,1.35-3,3V666.465z"/>
</g>
<g>
	<path fill="#FFFFFF" d="M1344.783,718.26c0,1.65,1.35,3,3,3h90.578c1.65,0,3-1.35,3-3v-37.564c0-1.65-1.35-3-3-3h-90.578
		c-1.65,0-3,1.35-3,3V718.26z"/>
</g>
<g>
	<path fill="#FFFFFF" d="M437.421,718.26c0,1.65,1.35,3,3,3h591.032c1.65,0,3-1.35,3-3v-90.58c0-1.65-1.35-3-3-3H440.421
		c-1.65,0-3,1.35-3,3V718.26z"/>
</g>
<g>
	<path fill="#FFFFFF" d="M290.303,718.26c0,1.65,1.35,3,3,3h112.583c1.65,0,3-1.35,3-3v-90.58c0-1.65-1.35-3-3-3H293.303
		c-1.65,0-3,1.35-3,3V718.26z"/>
</g>
<g>
	<path fill="#FFFFFF" d="M164.459,718.26c0,1.65,1.35,3,3,3h90.579c1.65,0,3-1.35,3-3v-90.58c0-1.65-1.35-3-3-3h-90.579
		c-1.65,0-3,1.35-3,3V718.26z"/>
</g>
<g>
	<path fill="#FFFFFF" d="M39.346,718.26c0,1.65,1.35,3,3,3h90.579c1.65,0,3-1.35,3-3v-90.58c0-1.65-1.35-3-3-3H42.346
		c-1.65,0-3,1.35-3,3V718.26z"/>
</g>
<g>
	<path fill="#FFFFFF" d="M1595.008,335.025c0,1.65,1.35,3,3,3h90.579c1.65,0,3-1.35,3-3v-90.579c0-1.65-1.35-3-3-3h-90.579
		c-1.65,0-3,1.35-3,3V335.025z"/>
</g>
<g>
	<path fill="#FFFFFF" d="M1469.895,335.025c0,1.65,1.35,3,3,3h90.579c1.65,0,3-1.35,3-3v-90.579c0-1.65-1.35-3-3-3h-90.579
		c-1.65,0-3,1.35-3,3V335.025z"/>
</g>
<g>
	<path fill="#FFFFFF" d="M1344.783,335.025c0,1.65,1.35,3,3,3h90.578c1.65,0,3-1.35,3-3v-90.579c0-1.65-1.35-3-3-3h-90.578
		c-1.65,0-3,1.35-3,3V335.025z"/>
</g>
<g>
	<path fill="#FFFFFF" d="M1219.669,335.025c0,1.65,1.35,3,3,3h90.578c1.65,0,3-1.35,3-3v-90.579c0-1.65-1.35-3-3-3h-90.578
		c-1.65,0-3,1.35-3,3V335.025z"/>
</g>
<g>
	<path fill="#FFFFFF" d="M1094.556,335.025c0,1.65,1.35,3,3,3h90.579c1.65,0,3-1.35,3-3v-90.579c0-1.65-1.35-3-3-3h-90.579
		c-1.65,0-3,1.35-3,3V335.025z"/>
</g>
<g>
	<path fill="#FFFFFF" d="M969.443,335.025c0,1.65,1.35,3,3,3h90.579c1.65,0,3-1.35,3-3v-90.579c0-1.65-1.35-3-3-3h-90.579
		c-1.65,0-3,1.35-3,3V335.025z"/>
</g>
<g>
	<path fill="#FFFFFF" d="M844.33,335.025c0,1.65,1.35,3,3,3h90.579c1.65,0,3-1.35,3-3v-90.579c0-1.65-1.35-3-3-3H847.33
		c-1.65,0-3,1.35-3,3V335.025z"/>
</g>
<g>
	<path fill="#FFFFFF" d="M719.217,335.025c0,1.65,1.35,3,3,3h90.579c1.65,0,3-1.35,3-3v-90.579c0-1.65-1.35-3-3-3h-90.579
		c-1.65,0-3,1.35-3,3V335.025z"/>
</g>
<g>
	<path fill="#FFFFFF" d="M594.104,335.025c0,1.65,1.35,3,3,3h90.579c1.65,0,3-1.35,3-3v-90.579c0-1.65-1.35-3-3-3h-90.579
		c-1.65,0-3,1.35-3,3V335.025z"/>
</g>
<g>
	<path fill="#FFFFFF" d="M468.991,335.025c0,1.65,1.35,3,3,3h90.579c1.65,0,3-1.35,3-3v-90.579c0-1.65-1.35-3-3-3h-90.579
		c-1.65,0-3,1.35-3,3V335.025z"/>
</g>
<g>
	<path fill="#FFFFFF" d="M343.877,335.025c0,1.65,1.35,3,3,3h90.579c1.65,0,3-1.35,3-3v-90.579c0-1.65-1.35-3-3-3h-90.579
		c-1.65,0-3,1.35-3,3V335.025z"/>
</g>
<g>
	<path fill="#FFFFFF" d="M218.765,335.025c0,1.65,1.35,3,3,3h90.579c1.65,0,3-1.35,3-3v-90.579c0-1.65-1.35-3-3-3h-90.579
		c-1.65,0-3,1.35-3,3V335.025z"/>
</g>
<g>
	<path fill="#FFFFFF" d="M39.346,335.025c0,1.65,1.35,3,3,3H187.18c1.65,0,3-1.35,3-3v-90.579c0-1.65-1.35-3-3-3H42.346
		c-1.65,0-3,1.35-3,3V335.025z"/>
</g>
<g>
	<path fill="#FFFFFF" d="M1591.677,84.799c0,1.65,1.35,3,3,3h93.858c1.65,0,3-1.35,3-3V46.899c0-1.65-1.35-3-3-3h-93.858
		c-1.65,0-3,1.35-3,3V84.799z"/>
</g>
<g>
	<path fill="#FFFFFF" d="M1462.318,84.799c0,1.65,1.35,3,3,3h93.857c1.65,0,3-1.35,3-3V46.899c0-1.65-1.35-3-3-3h-93.857
		c-1.65,0-3,1.35-3,3V84.799z"/>
</g>
<g>
	<path fill="#FFFFFF" d="M1332.957,84.799c0,1.65,1.35,3,3,3h93.858c1.65,0,3-1.35,3-3V46.899c0-1.65-1.35-3-3-3h-93.858
		c-1.65,0-3,1.35-3,3V84.799z"/>
</g>
<g>
	<path fill="#FFFFFF" d="M1203.597,84.799c0,1.65,1.35,3,3,3h93.855c1.65,0,3-1.35,3-3V46.899c0-1.65-1.35-3-3-3h-93.855
		c-1.65,0-3,1.35-3,3V84.799z"/>
</g>
<g>
	<path fill="#FFFFFF" d="M1074.236,84.799c0,1.65,1.35,3,3,3h93.857c1.65,0,3-1.35,3-3V46.899c0-1.65-1.35-3-3-3h-93.857
		c-1.65,0-3,1.35-3,3V84.799z"/>
</g>
<g>
	<path fill="#FFFFFF" d="M944.875,84.799c0,1.65,1.35,3,3,3h93.858c1.65,0,3-1.35,3-3V46.899c0-1.65-1.35-3-3-3h-93.858
		c-1.65,0-3,1.35-3,3V84.799z"/>
</g>
<g>
	<path fill="#FFFFFF" d="M815.512,84.799c0,1.65,1.35,3,3,3h93.858c1.65,0,3-1.35,3-3V46.899c0-1.65-1.35-3-3-3h-93.858
		c-1.65,0-3,1.35-3,3V84.799z"/>
</g>
<g>
	<path fill="#FFFFFF" d="M686.152,84.799c0,1.65,1.35,3,3,3h93.856c1.65,0,3-1.35,3-3V46.899c0-1.65-1.35-3-3-3h-93.856
		c-1.65,0-3,1.35-3,3V84.799z"/>
</g>
<g>
	<path fill="#FFFFFF" d="M556.791,84.799c0,1.65,1.35,3,3,3h93.858c1.65,0,3-1.35,3-3V46.899c0-1.65-1.35-3-3-3h-93.858
		c-1.65,0-3,1.35-3,3V84.799z"/>
</g>
<g>
	<path fill="#FFFFFF" d="M427.43,84.799c0,1.65,1.35,3,3,3h93.856c1.65,0,3-1.35,3-3V46.899c0-1.65-1.35-3-3-3H430.43
		c-1.65,0-3,1.35-3,3V84.799z"/>
</g>
<g>
	<path fill="#FFFFFF" d="M298.069,84.799c0,1.65,1.35,3,3,3h93.856c1.65,0,3-1.35,3-3V46.899c0-1.65-1.35-3-3-3h-93.856
		c-1.65,0-3,1.35-3,3V84.799z"/>
</g>
<g>
	<path fill="#FFFFFF" d="M168.707,84.799c0,1.65,1.35,3,3,3h93.858c1.65,0,3-1.35,3-3V46.899c0-1.65-1.35-3-3-3h-93.858
		c-1.65,0-3,1.35-3,3V84.799z"/>
</g>
<g>
	<path fill="#FFFFFF" d="M39.346,84.799c0,1.65,1.35,3,3,3h93.858c1.65,0,3-1.35,3-3V46.899c0-1.65-1.35-3-3-3H42.346
		c-1.65,0-3,1.35-3,3V84.799z"/>
</g>
</svg>
