<?xml version="1.0" encoding="utf-8"?>
<!-- Generator: Adobe Illustrator 15.1.0, SVG Export Plug-In  -->
<!DOCTYPE svg PUBLIC "-//W3C//DTD SVG 1.1//EN" "http://www.w3.org/Graphics/SVG/1.1/DTD/svg11.dtd" [
	<!ENTITY ns_flows "http://ns.adobe.com/Flows/1.0/">
]>
<svg version="1.1"
	 xmlns="http://www.w3.org/2000/svg" xmlns:xlink="http://www.w3.org/1999/xlink" xmlns:a="http://ns.adobe.com/AdobeSVGViewerExtensions/3.0/"
	 x="0px" y="0px" width="800px" height="800px" viewBox="-154.533 -143.757 800 800"
	 overflow="visible" enable-background="new -154.533 -143.757 800 800" xml:space="preserve">
<defs>
</defs>
<path d="M26.233,73.144V26.182H9.224v-6.284c2.217,0,4.375-0.168,6.472-0.508c2.092-0.339,3.988-0.971,5.685-1.896
	c1.696-0.925,3.127-2.187,4.299-3.79c1.169-1.602,1.972-3.636,2.401-6.102h6.011v65.542H26.233z"/>
<path d="M262.404,21.821c0.652,0,1.237,0.258,1.755,0.773c0.619,0.688,0.737,1.444,0.357,2.269l-27.855,59.685
	c-0.446,0.861-1.168,1.289-2.167,1.289c-0.137,0-0.377-0.033-0.721-0.103c-0.588-0.171-1.025-0.498-1.315-0.979
	c-0.292-0.481-0.368-0.998-0.229-1.548l10.16-41.682l-20.945,5.212c-0.137,0.035-0.344,0.051-0.62,0.051
	c-0.617,0-1.15-0.189-1.597-0.569c-0.619-0.516-0.843-1.186-0.672-2.01l10.371-42.56c0.135-0.481,0.412-0.878,0.824-1.186
	C230.161,0.155,230.643,0,231.194,0h16.919c0.652,0,1.205,0.216,1.652,0.646c0.446,0.43,0.671,0.938,0.671,1.522
	c0,0.275-0.088,0.585-0.259,0.927l-8.819,23.885l20.425-5.055C262.06,21.856,262.266,21.821,262.404,21.821L262.404,21.821z"/>
<path d="M495.019,68.645c1.925,3.061,2.297,5.681,1.106,7.866c-1.187,2.183-3.602,3.275-7.246,3.275h-59.428
	c-3.643,0-6.062-1.092-7.246-3.275c-1.188-2.185-0.818-4.805,1.107-7.866l25.951-40.909V7.153h-3.305
	c-0.893,0-1.666-0.326-2.319-0.979c-0.655-0.652-0.983-1.428-0.983-2.323c0-0.893,0.328-1.668,0.983-2.321
	c0.653-0.653,1.427-0.98,2.319-0.98h26.412c0.895,0,1.667,0.327,2.322,0.98c0.652,0.652,0.982,1.428,0.982,2.321
	c0,0.895-0.33,1.67-0.982,2.323c-0.655,0.653-1.428,0.979-2.322,0.979h-3.301v20.583L495.019,68.645z M454.832,31.244l-14.03,22.13
	h36.729l-14.03-22.13l-1.03-1.599v-1.909V7.153h-6.603v20.583v1.909L454.832,31.244z"/>
<path d="M52.823,239.735c0,5.333-1.769,9.939-5.313,13.825c-1.545,1.686-2.827,3.182-3.841,4.488
	c-1.015,1.307-2.039,2.949-3.071,4.928c-1.03,1.977-1.614,3.824-1.752,5.546c1.616,0.96,2.425,2.372,2.425,4.229
	c0,1.272-0.43,2.374-1.291,3.302c0.861,0.927,1.291,2.028,1.291,3.302c0,1.788-0.773,3.18-2.322,4.178
	c0.447,0.791,0.67,1.599,0.67,2.424c0,1.582-0.543,2.803-1.624,3.662c-1.084,0.861-2.415,1.289-3.997,1.289
	c-0.688,1.514-1.723,2.718-3.097,3.611c-1.374,0.894-2.872,1.342-4.486,1.342c-1.62,0-3.114-0.448-4.489-1.342
	c-1.375-0.894-2.408-2.097-3.095-3.611c-1.582,0-2.915-0.428-4-1.289c-1.082-0.859-1.623-2.08-1.623-3.662
	c0-0.825,0.223-1.633,0.67-2.424c-1.548-0.999-2.322-2.391-2.322-4.178c0-1.273,0.432-2.375,1.289-3.302
	c-0.856-0.928-1.289-2.03-1.289-3.302c0-1.857,0.808-3.269,2.426-4.229c-0.136-1.722-0.722-3.569-1.755-5.546
	c-1.032-1.979-2.054-3.621-3.068-4.928c-1.016-1.306-2.296-2.802-3.843-4.488C1.771,249.674,0,245.068,0,239.735
	c0-3.404,0.766-6.578,2.296-9.517c1.529-2.942,3.542-5.382,6.035-7.327c2.495-1.942,5.315-3.472,8.463-4.591
	c3.143-1.117,6.35-1.675,9.62-1.675c3.267,0,6.472,0.559,9.62,1.675c3.146,1.119,5.967,2.649,8.458,4.591
	c2.496,1.945,4.506,4.385,6.037,7.327C52.059,233.158,52.823,236.331,52.823,239.735z M42.714,249.021
	c2.34-2.717,3.508-5.812,3.508-9.286c0-2.477-0.593-4.78-1.779-6.913c-1.187-2.132-2.734-3.877-4.644-5.234
	c-1.908-1.359-4.023-2.425-6.345-3.199c-2.321-0.774-4.669-1.161-7.04-1.161c-2.374,0-4.722,0.387-7.042,1.161
	c-2.321,0.773-4.437,1.84-6.345,3.199c-1.909,1.357-3.456,3.103-4.643,5.234c-1.186,2.133-1.781,4.437-1.781,6.913
	c0,3.474,1.169,6.568,3.507,9.286c0.344,0.379,0.871,0.947,1.575,1.703c0.705,0.757,1.228,1.323,1.574,1.702
	c4.402,5.262,6.826,10.386,7.274,15.373h11.761c0.446-4.987,2.871-10.11,7.273-15.373c0.344-0.379,0.866-0.945,1.573-1.702
	C41.846,249.968,42.37,249.4,42.714,249.021L42.714,249.021z M37.968,239.735c0,0.447-0.161,0.834-0.489,1.161
	c-0.327,0.327-0.713,0.489-1.161,0.489c-0.445,0-0.832-0.163-1.16-0.489c-0.328-0.327-0.491-0.714-0.491-1.161
	c0-1.581-0.925-2.803-2.786-3.663c-1.857-0.857-3.681-1.289-5.466-1.289c-0.449,0-0.835-0.164-1.161-0.491
	c-0.328-0.327-0.489-0.714-0.489-1.161c0-0.446,0.162-0.833,0.489-1.161c0.326-0.325,0.712-0.488,1.161-0.488
	c1.717,0,3.431,0.274,5.134,0.826c1.7,0.549,3.195,1.476,4.486,2.783C37.323,236.4,37.968,237.947,37.968,239.735z"/>
<path d="M278.942,284.719c1.928,3.062,2.295,5.681,1.11,7.867c-1.188,2.183-3.604,3.275-7.249,3.275h-59.427
	c-3.644,0-6.059-1.092-7.248-3.275c-1.184-2.186-0.817-4.805,1.11-7.867l25.947-40.907v-20.583h-3.299
	c-0.898,0-1.67-0.327-2.324-0.98c-0.654-0.652-0.98-1.427-0.98-2.322c0-0.893,0.326-1.668,0.98-2.321
	c0.654-0.652,1.426-0.979,2.324-0.979h26.406c0.896,0,1.67,0.327,2.324,0.979c0.654,0.653,0.982,1.429,0.982,2.321
	c0,0.895-0.328,1.67-0.982,2.322c-0.654,0.654-1.428,0.98-2.324,0.98h-3.296v20.583L278.942,284.719z M238.759,247.319
	l-14.032,22.129h36.731l-14.031-22.129l-1.032-1.599v-1.908v-20.583h-6.606v20.583v1.908L238.759,247.319z"/>
<path d="M437.834,237.635c0.863-2.834,2.205-5.285,4.023-7.351c1.815-2.063,4.078-3.68,6.793-4.852
	c2.712-1.169,5.792-1.758,9.245-1.758c2.831,0,5.5,0.417,7.997,1.249c2.495,0.832,4.665,2.035,6.517,3.606
	c1.85,1.571,3.312,3.527,4.389,5.87c1.081,2.342,1.618,5.054,1.618,8.135c0,2.896-0.446,5.453-1.339,7.672
	c-0.895,2.22-2.081,4.206-3.561,5.962c-1.477,1.757-3.175,3.344-5.083,4.761c-1.913,1.418-3.884,2.774-5.916,4.068
	c-2.033,1.235-4.068,2.449-6.102,3.652c-2.035,1.201-3.896,2.481-5.594,3.836c-1.695,1.357-3.143,2.819-4.343,4.392
	c-1.201,1.571-1.987,3.374-2.358,5.408h33.649v6.933h-42.802c0.308-3.883,1.002-7.193,2.08-9.938
	c1.076-2.741,2.449-5.13,4.112-7.163c1.665-2.035,3.546-3.821,5.641-5.362c2.095-1.54,4.282-2.99,6.564-4.346
	c2.772-1.726,5.207-3.312,7.302-4.761c2.095-1.448,3.836-2.912,5.225-4.391c1.387-1.479,2.432-3.082,3.142-4.807
	c0.706-1.724,1.063-3.729,1.063-6.008c0-1.788-0.338-3.406-1.016-4.854c-0.681-1.448-1.589-2.695-2.729-3.743
	c-1.142-1.048-2.483-1.85-4.021-2.404c-1.542-0.556-3.176-0.833-4.898-0.833c-2.281,0-4.238,0.479-5.872,1.433
	c-1.636,0.956-2.976,2.204-4.02,3.744c-1.05,1.541-1.802,3.282-2.264,5.224c-0.463,1.94-0.665,3.896-0.601,5.869h-7.859
	C436.633,243.552,436.97,240.47,437.834,237.635z"/>
<path d="M21.417,467.859c0.307,0,0.617,0,0.923,0h1.664c1.666,0,3.251-0.231,4.763-0.693c1.509-0.463,2.834-1.14,3.975-2.034
	c1.14-0.893,2.051-2.019,2.729-3.374c0.674-1.354,1.017-2.896,1.017-4.623c0-3.512-1.111-6.147-3.328-7.904
	c-2.218-1.756-4.993-2.634-8.319-2.634c-2.097,0-3.93,0.387-5.501,1.155c-1.572,0.773-2.865,1.804-3.882,3.096
	c-1.018,1.297-1.773,2.807-2.264,4.532c-0.496,1.726-0.742,3.544-0.742,5.454H4.593c0.124-3.144,0.632-6.009,1.525-8.597
	c0.894-2.589,2.173-4.807,3.836-6.656c1.663-1.849,3.745-3.298,6.239-4.346c2.496-1.047,5.377-1.571,8.645-1.571
	c2.833,0,5.469,0.356,7.902,1.063c2.436,0.709,4.543,1.773,6.332,3.189c1.786,1.418,3.188,3.236,4.206,5.456
	c1.018,2.218,1.526,4.838,1.526,7.858c0,2.956-0.863,5.576-2.588,7.856c-1.727,2.28-3.884,4.006-6.471,5.177v0.183
	c4.003,0.866,6.977,2.744,8.92,5.641c1.941,2.898,2.912,6.318,2.912,10.26c0,3.269-0.602,6.148-1.803,8.645
	c-1.201,2.495-2.819,4.574-4.854,6.239c-2.032,1.666-4.422,2.912-7.165,3.744c-2.741,0.833-5.654,1.249-8.734,1.249
	c-3.327,0-6.35-0.463-9.06-1.388c-2.711-0.922-5.022-2.295-6.935-4.113c-1.908-1.817-3.371-4.051-4.39-6.702
	c-1.014-2.649-1.493-5.668-1.433-9.061h7.859c0.123,4.254,1.355,7.72,3.697,10.4c2.342,2.68,5.763,4.021,10.261,4.021
	c1.911,0,3.729-0.291,5.455-0.876c1.725-0.585,3.234-1.419,4.529-2.498s2.325-2.403,3.098-3.974
	c0.769-1.572,1.153-3.342,1.153-5.316c0-2.034-0.368-3.836-1.108-5.408c-0.738-1.571-1.725-2.895-2.958-3.974
	c-1.235-1.078-2.696-1.88-4.392-2.404c-1.695-0.522-3.527-0.785-5.499-0.785c-1.665,0-3.237,0.093-4.715,0.278v-6.658
	C20.892,467.829,21.169,467.859,21.417,467.859z"/>
<path d="M264.72,465.558c2.788,4.369,4.18,9.098,4.18,14.188c0,7.291-2.581,13.515-7.737,18.675
	c-5.161,5.157-11.386,7.736-18.674,7.736c-7.294,0-13.518-2.58-18.675-7.736c-5.161-5.161-7.738-11.385-7.738-18.675
	c0-4.987,1.393-9.716,4.178-14.188c0.208-0.308,1.281-1.863,3.226-4.667c1.944-2.801,3.677-5.398,5.209-7.789
	c1.53-2.391,3.241-5.452,5.133-9.184c1.89-3.73,3.318-7.195,4.282-10.394c0.308-1.032,0.895-1.839,1.754-2.423
	c0.857-0.585,1.736-0.877,2.632-0.877c0.895,0,1.776,0.292,2.655,0.877c0.879,0.584,1.452,1.392,1.73,2.423
	c0.963,3.199,2.389,6.664,4.281,10.394c1.892,3.732,3.6,6.793,5.135,9.184c1.524,2.39,3.262,4.987,5.206,7.789
	C263.438,463.695,264.517,465.25,264.72,465.558L264.72,465.558z M242.488,486.348c0-1.237-0.346-2.424-1.034-3.558
	c-0.034-0.035-0.302-0.42-0.797-1.162c-0.502-0.739-0.939-1.393-1.316-1.959c-0.379-0.569-0.808-1.323-1.289-2.271
	c-0.481-0.945-0.844-1.812-1.083-2.605c-0.14-0.549-0.501-0.824-1.085-0.824c-0.586,0-0.947,0.275-1.083,0.824
	c-0.242,0.793-0.601,1.661-1.081,2.605c-0.483,0.948-0.914,1.702-1.292,2.271c-0.38,0.567-0.817,1.22-1.315,1.959
	c-0.497,0.741-0.766,1.127-0.8,1.162c-0.688,1.134-1.032,2.321-1.032,3.558c0,1.824,0.646,3.38,1.935,4.67
	c1.29,1.289,2.848,1.932,4.669,1.932c1.823,0,3.381-0.644,4.669-1.932C241.843,489.728,242.488,488.172,242.488,486.348z"/>
<path d="M484.974,455.81c0,5.331-1.773,9.939-5.312,13.827c-1.549,1.684-2.829,3.179-3.844,4.488
	c-1.016,1.307-2.036,2.948-3.067,4.925c-1.035,1.978-1.617,3.826-1.755,5.545c1.616,0.964,2.425,2.373,2.425,4.23
	c0,1.272-0.434,2.373-1.291,3.3c0.857,0.929,1.291,2.03,1.291,3.303c0,1.788-0.775,3.18-2.324,4.179
	c0.445,0.791,0.673,1.599,0.673,2.424c0,1.582-0.541,2.804-1.623,3.662c-1.086,0.86-2.419,1.29-4.001,1.29
	c-0.687,1.513-1.719,2.717-3.095,3.61c-1.377,0.895-2.871,1.342-4.488,1.342c-1.618,0-3.111-0.448-4.487-1.342
	c-1.378-0.894-2.409-2.097-3.095-3.61c-1.583,0-2.915-0.43-3.998-1.29c-1.085-0.858-1.623-2.081-1.623-3.662
	c0-0.825,0.223-1.633,0.668-2.424c-1.547-0.999-2.319-2.391-2.319-4.179c0-1.273,0.428-2.375,1.285-3.303
	c-0.857-0.927-1.285-2.028-1.285-3.3c0-1.857,0.805-3.267,2.424-4.23c-0.139-1.719-0.724-3.568-1.755-5.545
	c-1.031-1.977-2.056-3.618-3.071-4.925c-1.012-1.309-2.296-2.804-3.843-4.488c-3.539-3.887-5.314-8.496-5.314-13.827
	c0-3.405,0.768-6.577,2.297-9.519c1.53-2.939,3.543-5.381,6.035-7.324c2.496-1.94,5.317-3.473,8.46-4.591
	c3.151-1.117,6.353-1.676,9.622-1.676s6.475,0.56,9.619,1.676c3.149,1.118,5.97,2.65,8.461,4.591
	c2.495,1.943,4.507,4.385,6.037,7.324C484.207,449.232,484.974,452.405,484.974,455.81z M474.861,465.096
	c2.34-2.717,3.511-5.812,3.511-9.287c0-2.477-0.597-4.78-1.782-6.913c-1.185-2.132-2.731-3.876-4.641-5.234
	c-1.91-1.359-4.023-2.426-6.345-3.2c-2.321-0.773-4.67-1.16-7.043-1.16c-2.372,0-4.719,0.387-7.042,1.16
	c-2.32,0.774-4.436,1.841-6.347,3.2c-1.906,1.358-3.454,3.103-4.643,5.234c-1.187,2.133-1.779,4.436-1.779,6.913
	c0,3.474,1.171,6.57,3.51,9.287c0.344,0.378,0.865,0.945,1.571,1.702c0.709,0.756,1.232,1.323,1.575,1.701
	c4.401,5.262,6.826,10.386,7.274,15.375h11.76c0.448-4.988,2.873-10.113,7.273-15.375c0.346-0.378,0.871-0.945,1.575-1.701
	C473.994,466.041,474.518,465.475,474.861,465.096L474.861,465.096z M470.117,455.81c0,0.447-0.165,0.835-0.49,1.161
	c-0.327,0.328-0.715,0.49-1.162,0.49c-0.445,0-0.833-0.162-1.158-0.49c-0.326-0.326-0.489-0.714-0.489-1.161
	c0-1.582-0.932-2.802-2.789-3.662c-1.854-0.859-3.68-1.29-5.467-1.29c-0.446,0-0.832-0.163-1.159-0.49
	c-0.328-0.327-0.492-0.715-0.492-1.161c0-0.447,0.164-0.833,0.492-1.16c0.327-0.326,0.713-0.491,1.159-0.491
	c1.718,0,3.432,0.276,5.134,0.825c1.702,0.55,3.198,1.479,4.485,2.787C469.473,452.475,470.117,454.022,470.117,455.81z"/>
</svg>
